<svg xmlns="http://www.w3.org/2000/svg" className="w-11 h-11 text-indigo-800 dark:text-amber-400" fill="currentColor" style="display: none;">
<symbol id="target" viewBox="0 0 250 250">
<g>
	<path d="M236.261,68.195c-0.63-1.207-1.881-1.956-3.271-1.956c-0.592,0-1.159,0.136-1.685,0.405
		c-0.881,0.45-1.532,1.221-1.831,2.172c-0.297,0.94-0.209,1.931,0.251,2.798c8.41,16.355,12.854,34.816,12.854,53.386
		c0,64.849-52.759,117.608-117.608,117.608C60.121,242.608,7.362,189.849,7.362,125S60.121,7.392,124.97,7.392
		c18.572,0,37.032,4.445,53.385,12.853c0.527,0.269,1.091,0.405,1.679,0.405c1.381,0,2.644-0.763,3.296-1.992
		c0.941-1.774,0.227-4.002-1.584-4.964c-17.377-8.938-37.01-13.663-56.777-13.663C56.061,0.032,0,56.092,0,125
		c0,68.907,56.061,124.968,124.968,124.968c68.908,0,124.969-56.061,124.969-124.968c0-19.766-4.725-39.398-13.663-56.776
		C236.27,68.214,236.265,68.205,236.261,68.195z"/>
	<path d="M168.06,61.935c1.215,0,2.337-0.586,3.021-1.574c0.014-0.045,0.033-0.087,0.059-0.127c0.534-0.818,0.717-1.798,0.515-2.759
		c-0.202-0.961-0.763-1.784-1.58-2.316c-13.449-8.703-29.033-13.303-45.065-13.303c-45.846,0-83.145,37.299-83.145,83.145
		s37.299,83.145,83.145,83.145c45.847,0,83.145-37.299,83.145-83.145c0-16.072-4.6-31.655-13.302-45.063
		c-0.685-1.052-1.839-1.68-3.085-1.68c-0.709,0-1.396,0.21-1.992,0.613c-0.838,0.546-1.408,1.385-1.606,2.362
		c-0.193,0.949-0.003,1.91,0.54,2.716c7.932,12.235,12.126,26.445,12.126,41.092c0,41.788-33.996,75.784-75.784,75.784
		c-41.787,0-75.784-33.996-75.784-75.784c0-41.811,33.959-75.827,75.701-75.827c14.605,0,28.814,4.193,41.094,12.127
		C166.658,61.73,167.35,61.934,168.06,61.935z"/>
	<path d="M124.97,91.041c3.774,0,7.405,0.601,10.788,1.784c0.384,0.133,0.784,0.201,1.188,0.201c1.57,0,2.97-0.998,3.484-2.484
		c0.32-0.924,0.258-1.919-0.176-2.804c-0.432-0.884-1.18-1.548-2.108-1.869c-4.11-1.425-8.558-2.147-13.218-2.147
		c-22.785,0-41.321,18.536-41.321,41.321c0,22.784,18.536,41.321,41.321,41.321s41.321-18.537,41.321-41.321
		c0-4.541-0.723-8.99-2.147-13.219c-0.514-1.485-1.914-2.484-3.484-2.484c-0.404,0-0.804,0.068-1.188,0.201
		c-0.928,0.321-1.676,0.984-2.108,1.869c-0.433,0.885-0.495,1.881-0.176,2.803c1.184,3.383,1.785,7.012,1.785,10.789
		c0,18.727-15.235,33.961-33.961,33.961s-33.961-15.235-33.961-33.961C91.009,106.276,106.244,91.041,124.97,91.041z"/>
	<path d="M121.28,125.022c0,0.979,0.382,1.899,1.076,2.593c0.698,0.697,1.602,1.066,2.615,1.066c0.976,0,1.883-0.372,2.615-1.066
		l61.521-61.521c0.094-0.094,0.222-0.147,0.355-0.147h27.561c0.96,0,1.892-0.382,2.615-1.066l29.278-29.278
		c1.053-1.054,1.371-2.63,0.81-4.015c-0.553-1.363-1.913-2.28-3.383-2.28H221.25c-0.278,0-0.502-0.225-0.502-0.502V3.712
		c0-1.485-0.915-2.843-2.286-3.385c-0.455-0.192-0.93-0.289-1.412-0.289c-0.964,0-1.885,0.391-2.596,1.102l-29.278,29.278
		c-0.697,0.698-1.066,1.602-1.066,2.614v27.562c0,0.174-0.132,0.315-0.28,0.406c-0.025,0.016-0.053,0.028-0.082,0.038l-61.39,61.39
		C121.662,123.122,121.28,124.044,121.28,125.022z M218.342,36.817c0.094-0.094,0.222-0.147,0.355-0.147h17.441
		c0.203,0,0.386,0.122,0.464,0.31c0.077,0.188,0.034,0.404-0.109,0.547l-20.912,20.912c-0.094,0.094-0.222,0.147-0.355,0.147
		h-17.441c-0.203,0-0.386-0.122-0.464-0.31c-0.077-0.188-0.034-0.403,0.109-0.547L218.342,36.817z M191.386,34.705
		c0-0.133,0.053-0.261,0.147-0.355l20.912-20.912c0.096-0.096,0.225-0.147,0.355-0.147c0.065,0,0.13,0.012,0.192,0.038
		c0.187,0.077,0.31,0.261,0.31,0.464v17.44c0,0.133-0.053,0.261-0.147,0.355L192.243,52.5c-0.096,0.096-0.224,0.147-0.355,0.147
		c-0.065,0-0.13-0.012-0.192-0.038c-0.187-0.077-0.31-0.261-0.31-0.464V34.705z"/>
</g>
</symbol>

<symbol id="panel" viewBox="0 0 250 250">
<g>
	<path d="M236.831,89.877h-16.538l-10.18-5.204c-12.535-6.418-17.559-21.862-11.189-34.423l5.541-10.937
		c0.577-1.142,0.469-2.524-0.288-3.557c-0.757-1.034-2.031-1.574-3.293-1.37l-12.091,1.899
		c-13.917,2.187-27.078-7.367-29.289-21.297L157.58,2.897c-0.204-1.274-1.094-2.32-2.32-2.716c-1.214-0.397-2.56-0.072-3.473,0.829
		l-8.665,8.641c-9.987,9.963-26.236,9.963-36.223,0l-8.665-8.653c-0.913-0.913-2.247-1.226-3.473-0.829
		c-1.226,0.397-2.115,1.442-2.32,2.716l-1.923,12.091C88.294,28.905,75.146,38.46,61.229,36.261l-12.091-1.899
		c-1.274-0.204-2.536,0.325-3.293,1.37c-0.757,1.034-0.865,2.416-0.288,3.557l5.541,10.937c6.37,12.559,1.358,28.003-11.189,34.423
		l-10.18,5.204H13.19c-7.271,0-13.185,5.913-13.185,13.185v133.778C0.006,244.087,5.919,250,13.19,250H236.81
		c7.271,0,13.185-5.913,13.185-13.185V103.038c0-7.271-5.913-13.185-13.185-13.185L236.831,89.877z M57.212,47.162l-2.524-4.976
		l5.493,0.865c17.655,2.776,34.291-9.326,37.103-26.97l0.877-5.48l3.93,3.918c12.644,12.62,33.232,12.62,45.875,0l3.93-3.918
		l0.877,5.48c2.812,17.643,19.458,29.758,37.103,26.97l5.493-0.865l-2.524,4.976c-7.788,15.372-2.139,34.134,12.571,42.727h-30.215
		c-1.767-26.14-23.581-46.871-50.167-46.871S76.637,63.75,74.868,89.89H44.653c14.699-8.593,20.36-27.354,12.571-42.727H57.212z
		 M168.348,89.89H81.707c1.743-22.367,20.504-40.035,43.327-40.035c22.811,0,41.573,17.667,43.327,40.035H168.348z M243.187,236.854
		c0,3.497-2.848,6.346-6.346,6.346L13.21,243.188c-3.497,0-6.346-2.848-6.346-6.346V103.064c0-3.497,2.848-6.346,6.346-6.346
		h223.619c3.497,0,6.346,2.848,6.346,6.346v133.778L243.187,236.854z M230.976,105.513l-211.912-0.012
		c-1.887,0-3.413,1.526-3.413,3.413v122.061c0,1.887,1.526,3.413,3.413,3.413h211.9c1.887,0,3.413-1.526,3.413-3.413V108.915
		c0-1.887-1.526-3.413-3.413-3.413L230.976,105.513z M227.563,179.596h-26.116v-19.278h26.116V179.596z M227.563,137.856h-26.116
		v-25.516h26.116V137.856z M157.988,112.341h20.996v25.516h-20.996L157.988,112.341z M114.529,112.341h20.996v25.516h-20.996
		V112.341z M71.07,112.341h20.996v25.516H71.07V112.341z M48.607,112.341v25.516H22.49v-25.516H48.607z M22.49,160.307h26.116
		v19.278H22.49V160.307z M22.49,202.047h26.116v25.516H22.49V202.047z M92.065,227.562H71.069v-25.516h20.996V227.562z
		 M135.524,227.562h-20.996v-25.516h20.996V227.562z M178.984,227.562h-20.996v-25.516h20.996V227.562z M185.822,227.562v-28.929
		c0-1.887-1.526-3.413-3.413-3.413h-27.835c-1.887,0-3.413,1.526-3.413,3.413v28.929h-8.786v-28.929
		c0-1.887-1.526-3.413-3.413-3.413h-27.835c-1.887,0-3.413,1.526-3.413,3.413v28.929h-8.786v-28.929
		c0-1.887-1.526-3.413-3.413-3.413H67.679c-1.887,0-3.413,1.526-3.413,3.413v28.929H55.48v-28.929c0-1.887-1.526-3.413-3.413-3.413
		H22.524v-8.786h29.542c1.887,0,3.413-1.526,3.413-3.413v-26.116c0-1.887-1.526-3.413-3.413-3.413H22.524v-8.786h29.542
		c1.887,0,3.413-1.526,3.413-3.413v-28.929h8.786v28.929c0,1.887,1.526,3.413,3.413,3.413h27.835c1.887,0,3.413-1.526,3.413-3.413
		v-28.929h8.786v28.929c0,1.887,1.526,3.413,3.413,3.413h27.835c1.887,0,3.413-1.526,3.413-3.413v-28.929h8.786v28.929
		c0,1.887,1.526,3.413,3.413,3.413h27.835c1.887,0,3.413-1.526,3.413-3.413v-28.929h8.786v28.929c0,1.887,1.526,3.413,3.413,3.413
		h29.542v8.786h-29.542c-1.887,0-3.413,1.526-3.413,3.413v26.116c0,1.887,1.526,3.413,3.413,3.413h29.542v8.786h-29.542
		c-1.887,0-3.413,1.526-3.413,3.413v28.929L185.822,227.562z M201.447,227.562v-25.516h26.116v25.516H201.447z M95.489,153.48
		H67.654c-1.887,0-3.413,1.526-3.413,3.413v26.117c0,1.887,1.526,3.413,3.413,3.413h27.835c1.887,0,3.413-1.526,3.413-3.413v-26.117
		C98.902,155.007,97.376,153.48,95.489,153.48z M92.076,179.597H71.079v-19.278h20.996V179.597z M138.947,153.48h-27.835
		c-1.887,0-3.413,1.526-3.413,3.413v26.117c0,1.887,1.526,3.413,3.413,3.413h27.835c1.887,0,3.413-1.526,3.413-3.413v-26.117
		C142.36,155.007,140.834,153.48,138.947,153.48z M135.534,179.597h-20.996v-19.278h20.996V179.597z M182.405,153.48H154.57
		c-1.887,0-3.413,1.526-3.413,3.413v26.117c0,1.887,1.526,3.413,3.413,3.413h27.835c1.887,0,3.413-1.526,3.413-3.413v-26.117
		C185.818,155.007,184.292,153.48,182.405,153.48z M178.992,179.597h-20.996v-19.278h20.996V179.597z"/>
</g>
</symbol>
<symbol id="planet" viewBox="0 0 250 250">
<g>
	<path d="M249.77,117.371c-0.737-24.445-8.844-59.38-43.249-87.129c-11.485-9.889-24.493-17.527-38.665-22.697
		c-0.67-0.29-1.344-0.569-2.027-0.851c-0.516-0.213-1.059-0.354-1.612-0.418C151.6,2.112,138.406,0,124.997,0
		c-7.282,0-14.58,0.631-21.694,1.881C90.512,3.823,78.13,8.069,66.498,14.508c-41.014,21.76-66.497,64.1-66.497,110.494
		c0,53.282,33.509,98.886,80.56,116.842c0.141,0.072,0.287,0.138,0.439,0.192c0.085,0.029,0.386,0.138,0.883,0.303
		c13.446,4.954,27.97,7.662,43.114,7.662c17.895,0,34.919-3.778,50.324-10.581c0.527-0.218,1.051-0.444,1.575-0.673
		c0.218-0.093,0.428-0.205,0.625-0.322c42.76-19.882,72.478-63.248,72.478-113.425C249.999,122.463,249.924,119.896,249.77,117.371z
		 M69.646,20.31c10.879-5.763,22.534-9.769,34.65-11.906c1.535,0.37,6.103,5.3,7.508,10.988c0.484,1.961,0.708,4.56-0.963,5.821
		c-0.362,0.271-1.431,0.729-4.512,0.729c-1.258,0-2.559-0.072-3.826-0.133c-2.434-0.125-4.693-0.197-6.252,0.016
		c-5.034,0.678-8.029,3.31-10.927,5.858c-0.636,0.559-1.29,1.136-1.99,1.711c-1.554,1.277-3.068,2.658-4.528,3.993
		c-2.237,2.049-4.353,3.983-6.569,5.523c-0.843,0.588-1.657,1.014-2.445,1.418c-2.349,1.224-5.01,2.607-5.991,7.237
		c-0.271,1.288-0.386,2.48-0.479,3.432c-0.051,0.54-0.117,1.229-0.202,1.655c-0.375,0.04-1.173,0.024-2.096-0.098
		c-1.338-0.176-2.453-0.801-3.746-1.524c-1.825-1.019-4.095-2.291-7.263-2.293c-6.114,0-11.632,4.385-12.837,10.2
		c-0.593,2.876-0.176,5.22,1.248,6.965c2.386,2.937,6.553,2.937,9.312,2.937l0.325-0.003c0.351,3.722,1.663,6.968,3.77,9.205
		c2.924,3.097,7.191,4.025,11.903,2.517c1.626-0.516,2.839-1.086,3.911-1.588c1.767-0.825,2.833-1.325,5.244-1.325
		c3.581,0,5.76-1.027,7.681-1.932c0.926-0.434,1.801-0.846,2.865-1.163c2.496-0.745,3.57,0.458,6.082,4.097
		c1.897,2.746,4.259,6.162,8.375,6.933c1.727,0.322,3.722,0.101,5.281-0.13c0.769-0.117,1.495-0.223,2.099-0.223
		c0.713,0,1.078,0.154,1.399,0.386c1.046,0.758,2.243,3.044,3.203,4.874c0.705,1.344,1.431,2.732,2.243,3.874
		c0.388,0.548,0.785,1.144,1.192,1.753c1.479,2.222,3.161,4.741,5.329,6.478c3.169,2.533,6.412,2.685,9.019,2.802
		c1.181,0.056,2.299,0.106,3.398,0.351c2.123,0.468,5.241,2.559,5.677,3.573c0.652,1.524,0.019,2.525-2.496,5.177
		c-0.585,0.617-1.16,1.229-1.665,1.838c-3.275,3.956-3.264,9.477-3.248,14.345c0.005,3.006,0.016,6.742-1.072,7.742
		c-0.673,0.615-2.756,1.264-4.281,1.74c-1.716,0.54-3.491,1.099-4.93,1.932c-4.148,2.413-7.082,5.606-8.482,9.229
		c-0.535,1.383-0.875,2.597-1.176,3.664c-0.596,2.115-0.952,3.392-2.328,4.869c-0.093,0.059-0.186,0.09-0.282,0.136
		c-0.724,0.338-2.075,0.963-3.121,2.722c-0.859,1.434-0.87,3.014-0.881,4.286c0,0.322-0.005,0.772-0.032,1.043
		c-0.442,0.458-1.187,0.854-2.033,1.304c-1.626,0.862-3.648,1.94-5.1,4.225c-1.849,2.913-3.594,7.979-2.426,12.688
		c0.237,0.963,0.588,2.022,0.963,3.147c0.766,2.301,2.192,6.59,1.312,7.979c-0.327,0.516-1.383,0.718-1.987,0.788
		c-0.322,0.037-0.631,0.059-0.921,0.059h-0.003c-3.501,0-4.659-3.113-6.077-10.56c-0.458-2.389-0.889-4.653-1.644-6.508
		c-1.101-2.703-2.597-4.853-4.041-6.928c-1.817-2.615-3.387-4.869-3.868-7.819c-0.543-3.328-0.548-6.992-0.011-10.315
		c0.136-0.825,0.495-1.902,0.875-3.046c0.931-2.791,1.987-5.949,1.109-9.088c-1.184-4.233-4.762-6.811-8.226-9.304
		c-2.615-1.881-5.087-3.664-6.122-5.845c-0.482-1.022-0.846-1.945-1.192-2.823c-0.806-2.03-1.639-4.134-3.491-6.516
		c-0.777-1-1.631-1.961-2.456-2.887c-1.546-1.732-2.998-3.368-3.818-5.066c-1.011-2.096-1.721-6.279-1.08-8.325
		c0.234-0.75,0.976-1.649,1.764-2.602c1.65-1.995,3.911-4.73,3.214-8.663c-0.218-1.232-1.117-2.235-2.317-2.589
		c-4.557-1.344-5.638-1.657-8.508-5.212c-3.86-4.768-7.258-4.97-10.86-5.188c-1.038-0.064-2.112-0.125-3.347-0.295
		c-1.998-0.274-2.112-0.625-2.993-3.352c-0.333-1.032-0.71-2.203-1.293-3.48c-1.562-3.429-4.004-6.303-6.327-8.607
		C26.189,59.904,42.141,35.563,69.646,20.31z M125.923,242.295c-0.003,0-0.005,0-0.005,0c-19.414-0.005-34.919-4.087-40.477-5.765
		c0.162-6.851,1.288-8.801,7.447-11.038c4.209-1.527,5.521-3.453,6.909-5.486c0.476-0.694,0.963-1.418,1.652-2.248
		c1.626-1.963,3.922-3.025,5.667-2.434c0.713,0.242,1.107,0.372,0.466,4.624l-0.043,0.274c-0.114,0.753-0.25,1.397-0.367,1.95
		c-0.359,1.703-0.764,3.642,0.561,5.388c1.368,1.799,3.677,2.083,6.125,2.237c9.014,0.572,15.255-2.509,22.026-6.305
		c3.158-1.775,5.313-1.272,8.857,0.255c4.403,1.9,8.29,2.272,13.542,2.272c0.761,0,1.516-0.027,2.261-0.051
		c0.654-0.024,1.306-0.043,1.942-0.043c2.746,0,4.041,0.442,5.151,1.753c0.364,0.428,0.819,0.934,1.32,1.498
		c0.862,0.96,2.575,2.881,3.528,4.275C158.32,239.321,142.666,242.295,125.923,242.295z M178.487,230.608
		c-1.043-1.775-2.674-3.677-4.608-5.84c-0.452-0.508-0.867-0.974-1.197-1.362c-3.046-3.605-6.861-4.095-10.192-4.095
		c-0.708,0-1.429,0.024-2.158,0.048c-0.676,0.021-1.357,0.045-2.073,0.045c-4.467,0-7.527-0.274-10.9-1.729
		c-2.724-1.168-5.068-1.948-7.678-1.948c-2.331,0-4.632,0.655-7.029,1.998c-6.289,3.528-11.145,5.922-18.381,5.475
		c-0.208-0.011-0.394-0.024-0.564-0.04c0.122-0.575,0.247-1.224,0.359-1.961l0.043-0.274c0.513-3.395,1.466-9.719-4.879-11.866
		c-4.31-1.461-9.474,0.388-12.869,4.486c-0.883,1.067-1.511,1.987-2.017,2.73c-1.155,1.689-1.503,2.2-3.711,3.006
		c-9.03,3.283-11.195,7.963-11.685,14.795C36.474,216.073,6.599,173.96,6.599,125.001c0-18.296,4.185-35.922,11.871-51.758
		c1.442,1.575,2.796,3.368,3.687,5.313c0.423,0.934,0.726,1.868,1.016,2.772c1.014,3.129,2.269,7.021,8.373,7.865
		c1.487,0.205,2.743,0.279,3.852,0.346c3.145,0.189,4.095,0.245,6.122,2.751c3.217,3.977,5.369,5.305,8.899,6.5
		c-0.298,0.442-0.71,0.96-1.245,1.607c-1.107,1.336-2.362,2.852-2.98,4.837c-1.328,4.259,0.043,10.259,1.439,13.159
		c1.219,2.53,3.054,4.595,4.831,6.593c0.787,0.883,1.532,1.719,2.176,2.546c1.269,1.634,1.838,3.073,2.559,4.898
		c0.372,0.947,0.801,2.025,1.362,3.211c1.761,3.725,5.201,6.202,8.232,8.383c2.655,1.908,5.167,3.714,5.725,5.72
		c0.333,1.187-0.383,3.331-1.014,5.22c-0.447,1.344-0.913,2.73-1.131,4.084c-0.646,4.007-0.641,8.421,0.013,12.433
		c0.721,4.422,2.977,7.665,4.967,10.525c1.298,1.865,2.522,3.624,3.344,5.643c0.511,1.25,0.881,3.198,1.272,5.26
		c1.211,6.343,3.036,15.926,12.566,15.926c0.548,0,1.12-0.037,1.724-0.106c3.126-0.383,5.404-1.663,6.763-3.815
		c2.557-4.033,0.793-9.333-0.623-13.593c-0.33-0.995-0.644-1.937-0.819-2.647c-0.529-2.144,0.125-5.252,1.591-7.556
		c0.495-0.78,1.32-1.245,2.626-1.942c1.394-0.74,3.129-1.663,4.416-3.411c1.128-1.53,1.141-3.371,1.152-4.709
		c0-0.309,0.005-0.732,0.029-1.008c0.051-0.019,0.098-0.043,0.146-0.064c0.519-0.237,1.381-0.641,2.192-1.495
		c2.602-2.748,3.312-5.271,3.996-7.71c0.274-0.971,0.556-1.977,0.979-3.07c1.08-2.794,3.664-4.752,5.643-5.904
		c0.796-0.46,2.211-0.907,3.581-1.33c2.466-0.774,5.018-1.572,6.774-3.179c3.235-2.966,3.222-7.875,3.209-12.624
		c-0.008-3.932-0.019-8.003,1.732-10.118c0.42-0.503,0.891-1,1.378-1.511c2.328-2.458,6.228-6.571,3.765-12.321
		c-1.591-3.706-7.013-6.689-10.32-7.42c-1.655-0.362-3.177-0.434-4.518-0.492c-2.434-0.114-3.773-0.224-5.196-1.362
		c-1.37-1.099-2.748-3.163-3.964-4.988c-0.444-0.665-0.878-1.312-1.298-1.908c-0.556-0.78-1.149-1.918-1.78-3.121
		c-1.349-2.575-2.879-5.491-5.188-7.157c-1.53-1.101-3.251-1.639-5.265-1.639c-1.096,0-2.107,0.154-3.084,0.301
		c-1.173,0.176-2.277,0.317-3.081,0.168c-1.445-0.271-2.764-2.179-4.161-4.201c-2.206-3.193-4.949-7.159-10.198-7.159
		c-1.022,0-2.094,0.162-3.193,0.49c-1.546,0.458-2.743,1.019-3.799,1.516c-1.663,0.785-2.764,1.301-4.996,1.301H72.75
		c-3.746,0-5.864,0.99-7.912,1.95c-0.976,0.458-1.9,0.889-3.123,1.277c-2.248,0.721-3.89,0.511-5.087-0.761
		c-1.453-1.54-2.232-4.507-2.041-7.742c0.053-0.878-0.247-1.737-0.83-2.392c-0.583-0.66-1.399-1.054-2.277-1.104
		c-0.66-0.037-1.357-0.048-2.07-0.048l-1.679,0.008c-2.998,0-3.943-0.279-4.169-0.46c-0.003-0.003-0.157-0.391,0.075-1.501
		c0.572-2.767,3.373-4.933,6.375-4.933c1.375,0,2.378,0.524,4.036,1.453c1.562,0.875,3.509,1.963,6.103,2.309
		c0.913,0.12,1.713,0.178,2.448,0.178c6.553,0,7.029-4.978,7.287-7.649c0.085-0.873,0.17-1.777,0.367-2.698
		c0.333-1.575,0.676-1.756,2.578-2.746c0.881-0.458,1.977-1.027,3.169-1.857c2.581-1.793,4.959-3.967,7.26-6.071
		c1.463-1.341,2.841-2.602,4.259-3.767c0.758-0.623,1.469-1.245,2.16-1.852c2.551-2.245,4.393-3.866,7.447-4.278
		c1.067-0.144,3.068-0.064,5.031,0.035c1.375,0.069,2.799,0.141,4.166,0.141c2.676,0,6.061-0.231,8.482-2.051
		c3.919-2.948,4.972-8.21,2.892-14.439c-0.937-2.802-2.7-6.103-4.893-8.825c14.582-1.493,29.393-0.287,43.404,3.531
		c-1.636,2.211-2.836,4.959-3.36,7.612c-1.131,5.704,0.899,10.222,5.427,12.095c1.181,0.487,2.512,0.724,4.057,0.724
		c0.979,0,1.916-0.09,2.826-0.178c1.439-0.138,2.772-0.221,3.549,0.003c1.229,0.354,1.381,0.492,1.833,3.368
		c0.13,0.833,0.274,1.708,0.484,2.613c0.785,3.344,2.458,6.082,3.935,8.498c1.639,2.682,3.054,5.002,3.147,7.713
		c0.096,2.818-1.099,4.76-2.751,7.447c-0.604,0.982-1.227,1.995-1.83,3.129c-2.16,4.055-2.158,7.492-2.158,11.624v0.482
		c-0.003,4.39-0.005,7.564,4.51,11.398c3.145,2.671,3.94,3.674,6.085,7.678c4.949,9.24,12.965,10.344,20.763,10.682
		c8.439,0.37,9.69,1.389,11.116,9.08c1.038,5.587,2.017,13.808-1.402,20.654c-3.597,7.207-4.874,11.243-4.874,19.568
		c0,1.227,0.043,2.469,0.082,3.727c0.077,2.426,0.152,4.72-0.066,6.891c-0.2,2.025-1.059,3.698-2.054,5.638
		c-0.497,0.96-1.014,1.958-1.487,3.076c-1.945,4.576-1.062,7.487,0.016,9.123c1.359,2.054,3.698,3.185,6.59,3.185
		c2.727,0,5.709-1.008,8.394-2.839c4.813-3.286,9.873-7.378,14.678-11.866C222.718,197.29,203.062,218.111,178.487,230.608z
		 M238.202,156.784c-3.07,4.158-5.616,7.09-8.439,9.759c-4.728,4.464-9.721,8.53-14.444,11.751
		c-1.551,1.062-3.296,1.692-4.672,1.692c-0.724,0-1.04-0.176-1.08-0.224c-0.085-0.114-0.255-0.998,0.551-2.897
		c0.383-0.899,0.819-1.745,1.28-2.645c1.141-2.214,2.432-4.725,2.759-8c0.255-2.602,0.17-5.225,0.09-7.758
		c-0.04-1.181-0.074-2.36-0.074-3.515c0-7.114,0.987-10.24,4.174-16.618c4.307-8.623,3.195-18.288,1.99-24.809
		c-2.198-11.826-7.117-14.026-17.32-14.471c-7.723-0.335-12.201-1.54-15.234-7.202c-2.509-4.696-3.868-6.398-7.628-9.594
		c-2.184-1.857-2.184-2.458-2.179-6.364V75.25c-0.003-3.594-0.005-5.763,1.381-8.365c0.521-0.982,1.083-1.886,1.626-2.77
		c1.91-3.107,3.887-6.324,3.722-11.134c-0.154-4.443-2.256-7.886-4.11-10.924c-1.336-2.187-2.597-4.251-3.142-6.569
		c-0.173-0.737-0.282-1.455-0.388-2.131c-0.474-3.006-1.12-7.125-6.526-8.684c-0.953-0.277-1.987-0.41-3.169-0.41
		c-0.984,0-1.929,0.09-2.833,0.176c-1.575,0.152-2.998,0.226-3.735-0.077c-0.535-0.221-1.953-0.806-1.599-3.922
		c0.423-3.687,2.932-6.931,4.081-7.513c0.724,0.25,1.442,0.5,2.155,0.761c14.111,6.018,26.515,13.297,36.861,21.625
		c24.408,21.055,38.923,50.302,40.881,82.356C243.784,138.187,239.101,153.958,238.202,156.784z"/>
</g>
</symbol>
</svg>
