<svg xmlns="http://www.w3.org/2000/svg" style="display: none;">
    <!-- Banco do Brasil -->
    <symbol id="lg-bb" viewBox="0 0 250 250">
  <rect x="0" width="250" height="250" fill="none"/>
  <g>
    <path d="M34.19,175.29c2.2,0,7.67-.25,7.67-5.94,0-3.08-.96-5.22-4.65-5.69,2.82-.56,4.23-2.42,4.23-5.01,0-4.79-3.27-5.81-7.23-5.81h-9.22v22.45h9.19ZM199.53,175.29c3.07,0,6.19-.41,6.19-5.17,0-5.5-7.96-4.95-7.96-8.43,0-1.27.78-1.96,2.09-1.96h4.26v-2.83h-5.99c-4.92,0-6.14,2.22-6.14,5.1,0,5.47,8.82,5.34,8.82,8.42,0,1.25-.67,2.08-2.04,2.08h-6.31l-4.68-15.59h-5.6l-5.18,16.72-3.25-7.19c2.38-.44,3.33-1.95,3.34-4.73,0-3.13-1.86-4.81-4.76-4.81h-8.76v18.38h4.79v-15.55h1.59c1.35,0,2.53.99,2.53,2.79,0,1.53-.77,2.79-2,2.71l-1.34.02,4.36,10.03h7.67l1.15-4.07h4.96l1.13,4.07h11.13ZM186.53,168.4h-3.55l1.69-7.52,1.86,7.52ZM133.17,175.83c7.15,0,7.15-4.76,7.15-9.64s0-9.64-7.15-9.64-7.16,4.7-7.16,9.64,0,9.64,7.16,9.64ZM133.17,173.04c-2.1,0-2.37-2.07-2.37-6.85s.27-6.85,2.37-6.85,2.36,2.06,2.36,6.85-.27,6.85-2.36,6.85ZM110.46,175.29h6.98c7.33,0,6.84-6.48,6.84-9.32,0-5.74-1.05-9.11-6.67-9.11h-7.15v18.43ZM115.11,159.72h1.9c2.56,0,2.56,2.98,2.56,6.38,0,4.62-.44,6.38-2.68,6.38h-1.77v-12.76ZM152.25,165.5h1.16c2.24,0,2.95,1.22,2.95,3.2,0,3.14-2.13,3.17-3.06,3.17h-2.47v-6.34l1.43-.04ZM150.82,162.07v-5.74h2.73c1.5,0,2.56,1.22,2.56,2.86,0,2.18-1.36,2.85-2.32,2.85h-1.55l-1.43.02ZM154.34,175.29c2.2,0,7.67-.25,7.67-5.94,0-3.08-.96-5.22-4.64-5.69,2.82-.56,4.23-2.43,4.23-5.01,0-4.79-3.27-5.82-7.23-5.82h-9.22v22.45h9.18ZM225,175.29v-2.78h-5.45v-15.6h-4.68v18.38h10.13ZM212.13,156.91h-4.68v18.38h4.68v-18.38ZM98.22,175.83c7.15,0,7.15-4.78,7.15-9.68s0-9.68-7.15-9.68-7.15,4.72-7.15,9.68,0,9.68,7.15,9.68ZM98.22,173.03c-2.09,0-2.37-2.08-2.37-6.88s.28-6.88,2.37-6.88,2.36,2.08,2.36,6.88-.27,6.88-2.36,6.88ZM51.98,168.39h-3.55l1.69-7.52,1.86,7.52ZM46.6,175.29l1.16-4.07h4.95l1.12,4.07h4.9l-5.52-18.38h-5.6l-5.63,18.38h4.62ZM83.27,175.83c4.05,0,6.43-1.61,6.43-6.62h-4.62c-.06,1.48-.08,3.82-1.81,3.82-1.96,0-2.25-1.19-2.25-6.88s.45-6.88,2.16-6.88c1.23,0,1.79.94,1.79,3.42h4.59c.18-4.02-2.06-6.23-6.48-6.23-6.59,0-6.79,4.18-6.79,9.68s-.17,9.68,6.99,9.68ZM63.77,175.29v-12.25l5.12,12.25h5.51v-18.38h-3.97v11.88l-4.97-11.88h-5.65v18.38h3.96ZM31.78,165.47h.72c2.75,0,3.61,1.21,3.61,3.2,0,3.14-2.6,3.17-3.76,3.17h-1.7v-6.34l1.13-.03ZM30.66,162.03v-5.74h2.03c1.84,0,3.15,1.21,3.15,2.86,0,2.17-1.66,2.86-2.85,2.86h-1.9l-.41.02Z" fill="#465eff"/>
    <path d="M118.63,123.14l-6.74-4.53,32-21.66-19.77-13.35-9.29,6.29,7.21,4.78-16.64,11.16-13.93-9.24,33.54-22.43,33.29,22.38-39.67,26.59ZM131.24,92.43l6.74,4.53-32,21.65,19.78,13.35,9.28-6.29-7.21-4.78,16.64-11.16,13.93,9.24-33.66,22.43-33.21-22.28,39.7-26.7ZM105.14,132.51l-6.87-4.69-6.95,4.7.07,9.08,13.75-9.09ZM145.02,83.4l6.9,4.72,6.75-4.51v-9.27s-13.65,9.05-13.65,9.05Z" fill="#465eff"/>
  </g>
    </symbol>
	<symbol id="lg-bb-m" viewBox="0 0 250 250">
  <rect y="0" width="250" height="250" fill="none"/>
  <g>
    <path d="M34.19,175.29c2.2,0,7.67-.25,7.67-5.94,0-3.08-.96-5.22-4.65-5.69,2.82-.56,4.23-2.42,4.23-5.01,0-4.79-3.27-5.81-7.23-5.81h-9.22v22.45h9.19ZM199.53,175.29c3.07,0,6.19-.41,6.19-5.17,0-5.5-7.96-4.95-7.96-8.43,0-1.27.78-1.96,2.09-1.96h4.26v-2.83h-5.99c-4.92,0-6.14,2.22-6.14,5.1,0,5.47,8.82,5.34,8.82,8.42,0,1.25-.67,2.08-2.04,2.08h-6.31l-4.68-15.59h-5.6l-5.18,16.72-3.25-7.19c2.38-.44,3.33-1.95,3.34-4.73,0-3.13-1.86-4.81-4.76-4.81h-8.76v18.38h4.79v-15.55h1.59c1.35,0,2.53.99,2.53,2.79,0,1.53-.77,2.79-2,2.71l-1.34.02,4.36,10.03h7.67l1.15-4.07h4.96l1.13,4.07h11.13ZM186.53,168.4h-3.55l1.69-7.52,1.86,7.52ZM133.17,175.83c7.15,0,7.15-4.76,7.15-9.64s0-9.64-7.15-9.64-7.16,4.7-7.16,9.64,0,9.64,7.16,9.64ZM133.17,173.04c-2.1,0-2.37-2.07-2.37-6.85s.27-6.85,2.37-6.85,2.36,2.06,2.36,6.85-.27,6.85-2.36,6.85ZM110.46,175.29h6.98c7.33,0,6.84-6.48,6.84-9.32,0-5.74-1.05-9.11-6.67-9.11h-7.15v18.43ZM115.11,159.72h1.9c2.56,0,2.56,2.98,2.56,6.38,0,4.62-.44,6.38-2.68,6.38h-1.77v-12.76ZM152.25,165.5h1.16c2.24,0,2.95,1.22,2.95,3.2,0,3.14-2.13,3.17-3.06,3.17h-2.47v-6.34l1.43-.04ZM150.82,162.07v-5.74h2.73c1.5,0,2.56,1.22,2.56,2.86,0,2.18-1.36,2.85-2.32,2.85h-1.55l-1.43.02ZM154.34,175.29c2.2,0,7.67-.25,7.67-5.94,0-3.08-.96-5.22-4.64-5.69,2.82-.56,4.23-2.43,4.23-5.01,0-4.79-3.27-5.82-7.23-5.82h-9.22v22.45h9.18ZM225,175.29v-2.78h-5.45v-15.6h-4.68v18.38h10.13ZM212.13,156.91h-4.68v18.38h4.68v-18.38ZM98.22,175.83c7.15,0,7.15-4.78,7.15-9.68s0-9.68-7.15-9.68-7.15,4.72-7.15,9.68,0,9.68,7.15,9.68ZM98.22,173.03c-2.09,0-2.37-2.08-2.37-6.88s.28-6.88,2.37-6.88,2.36,2.08,2.36,6.88-.27,6.88-2.36,6.88ZM51.98,168.39h-3.55l1.69-7.52,1.86,7.52ZM46.6,175.29l1.16-4.07h4.95l1.12,4.07h4.9l-5.52-18.38h-5.6l-5.63,18.38h4.62ZM83.27,175.83c4.05,0,6.43-1.61,6.43-6.62h-4.62c-.06,1.48-.08,3.82-1.81,3.82-1.96,0-2.25-1.19-2.25-6.88s.45-6.88,2.16-6.88c1.23,0,1.79.94,1.79,3.42h4.59c.18-4.02-2.06-6.23-6.48-6.23-6.59,0-6.79,4.18-6.79,9.68s-.17,9.68,6.99,9.68ZM63.77,175.29v-12.25l5.12,12.25h5.51v-18.38h-3.97v11.88l-4.97-11.88h-5.65v18.38h3.96ZM31.78,165.47h.72c2.75,0,3.61,1.21,3.61,3.2,0,3.14-2.6,3.17-3.76,3.17h-1.7v-6.34l1.13-.03ZM30.66,162.03v-5.74h2.03c1.84,0,3.15,1.21,3.15,2.86,0,2.17-1.66,2.86-2.85,2.86h-1.9l-.41.02Z" fill="currentColor"/>
    <path d="M118.63,123.14l-6.74-4.53,32-21.66-19.77-13.35-9.29,6.29,7.21,4.78-16.64,11.16-13.93-9.24,33.54-22.43,33.29,22.38-39.67,26.59ZM131.24,92.43l6.74,4.53-32,21.65,19.78,13.35,9.28-6.29-7.21-4.78,16.64-11.16,13.93,9.24-33.66,22.43-33.21-22.28,39.7-26.7ZM105.14,132.51l-6.87-4.69-6.95,4.7.07,9.08,13.75-9.09ZM145.02,83.4l6.9,4.72,6.75-4.51v-9.27s-13.65,9.05-13.65,9.05Z" fill="currentColor"/>
  </g>
    </symbol>

    <!-- Logo BNDES -->
    <symbol id="lg-bndes" viewBox="0 0 250 250">
  <rect width="250" height="250" fill="none"/>
  <g>
    <path d="M109.13,82.04c-4.45,0-8.83,1.1-12.74,3.21-3.91,2.11-7.24,5.16-9.67,8.87v37h37.13c4.81-3.17,8.46-7.79,10.43-13.19,1.97-5.4,2.14-11.29.49-16.79-1.65-5.51-5.03-10.33-9.65-13.77-4.62-3.44-10.22-5.3-15.98-5.31ZM86.72,54.74v30.88l30.64-30.56,45.63,45.51-30.64,30.54h30.94V54.74h-76.56Z" fill="#008752"/>
    <path d="M62.2,157.55c-.29-4.18-2.07-7.33-5.29-9.36-2.63-1.66-6.25-2.53-10.49-2.53h-14.62l-6.82,48.76h14.22c9.05,0,15.41-1.9,18.9-5.65,2.29-2.46,3.31-5.7,3.04-9.63-.35-5.22-2.93-8.83-7.11-10.13,5.1-1.56,8.52-6.23,8.15-11.47ZM49.13,183.4c-2.09,2.24-6.06,2.55-10.04,2.55h-2.75l1.79-12.91h2.7c4.87,0,9.42.64,9.75,5.31.16,2.21-.32,3.86-1.44,5.07h0ZM50.45,162.6c-1.84,1.97-5.34,2.38-7.96,2.38h-3.23l1.59-10.86h2.97c4,0,7.61.33,7.89,4.35.12,1.72-.31,3.1-1.27,4.13h0ZM111.28,145.67h-10.01l-5.11,35.12-12.36-35.12h-12.89l-7.09,48.75h10.15l4.89-35.42,12.17,35.42h13.09l7.16-48.75ZM147.12,149.75c-3.85-2.71-8.91-4.08-15.03-4.08h-14.8l-6.89,48.75h16.7c9.81,0,17.27-2.66,22.14-7.89,6.15-6.59,6.52-15.36,6.2-20-.54-7.64-3.33-13.29-8.31-16.79ZM140.18,180.99c-3.08,3.3-7.81,4.97-14.06,4.97h-3.92l4.44-31.82h2.91c8.81,0,14.33,4.13,14.82,11.06.49,6.93-.92,12.28-4.19,15.79ZM172.81,154.14h18.76l1.03-8.47h-29.17l-6.88,48.75h29.52l1.25-8.47h-18.96l1.76-12.5h16.83l1.1-8.47h-16.77l1.52-10.86ZM224.6,147.01c-3.66-1.43-7.95-2.16-12.75-2.16-6.06,0-11.07,1.8-14.1,5.06-2.39,2.56-3.46,5.89-3.17,9.88.5,7.25,5.8,10.1,10.47,12.6,3.77,2.02,7.02,3.77,7.28,7.4.13,1.84-.35,3.37-1.48,4.57-1.44,1.54-3.88,2.43-6.69,2.43-4.17,0-8.27-1.68-11.79-3.25l-.51-.23-2.11,9.1.41.14c5.05,1.79,9.76,2.7,14.02,2.7,7,0,12.41-1.83,15.64-5.29,2.58-2.77,3.73-6.52,3.4-11.15-.54-7.81-6.34-11.09-11.02-13.73-3.52-1.99-6.55-3.71-6.76-6.76-.05-.53,0-1.06.18-1.57.17-.5.44-.97.81-1.35,1.43-1.53,4.15-2.08,6.22-2.08,3.45.06,6.84.88,9.92,2.42l.53.26,1.92-8.83-.4-.16Z" fill="#00539b"/>
  </g>
    </symbol>
	<symbol id="lg-bndes-m" viewBox="0 0 250 250">
  <rect width="250" height="250" fill="none"/>
  <g>
    <path d="M109.13,82.04c-4.45,0-8.83,1.1-12.74,3.21-3.91,2.11-7.24,5.16-9.67,8.87v37h37.13c4.81-3.17,8.46-7.79,10.43-13.19,1.97-5.4,2.14-11.29.49-16.79-1.65-5.51-5.03-10.33-9.65-13.77-4.62-3.44-10.22-5.3-15.98-5.31ZM86.72,54.74v30.88l30.64-30.56,45.63,45.51-30.64,30.54h30.94V54.74h-76.56Z" fill="currentColor"/>
    <path d="M62.2,157.55c-.29-4.18-2.07-7.33-5.29-9.36-2.63-1.66-6.25-2.53-10.49-2.53h-14.62l-6.82,48.76h14.22c9.05,0,15.41-1.9,18.9-5.65,2.29-2.46,3.31-5.7,3.04-9.63-.35-5.22-2.93-8.83-7.11-10.13,5.1-1.56,8.52-6.23,8.15-11.47ZM49.13,183.4c-2.09,2.24-6.06,2.55-10.04,2.55h-2.75l1.79-12.91h2.7c4.87,0,9.42.64,9.75,5.31.16,2.21-.32,3.86-1.44,5.07h0ZM50.45,162.6c-1.84,1.97-5.34,2.38-7.96,2.38h-3.23l1.59-10.86h2.97c4,0,7.61.33,7.89,4.35.12,1.72-.31,3.1-1.27,4.13h0ZM111.28,145.67h-10.01l-5.11,35.12-12.36-35.12h-12.89l-7.09,48.75h10.15l4.89-35.42,12.17,35.42h13.09l7.16-48.75ZM147.12,149.75c-3.85-2.71-8.91-4.08-15.03-4.08h-14.8l-6.89,48.75h16.7c9.81,0,17.27-2.66,22.14-7.89,6.15-6.59,6.52-15.36,6.2-20-.54-7.64-3.33-13.29-8.31-16.79ZM140.18,180.99c-3.08,3.3-7.81,4.97-14.06,4.97h-3.92l4.44-31.82h2.91c8.81,0,14.33,4.13,14.82,11.06.49,6.93-.92,12.28-4.19,15.79ZM172.81,154.14h18.76l1.03-8.47h-29.17l-6.88,48.75h29.52l1.25-8.47h-18.96l1.76-12.5h16.83l1.1-8.47h-16.77l1.52-10.86ZM224.6,147.01c-3.66-1.43-7.95-2.16-12.75-2.16-6.06,0-11.07,1.8-14.1,5.06-2.39,2.56-3.46,5.89-3.17,9.88.5,7.25,5.8,10.1,10.47,12.6,3.77,2.02,7.02,3.77,7.28,7.4.13,1.84-.35,3.37-1.48,4.57-1.44,1.54-3.88,2.43-6.69,2.43-4.17,0-8.27-1.68-11.79-3.25l-.51-.23-2.11,9.1.41.14c5.05,1.79,9.76,2.7,14.02,2.7,7,0,12.41-1.83,15.64-5.29,2.58-2.77,3.73-6.52,3.4-11.15-.54-7.81-6.34-11.09-11.02-13.73-3.52-1.99-6.55-3.71-6.76-6.76-.05-.53,0-1.06.18-1.57.17-.5.44-.97.81-1.35,1.43-1.53,4.15-2.08,6.22-2.08,3.45.06,6.84.88,9.92,2.42l.53.26,1.92-8.83-.4-.16Z" fill="currentColor"/>
  </g>
    </symbol>

    <!-- Logo Bradesco -->
    <symbol id="lg-bradesco" viewBox="0 0 250 250">
  <rect width="250" height="250" fill="none"/>
  <g>
    <path d="M82.4,179.95c-2.9,0-5.5.3-8,.9-.5,1.7-.4,4.1,0,5.8,3.1-.7,4.8-.8,6.8-.8,3.8,0,5.7,1.5,5.7,4.7v.3c-1.1-.1-2.5-.2-3.5-.2-6.3,0-11.7,2.3-11.7,8.3,0,6.9,4.9,9.2,12,9.2,3.3,0,7-.6,10.3-1.6v-15.4c0-7.4-4-11-11.6-11.2ZM86.9,202.15s-2.3.3-3.2.3c-3.4,0-5.2-1-5.2-3.4s1.8-3.3,5.2-3.3c1.1,0,2.4.1,3.2.2v6.3-.1Z" fill="#fff"/>
    <path d="M68.8,180.35c-3.5,0-5.5,1.4-7.4,3.8-.2-1.3-.4-2.3-.8-3.5-.7-.2-2-.3-3-.3s-2.3.1-3,.3v27c.9.2,2.4.3,3.7.3s2.9-.1,3.7-.3v-13.2c0-5.2,2.7-8,6.4-8,.7,0,1.8,0,2.4.1.4-1.7.5-4.2.1-6-.4-.1-1.5-.2-2.1-.2Z" fill="#fff"/>
    <path d="M37.9,180.05c-2.1,0-4.2.5-5.5,1.1v-13.2c-2.1.8-4.3,1.8-6.1,3.3-1,.8-1.3,1.5-1.3,2.7v32.6c2,.8,6,1.5,9.8,1.5,9.7,0,15.2-5.9,15.2-14.4s-3.9-13.7-12-13.7l-.1.1ZM35.2,202.25c-.8,0-2,0-2.8-.3v-14.8c1-.5,2.4-.8,4.3-.8,3.7,0,5.7,2.6,5.7,7.4,0,5.1-2.3,8.6-7.1,8.6l-.1-.1Z" fill="#fff"/>
    <path d="M115.5,174.05v6.5c-1.3-.4-2.7-.4-3.9-.4-8.2,0-13.7,5.5-13.7,14.2s5.4,13.9,13.9,13.9c3.9,0,7.7-.5,11.1-1.7v-38.5c-2.1.8-4.3,1.8-6.1,3.3-1,.8-1.3,1.5-1.3,2.7ZM115.5,201.75c-1.3.4-2.1.4-3.2.4-4.9,0-6.8-3.2-6.8-7.9,0-5.2,1.9-8.3,6.7-8.3,1.4,0,2.3.2,3.2.4v15.4h.1Z" fill="#fff"/>
    <path d="M168.3,191.55l-3-1.3c-1.7-.7-2.7-1.3-2.7-2.4,0-1.7,1.5-2.1,3.6-2.1s4.1.2,7,1.1c.4-2,.4-3.8,0-5.5-1.8-1-5.1-1.4-8-1.4-5.7,0-10.1,3.1-10.1,7.7,0,4.2,1.8,6.3,6.8,8.3l2.3,1c2.2.9,2.9,1.4,2.9,2.9,0,2.1-2.1,2.5-3.9,2.5-3,0-5.2-.6-8.1-1.6-.5,1.7-.5,4,0,5.8,2.4,1.3,5.8,1.7,9.3,1.7,5.7,0,10.2-3,10.2-8.3,0-4.4-1.9-6.5-6.1-8.3l-.2-.1Z" fill="#fff"/>
    <path d="M191.3,202.15c-3.7,0-6.1-2.9-6.1-8s2-8,6.2-8c1.8,0,3,.3,4.7,1,.5-1.7,1.4-3.6,2.6-5.2-2.3-1.2-4.6-1.8-8.3-1.8-8.2,0-12.9,5.8-12.9,14.1s4.8,14.1,13.2,14.1c3,0,5.8-.5,8.1-1.8-1-1.3-2.1-3.1-2.8-5.2-2.1.8-3,.9-4.7.9v-.1Z" fill="#fff"/>
    <path d="M212,179.95c-8.3,0-12.9,5.7-12.9,14.2s4.9,14.1,12.9,14.1,13-5.5,13-14.1-4.6-14.2-13-14.2ZM212,202.25c-4.1,0-5.4-3.3-5.4-8.1s1.3-8.2,5.4-8.2,5.4,3.5,5.4,8.2c0,5-1.4,8.1-5.4,8.1Z" fill="#fff"/>
    <path d="M139.9,179.95c-8,0-12.9,5.4-12.9,14.3s5.2,13.9,14.1,13.9c3,0,6.3-.5,8.4-1.5.4-1.7.4-4,0-5.7-2.7.8-5.1,1.3-7.6,1.3-4.1,0-7-1.5-7.6-5.9h16.8c.2-.7.3-2.9.3-3.8,0-8-4.5-12.6-11.5-12.6ZM134.3,190.85c.5-3.3,2.5-5.2,5.5-5.2,3.3,0,4.6,2.3,4.8,5.2h-10.3Z" fill="#fff"/>
    <path d="M121.9,65.05c-6.7,0-14.1.6-21.3,1.9,7.3-9.4,19-15.5,32-15.5,9.6,0,19.2,3.6,25.6,9,1.2,1,2.1,1.1,3,.2s.8-1.8-.2-2.9c-8.4-9.8-20.8-16.4-35.4-16.1-19.1.4-35.3,12.4-41.5,29.2-5.6,1.8-10.8,3.9-15.4,6.4-1.3.7-1.7,1.6-1.3,2.6.4,1,1.3,1.3,2.6,1,3.9-1.1,8-2.1,12.2-3-.4,2.2-.7,4.5-.7,6.9-.4,15.4,7.9,30,20.6,38.1,1.3.8,2.3.8,3-.2.7-1,.6-1.9-.4-2.8-8.1-7.2-12.5-18-12.5-28.6,0-5.4,1.1-10.6,3.1-15.2,4.2-.4,8.8-.6,13.8-.6,32.6,0,60.1,10.7,60.1,24.8,0,7.1-9,14.3-19.8,19-2.6,1.1-2.9,1.9-2.5,3.1.4,1.1,1.5,1.4,2.9,1,18.8-6.2,33-16.3,33-28.5,0-16.7-26.9-29.5-60.9-29.5v-.3Z" fill="#fff"/>
    <path d="M137.4,149.75v-35.7c0-1.4-1.3-1.9-2.4-1.2l-9.1,5.2v33.4h9.7c1,0,1.7-.8,1.7-1.7h.1Z" fill="#fff"/>
    <path d="M114.9,125.65v24.7c0,.6.5,1.1,1.1,1.1h6.9v-31.7l-6.9,3.9c-.7.4-1.1,1-1.1,1.9v.1Z" fill="#fff"/>
  </g>
    </symbol>
    <symbol id="lg-bradesco-m" viewBox="0 0 250 250">
  <rect width="250" height="250" fill="none"/>
  <g>
    <path d="M82.4,179.95c-2.9,0-5.5.3-8,.9-.5,1.7-.4,4.1,0,5.8,3.1-.7,4.8-.8,6.8-.8,3.8,0,5.7,1.5,5.7,4.7v.3c-1.1-.1-2.5-.2-3.5-.2-6.3,0-11.7,2.3-11.7,8.3,0,6.9,4.9,9.2,12,9.2,3.3,0,7-.6,10.3-1.6v-15.4c0-7.4-4-11-11.6-11.2ZM86.9,202.15s-2.3.3-3.2.3c-3.4,0-5.2-1-5.2-3.4s1.8-3.3,5.2-3.3c1.1,0,2.4.1,3.2.2v6.3-.1Z" fill="currentColor"/>
    <path d="M68.8,180.35c-3.5,0-5.5,1.4-7.4,3.8-.2-1.3-.4-2.3-.8-3.5-.7-.2-2-.3-3-.3s-2.3.1-3,.3v27c.9.2,2.4.3,3.7.3s2.9-.1,3.7-.3v-13.2c0-5.2,2.7-8,6.4-8,.7,0,1.8,0,2.4.1.4-1.7.5-4.2.1-6-.4-.1-1.5-.2-2.1-.2Z" fill="currentColor"/>
    <path d="M37.9,180.05c-2.1,0-4.2.5-5.5,1.1v-13.2c-2.1.8-4.3,1.8-6.1,3.3-1,.8-1.3,1.5-1.3,2.7v32.6c2,.8,6,1.5,9.8,1.5,9.7,0,15.2-5.9,15.2-14.4s-3.9-13.7-12-13.7l-.1.1ZM35.2,202.25c-.8,0-2,0-2.8-.3v-14.8c1-.5,2.4-.8,4.3-.8,3.7,0,5.7,2.6,5.7,7.4,0,5.1-2.3,8.6-7.1,8.6l-.1-.1Z" fill="currentColor"/>
    <path d="M115.5,174.05v6.5c-1.3-.4-2.7-.4-3.9-.4-8.2,0-13.7,5.5-13.7,14.2s5.4,13.9,13.9,13.9c3.9,0,7.7-.5,11.1-1.7v-38.5c-2.1.8-4.3,1.8-6.1,3.3-1,.8-1.3,1.5-1.3,2.7ZM115.5,201.75c-1.3.4-2.1.4-3.2.4-4.9,0-6.8-3.2-6.8-7.9,0-5.2,1.9-8.3,6.7-8.3,1.4,0,2.3.2,3.2.4v15.4h.1Z" fill="currentColor"/>
    <path d="M168.3,191.55l-3-1.3c-1.7-.7-2.7-1.3-2.7-2.4,0-1.7,1.5-2.1,3.6-2.1s4.1.2,7,1.1c.4-2,.4-3.8,0-5.5-1.8-1-5.1-1.4-8-1.4-5.7,0-10.1,3.1-10.1,7.7,0,4.2,1.8,6.3,6.8,8.3l2.3,1c2.2.9,2.9,1.4,2.9,2.9,0,2.1-2.1,2.5-3.9,2.5-3,0-5.2-.6-8.1-1.6-.5,1.7-.5,4,0,5.8,2.4,1.3,5.8,1.7,9.3,1.7,5.7,0,10.2-3,10.2-8.3,0-4.4-1.9-6.5-6.1-8.3l-.2-.1Z" fill="currentColor"/>
    <path d="M191.3,202.15c-3.7,0-6.1-2.9-6.1-8s2-8,6.2-8c1.8,0,3,.3,4.7,1,.5-1.7,1.4-3.6,2.6-5.2-2.3-1.2-4.6-1.8-8.3-1.8-8.2,0-12.9,5.8-12.9,14.1s4.8,14.1,13.2,14.1c3,0,5.8-.5,8.1-1.8-1-1.3-2.1-3.1-2.8-5.2-2.1.8-3,.9-4.7.9v-.1Z" fill="currentColor"/>
    <path d="M212,179.95c-8.3,0-12.9,5.7-12.9,14.2s4.9,14.1,12.9,14.1,13-5.5,13-14.1-4.6-14.2-13-14.2ZM212,202.25c-4.1,0-5.4-3.3-5.4-8.1s1.3-8.2,5.4-8.2,5.4,3.5,5.4,8.2c0,5-1.4,8.1-5.4,8.1Z" fill="currentColor"/>
    <path d="M139.9,179.95c-8,0-12.9,5.4-12.9,14.3s5.2,13.9,14.1,13.9c3,0,6.3-.5,8.4-1.5.4-1.7.4-4,0-5.7-2.7.8-5.1,1.3-7.6,1.3-4.1,0-7-1.5-7.6-5.9h16.8c.2-.7.3-2.9.3-3.8,0-8-4.5-12.6-11.5-12.6ZM134.3,190.85c.5-3.3,2.5-5.2,5.5-5.2,3.3,0,4.6,2.3,4.8,5.2h-10.3Z" fill="currentColor"/>
    <path d="M121.9,65.05c-6.7,0-14.1.6-21.3,1.9,7.3-9.4,19-15.5,32-15.5,9.6,0,19.2,3.6,25.6,9,1.2,1,2.1,1.1,3,.2s.8-1.8-.2-2.9c-8.4-9.8-20.8-16.4-35.4-16.1-19.1.4-35.3,12.4-41.5,29.2-5.6,1.8-10.8,3.9-15.4,6.4-1.3.7-1.7,1.6-1.3,2.6.4,1,1.3,1.3,2.6,1,3.9-1.1,8-2.1,12.2-3-.4,2.2-.7,4.5-.7,6.9-.4,15.4,7.9,30,20.6,38.1,1.3.8,2.3.8,3-.2.7-1,.6-1.9-.4-2.8-8.1-7.2-12.5-18-12.5-28.6,0-5.4,1.1-10.6,3.1-15.2,4.2-.4,8.8-.6,13.8-.6,32.6,0,60.1,10.7,60.1,24.8,0,7.1-9,14.3-19.8,19-2.6,1.1-2.9,1.9-2.5,3.1.4,1.1,1.5,1.4,2.9,1,18.8-6.2,33-16.3,33-28.5,0-16.7-26.9-29.5-60.9-29.5v-.3Z" fill="currentColor"/>
    <path d="M137.4,149.75v-35.7c0-1.4-1.3-1.9-2.4-1.2l-9.1,5.2v33.4h9.7c1,0,1.7-.8,1.7-1.7h.1Z" fill="currentColor"/>
    <path d="M114.9,125.65v24.7c0,.6.5,1.1,1.1,1.1h6.9v-31.7l-6.9,3.9c-.7.4-1.1,1-1.1,1.9v.1Z" fill="currentColor"/>
  </g>
    </symbol>

    <!-- Logo BRB -->
    <symbol id="lg-brb" viewBox="0 0 250 250">
  <rect x="0" y="0" width="250" height="250" fill="none"/>
  <path d="M130.12,137.31c5.6-2.98,9.14-8.57,9.14-14.92,0-3.7-1.2-6.85-3.47-9.12-2.62-2.7-5.79-3.71-11.69-3.71h-19.35s-.19,1.2-.19,1.2l-7.55,47.74c-.56,3.49-.09,9.63,7.61,9.67h0s13.3,0,13.3,0c11.32,0,19.22-7.85,19.22-19.08,0-5.46-2.66-9.74-7.02-11.78ZM123.21,157.64c-2.1,1.44-3.48,1.86-8.6,1.86h-7.91l2.61-16.84h8.35c8.07,0,9.16,3.55,9.16,7.03s-1.32,6.38-3.62,7.95ZM118.17,133.48h-7.4l2.43-15.24h8.36c4.82,0,5.65.44,6.39,1.45.64.9.91,1.88.91,3.38,0,6.23-4.3,10.41-10.69,10.41ZM167.8,142.98c8.4-1.61,14.93-9.68,14.93-18.98s-5.83-14.44-16.43-14.44h-18.34l-.19,1.2-7.74,49.6c-.35,2.54-2.27,7.82,6.97,7.81h.9s.64,0,.64,0l.19-1.2,3.54-22.71h5.34l11.31,23.11.39.8h11.17l-1.04-2.06-11.64-23.13ZM153.65,135.59l2.77-17.35h7.85c7.25,0,8.58,1.94,8.58,5.76,0,6.93-4.74,11.59-11.8,11.59h-7.4ZM215.86,137.31c5.6-2.98,9.14-8.57,9.14-14.92,0-3.7-1.2-6.85-3.47-9.12-2.61-2.7-5.79-3.71-11.69-3.71h-19.36s-.19,1.2-.19,1.2l-7.53,47.64c-.5,3.46-.18,9.74,7.6,9.77h0s13.29,0,13.29,0c11.32,0,19.23-7.85,19.23-19.08,0-5.46-2.66-9.74-7.02-11.78ZM208.95,157.64c-2.1,1.44-3.48,1.86-8.6,1.86h-7.91l2.61-16.84h8.35c8.08,0,9.17,3.55,9.17,7.03s-1.32,6.38-3.62,7.95ZM203.91,133.48h-7.4l2.43-15.24h8.36c4.82,0,5.65.44,6.4,1.45.64.9.91,1.88.91,3.38,0,6.23-4.3,10.41-10.69,10.41Z" fill="#173e7d" fill-rule="evenodd"/>
  <path d="M33.23,109.56l-.85,5.42c12.06,2.44,22.82,8.5,31.06,17l12.41-8.12s1.43-.96,2.1-.16c0,0,.65.63-.6,1.96l-10.19,10.53c7.18,8.93,11.83,19.95,12.89,31.98h5.8l9.2-58.62h-61.82Z" fill="#00adef" fill-rule="evenodd"/>
  <path d="M45.11,151.31l-.57-.68,13.27-14.86c-7.14-7.04-16.27-12.08-26.46-14.21l-5.41,34.45c-.94,6.46.24,12.16,11.04,12.16h36.37c-1.01-10.17-4.91-19.5-10.87-27.16l-17.37,10.3Z" fill="#173e7d" fill-rule="evenodd"/>
  <path d="M33.07,100.17l3.67-18.35h3.1l-1.64,8.21-.97,3.44-.5,3.12-.72,3.59h-2.95ZM41.08,100.34c-1.09,0-2.03-.19-2.83-.57-.79-.4-1.41-.97-1.84-1.73-.43-.76-.65-1.7-.65-2.82,0-1.24.15-2.37.45-3.39.31-1.04.77-1.93,1.36-2.67.61-.76,1.34-1.34,2.18-1.73.86-.41,1.84-.62,2.93-.62s2.08.23,2.95.69c.88.45,1.57,1.1,2.08,1.98.53.86.79,1.9.79,3.12,0,1.12-.19,2.15-.57,3.09-.36.94-.88,1.76-1.56,2.45-.68.69-1.49,1.25-2.38,1.63-.89.38-1.87.57-2.93.57ZM40.84,97.7c.89,0,1.68-.21,2.36-.62.68-.43,1.22-1.01,1.61-1.76.4-.74.6-1.6.6-2.57,0-1.02-.31-1.83-.92-2.42-.61-.59-1.47-.89-2.58-.89-.88,0-1.66.21-2.36.64-.68.41-1.22.99-1.61,1.73-.4.74-.6,1.6-.6,2.57,0,1.02.31,1.83.92,2.42.61.59,1.47.89,2.58.89ZM56.03,100.34c-1.07,0-2.06-.23-2.95-.69-.88-.46-1.58-1.12-2.11-1.98-.51-.87-.77-1.92-.77-3.14,0-1.12.18-2.15.55-3.09.38-.94.91-1.76,1.59-2.45.67-.69,1.47-1.23,2.36-1.61.91-.38,1.9-.57,2.98-.57s2.06.2,2.85.59c.81.4,1.42,1,1.84,1.81.41.79.6,1.78.57,2.97-.03,1.63-.33,3.07-.89,4.3-.56,1.22-1.35,2.17-2.36,2.84-1.01.68-2.22,1.01-3.65,1.01ZM56.83,97.7c.89,0,1.68-.21,2.36-.62.68-.43,1.22-1.01,1.61-1.76.4-.74.6-1.6.6-2.57,0-1.02-.31-1.83-.92-2.42-.61-.59-1.47-.89-2.58-.89-.88,0-1.66.21-2.36.64-.68.41-1.22.99-1.61,1.73-.4.74-.6,1.6-.6,2.57,0,1.02.31,1.83.92,2.42.61.59,1.47.89,2.58.89ZM60.08,100.17l.6-3.02.84-3.51.42-3.54.62-3.14h3.1l-2.63,13.21h-2.95ZM76.93,86.82c1.14,0,2.11.23,2.9.69.79.46,1.35,1.15,1.66,2.05.33.89.36,1.99.1,3.29l-1.46,7.32h-3.1l1.44-7.25c.22-1.07.12-1.9-.3-2.5-.41-.61-1.17-.91-2.26-.91s-2.08.31-2.83.94c-.74.63-1.25,1.58-1.51,2.87l-1.39,6.85h-3.1l2.63-13.21h2.95l-.74,3.76-.5-1.19c.63-.94,1.41-1.62,2.36-2.05.96-.45,2.01-.67,3.15-.67ZM90.72,100.34c-1.31,0-2.46-.24-3.45-.72-.98-.49-1.73-1.17-2.26-2.03-.53-.87-.79-1.9-.79-3.07,0-1.48.34-2.8,1.02-3.96.68-1.17,1.61-2.09,2.8-2.75,1.19-.68,2.56-1.01,4.12-1.01,1.34,0,2.49.26,3.45.79.98.51,1.73,1.28,2.26,2.3l-2.65,1.36c-.3-.63-.73-1.09-1.29-1.39-.55-.3-1.22-.45-2.01-.45-.86,0-1.64.22-2.33.64-.69.41-1.24.99-1.64,1.73-.4.74-.6,1.6-.6,2.57,0,1.02.31,1.83.92,2.42.61.59,1.48.89,2.61.89.73,0,1.41-.15,2.03-.45.63-.3,1.16-.76,1.59-1.39l2.28,1.53c-.61.92-1.46,1.65-2.53,2.18-1.07.51-2.25.77-3.52.77ZM104.86,100.34c-1.29,0-2.42-.24-3.4-.72-.96-.49-1.7-1.17-2.23-2.03-.53-.87-.79-1.9-.79-3.07,0-1.48.34-2.8,1.02-3.96.68-1.17,1.6-2.09,2.78-2.75,1.19-.68,2.55-1.01,4.07-1.01,1.31,0,2.44.24,3.4.72.98.46,1.73,1.13,2.26,2,.53.86.79,1.88.79,3.07,0,1.47-.34,2.79-1.02,3.96-.68,1.17-1.61,2.09-2.8,2.77-1.17.68-2.53,1.01-4.07,1.01ZM105.06,97.7c.89,0,1.68-.21,2.36-.62.68-.43,1.22-1.01,1.61-1.76.4-.74.6-1.6.6-2.57,0-1.02-.31-1.83-.92-2.42-.61-.59-1.47-.89-2.58-.89-.88,0-1.66.21-2.36.64-.68.41-1.22.99-1.61,1.73-.4.74-.6,1.6-.6,2.57,0,1.04.31,1.85.92,2.45.61.58,1.47.87,2.58.87Z" fill="#173e7d"/>
    </symbol>
    <symbol id="lg-brb-m" viewBox="0 0 250 250">
  <rect x="0" y="0" width="250" height="250" fill="none"/>
  <g>
    <path d="M130.12,137.31c5.6-2.98,9.14-8.57,9.14-14.92,0-3.7-1.2-6.85-3.47-9.12-2.62-2.7-5.79-3.71-11.69-3.71h-19.35s-.19,1.2-.19,1.2l-7.55,47.74c-.56,3.49-.09,9.63,7.61,9.67h0s13.3,0,13.3,0c11.32,0,19.22-7.85,19.22-19.08,0-5.46-2.66-9.74-7.02-11.78ZM123.21,157.64c-2.1,1.44-3.48,1.86-8.6,1.86h-7.91l2.61-16.84h8.35c8.07,0,9.16,3.55,9.16,7.03s-1.32,6.38-3.62,7.95ZM118.17,133.48h-7.4l2.43-15.24h8.36c4.82,0,5.65.44,6.39,1.45.64.9.91,1.88.91,3.38,0,6.23-4.3,10.41-10.69,10.41ZM167.8,142.98c8.4-1.61,14.93-9.68,14.93-18.98s-5.83-14.44-16.43-14.44h-18.34l-.19,1.2-7.74,49.6c-.35,2.54-2.27,7.82,6.97,7.81h.9s.64,0,.64,0l.19-1.2,3.54-22.71h5.34l11.31,23.11.39.8h11.17l-1.04-2.06-11.64-23.13ZM153.65,135.59l2.77-17.35h7.85c7.25,0,8.58,1.94,8.58,5.76,0,6.93-4.74,11.59-11.8,11.59h-7.4ZM215.86,137.31c5.6-2.98,9.14-8.57,9.14-14.92,0-3.7-1.2-6.85-3.47-9.12-2.61-2.7-5.79-3.71-11.69-3.71h-19.36s-.19,1.2-.19,1.2l-7.53,47.64c-.5,3.46-.18,9.74,7.6,9.77h0s13.29,0,13.29,0c11.32,0,19.23-7.85,19.23-19.08,0-5.46-2.66-9.74-7.02-11.78ZM208.95,157.64c-2.1,1.44-3.48,1.86-8.6,1.86h-7.91l2.61-16.84h8.35c8.08,0,9.17,3.55,9.17,7.03s-1.32,6.38-3.62,7.95ZM203.91,133.48h-7.4l2.43-15.24h8.36c4.82,0,5.65.44,6.4,1.45.64.9.91,1.88.91,3.38,0,6.23-4.3,10.41-10.69,10.41Z" fill="currentColor" fill-rule="evenodd"/>
    <path d="M33.23,109.56l-.85,5.42c12.06,2.44,22.82,8.5,31.06,17l12.41-8.12s1.43-.96,2.1-.16c0,0,.65.63-.6,1.96l-10.19,10.53c7.18,8.93,11.83,19.95,12.89,31.98h5.8l9.2-58.62h-61.82Z" fill="currentColor" fill-rule="evenodd"/>
    <path d="M45.11,151.31l-.57-.68,13.27-14.86c-7.14-7.04-16.27-12.08-26.46-14.21l-5.41,34.45c-.94,6.46.24,12.16,11.04,12.16h36.37c-1.01-10.17-4.91-19.5-10.87-27.16l-17.37,10.3Z" fill="currentColor" fill-rule="evenodd"/>
    <path d="M33.07,100.17l3.67-18.35h3.1l-1.64,8.21-.97,3.44-.5,3.12-.72,3.59h-2.95ZM41.08,100.34c-1.09,0-2.03-.19-2.83-.57-.79-.4-1.41-.97-1.84-1.73-.43-.76-.65-1.7-.65-2.82,0-1.24.15-2.37.45-3.39.31-1.04.77-1.93,1.36-2.67.61-.76,1.34-1.34,2.18-1.73.86-.41,1.84-.62,2.93-.62s2.08.23,2.95.69c.88.45,1.57,1.1,2.08,1.98.53.86.79,1.9.79,3.12,0,1.12-.19,2.15-.57,3.09-.36.94-.88,1.76-1.56,2.45-.68.69-1.49,1.25-2.38,1.63-.89.38-1.87.57-2.93.57ZM40.84,97.7c.89,0,1.68-.21,2.36-.62.68-.43,1.22-1.01,1.61-1.76.4-.74.6-1.6.6-2.57,0-1.02-.31-1.83-.92-2.42-.61-.59-1.47-.89-2.58-.89-.88,0-1.66.21-2.36.64-.68.41-1.22.99-1.61,1.73-.4.74-.6,1.6-.6,2.57,0,1.02.31,1.83.92,2.42.61.59,1.47.89,2.58.89ZM56.03,100.34c-1.07,0-2.06-.23-2.95-.69-.88-.46-1.58-1.12-2.11-1.98-.51-.87-.77-1.92-.77-3.14,0-1.12.18-2.15.55-3.09.38-.94.91-1.76,1.59-2.45.67-.69,1.47-1.23,2.36-1.61.91-.38,1.9-.57,2.98-.57s2.06.2,2.85.59c.81.4,1.42,1,1.84,1.81.41.79.6,1.78.57,2.97-.03,1.63-.33,3.07-.89,4.3-.56,1.22-1.35,2.17-2.36,2.84-1.01.68-2.22,1.01-3.65,1.01ZM56.83,97.7c.89,0,1.68-.21,2.36-.62.68-.43,1.22-1.01,1.61-1.76.4-.74.6-1.6.6-2.57,0-1.02-.31-1.83-.92-2.42-.61-.59-1.47-.89-2.58-.89-.88,0-1.66.21-2.36.64-.68.41-1.22.99-1.61,1.73-.4.74-.6,1.6-.6,2.57,0,1.02.31,1.83.92,2.42.61.59,1.47.89,2.58.89ZM60.08,100.17l.6-3.02.84-3.51.42-3.54.62-3.14h3.1l-2.63,13.21h-2.95ZM76.93,86.82c1.14,0,2.11.23,2.9.69.79.46,1.35,1.15,1.66,2.05.33.89.36,1.99.1,3.29l-1.46,7.32h-3.1l1.44-7.25c.22-1.07.12-1.9-.3-2.5-.41-.61-1.17-.91-2.26-.91s-2.08.31-2.83.94c-.74.63-1.25,1.58-1.51,2.87l-1.39,6.85h-3.1l2.63-13.21h2.95l-.74,3.76-.5-1.19c.63-.94,1.41-1.62,2.36-2.05.96-.45,2.01-.67,3.15-.67ZM90.72,100.34c-1.31,0-2.46-.24-3.45-.72-.98-.49-1.73-1.17-2.26-2.03-.53-.87-.79-1.9-.79-3.07,0-1.48.34-2.8,1.02-3.96.68-1.17,1.61-2.09,2.8-2.75,1.19-.68,2.56-1.01,4.12-1.01,1.34,0,2.49.26,3.45.79.98.51,1.73,1.28,2.26,2.3l-2.65,1.36c-.3-.63-.73-1.09-1.29-1.39-.55-.3-1.22-.45-2.01-.45-.86,0-1.64.22-2.33.64-.69.41-1.24.99-1.64,1.73-.4.74-.6,1.6-.6,2.57,0,1.02.31,1.83.92,2.42.61.59,1.48.89,2.61.89.73,0,1.41-.15,2.03-.45.63-.3,1.16-.76,1.59-1.39l2.28,1.53c-.61.92-1.46,1.65-2.53,2.18-1.07.51-2.25.77-3.52.77ZM104.86,100.34c-1.29,0-2.42-.24-3.4-.72-.96-.49-1.7-1.17-2.23-2.03-.53-.87-.79-1.9-.79-3.07,0-1.48.34-2.8,1.02-3.96.68-1.17,1.6-2.09,2.78-2.75,1.19-.68,2.55-1.01,4.07-1.01,1.31,0,2.44.24,3.4.72.98.46,1.73,1.13,2.26,2,.53.86.79,1.88.79,3.07,0,1.47-.34,2.79-1.02,3.96-.68,1.17-1.61,2.09-2.8,2.77-1.17.68-2.53,1.01-4.07,1.01ZM105.06,97.7c.89,0,1.68-.21,2.36-.62.68-.43,1.22-1.01,1.61-1.76.4-.74.6-1.6.6-2.57,0-1.02-.31-1.83-.92-2.42-.61-.59-1.47-.89-2.58-.89-.88,0-1.66.21-2.36.64-.68.41-1.22.99-1.61,1.73-.4.74-.6,1.6-.6,2.57,0,1.04.31,1.85.92,2.45.61.58,1.47.87,2.58.87Z" fill="currentColor"/>
  </g>
    </symbol>

    <!-- Logo BV -->
    <symbol id="lg-bv" viewBox="0 0 250 250">
  <defs>
    <linearGradient id="Gradiente_sem_nome_5" data-name="Gradiente sem nome 5" x1="78.62" y1="-212.38" x2="92.21" y2="-188.87" gradientTransform="translate(0 -61.17) scale(1 -1)" gradientUnits="userSpaceOnUse">
      <stop offset="0" stop-color="#fff"/>
      <stop offset="1" stop-color="#d7d7d7"/>
    </linearGradient>
  </defs>
  <rect y="0" width="250" height="250" fill="none"/>
  <g>
    <path d="M225,87.11s-10.43-.04-21.45,0c-11.02.04-13.81,8.47-13.81,8.47l-27.56,71.26,10.73,27.73c11.01-.04,13.8-8.47,13.8-8.47l38.29-98.99Z" fill="#31c7ed" fill-rule="evenodd"/>
    <path d="M143.76,119.19l-.03-.07s0-.02,0-.02l-.02-.05c-2.41-6.06-7.41-11.06-13.18-14.93,5.78-5.07,9.38-12.62,9.38-21.05,0-12.17-10.46-27.66-40.48-27.66h-52.68v40.63h-21.75v23.37h21.74v41.99h55.37c4.77.03,9.53-.51,14.17-1.62h.06c3.38-.83,6.64-2.05,9.72-3.66l11.6,30s2.79,8.43,13.81,8.47c11.01.04,21.45,0,21.45,0l-29.15-75.39ZM78,78.77h19.46c8.57,0,11.25,4.47,11.25,8.63s-2.67,8.61-11.19,8.63h-19.53v-17.26ZM78,119.4h20.64c9.09,0,11.93,4.73,11.93,9.15s-2.83,9.12-11.86,9.15h-20.71v-18.3Z" fill="#fff" fill-rule="evenodd"/>
    <path d="M114.81,127.02s-2.32-7.65-14.94-7.65h-.89v.04c8.82.12,11.59,4.79,11.59,9.15s-2.83,9.12-11.86,9.15h-20.71v-18.33l-31.25.02v41.99h55.36c4.77.03,9.53-.51,14.17-1.62h.06c3.37-.83,6.64-2.05,9.72-3.66l-11.25-29.1Z" fill="url(#Gradiente_sem_nome_5)" isolation="isolate" opacity=".8"/>
    <path d="M46.74,119.41h-21.74l21.74,10.02v-10.02Z" fill="#31c7ed"/>
  </g>
    </symbol>
    <symbol id="lg-bv-m" viewBox="0 0 250 250">
  <rect y="0" width="250" height="250" fill="none"/>
  <g>
    <path d="M225,87.11s-10.43-.04-21.45,0c-11.02.04-13.81,8.47-13.81,8.47l-27.56,71.26,10.73,27.73c11.01-.04,13.8-8.47,13.8-8.47l38.29-98.99Z" fill="currentColor" fill-rule="evenodd"/>
    <path d="M143.76,119.19l-.03-.07s0-.02,0-.02l-.02-.05c-2.41-6.06-7.41-11.06-13.18-14.93,5.78-5.07,9.38-12.62,9.38-21.05,0-12.17-10.46-27.66-40.48-27.66h-52.68v40.63h-21.75v23.37h21.74v41.99h55.37c4.77.03,9.53-.51,14.17-1.62h.06c3.38-.83,6.64-2.05,9.72-3.66l11.6,30s2.79,8.43,13.81,8.47c11.01.04,21.45,0,21.45,0l-29.15-75.39ZM78,78.77h19.46c8.57,0,11.25,4.47,11.25,8.63s-2.67,8.61-11.19,8.63h-19.53v-17.26ZM78,119.4h20.64c9.09,0,11.93,4.73,11.93,9.15s-2.83,9.12-11.86,9.15h-20.71v-18.3Z" fill="currentColor" fill-rule="evenodd"/>
    <path d="M114.81,127.02s-2.32-7.65-14.94-7.65h-.89v.04c8.82.12,11.59,4.79,11.59,9.15s-2.83,9.12-11.86,9.15h-20.71v-18.33l-31.25.02v41.99h55.36c4.77.03,9.53-.51,14.17-1.62h.06c3.37-.83,6.64-2.05,9.72-3.66l-11.25-29.1Z" fill="currentColor" isolation="isolate" opacity=".8"/>
    <path d="M46.74,119.41h-21.74l21.74,10.02v-10.02Z" fill="currentColor"/>
  </g>
    </symbol>

    <!-- Logo Itaú -->
    <symbol id="lg-itau" viewBox="0 0 250 250">
  <rect y="0" width="250" height="250" fill="none"/>
  <g>
    <path d="M111.95,25.13c-5.76.14-9.98.34-17.72.82-3.58.21-7.49.53-10.24.8-.69.08-2.14.21-3.2.31-4.49.44-11.15,1.28-13.95,1.76-.59.1-1.46.24-1.95.31-.48.06-1.33.21-1.89.31-.55.1-1.48.28-2.07.38-2.08.35-5.61,1.07-7.6,1.55-.55.14-1.55.38-2.2.53-.65.15-1.24.29-1.32.3-3.68.88-7.34,2.65-10.16,4.95-2.74,2.23-5.19,5.82-6.42,9.39-.2.55-.4,1.12-.46,1.26-.21.48-1.14,4.5-1.81,7.79-.1.55-.28,1.37-.38,1.82-.1.45-.24,1.24-.33,1.76-.08.52-.18,1.14-.24,1.38-.19.72-.96,5.62-1.45,9.18-.48,3.44-.79,5.95-1.07,8.49-.14,1.24-.28,2.46-.3,2.7-.04.24-.15,1.46-.26,2.7-.1,1.24-.25,2.76-.33,3.39-.26,2.31-.92,12.38-1.24,19.49-.25,5.27-.41,16.54-.33,22.69.09,7.67.28,14.52.45,16.91.06.97.19,3,.26,4.53.08,1.52.18,3.47.24,4.34.29,4.35.52,7.2.63,8.11.06.55.21,2.03.31,3.26.1,1.23.25,2.7.31,3.27.08.57.21,1.78.31,2.72.31,2.98.55,4.93.75,6.22.1.69.28,1.87.38,2.64.37,2.77.79,5.46,1.26,7.92.1.55.26,1.48.38,2.07.21,1.26.7,3.76,1.06,5.34,1.21,5.54,1.73,7.2,3.15,9.93.39.75.89,1.63,1.12,1.95.21.31.53.77.69,1.01.72,1.07,2.77,3.15,3.9,3.96.19.14.55.4.79.59.25.2.49.35.55.35.05,0,.18.09.28.19.49.48,3.95,2.12,5.43,2.56.28.09.62.2.75.26.33.15,2.17.61,4.4,1.12.97.23,1.96.46,2.2.53.58.15,4.22.88,6.98,1.38,1.58.29,4.66.78,6.6,1.06.73.1,1.66.24,2.07.31,1.52.26,7.81.99,11.75,1.37,1.42.14,3.17.3,3.9.38,1.18.13,2.39.23,8.17.64.87.06,2.84.18,4.4.25,1.56.08,3.73.19,4.84.25,8.95.52,34.54.52,43.36,0,1.11-.07,3.28-.18,4.84-.25,2.68-.13,3.66-.19,7.86-.5,5.38-.41,13.29-1.18,15.96-1.56.77-.11,2.09-.29,2.95-.4,3.21-.41,7.6-1.08,10.12-1.55,2.75-.5,6.4-1.23,6.98-1.38.24-.06,1.23-.3,2.2-.53,2.17-.49,4.06-.97,4.4-1.12.42-.15.84-.3,1.26-.44,1.03-.34,4.45-1.96,4.74-2.24.09-.09.34-.28.55-.4.98-.61,1.43-.97,2.33-1.77,1.01-.92,2.4-2.43,2.74-2.94.11-.18.41-.6.67-.94.26-.35.48-.67.48-.72s.2-.4.44-.78c.24-.38.53-.93.64-1.23.13-.29.25-.6.3-.66.24-.31,1.12-2.82,1.49-4.24.59-2.2,1.7-7.39,2.1-9.84.1-.63.21-1.22.25-1.32.11-.28.81-4.59,1.43-8.99.14-.97.28-1.94.31-2.14.1-.58.55-4.44.76-6.47.1-1.01.24-2.16.31-2.58.08-.42.21-1.77.31-3.02.1-1.24.24-2.78.3-3.39.08-.63.19-2.06.26-3.2.07-1.14.19-2.55.25-3.14.08-.59.21-2.77.31-4.84.11-2.08.24-4.63.31-5.66.57-9.14.57-33.12,0-42.55-.06-1.07-.18-3.17-.25-4.65-.08-1.48-.19-3.45-.25-4.34-.08-.9-.24-3.13-.38-4.96-.14-1.84-.28-3.56-.31-3.83-.04-.28-.15-1.5-.25-2.7-.1-1.21-.21-2.34-.25-2.51-.04-.18-.18-1.33-.31-2.58-.33-3.01-.73-6.32-.82-6.71-.04-.18-.18-1.18-.31-2.21-.62-4.7-1.76-11.25-2.74-15.71-.14-.63-.36-1.65-.5-2.26-.35-1.61-.77-3.23-.9-3.52-.06-.14-.18-.48-.26-.75-.28-.93-1.67-4.04-2.02-4.53-.05-.07-.45-.67-.88-1.32-.89-1.35-3.18-3.73-4.55-4.74-2.71-2-5.73-3.36-9.63-4.31-.67-.16-1.34-.33-2.01-.5-.46-.14-1.4-.34-3.39-.75-.57-.12-1.13-.24-1.7-.37-2.43-.59-10.32-1.87-15.46-2.53-1.03-.13-2.05-.26-2.26-.31-.38-.08-2.2-.26-5.91-.63-1.03-.1-2.45-.25-3.14-.31-.69-.08-1.94-.19-2.76-.26-.83-.06-2.19-.18-3.02-.24-2.82-.24-10.63-.69-14.96-.88-8.36-.36-23.79-.48-33.37-.24ZM56.57,110.07c.08.06.44.18.8.26.68.16,1.63.6,2.35,1.08.57.38,1.9,1.81,2.16,2.31.13.25.26.48.3.52.04.04.15.29.25.57.09.28.2.57.26.63.16.24.35,1.73.35,2.84s-.16,2.35-.38,2.82c-.68,1.56-1.01,2.07-1.86,2.98-.79.82-1.12,1.07-2.2,1.6-.88.44-1.51.67-2.01.72-.4.05-.76.14-.79.19-.09.15-2.82.15-2.82,0,0-.05-.32-.14-.72-.19-.39-.05-.88-.16-1.09-.25-.27-.12-.55-.24-.83-.34-.24-.09-.47-.19-.5-.23-.04-.05-.23-.16-.44-.26-.73-.36-2.24-2.04-2.68-2.95-.24-.49-.46-.97-.53-1.07-.43-.86-.5-4.75-.1-5.66.11-.24.28-.64.37-.88.09-.24.19-.46.23-.5.04-.04.19-.29.33-.57.24-.47,1.73-2.08,1.95-2.08.05,0,.16-.09.25-.2.24-.26,1.46-.85,2.2-1.04.35-.09.74-.21.88-.28.14-.06.48-.13.75-.16.74-.08,3.34.04,3.51.15ZM193.53,118.83v6.35h-24.38v-8.5l1.36-.21c3-.46,4.88-.78,4.99-.85.08-.05.69-.15,1.38-.24.69-.09,1.32-.2,1.38-.25.08-.05.67-.16,1.32-.25.65-.07,1.51-.23,1.89-.33.38-.09,1.17-.23,1.76-.3.59-.08,1.18-.19,1.32-.24.14-.06.77-.18,1.38-.26.63-.08,1.33-.19,1.57-.26.24-.06,1.14-.24,2.01-.38.87-.14,2-.33,2.51-.41.52-.1,1.07-.18,1.23-.19h.28s0,6.34,0,6.34ZM89.45,124.44v7.53h12.57v11.19h-12.58l.05,11.65c.04,12.56.01,11.94.69,13.49.52,1.2,1.97,2.41,3.23,2.72.21.05.45.15.55.23.24.19,5.33.19,5.56-.01.1-.08.55-.18,1.03-.23l.84-.09v11.03l-.34.15c-.31.14-1.76.36-3.74.6-2.83.33-7.98.37-8.28.05-.08-.06-.28-.11-.46-.11-.49,0-2.53-.38-2.68-.49-.07-.05-.41-.18-.77-.25-.34-.09-.68-.2-.75-.25-.06-.06-.35-.18-.63-.26-.28-.09-.53-.2-.57-.24-.04-.04-.26-.18-.5-.31-1.04-.55-1.36-.75-1.91-1.22-.33-.26-.63-.49-.69-.49-.13-.01-1.08-1.06-1.83-2.01-.58-.74-1.43-2.16-1.72-2.89-.1-.24-.21-.46-.25-.5-.05-.04-.18-.43-.3-.88-.11-.45-.26-.93-.33-1.07-.06-.14-.21-.7-.31-1.26-.11-.53-.22-1.05-.34-1.57-.09-.38-.15-4.8-.19-13.17l-.05-12.6h-7.28v-11.19h7.29v-12.67l.85-.09c.47-.05.9-.14.97-.19.07-.05.69-.16,1.38-.25.69-.09,1.32-.22,1.38-.26.07-.05.87-.19,1.76-.3.9-.13,1.7-.26,1.76-.31.07-.05.49-.14.94-.18.59-.07,1.18-.17,1.76-.29,1.35-.28,3.7-.64,3.81-.58.05.02.09,3.44.09,7.59ZM131.12,130.77c1.76.1,3.75.33,3.9.44.08.05.38.14.69.18.72.11,2.46.63,3.52,1.06.88.35,2.84,1.33,3.14,1.59.1.07.33.22.5.3.18.09.73.53,1.22.96.49.44.94.82,1.01.84.19.09,2.43,2.8,2.43,2.95,0,.04.11.24.25.43.26.38,1.38,2.55,1.38,2.69,0,.05.1.33.24.61.13.29.28.73.33.97.05.24.14.49.19.57.05.06.16.46.25.88.07.41.18.84.21.94.05.1.16.64.26,1.2.15.83.19,3.96.24,17.81l.05,16.82h-13.71v-1.48c-.03-.8-.06-1.97-.11-2.59l-.08-1.13-.36.5c-.58.77-2.48,2.58-3.23,3.08-1.65,1.08-2.09,1.34-2.54,1.5-.28.08-.64.23-.82.33-.19.09-.65.24-1.03.32-.38.09-.75.2-.82.25-.64.48-8.56.47-9.18-.01-.06-.05-.52-.16-1.01-.25-.48-.09-1.04-.23-1.26-.33-.2-.09-.74-.31-1.18-.49-.51-.22-1-.46-1.48-.73-.33-.21-.67-.4-1.02-.59-.53-.29-.7-.45-2.14-1.89-1.47-1.47-1.66-1.67-1.66-1.81,0-.05-.16-.33-.35-.62-.2-.29-.49-.82-.64-1.16-.15-.35-.35-.77-.44-.94-.1-.18-.24-.63-.33-1.01-.09-.38-.2-.75-.25-.82-.14-.18-.38-1.96-.38-2.74,0-.36-.06-.73-.14-.8-.15-.15-.11-.65.28-3.69.08-.59.19-1.13.24-1.19.05-.07.16-.4.24-.74.16-.65.5-1.51.86-2.15.11-.21.26-.5.34-.65.07-.16.18-.29.24-.29.05,0,.09-.07.09-.16,0-.14,1.38-1.94,1.62-2.1.05-.04.14-.16.18-.29.05-.14.2-.26.34-.3.14-.04.25-.11.25-.16,0-.13,2.11-1.79,2.83-2.2.52-.31,1.67-.9,3.36-1.71.24-.13,2.59-.88,3.62-1.17.38-.11,1.12-.26,1.63-.34.52-.09,1.01-.19,1.07-.24.07-.05.83-.17,1.7-.24.87-.07,1.93-.2,2.39-.26,1.79-.26,8.06-.21,8.72.06.23.1.24.05.15-1.02-.05-.62-.14-1.14-.19-1.18-.06-.04-.14-.28-.19-.53-.09-.47-.57-1.48-1.02-2.17-.29-.44-1.51-1.7-1.65-1.7-.05,0-.26-.13-.48-.29-.55-.4-1.44-.8-1.99-.91-.26-.05-.48-.14-.48-.19,0-.55-8.12-.64-10.56-.1-.31.06-1.04.2-1.63.3-.59.1-1.18.24-1.32.3-.14.06-.59.18-1.01.25-.41.08-.87.19-1.01.25-.14.06-.64.2-1.12.31-.48.11-.93.24-1.01.3-.08.05-.41.18-.77.26-.34.09-.69.21-.75.26-.08.05-.41.16-.76.25-.35.07-.84.25-1.09.38-.26.14-.5.24-.54.24s-.06-2.63-.06-5.83c0-4.54.04-5.86.16-5.96.09-.07.44-.2.78-.29.35-.08.69-.19.75-.24.08-.05.49-.2.94-.31.45-.13.88-.26.94-.31.08-.06.46-.16.87-.25.42-.09.84-.2.94-.26.11-.05.63-.19,1.14-.3.4-.08.8-.17,1.19-.26.14-.04.84-.15,1.57-.25.73-.1,1.5-.24,1.7-.3.73-.23,7.32-.64,8.8-.55.41.02,1.32.07,2.01.11h0ZM61.8,156.98v25.02h-14.71v-50.03h14.71v25.02ZM172.92,147.55c0,14.88.06,17.76.37,18.17.06.06.14.31.19.55.18.94.99,2.31,1.92,3.24.49.5,1.04.94,1.22.99.19.04.33.11.33.17s.44.23.98.4c.81.25,1.23.3,2.49.3.88,0,1.65-.06,1.82-.14.16-.09.55-.21.87-.3s.88-.35,1.26-.6c.7-.45,2.01-1.66,2.01-1.86,0-.06.18-.34.38-.6.21-.28.38-.55.38-.63s.11-.34.24-.59c.14-.25.29-.68.34-.94.04-.28.13-.55.19-.62.31-.4.36-2.94.36-17.69v-15.44h14.71v50.03h-6.96c-5.44,0-7-.04-7.08-.16-.05-.08-.11-1.27-.14-2.64-.03-1.36-.09-2.48-.14-2.48s-.2.15-.35.34c-.7.96-1.81,2.04-3.55,3.47-.25.2-.77.48-1.9,1.03-.52.25-1.08.54-1.26.63-.18.09-.65.23-1.07.31-.41.09-.78.2-.82.25-.13.19-2.35.38-4.55.38s-3.92-.15-4.44-.37c-.14-.06-.62-.21-1.07-.33-.45-.11-.87-.26-.94-.31-.06-.05-.36-.18-.65-.26-.3-.07-.54-.19-.54-.24s-.23-.16-.5-.25c-.28-.09-.5-.2-.5-.25s-.14-.15-.3-.23c-1.08-.49-3.53-2.79-4.56-4.27-.63-.9-1.6-2.72-1.8-3.38-.08-.26-.23-.65-.31-.86-.09-.21-.24-.67-.31-1.01-.07-.35-.19-.72-.25-.84-.06-.11-.18-.7-.25-1.32-.08-.6-.21-1.22-.29-1.36-.11-.19-.16-4.68-.19-18.08l-.04-17.81h14.72v15.59Z" fill="#fff"/>
    <path d="M129.73,158.45c-.64.06-1.29.16-1.43.22-.14.07-.61.18-1.04.27-.42.07-.98.22-1.24.32-1.95.78-2.9,1.3-3.55,1.93-.62.6-1.25,1.72-1.35,2.42-.03.24-.12.55-.2.69-.14.28-.09,1.13.14,2.25.26,1.22,1.3,2.7,2.23,3.14,1.64.78,1.95.9,2.87,1.04,1.64.23,4.76.1,5.44-.24.12-.06.6-.27,1.07-.46.47-.2,1.08-.53,1.37-.74.29-.2.61-.45.73-.53.74-.52,2.11-2.61,2.29-3.48.04-.22.14-.47.22-.57.09-.11.16-1.22.18-3.2l.05-3.04-.7-.07c-.95-.11-5.64-.07-7.07.05Z" fill="#fff"/>
  </g>
    </symbol>
    <symbol id="lg-itau-m" viewBox="0 0 250 250">
  <rect y="0" width="250" height="250" fill="none"/>
  <g>
    <path d="M111.95,25.13c-5.76.14-9.98.34-17.72.82-3.58.21-7.49.53-10.24.8-.69.08-2.14.21-3.2.31-4.49.44-11.15,1.28-13.95,1.76-.59.1-1.46.24-1.95.31-.48.06-1.33.21-1.89.31-.55.1-1.48.28-2.07.38-2.08.35-5.61,1.07-7.6,1.55-.55.14-1.55.38-2.2.53-.65.15-1.24.29-1.32.3-3.68.88-7.34,2.65-10.16,4.95-2.74,2.23-5.19,5.82-6.42,9.39-.2.55-.4,1.12-.46,1.26-.21.48-1.14,4.5-1.81,7.79-.1.55-.28,1.37-.38,1.82-.1.45-.24,1.24-.33,1.76-.08.52-.18,1.14-.24,1.38-.19.72-.96,5.62-1.45,9.18-.48,3.44-.79,5.95-1.07,8.49-.14,1.24-.28,2.46-.3,2.7-.04.24-.15,1.46-.26,2.7-.1,1.24-.25,2.76-.33,3.39-.26,2.31-.92,12.38-1.24,19.49-.25,5.27-.41,16.54-.33,22.69.09,7.67.28,14.52.45,16.91.06.97.19,3,.26,4.53.08,1.52.18,3.47.24,4.34.29,4.35.52,7.2.63,8.11.06.55.21,2.03.31,3.26.1,1.23.25,2.7.31,3.27.08.57.21,1.78.31,2.72.31,2.98.55,4.93.75,6.22.1.69.28,1.87.38,2.64.37,2.77.79,5.46,1.26,7.92.1.55.26,1.48.38,2.07.21,1.26.7,3.76,1.06,5.34,1.21,5.54,1.73,7.2,3.15,9.93.39.75.89,1.63,1.12,1.95.21.31.53.77.69,1.01.72,1.07,2.77,3.15,3.9,3.96.19.14.55.4.79.59.25.2.49.35.55.35.05,0,.18.09.28.19.49.48,3.95,2.12,5.43,2.56.28.09.62.2.75.26.33.15,2.17.61,4.4,1.12.97.23,1.96.46,2.2.53.58.15,4.22.88,6.98,1.38,1.58.29,4.66.78,6.6,1.06.73.1,1.66.24,2.07.31,1.52.26,7.81.99,11.75,1.37,1.42.14,3.17.3,3.9.38,1.18.13,2.39.23,8.17.64.87.06,2.84.18,4.4.25,1.56.08,3.73.19,4.84.25,8.95.52,34.54.52,43.36,0,1.11-.07,3.28-.18,4.84-.25,2.68-.13,3.66-.19,7.86-.5,5.38-.41,13.29-1.18,15.96-1.56.77-.11,2.09-.29,2.95-.4,3.21-.41,7.6-1.08,10.12-1.55,2.75-.5,6.4-1.23,6.98-1.38.24-.06,1.23-.3,2.2-.53,2.17-.49,4.06-.97,4.4-1.12.42-.15.84-.3,1.26-.44,1.03-.34,4.45-1.96,4.74-2.24.09-.09.34-.28.55-.4.98-.61,1.43-.97,2.33-1.77,1.01-.92,2.4-2.43,2.74-2.94.11-.18.41-.6.67-.94.26-.35.48-.67.48-.72s.2-.4.44-.78c.24-.38.53-.93.64-1.23.13-.29.25-.6.3-.66.24-.31,1.12-2.82,1.49-4.24.59-2.2,1.7-7.39,2.1-9.84.1-.63.21-1.22.25-1.32.11-.28.81-4.59,1.43-8.99.14-.97.28-1.94.31-2.14.1-.58.55-4.44.76-6.47.1-1.01.24-2.16.31-2.58.08-.42.21-1.77.31-3.02.1-1.24.24-2.78.3-3.39.08-.63.19-2.06.26-3.2.07-1.14.19-2.55.25-3.14.08-.59.21-2.77.31-4.84.11-2.08.24-4.63.31-5.66.57-9.14.57-33.12,0-42.55-.06-1.07-.18-3.17-.25-4.65-.08-1.48-.19-3.45-.25-4.34-.08-.9-.24-3.13-.38-4.96-.14-1.84-.28-3.56-.31-3.83-.04-.28-.15-1.5-.25-2.7-.1-1.21-.21-2.34-.25-2.51-.04-.18-.18-1.33-.31-2.58-.33-3.01-.73-6.32-.82-6.71-.04-.18-.18-1.18-.31-2.21-.62-4.7-1.76-11.25-2.74-15.71-.14-.63-.36-1.65-.5-2.26-.35-1.61-.77-3.23-.9-3.52-.06-.14-.18-.48-.26-.75-.28-.93-1.67-4.04-2.02-4.53-.05-.07-.45-.67-.88-1.32-.89-1.35-3.18-3.73-4.55-4.74-2.71-2-5.73-3.36-9.63-4.31-.67-.16-1.34-.33-2.01-.5-.46-.14-1.4-.34-3.39-.75-.57-.12-1.13-.24-1.7-.37-2.43-.59-10.32-1.87-15.46-2.53-1.03-.13-2.05-.26-2.26-.31-.38-.08-2.2-.26-5.91-.63-1.03-.1-2.45-.25-3.14-.31-.69-.08-1.94-.19-2.76-.26-.83-.06-2.19-.18-3.02-.24-2.82-.24-10.63-.69-14.96-.88-8.36-.36-23.79-.48-33.37-.24ZM56.57,110.07c.08.06.44.18.8.26.68.16,1.63.6,2.35,1.08.57.38,1.9,1.81,2.16,2.31.13.25.26.48.3.52.04.04.15.29.25.57.09.28.2.57.26.63.16.24.35,1.73.35,2.84s-.16,2.35-.38,2.82c-.68,1.56-1.01,2.07-1.86,2.98-.79.82-1.12,1.07-2.2,1.6-.88.44-1.51.67-2.01.72-.4.05-.76.14-.79.19-.09.15-2.82.15-2.82,0,0-.05-.32-.14-.72-.19-.39-.05-.88-.16-1.09-.25-.27-.12-.55-.24-.83-.34-.24-.09-.47-.19-.5-.23-.04-.05-.23-.16-.44-.26-.73-.36-2.24-2.04-2.68-2.95-.24-.49-.46-.97-.53-1.07-.43-.86-.5-4.75-.1-5.66.11-.24.28-.64.37-.88.09-.24.19-.46.23-.5.04-.04.19-.29.33-.57.24-.47,1.73-2.08,1.95-2.08.05,0,.16-.09.25-.2.24-.26,1.46-.85,2.2-1.04.35-.09.74-.21.88-.28.14-.06.48-.13.75-.16.74-.08,3.34.04,3.51.15ZM193.53,118.83v6.35h-24.38v-8.5l1.36-.21c3-.46,4.88-.78,4.99-.85.08-.05.69-.15,1.38-.24.69-.09,1.32-.2,1.38-.25.08-.05.67-.16,1.32-.25.65-.07,1.51-.23,1.89-.33.38-.09,1.17-.23,1.76-.3.59-.08,1.18-.19,1.32-.24.14-.06.77-.18,1.38-.26.63-.08,1.33-.19,1.57-.26.24-.06,1.14-.24,2.01-.38.87-.14,2-.33,2.51-.41.52-.1,1.07-.18,1.23-.19h.28s0,6.34,0,6.34ZM89.45,124.44v7.53h12.57v11.19h-12.58l.05,11.65c.04,12.56.01,11.94.69,13.49.52,1.2,1.97,2.41,3.23,2.72.21.05.45.15.55.23.24.19,5.33.19,5.56-.01.1-.08.55-.18,1.03-.23l.84-.09v11.03l-.34.15c-.31.14-1.76.36-3.74.6-2.83.33-7.98.37-8.28.05-.08-.06-.28-.11-.46-.11-.49,0-2.53-.38-2.68-.49-.07-.05-.41-.18-.77-.25-.34-.09-.68-.2-.75-.25-.06-.06-.35-.18-.63-.26-.28-.09-.53-.2-.57-.24-.04-.04-.26-.18-.5-.31-1.04-.55-1.36-.75-1.91-1.22-.33-.26-.63-.49-.69-.49-.13-.01-1.08-1.06-1.83-2.01-.58-.74-1.43-2.16-1.72-2.89-.1-.24-.21-.46-.25-.5-.05-.04-.18-.43-.3-.88-.11-.45-.26-.93-.33-1.07-.06-.14-.21-.7-.31-1.26-.11-.53-.22-1.05-.34-1.57-.09-.38-.15-4.8-.19-13.17l-.05-12.6h-7.28v-11.19h7.29v-12.67l.85-.09c.47-.05.9-.14.97-.19.07-.05.69-.16,1.38-.25.69-.09,1.32-.22,1.38-.26.07-.05.87-.19,1.76-.3.9-.13,1.7-.26,1.76-.31.07-.05.49-.14.94-.18.59-.07,1.18-.17,1.76-.29,1.35-.28,3.7-.64,3.81-.58.05.02.09,3.44.09,7.59ZM131.12,130.77c1.76.1,3.75.33,3.9.44.08.05.38.14.69.18.72.11,2.46.63,3.52,1.06.88.35,2.84,1.33,3.14,1.59.1.07.33.22.5.3.18.09.73.53,1.22.96.49.44.94.82,1.01.84.19.09,2.43,2.8,2.43,2.95,0,.04.11.24.25.43.26.38,1.38,2.55,1.38,2.69,0,.05.1.33.24.61.13.29.28.73.33.97.05.24.14.49.19.57.05.06.16.46.25.88.07.41.18.84.21.94.05.1.16.64.26,1.2.15.83.19,3.96.24,17.81l.05,16.82h-13.71v-1.48c-.03-.8-.06-1.97-.11-2.59l-.08-1.13-.36.5c-.58.77-2.48,2.58-3.23,3.08-1.65,1.08-2.09,1.34-2.54,1.5-.28.08-.64.23-.82.33-.19.09-.65.24-1.03.32-.38.09-.75.2-.82.25-.64.48-8.56.47-9.18-.01-.06-.05-.52-.16-1.01-.25-.48-.09-1.04-.23-1.26-.33-.2-.09-.74-.31-1.18-.49-.51-.22-1-.46-1.48-.73-.33-.21-.67-.4-1.02-.59-.53-.29-.7-.45-2.14-1.89-1.47-1.47-1.66-1.67-1.66-1.81,0-.05-.16-.33-.35-.62-.2-.29-.49-.82-.64-1.16-.15-.35-.35-.77-.44-.94-.1-.18-.24-.63-.33-1.01-.09-.38-.2-.75-.25-.82-.14-.18-.38-1.96-.38-2.74,0-.36-.06-.73-.14-.8-.15-.15-.11-.65.28-3.69.08-.59.19-1.13.24-1.19.05-.07.16-.4.24-.74.16-.65.5-1.51.86-2.15.11-.21.26-.5.34-.65.07-.16.18-.29.24-.29.05,0,.09-.07.09-.16,0-.14,1.38-1.94,1.62-2.1.05-.04.14-.16.18-.29.05-.14.2-.26.34-.3.14-.04.25-.11.25-.16,0-.13,2.11-1.79,2.83-2.2.52-.31,1.67-.9,3.36-1.71.24-.13,2.59-.88,3.62-1.17.38-.11,1.12-.26,1.63-.34.52-.09,1.01-.19,1.07-.24.07-.05.83-.17,1.7-.24.87-.07,1.93-.2,2.39-.26,1.79-.26,8.06-.21,8.72.06.23.1.24.05.15-1.02-.05-.62-.14-1.14-.19-1.18-.06-.04-.14-.28-.19-.53-.09-.47-.57-1.48-1.02-2.17-.29-.44-1.51-1.7-1.65-1.7-.05,0-.26-.13-.48-.29-.55-.4-1.44-.8-1.99-.91-.26-.05-.48-.14-.48-.19,0-.55-8.12-.64-10.56-.1-.31.06-1.04.2-1.63.3-.59.1-1.18.24-1.32.3-.14.06-.59.18-1.01.25-.41.08-.87.19-1.01.25-.14.06-.64.2-1.12.31-.48.11-.93.24-1.01.3-.08.05-.41.18-.77.26-.34.09-.69.21-.75.26-.08.05-.41.16-.76.25-.35.07-.84.25-1.09.38-.26.14-.5.24-.54.24s-.06-2.63-.06-5.83c0-4.54.04-5.86.16-5.96.09-.07.44-.2.78-.29.35-.08.69-.19.75-.24.08-.05.49-.2.94-.31.45-.13.88-.26.94-.31.08-.06.46-.16.87-.25.42-.09.84-.2.94-.26.11-.05.63-.19,1.14-.3.4-.08.8-.17,1.19-.26.14-.04.84-.15,1.57-.25.73-.1,1.5-.24,1.7-.3.73-.23,7.32-.64,8.8-.55.41.02,1.32.07,2.01.11h0ZM61.8,156.98v25.02h-14.71v-50.03h14.71v25.02ZM172.92,147.55c0,14.88.06,17.76.37,18.17.06.06.14.31.19.55.18.94.99,2.31,1.92,3.24.49.5,1.04.94,1.22.99.19.04.33.11.33.17s.44.23.98.4c.81.25,1.23.3,2.49.3.88,0,1.65-.06,1.82-.14.16-.09.55-.21.87-.3s.88-.35,1.26-.6c.7-.45,2.01-1.66,2.01-1.86,0-.06.18-.34.38-.6.21-.28.38-.55.38-.63s.11-.34.24-.59c.14-.25.29-.68.34-.94.04-.28.13-.55.19-.62.31-.4.36-2.94.36-17.69v-15.44h14.71v50.03h-6.96c-5.44,0-7-.04-7.08-.16-.05-.08-.11-1.27-.14-2.64-.03-1.36-.09-2.48-.14-2.48s-.2.15-.35.34c-.7.96-1.81,2.04-3.55,3.47-.25.2-.77.48-1.9,1.03-.52.25-1.08.54-1.26.63-.18.09-.65.23-1.07.31-.41.09-.78.2-.82.25-.13.19-2.35.38-4.55.38s-3.92-.15-4.44-.37c-.14-.06-.62-.21-1.07-.33-.45-.11-.87-.26-.94-.31-.06-.05-.36-.18-.65-.26-.3-.07-.54-.19-.54-.24s-.23-.16-.5-.25c-.28-.09-.5-.2-.5-.25s-.14-.15-.3-.23c-1.08-.49-3.53-2.79-4.56-4.27-.63-.9-1.6-2.72-1.8-3.38-.08-.26-.23-.65-.31-.86-.09-.21-.24-.67-.31-1.01-.07-.35-.19-.72-.25-.84-.06-.11-.18-.7-.25-1.32-.08-.6-.21-1.22-.29-1.36-.11-.19-.16-4.68-.19-18.08l-.04-17.81h14.72v15.59Z" fill="currentColor"/>
    <path d="M129.73,158.45c-.64.06-1.29.16-1.43.22-.14.07-.61.18-1.04.27-.42.07-.98.22-1.24.32-1.95.78-2.9,1.3-3.55,1.93-.62.6-1.25,1.72-1.35,2.42-.03.24-.12.55-.2.69-.14.28-.09,1.13.14,2.25.26,1.22,1.3,2.7,2.23,3.14,1.64.78,1.95.9,2.87,1.04,1.64.23,4.76.1,5.44-.24.12-.06.6-.27,1.07-.46.47-.2,1.08-.53,1.37-.74.29-.2.61-.45.73-.53.74-.52,2.11-2.61,2.29-3.48.04-.22.14-.47.22-.57.09-.11.16-1.22.18-3.2l.05-3.04-.7-.07c-.95-.11-5.64-.07-7.07.05Z" fill="currentColor"/>
  </g>
    </symbol>
	
    <!-- Logo Porto -->
    <symbol id="lg-porto" viewBox="0 0 250 250">
  <rect x="0" y="0" width="250" height="250" fill="none"/>
  <g>
    <path d="M94.19,127.68c-6.96-8.53-29.91-4.07-47.79,1.64-.05.02-.1.03-.16.02-.05,0-.1-.02-.15-.05-.04-.03-.08-.07-.11-.11-.03-.05-.04-.1-.04-.15.03-.9.04-1.81.04-2.74.02-4.54-.37-9.08-1.14-13.56-.01-.08,0-.15.05-.21.04-.06.11-.11.18-.12,14.8-5.4,44.61-7.07,49.71,15.03h0c.08.33-.4.52-.61.25M79.21,152.47c-.49.36-1.13-.23-.71-.66,7.21-7.37,13.12-19.05-39.07,4.72-.32.15-.64-.19-.43-.45,2.87-4.11,5.44-10.73,6.6-20.13,0-.06.03-.11.06-.16.04-.05.08-.08.14-.1,32.71-13.14,69.65-12.66,33.4,16.78M35.55,93.7c-.06-.03-.11-.08-.14-.15-.03-.06-.03-.14-.01-.2.02-.07.06-.12.12-.16.06-.04.13-.06.2-.05,9.05.03,36.31-.65,50.36,17.26.19.31-.25.62-.53.38-4.24-3.69-15.72-9.94-42.17-4.47-.09.02-.18.01-.26-.03-.08-.04-.14-.11-.16-.2-2.1-6.73-4.78-10.37-7.41-12.38M93.68,85.19h-59.44c-2.47.02-4.83,1.02-6.57,2.78-1.73,1.76-2.7,4.14-2.68,6.61v60.33c-.02,2.47.94,4.85,2.68,6.61,1.73,1.76,4.1,2.76,6.57,2.78h59.44c2.47-.02,4.83-1.02,6.57-2.78,1.73-1.76,2.7-4.14,2.68-6.61v-60.33c.02-2.47-.95-4.85-2.68-6.61-1.73-1.76-4.1-2.76-6.57-2.78" fill="#2b56c0"/>
    <path d="M114.61,85.35h13.6c7.07,0,11.28,4.35,11.28,10.5s-4.21,10.5-11.28,10.5h-7.16v12.87h-6.44v-33.88ZM127.92,100.97c3.78,0,5.32-2.42,5.32-5.13s-1.55-5.13-5.32-5.13h-6.87v10.26h6.87ZM152.36,94.44c7.41,0,12.73,5.32,12.73,12.58s-5.32,12.58-12.73,12.58-12.78-5.32-12.78-12.58,5.32-12.58,12.78-12.58ZM152.36,114.48c4.02,0,6.73-3.05,6.73-7.45s-2.71-7.45-6.73-7.45-6.77,3.05-6.77,7.45,2.71,7.45,6.77,7.45ZM167.8,103.54c0-5.56,3.14-8.71,8.71-8.71h5.47v4.99h-4.55c-2.37,0-3.68,1.36-3.68,3.73v15.68h-5.95v-15.68h0ZM184.98,87.47h5.95v7.36h6.77v4.99h-6.77v10.65c0,2.47,1.31,3.73,3.53,3.73h3.24v5.03h-3.92c-5.32,0-8.81-3.1-8.81-8.52v-23.23ZM212.27,94.44c7.4,0,12.73,5.32,12.73,12.58s-5.32,12.58-12.73,12.58-12.78-5.32-12.78-12.58,5.32-12.58,12.78-12.58h0ZM212.27,114.48c4.02,0,6.73-3.05,6.73-7.45s-2.71-7.45-6.73-7.45-6.77,3.05-6.77,7.45,2.71,7.45,6.77,7.45h0Z" fill="#2b56c0"/>
    <path d="M114.57,129.7h13.44c6.35,0,10.86,3.18,10.86,8.93-.02,1.42-.42,2.8-1.16,4.01-.74,1.21-1.8,2.19-3.06,2.84,1.79.61,3.34,1.79,4.42,3.35,1.07,1.56,1.61,3.43,1.54,5.33,0,6.45-4.81,10.27-12.1,10.27h-13.94v-34.72h0ZM127.57,143.29c3.47,0,5.21-1.49,5.21-4.17s-1.73-4.17-5.31-4.17h-6.45v8.33h6.55ZM127.82,158.71c4.42,0,6.5-1.69,6.5-4.91s-2.08-4.96-6.5-4.96h-6.8v9.87h6.8Z"/>
    <path d="M154.2,143.59c-3.22,0-5.16,2.03-5.26,4.26h-5.46c.3-4.96,4.51-8.83,11.01-8.83s10.81,3.67,10.81,9.33v16.07h-6v-3.72c-1.04,2.48-3.92,4.11-7.49,4.11-4.96,0-8.33-3.18-8.33-7.49,0-4.86,3.77-7.89,9.37-7.89h6.45v-1.04c0-3.08-1.89-4.82-5.11-4.82ZM153.26,160.3c3.82,0,6.05-2.68,6.05-6.45v-.3h-5.31c-2.88,0-4.61,1.34-4.61,3.52,0,1.93,1.59,3.22,3.87,3.22Z"/>
    <path d="M169.62,139.42h6.1v3.87c1.39-2.73,4.22-4.26,7.79-4.26,5.65,0,9.33,4.07,9.33,9.92v15.48h-6.1v-14.19c0-3.42-2.08-5.8-5.21-5.8-3.42,0-5.8,2.68-5.8,6.35v13.64h-6.1v-25h0Z"/>
    <path d="M197.89,164.42v-35.71h6.1v19.84l9.57-9.12h7.73l-10.17,9.82,11.01,15.17h-7.39l-7.79-11.16-2.97,2.88v8.28h-6.1Z"/>
  </g>
    </symbol>
    <symbol id="lg-porto-m" viewBox="0 0 250 250">
  <rect x="0" y="0" width="250" height="250" fill="none"/>
  <g>
    <path d="M94.19,127.68c-6.96-8.53-29.91-4.07-47.79,1.64-.05.02-.1.03-.16.02-.05,0-.1-.02-.15-.05-.04-.03-.08-.07-.11-.11-.03-.05-.04-.1-.04-.15.03-.9.04-1.81.04-2.74.02-4.54-.37-9.08-1.14-13.56-.01-.08,0-.15.05-.21.04-.06.11-.11.18-.12,14.8-5.4,44.61-7.07,49.71,15.03h0c.08.33-.4.52-.61.25M79.21,152.47c-.49.36-1.13-.23-.71-.66,7.21-7.37,13.12-19.05-39.07,4.72-.32.15-.64-.19-.43-.45,2.87-4.11,5.44-10.73,6.6-20.13,0-.06.03-.11.06-.16.04-.05.08-.08.14-.1,32.71-13.14,69.65-12.66,33.4,16.78M35.55,93.7c-.06-.03-.11-.08-.14-.15-.03-.06-.03-.14-.01-.2.02-.07.06-.12.12-.16.06-.04.13-.06.2-.05,9.05.03,36.31-.65,50.36,17.26.19.31-.25.62-.53.38-4.24-3.69-15.72-9.94-42.17-4.47-.09.02-.18.01-.26-.03-.08-.04-.14-.11-.16-.2-2.1-6.73-4.78-10.37-7.41-12.38M93.68,85.19h-59.44c-2.47.02-4.83,1.02-6.57,2.78-1.73,1.76-2.7,4.14-2.68,6.61v60.33c-.02,2.47.94,4.85,2.68,6.61,1.73,1.76,4.1,2.76,6.57,2.78h59.44c2.47-.02,4.83-1.02,6.57-2.78,1.73-1.76,2.7-4.14,2.68-6.61v-60.33c.02-2.47-.95-4.85-2.68-6.61-1.73-1.76-4.1-2.76-6.57-2.78" fill="currentColor"/>
    <path d="M114.61,85.35h13.6c7.07,0,11.28,4.35,11.28,10.5s-4.21,10.5-11.28,10.5h-7.16v12.87h-6.44v-33.88ZM127.92,100.97c3.78,0,5.32-2.42,5.32-5.13s-1.55-5.13-5.32-5.13h-6.87v10.26h6.87ZM152.36,94.44c7.41,0,12.73,5.32,12.73,12.58s-5.32,12.58-12.73,12.58-12.78-5.32-12.78-12.58,5.32-12.58,12.78-12.58ZM152.36,114.48c4.02,0,6.73-3.05,6.73-7.45s-2.71-7.45-6.73-7.45-6.77,3.05-6.77,7.45,2.71,7.45,6.77,7.45ZM167.8,103.54c0-5.56,3.14-8.71,8.71-8.71h5.47v4.99h-4.55c-2.37,0-3.68,1.36-3.68,3.73v15.68h-5.95v-15.68h0ZM184.98,87.47h5.95v7.36h6.77v4.99h-6.77v10.65c0,2.47,1.31,3.73,3.53,3.73h3.24v5.03h-3.92c-5.32,0-8.81-3.1-8.81-8.52v-23.23ZM212.27,94.44c7.4,0,12.73,5.32,12.73,12.58s-5.32,12.58-12.73,12.58-12.78-5.32-12.78-12.58,5.32-12.58,12.78-12.58h0ZM212.27,114.48c4.02,0,6.73-3.05,6.73-7.45s-2.71-7.45-6.73-7.45-6.77,3.05-6.77,7.45,2.71,7.45,6.77,7.45h0Z" fill="currentColor"/>
    <path d="M114.57,129.7h13.44c6.35,0,10.86,3.18,10.86,8.93-.02,1.42-.42,2.8-1.16,4.01-.74,1.21-1.8,2.19-3.06,2.84,1.79.61,3.34,1.79,4.42,3.35,1.07,1.56,1.61,3.43,1.54,5.33,0,6.45-4.81,10.27-12.1,10.27h-13.94v-34.72h0ZM127.57,143.29c3.47,0,5.21-1.49,5.21-4.17s-1.73-4.17-5.31-4.17h-6.45v8.33h6.55ZM127.82,158.71c4.42,0,6.5-1.69,6.5-4.91s-2.08-4.96-6.5-4.96h-6.8v9.87h6.8Z" fill="currentColor"/>
    <path d="M154.2,143.59c-3.22,0-5.16,2.03-5.26,4.26h-5.46c.3-4.96,4.51-8.83,11.01-8.83s10.81,3.67,10.81,9.33v16.07h-6v-3.72c-1.04,2.48-3.92,4.11-7.49,4.11-4.96,0-8.33-3.18-8.33-7.49,0-4.86,3.77-7.89,9.37-7.89h6.45v-1.04c0-3.08-1.89-4.82-5.11-4.82ZM153.26,160.3c3.82,0,6.05-2.68,6.05-6.45v-.3h-5.31c-2.88,0-4.61,1.34-4.61,3.52,0,1.93,1.59,3.22,3.87,3.22Z" fill="currentColor"/>
    <path d="M169.62,139.42h6.1v3.87c1.39-2.73,4.22-4.26,7.79-4.26,5.65,0,9.33,4.07,9.33,9.92v15.48h-6.1v-14.19c0-3.42-2.08-5.8-5.21-5.8-3.42,0-5.8,2.68-5.8,6.35v13.64h-6.1v-25h0Z" fill="currentColor"/>
    <path d="M197.89,164.42v-35.71h6.1v19.84l9.57-9.12h7.73l-10.17,9.82,11.01,15.17h-7.39l-7.79-11.16-2.97,2.88v8.28h-6.1Z" fill="currentColor"/>
  </g>
    </symbol>

    <!-- Logo Sicoob -->
    <symbol id="lg-sicoob" viewBox="0 0 250 250">
  <rect y="0" width="250" height="250" fill="none"/>
  <g>
    <path d="M39.72,105.59c-.35.03-.7.12-1.02.32-.76.44-1.2,1.25-1.2,2.07,0,.35.09.73.26,1.08l11.75,20.46,3.82-6.6,6.21-10.74-3.82-6.6h-16.01Z" fill="#6ebb49"/>
    <path d="M39.72,105.59c-.35.03-.7.12-1.02.32-.76.44-1.2,1.25-1.2,2.07,0,.35.09.73.26,1.08l11.75,20.46,3.82-6.6,6.21-10.74-3.82-6.6h-16.01Z" fill="#6ebb49"/>
    <path d="M55.76,105.59l10,17.31h7.58l8.02-13.89c.15-.32.23-.64.23-1.02,0-1.28-.99-2.31-2.25-2.39h-23.59Z" fill="#00ae9c"/>
    <path d="M72.81,122.9h-19.45l-3.82,6.6,8.05,13.89c.17.29.47.53.76.73.38.2.79.32,1.2.32.79,0,1.55-.41,2.01-1.08l11.81-20.46h-.55Z" fill="#b8d335"/>
    <path d="M149.57,111.81h-.15c-7.87.09-12.74,6.07-12.74,13.57s4.43,13.25,12.48,13.25h.29c7.84-.09,12.74-5.4,12.74-13.69-.03-6.92-4.26-13.13-12.63-13.13ZM149.51,133.14l-.09-.03c-3.35,0-5.45-3.24-5.39-7.88,0-4.52,2.04-7.91,5.39-7.91s5.39,3.39,5.39,7.88-1.95,7.94-5.31,7.94ZM207.43,124.18v-.06c3.06-1.17,4.23-3.27,4.23-5.43,0-2.54-1.46-4.41-3.5-5.37-1.72-.85-3.59-1.17-6.36-1.26-.5-.03-1.02-.03-1.6-.03-3.18,0-6.62.26-8.19.58v25.45c1.4.26,3.7.47,6.85.47,1.05,0,2.01-.03,2.95-.09,3.79-.26,6.21-1.05,7.79-2.22,1.75-1.31,2.92-3.24,2.92-5.69,0-3.12-1.92-5.49-5.07-6.36ZM198.88,117.21c.47-.09,1.14-.15,2.27-.15.2,0,.44.03.61.03,1.93.15,2.89,1.08,2.89,2.42s-.93,2.31-2.89,2.6c-.47.06-.96.12-1.52.12h-1.37v-5.02ZM201.8,133.38c-.29.03-.58.06-.87.06-.88,0-1.52,0-2.01-.09v-6.19h1.66c.44,0,.85,0,1.23.06,1.98.26,3.38,1.14,3.38,2.98,0,2.01-1.49,2.98-3.38,3.18ZM189.9,124.97c0-6.95-4.23-13.16-12.6-13.16h-.15c-7.87.09-12.74,6.07-12.74,13.57s4.43,13.25,12.48,13.25h.26c7.84-.09,12.74-5.4,12.74-13.66ZM177.24,133.14l-.09-.03c-3.35,0-5.42-3.24-5.39-7.88,0-4.52,2.04-7.91,5.39-7.91s5.4,3.39,5.4,7.88-1.95,7.94-5.31,7.94ZM134.67,132.09c-1.08.44-2.97.73-4.64.73-4.78,0-7.58-2.95-7.58-7.62,0-5.28,3.44-7.65,7.44-7.65,2.07,0,4.23.61,4.81.93,1.22-2.8.93-6.63-5.13-6.63-7.76,0-14.46,4.67-14.46,13.78,0,6.92,4.29,12.96,14,12.96,3.09,0,5.54-.58,6.5-1.08l-.93-5.43ZM104.86,112.24v25.98h6.97v-21.72c-.03-3.3-1.78-4.26-6.97-4.26ZM94.72,122.49c-3.3-1.23-4.67-1.72-4.67-3.04,0-1.17,1.17-1.93,3.3-1.93,2.6,0,5.13.96,5.63,1.23.99-2.66,1.55-6.92-5.54-6.92-6.56,0-10.44,3.56-10.44,8.14,0,3.85,2.95,6.25,7.32,7.82,2.95.99,4.08,1.69,4.08,2.98s-1.17,2.1-3.56,2.1c-2.6,0-5.13-.79-6.74-1.63l-1.31,5.75c1.46.79,4.49,1.58,7.61,1.58,7.58,0,11.05-3.82,11.05-8.29,0-3.59-2.07-6.07-6.74-7.79Z" fill="#fff"/>
    <path d="M81.33,108.98c.15-.32.23-.67.23-1.05,0-.88-.5-1.66-1.2-2.07-.32-.18-.67-.29-1.05-.29l-23.59.06,3.82,6.6,6.21,10.71,7.61-.06,7.96-13.89Z" fill="#00ae9c"/>
    <path d="M57.56,143.39c.2.29.47.53.79.73.76.44,1.66.41,2.39,0,.32-.18.58-.44.79-.76l11.81-20.43h-7.61l-12.39-.03-3.79,6.6,8.02,13.89Z" fill="#b8d335"/>
  </g>
    </symbol>
    <symbol id="lg-sicoob-m" viewBox="0 0 250 250">
  <rect y="0" width="250" height="250" fill="none"/>
  <g>
    <path d="M39.72,105.59c-.35.03-.7.12-1.02.32-.76.44-1.2,1.25-1.2,2.07,0,.35.09.73.26,1.08l11.75,20.46,3.82-6.6,6.21-10.74-3.82-6.6h-16.01Z" fill="currentColor"/>
    <path d="M39.72,105.59c-.35.03-.7.12-1.02.32-.76.44-1.2,1.25-1.2,2.07,0,.35.09.73.26,1.08l11.75,20.46,3.82-6.6,6.21-10.74-3.82-6.6h-16.01Z" fill="currentColor"/>
    <path d="M55.76,105.59l10,17.31h7.58l8.02-13.89c.15-.32.23-.64.23-1.02,0-1.28-.99-2.31-2.25-2.39h-23.59Z" fill="currentColor"/>
    <path d="M72.81,122.9h-19.45l-3.82,6.6,8.05,13.89c.17.29.47.53.76.73.38.2.79.32,1.2.32.79,0,1.55-.41,2.01-1.08l11.81-20.46h-.55Z" fill="currentColor"/>
    <path d="M149.57,111.81h-.15c-7.87.09-12.74,6.07-12.74,13.57s4.43,13.25,12.48,13.25h.29c7.84-.09,12.74-5.4,12.74-13.69-.03-6.92-4.26-13.13-12.63-13.13ZM149.51,133.14l-.09-.03c-3.35,0-5.45-3.24-5.39-7.88,0-4.52,2.04-7.91,5.39-7.91s5.39,3.39,5.39,7.88-1.95,7.94-5.31,7.94ZM207.43,124.18v-.06c3.06-1.17,4.23-3.27,4.23-5.43,0-2.54-1.46-4.41-3.5-5.37-1.72-.85-3.59-1.17-6.36-1.26-.5-.03-1.02-.03-1.6-.03-3.18,0-6.62.26-8.19.58v25.45c1.4.26,3.7.47,6.85.47,1.05,0,2.01-.03,2.95-.09,3.79-.26,6.21-1.05,7.79-2.22,1.75-1.31,2.92-3.24,2.92-5.69,0-3.12-1.92-5.49-5.07-6.36ZM198.88,117.21c.47-.09,1.14-.15,2.27-.15.2,0,.44.03.61.03,1.93.15,2.89,1.08,2.89,2.42s-.93,2.31-2.89,2.6c-.47.06-.96.12-1.52.12h-1.37v-5.02ZM201.8,133.38c-.29.03-.58.06-.87.06-.88,0-1.52,0-2.01-.09v-6.19h1.66c.44,0,.85,0,1.23.06,1.98.26,3.38,1.14,3.38,2.98,0,2.01-1.49,2.98-3.38,3.18ZM189.9,124.97c0-6.95-4.23-13.16-12.6-13.16h-.15c-7.87.09-12.74,6.07-12.74,13.57s4.43,13.25,12.48,13.25h.26c7.84-.09,12.74-5.4,12.74-13.66ZM177.24,133.14l-.09-.03c-3.35,0-5.42-3.24-5.39-7.88,0-4.52,2.04-7.91,5.39-7.91s5.4,3.39,5.4,7.88-1.95,7.94-5.31,7.94ZM134.67,132.09c-1.08.44-2.97.73-4.64.73-4.78,0-7.58-2.95-7.58-7.62,0-5.28,3.44-7.65,7.44-7.65,2.07,0,4.23.61,4.81.93,1.22-2.8.93-6.63-5.13-6.63-7.76,0-14.46,4.67-14.46,13.78,0,6.92,4.29,12.96,14,12.96,3.09,0,5.54-.58,6.5-1.08l-.93-5.43ZM104.86,112.24v25.98h6.97v-21.72c-.03-3.3-1.78-4.26-6.97-4.26ZM94.72,122.49c-3.3-1.23-4.67-1.72-4.67-3.04,0-1.17,1.17-1.93,3.3-1.93,2.6,0,5.13.96,5.63,1.23.99-2.66,1.55-6.92-5.54-6.92-6.56,0-10.44,3.56-10.44,8.14,0,3.85,2.95,6.25,7.32,7.82,2.95.99,4.08,1.69,4.08,2.98s-1.17,2.1-3.56,2.1c-2.6,0-5.13-.79-6.74-1.63l-1.31,5.75c1.46.79,4.49,1.58,7.61,1.58,7.58,0,11.05-3.82,11.05-8.29,0-3.59-2.07-6.07-6.74-7.79Z" fill="currentColor"/>
    <path d="M81.33,108.98c.15-.32.23-.67.23-1.05,0-.88-.5-1.66-1.2-2.07-.32-.18-.67-.29-1.05-.29l-23.59.06,3.82,6.6,6.21,10.71,7.61-.06,7.96-13.89Z" fill="currentColor"/>
    <path d="M57.56,143.39c.2.29.47.53.79.73.76.44,1.66.41,2.39,0,.32-.18.58-.44.79-.76l11.81-20.43h-7.61l-12.39-.03-3.79,6.6,8.02,13.89Z" fill="currentColor"/>
  </g>
    </symbol>
	
    <!-- Logo Socredi -->
    <symbol id="lg-sicredi" viewBox="0 0 250 250">
  <rect y="0" width="250" height="250" fill="none"/>
  <g>
    <path d="M63.55,116.9c-.01,1.76-.47,2.65-1.04,2.72-.37.04-.8-.26-1.19-.9-1.28-2.09-2.68-4.09-4.16-6.04,0,0,0,0,0-.01.58-3.09,1.5-6.24,3.08-8.98,1.97,3.96,3.34,8.81,3.31,13.22ZM56.15,116.8c1.39,1.25,1.78,2.24,1.46,2.78-.2.36-.71.52-1.46.44-2.5-.29-4.99-.41-7.52-.43,0,0,0,0,0-.01-2.38-2.83-4.54-6.01-5.92-9.45,4.72,1.12,9.83,3.44,13.44,6.67M51.38,123.25c1.86-.39,2.88-.07,3.11.54.15.4-.04.94-.56,1.52-1.74,1.9-3.34,3.89-4.88,5.97h-.01c-3.76.28-7.67.12-11.33-.79,3.74-3.3,8.8-6.21,13.68-7.24M53.52,131.2c.82-1.73,1.69-2.38,2.28-2.2.39.12.68.59.79,1.36.34,2.41.82,4.77,1.41,7.13,0,0,0,0,0,.01-2.04,2.89-4.24,5.68-6.99,7.94-.33-4.68.53-10.02,2.51-14.24ZM60.57,134.04c-.72-1.58-.67-2.66-.18-3.03.32-.24.84-.2,1.44.16,1.83,1.08,3.71,2.08,5.68,2.88,0,0,0,0,0,.01.71,2.96,1.12,6.06.94,9.11-3.29-2.15-6.27-5.6-7.88-9.13ZM66.79,130.14c-1.5-.33-2.22-1-2.18-1.61.03-.4.38-.79,1-1.06,1.89-.84,3.76-1.76,5.51-2.86,0,0,0,0,0,0,2.33,1.18,4.56,2.69,6.36,4.59-3.27,1.27-7.32,1.68-10.7.93ZM68.02,122.78c-1.19,1.04-2.11,1.21-2.51.79-.26-.28-.32-.81-.12-1.5.63-2.19,1.12-4.4,1.53-6.65,0,0,0,0,.01,0,2.4-1.12,4.81-2.15,7.47-2.42-1.26,3.58-3.54,7.3-6.39,9.79" fill="#fff"/>
    <path d="M60.24,103.68c-1.58,2.74-2.5,5.89-3.07,8.98,0,0,0,0,0,.01-.4-.51-.92-1.13-1.38-1.69-1.72-2.14-3.63-4.14-5.55-6.1,3.16-1.27,6.63-1.68,10.01-1.19ZM37.5,120.44c2.95-.36,5.91-.69,8.84-.79.76-.03,1.62-.06,2.3-.06,0,0,0,0,0-.01-2.38-2.83-4.54-6.01-5.92-9.45-2.63,2.9-4.42,6.49-5.21,10.31M43.31,140.54c1.39-2.52,2.85-5.01,4.44-7.37.42-.62.9-1.34,1.3-1.9h-.01c-3.76.28-7.66.12-11.33-.79.94,3.77,2.86,7.28,5.6,10.05ZM61,146.22c-.89-2.24-1.75-4.5-2.43-6.78-.19-.63-.41-1.37-.57-1.96,0,0,0,0,0,.01-2.04,2.89-4.24,5.68-6.99,7.94,3.32.97,6.55,1.43,9.99.78ZM74.78,136.42c-1.92-.48-3.83-1.03-5.66-1.75-.52-.21-1.13-.42-1.61-.63,0,0,0,0,0,.01.71,2.96,1.12,6.06.94,9.11,2.58-1.74,4.75-4.06,6.33-6.73M77.35,120.13c-1.54,1.26-3.12,2.48-4.79,3.55-.47.3-1,.66-1.44.93,0,0,0,0,0,0,2.33,1.18,4.56,2.69,6.36,4.59.43-3.15.39-5.94-.14-9.07ZM67.84,106.47c-.14,2.36-.31,4.72-.63,7.03-.09.62-.19,1.35-.28,1.93,0,0,0,0,.01,0,2.4-1.12,4.81-2.15,7.47-2.42-1.67-2.63-3.91-4.88-6.56-6.53" fill="#fff"/>
    <path d="M202.08,110.27l-4.09,28.77h-5.2v-3.22c-2.58,2.46-5.25,3.7-7.96,3.7-1.9,0-3.31-.55-4.3-1.68-1.53-1.74-1.98-4.81-1.37-9.4,1.2-8.59,4.41-10.32,9.21-10.32,1.9,0,4.07.17,6.01.46l1.18-8.32h6.52ZM190.87,122.87c-3.62,0-4.39.46-5.11,5.73-.37,2.7-.47,4.39.06,5,.22.25.6.36,1.17.34,1.98-.04,3.55-1.08,5.58-2.87l1.15-8.2h-2.85,0ZM132.13,118.13c-3.69,0-6.21.76-7.95,2.4-1.71,1.62-2.72,4.1-3.28,8.03-.56,3.91-.08,6.66,1.45,8.43,1.48,1.7,3.99,2.53,7.68,2.53,1.81,0,4.47-.16,6.87-.95l.17-.05.68-4.81-.43.07c-1.67.24-3.77.36-6.24.36-1.71,0-2.56-.21-3.04-.75-.59-.66-.7-1.96-.38-4.47.57-4.66,2.02-5.41,5.27-5.41,1.32,0,6.24.08,6.24.08l.64-4.56s-2.76-.91-7.68-.91M176.37,120.4c.99,1.14,1.32,2.74,1.02,4.88-.63,4.33-3.68,5.41-8.39,5.74l-5.6.42c.15,2.35,1.38,2.79,3.69,2.79,1.99,0,6.79-.23,7.57-.43l.32-.08.04.32c.19,1.7.76,3.58.77,3.6l.07.24-.24.1c-2.55,1.07-6.56,1.55-9.21,1.55-3.76,0-6.35-.85-7.91-2.6-1.59-1.78-2.14-4.57-1.67-8.51.93-7.69,3.91-10.28,11.79-10.28,3.9,0,6.43.74,7.75,2.26M168.07,126.97c1.9-.15,2.78-.52,3-2.32.05-.63-.01-1.01-.21-1.23-.3-.32-1-.39-2.03-.39-.19,0-.4,0-.61,0-3.05,0-3.81,1.04-4.41,4.33l4.26-.4h0ZM157.55,118.7h-1.26c-2.39,0-4.73,1.18-7.74,3.92v-3.92h-5.16l-2.86,20.35h6.53l1.58-11.7c.82-1.05,3.11-2.28,4.81-2.28h1.39l.05-.22s.59-2.64,2.4-5.72l.25-.43h0ZM89,117.78c-.55,4.2.93,6.68,4.92,8.3l5.28,2.09c1.68.61,2.05.92,1.83,2.58-.33,2.13-1.16,2.7-4.85,2.7h-8.97l-.8,5.59h10.03c7.81,0,10.43-1.84,11.23-7.86.49-3.8-.17-6.53-4.97-8.38l-4.99-1.89c-1.93-.72-2.29-1.01-2.03-2.7.3-1.88.99-2.29,2.44-2.39h10.7l.8-5.59h-9.55c-6.5,0-10.19,1.2-11.06,7.54M109.67,139.05h6.49l2.86-20.35h-6.49l-2.86,20.35ZM119.41,115.82l.78-5.59h-6.49l-.78,5.59h6.49ZM201.97,139.05h6.49l2.86-20.35h-6.49l-2.86,20.35ZM211.72,115.82l.78-5.59h-6.49l-.78,5.59h6.49Z" fill="#fff"/>
  </g>
    </symbol>
    <symbol id="lg-sicredi-m" viewBox="0 0 250 250">
  <rect y="0" width="250" height="250" fill="none"/>
  <g>
    <path d="M63.55,116.9c-.01,1.76-.47,2.65-1.04,2.72-.37.04-.8-.26-1.19-.9-1.28-2.09-2.68-4.09-4.16-6.04,0,0,0,0,0-.01.58-3.09,1.5-6.24,3.08-8.98,1.97,3.96,3.34,8.81,3.31,13.22ZM56.15,116.8c1.39,1.25,1.78,2.24,1.46,2.78-.2.36-.71.52-1.46.44-2.5-.29-4.99-.41-7.52-.43,0,0,0,0,0-.01-2.38-2.83-4.54-6.01-5.92-9.45,4.72,1.12,9.83,3.44,13.44,6.67M51.38,123.25c1.86-.39,2.88-.07,3.11.54.15.4-.04.94-.56,1.52-1.74,1.9-3.34,3.89-4.88,5.97h-.01c-3.76.28-7.67.12-11.33-.79,3.74-3.3,8.8-6.21,13.68-7.24M53.52,131.2c.82-1.73,1.69-2.38,2.28-2.2.39.12.68.59.79,1.36.34,2.41.82,4.77,1.41,7.13,0,0,0,0,0,.01-2.04,2.89-4.24,5.68-6.99,7.94-.33-4.68.53-10.02,2.51-14.24ZM60.57,134.04c-.72-1.58-.67-2.66-.18-3.03.32-.24.84-.2,1.44.16,1.83,1.08,3.71,2.08,5.68,2.88,0,0,0,0,0,.01.71,2.96,1.12,6.06.94,9.11-3.29-2.15-6.27-5.6-7.88-9.13ZM66.79,130.14c-1.5-.33-2.22-1-2.18-1.61.03-.4.38-.79,1-1.06,1.89-.84,3.76-1.76,5.51-2.86,0,0,0,0,0,0,2.33,1.18,4.56,2.69,6.36,4.59-3.27,1.27-7.32,1.68-10.7.93ZM68.02,122.78c-1.19,1.04-2.11,1.21-2.51.79-.26-.28-.32-.81-.12-1.5.63-2.19,1.12-4.4,1.53-6.65,0,0,0,0,.01,0,2.4-1.12,4.81-2.15,7.47-2.42-1.26,3.58-3.54,7.3-6.39,9.79" fill="currentColor"/>
    <path d="M60.24,103.68c-1.58,2.74-2.5,5.89-3.07,8.98,0,0,0,0,0,.01-.4-.51-.92-1.13-1.38-1.69-1.72-2.14-3.63-4.14-5.55-6.1,3.16-1.27,6.63-1.68,10.01-1.19ZM37.5,120.44c2.95-.36,5.91-.69,8.84-.79.76-.03,1.62-.06,2.3-.06,0,0,0,0,0-.01-2.38-2.83-4.54-6.01-5.92-9.45-2.63,2.9-4.42,6.49-5.21,10.31M43.31,140.54c1.39-2.52,2.85-5.01,4.44-7.37.42-.62.9-1.34,1.3-1.9h-.01c-3.76.28-7.66.12-11.33-.79.94,3.77,2.86,7.28,5.6,10.05ZM61,146.22c-.89-2.24-1.75-4.5-2.43-6.78-.19-.63-.41-1.37-.57-1.96,0,0,0,0,0,.01-2.04,2.89-4.24,5.68-6.99,7.94,3.32.97,6.55,1.43,9.99.78ZM74.78,136.42c-1.92-.48-3.83-1.03-5.66-1.75-.52-.21-1.13-.42-1.61-.63,0,0,0,0,0,.01.71,2.96,1.12,6.06.94,9.11,2.58-1.74,4.75-4.06,6.33-6.73M77.35,120.13c-1.54,1.26-3.12,2.48-4.79,3.55-.47.3-1,.66-1.44.93,0,0,0,0,0,0,2.33,1.18,4.56,2.69,6.36,4.59.43-3.15.39-5.94-.14-9.07ZM67.84,106.47c-.14,2.36-.31,4.72-.63,7.03-.09.62-.19,1.35-.28,1.93,0,0,0,0,.01,0,2.4-1.12,4.81-2.15,7.47-2.42-1.67-2.63-3.91-4.88-6.56-6.53" fill="currentColor"/>
    <path d="M202.08,110.27l-4.09,28.77h-5.2v-3.22c-2.58,2.46-5.25,3.7-7.96,3.7-1.9,0-3.31-.55-4.3-1.68-1.53-1.74-1.98-4.81-1.37-9.4,1.2-8.59,4.41-10.32,9.21-10.32,1.9,0,4.07.17,6.01.46l1.18-8.32h6.52ZM190.87,122.87c-3.62,0-4.39.46-5.11,5.73-.37,2.7-.47,4.39.06,5,.22.25.6.36,1.17.34,1.98-.04,3.55-1.08,5.58-2.87l1.15-8.2h-2.85,0ZM132.13,118.13c-3.69,0-6.21.76-7.95,2.4-1.71,1.62-2.72,4.1-3.28,8.03-.56,3.91-.08,6.66,1.45,8.43,1.48,1.7,3.99,2.53,7.68,2.53,1.81,0,4.47-.16,6.87-.95l.17-.05.68-4.81-.43.07c-1.67.24-3.77.36-6.24.36-1.71,0-2.56-.21-3.04-.75-.59-.66-.7-1.96-.38-4.47.57-4.66,2.02-5.41,5.27-5.41,1.32,0,6.24.08,6.24.08l.64-4.56s-2.76-.91-7.68-.91M176.37,120.4c.99,1.14,1.32,2.74,1.02,4.88-.63,4.33-3.68,5.41-8.39,5.74l-5.6.42c.15,2.35,1.38,2.79,3.69,2.79,1.99,0,6.79-.23,7.57-.43l.32-.08.04.32c.19,1.7.76,3.58.77,3.6l.07.24-.24.1c-2.55,1.07-6.56,1.55-9.21,1.55-3.76,0-6.35-.85-7.91-2.6-1.59-1.78-2.14-4.57-1.67-8.51.93-7.69,3.91-10.28,11.79-10.28,3.9,0,6.43.74,7.75,2.26M168.07,126.97c1.9-.15,2.78-.52,3-2.32.05-.63-.01-1.01-.21-1.23-.3-.32-1-.39-2.03-.39-.19,0-.4,0-.61,0-3.05,0-3.81,1.04-4.41,4.33l4.26-.4h0ZM157.55,118.7h-1.26c-2.39,0-4.73,1.18-7.74,3.92v-3.92h-5.16l-2.86,20.35h6.53l1.58-11.7c.82-1.05,3.11-2.28,4.81-2.28h1.39l.05-.22s.59-2.64,2.4-5.72l.25-.43h0ZM89,117.78c-.55,4.2.93,6.68,4.92,8.3l5.28,2.09c1.68.61,2.05.92,1.83,2.58-.33,2.13-1.16,2.7-4.85,2.7h-8.97l-.8,5.59h10.03c7.81,0,10.43-1.84,11.23-7.86.49-3.8-.17-6.53-4.97-8.38l-4.99-1.89c-1.93-.72-2.29-1.01-2.03-2.7.3-1.88.99-2.29,2.44-2.39h10.7l.8-5.59h-9.55c-6.5,0-10.19,1.2-11.06,7.54M109.67,139.05h6.49l2.86-20.35h-6.49l-2.86,20.35ZM119.41,115.82l.78-5.59h-6.49l-.78,5.59h6.49ZM201.97,139.05h6.49l2.86-20.35h-6.49l-2.86,20.35ZM211.72,115.82l.78-5.59h-6.49l-.78,5.59h6.49Z" fill="currentColor"/>
  </g>
    </symbol>
	
    <!-- Logo Solfácil -->
    <symbol id="lg-solfacil" viewBox="0 0 250 250">
  <defs>
    <linearGradient id="Gradiente_sem_nome_6" data-name="Gradiente sem nome 6" x1="78.84" y1="-1541.04" x2="78.84" y2="-1500.96" gradientTransform="translate(0 -1392.12) scale(1 -1)" gradientUnits="userSpaceOnUse">
      <stop offset="0" stop-color="#00b569"/>
      <stop offset="1" stop-color="#bfff00"/>
    </linearGradient>
  </defs>
  <rect x="0" y="0" width="250" height="250" fill="none"/>
  <g>
    <path d="M97.07,120.64h-36.46c-.41.91-.75,1.85-1.02,2.82h38.51c-.27-.97-.61-1.91-1.02-2.82ZM78.84,148.86c4.93,0,9.43-1.78,12.92-4.74h-25.84c3.48,2.95,7.99,4.74,12.92,4.74ZM93.03,114.77h-28.38c-.72.72-1.38,1.5-1.98,2.33h32.34c-.6-.83-1.26-1.6-1.98-2.33ZM80.07,108.9c-.41-.02-.82-.04-1.23-.04s-.82.02-1.23.04c-2.57.16-5.01.8-7.23,1.84h16.92c-2.22-1.04-4.66-1.68-7.23-1.84ZM98.7,126.51h-39.71c-.09.77-.14,1.55-.14,2.35,0,.32,0,.64.02.96h39.95c.01-.32.02-.64.02-.96,0-.79-.05-1.58-.14-2.35ZM64.26,142.53h29.17c1.2-1.28,2.24-2.72,3.07-4.28h-35.31c.83,1.56,1.87,3,3.07,4.28ZM60.23,136.17h37.22c.48-1.21.84-2.48,1.07-3.8h-39.37c.23,1.32.59,2.58,1.07,3.8Z" fill="url(#Gradiente_sem_nome_6)"/>
    <path d="M40.22,145.68c-4.86,0-8.6-.88-11.22-2.65-2.62-1.77-3.95-4.14-4-7.11h5c.05,1.55.85,2.93,2.39,4.14,1.55,1.21,4.15,1.82,7.82,1.82,3.38,0,5.92-.58,7.61-1.76,1.69-1.17,2.54-2.59,2.54-4.26,0-2.98-2.74-4.72-8.22-5.24l-4.29-.36c-3.48-.32-6.26-1.19-8.36-2.62-2.1-1.43-3.14-3.43-3.14-6.01,0-2.78,1.26-5.02,3.79-6.73,2.52-1.71,5.88-2.56,10.07-2.56s7.35.79,9.89,2.38c2.55,1.59,3.85,3.85,3.89,6.79h-5c-.05-1.51-.81-2.78-2.29-3.81-1.48-1.03-3.64-1.55-6.5-1.55s-5.16.55-6.61,1.64c-1.45,1.09-2.18,2.39-2.18,3.9,0,1.31.55,2.39,1.64,3.25,1.09.85,2.81,1.38,5.14,1.58l4.29.36c3.81.36,6.92,1.27,9.32,2.74,2.4,1.47,3.61,3.57,3.61,6.31,0,1.87-.63,3.54-1.89,5.03-1.26,1.49-3.04,2.65-5.32,3.48-2.28.83-4.95,1.25-8,1.25Z" fill="#fafafa"/>
    <path d="M102.46,101.32h5.14v43.46h-5.14v-43.46Z" fill="#fafafa"/>
    <path d="M114.22,110.85c0-3.33,1.04-5.79,3.11-7.35,2.07-1.57,5.13-2.35,9.18-2.35h4.79v3.81h-5.79c-2,0-3.53.44-4.57,1.31-1.05.87-1.57,2.1-1.57,3.69v2.98h9.69v4.12h-9.69v27.73h-5.14v-33.94Z" fill="#fafafa"/>
    <path d="M142.15,145.62c-7.38,0-12.13-4.12-12.13-10.12,0-3.18,1.3-5.62,3.89-7.32,2.59-1.71,6.25-2.56,10.97-2.56h10.57v-1.29c0-2.34-.74-4.14-2.21-5.39-1.48-1.25-3.76-1.87-6.86-1.87h-11.15v-4.12h9.22c6.79,0,9.89.9,12.4,2.71,2.5,1.81,3.75,4.77,3.75,8.9v20.24h-5.14v-8.26c-1.96,5.31-8.19,9.09-13.31,9.09ZM142.36,141.21c11.53,0,13.09-11.22,13.09-11.9v-.26l-10.11-.05c-7.53,0-10.11,2.93-10.11,6.55,0,4.14,4.27,5.66,7.13,5.66Z" fill="#fafafa"/>
    <path d="M166.38,128.95v-.42c0-1.99.39-3.95,1.18-5.89.79-1.94,1.97-3.71,3.54-5.3,1.57-1.59,3.54-2.86,5.89-3.81,2.36-.95,5.13-1.43,8.32-1.43s5.92.49,8.47,1.46c2.55.97,4.61,2.34,6.18,4.11,1.57,1.77,2.47,3.84,2.71,6.22h-5.14c-.28-2.14-1.54-3.98-3.75-5.51-2.21-1.53-5.04-2.29-8.47-2.29-3.05,0-5.57.58-7.57,1.76-2,1.17-3.5,2.73-4.5,4.67-1,1.94-1.5,4.09-1.5,6.43s.5,4.49,1.5,6.43c1,1.94,2.5,3.5,4.5,4.67,2,1.17,4.52,1.76,7.57,1.76,3.43,0,6.25-.76,8.47-2.29,2.21-1.53,3.47-3.36,3.75-5.51h5.14c-.24,2.38-1.14,4.46-2.71,6.22-1.57,1.77-3.63,3.14-6.18,4.11-2.55.97-5.37,1.46-8.47,1.46s-5.97-.48-8.32-1.43c-2.36-.95-4.32-2.22-5.89-3.81-1.57-1.59-2.75-3.35-3.54-5.3-.79-1.94-1.18-3.91-1.18-5.89v-.42Z" fill="#fafafa"/>
    <path d="M208.2,144.78v-31.5h5.14v31.5h-5.14Z" fill="#fafafa"/>
    <path d="M208.2,108.35v-7.03h5.14v7.03h-5.14Z" fill="#fafafa"/>
    <path d="M139.07,105.62l16.38-4.3v3.75l-16.38,4.3v-3.75Z" fill="#fafafa"/>
    <path d="M219.86,101.32h5.14v43.46h-5.14v-43.46Z" fill="#fafafa"/>
  </g>
    </symbol>
    <symbol id="lg-solfacil-m" viewBox="0 0 250 250">
  <rect x="0" y="0" width="250" height="250" fill="none"/>
  <g>
    <path d="M97.07,120.64h-36.46c-.41.91-.75,1.85-1.02,2.82h38.51c-.27-.97-.61-1.91-1.02-2.82ZM78.84,148.86c4.93,0,9.43-1.78,12.92-4.74h-25.84c3.48,2.95,7.99,4.74,12.92,4.74ZM93.03,114.77h-28.38c-.72.72-1.38,1.5-1.98,2.33h32.34c-.6-.83-1.26-1.6-1.98-2.33ZM80.07,108.9c-.41-.02-.82-.04-1.23-.04s-.82.02-1.23.04c-2.57.16-5.01.8-7.23,1.84h16.92c-2.22-1.04-4.66-1.68-7.23-1.84ZM98.7,126.51h-39.71c-.09.77-.14,1.55-.14,2.35,0,.32,0,.64.02.96h39.95c.01-.32.02-.64.02-.96,0-.79-.05-1.58-.14-2.35ZM64.26,142.53h29.17c1.2-1.28,2.24-2.72,3.07-4.28h-35.31c.83,1.56,1.87,3,3.07,4.28ZM60.23,136.17h37.22c.48-1.21.84-2.48,1.07-3.8h-39.37c.23,1.32.59,2.58,1.07,3.8Z" fill="currentColor"/>
    <path d="M40.22,145.68c-4.86,0-8.6-.88-11.22-2.65-2.62-1.77-3.95-4.14-4-7.11h5c.05,1.55.85,2.93,2.39,4.14,1.55,1.21,4.15,1.82,7.82,1.82,3.38,0,5.92-.58,7.61-1.76,1.69-1.17,2.54-2.59,2.54-4.26,0-2.98-2.74-4.72-8.22-5.24l-4.29-.36c-3.48-.32-6.26-1.19-8.36-2.62-2.1-1.43-3.14-3.43-3.14-6.01,0-2.78,1.26-5.02,3.79-6.73,2.52-1.71,5.88-2.56,10.07-2.56s7.35.79,9.89,2.38c2.55,1.59,3.85,3.85,3.89,6.79h-5c-.05-1.51-.81-2.78-2.29-3.81-1.48-1.03-3.64-1.55-6.5-1.55s-5.16.55-6.61,1.64c-1.45,1.09-2.18,2.39-2.18,3.9,0,1.31.55,2.39,1.64,3.25,1.09.85,2.81,1.38,5.14,1.58l4.29.36c3.81.36,6.92,1.27,9.32,2.74,2.4,1.47,3.61,3.57,3.61,6.31,0,1.87-.63,3.54-1.89,5.03-1.26,1.49-3.04,2.65-5.32,3.48-2.28.83-4.95,1.25-8,1.25Z" fill="currentColor"/>
    <path d="M102.46,101.32h5.14v43.46h-5.14v-43.46Z" fill="currentColor"/>
    <path d="M114.22,110.85c0-3.33,1.04-5.79,3.11-7.35,2.07-1.57,5.13-2.35,9.18-2.35h4.79v3.81h-5.79c-2,0-3.53.44-4.57,1.31-1.05.87-1.57,2.1-1.57,3.69v2.98h9.69v4.12h-9.69v27.73h-5.14v-33.94Z" fill="currentColor"/>
    <path d="M142.15,145.62c-7.38,0-12.13-4.12-12.13-10.12,0-3.18,1.3-5.62,3.89-7.32,2.59-1.71,6.25-2.56,10.97-2.56h10.57v-1.29c0-2.34-.74-4.14-2.21-5.39-1.48-1.25-3.76-1.87-6.86-1.87h-11.15v-4.12h9.22c6.79,0,9.89.9,12.4,2.71,2.5,1.81,3.75,4.77,3.75,8.9v20.24h-5.14v-8.26c-1.96,5.31-8.19,9.09-13.31,9.09ZM142.36,141.21c11.53,0,13.09-11.22,13.09-11.9v-.26l-10.11-.05c-7.53,0-10.11,2.93-10.11,6.55,0,4.14,4.27,5.66,7.13,5.66Z" fill="currentColor"/>
    <path d="M166.38,128.95v-.42c0-1.99.39-3.95,1.18-5.89.79-1.94,1.97-3.71,3.54-5.3,1.57-1.59,3.54-2.86,5.89-3.81,2.36-.95,5.13-1.43,8.32-1.43s5.92.49,8.47,1.46c2.55.97,4.61,2.34,6.18,4.11,1.57,1.77,2.47,3.84,2.71,6.22h-5.14c-.28-2.14-1.54-3.98-3.75-5.51-2.21-1.53-5.04-2.29-8.47-2.29-3.05,0-5.57.58-7.57,1.76-2,1.17-3.5,2.73-4.5,4.67-1,1.94-1.5,4.09-1.5,6.43s.5,4.49,1.5,6.43c1,1.94,2.5,3.5,4.5,4.67,2,1.17,4.52,1.76,7.57,1.76,3.43,0,6.25-.76,8.47-2.29,2.21-1.53,3.47-3.36,3.75-5.51h5.14c-.24,2.38-1.14,4.46-2.71,6.22-1.57,1.77-3.63,3.14-6.18,4.11-2.55.97-5.37,1.46-8.47,1.46s-5.97-.48-8.32-1.43c-2.36-.95-4.32-2.22-5.89-3.81-1.57-1.59-2.75-3.35-3.54-5.3-.79-1.94-1.18-3.91-1.18-5.89v-.42Z" fill="currentColor"/>
    <path d="M208.2,144.78v-31.5h5.14v31.5h-5.14Z" fill="currentColor"/>
    <path d="M208.2,108.35v-7.03h5.14v7.03h-5.14Z" fill="currentColor"/>
    <path d="M139.07,105.62l16.38-4.3v3.75l-16.38,4.3v-3.75Z" fill="currentColor"/>
    <path d="M219.86,101.32h5.14v43.46h-5.14v-43.46Z" fill="currentColor"/>
  </g>
    </symbol>

    <!-- Logo Viacredi -->
    <symbol id="lg-viacredi" viewBox="0 0 250 250">
  <defs>
    <linearGradient id="Gradiente_sem_nome_4" data-name="Gradiente sem nome 4" x1="37.74" y1="-1528.16" x2="72.45" y2="-1528.16" gradientTransform="translate(0 -1392.12) scale(1 -1)" gradientUnits="userSpaceOnUse">
      <stop offset="0" stop-color="#00a9ce"/>
      <stop offset=".41" stop-color="#00a7cb"/>
      <stop offset=".66" stop-color="#009fc3"/>
      <stop offset=".86" stop-color="#0091b5"/>
      <stop offset="1" stop-color="#0083a6"/>
    </linearGradient>
    <linearGradient id="Gradiente_sem_nome_2" data-name="Gradiente sem nome 2" x1="42.96" y1="-1503.72" x2="73.89" y2="-1503.72" gradientTransform="translate(0 -1392.12) scale(1 -1)" gradientUnits="userSpaceOnUse">
      <stop offset="0" stop-color="#ffa300"/>
      <stop offset=".35" stop-color="#fca200"/>
      <stop offset=".56" stop-color="#f49d00"/>
      <stop offset=".73" stop-color="#e69600"/>
      <stop offset=".89" stop-color="#d28b00"/>
      <stop offset="1" stop-color="#bd8000"/>
    </linearGradient>
    <linearGradient id="Gradiente_sem_nome_3" data-name="Gradiente sem nome 3" x1="24.97" y1="-1512.79" x2="42.96" y2="-1512.79" gradientTransform="translate(0 -1392.12) scale(1 -1)" gradientUnits="userSpaceOnUse">
      <stop offset="0" stop-color="#00b140"/>
      <stop offset=".39" stop-color="#00ae40"/>
      <stop offset=".62" stop-color="#01a63e"/>
      <stop offset=".82" stop-color="#02983b"/>
      <stop offset=".99" stop-color="#038437"/>
      <stop offset="1" stop-color="#038237"/>
    </linearGradient>
  </defs>
  <rect y="0" width="250" height="250" fill="none"/>
  <g>
    <path d="M93.27,131.74c-.77,2.36-1.98,3.3-3.77,3.3s-2.98-.87-3.77-3.3l-7.01-21.38h5.29l5.54,18.86,5.58-18.86h5.1l-6.95,21.38Z" fill="#165c7d"/>
    <path d="M103.02,110.35h4.96v24.44h-4.96v-24.44Z" fill="#165c7d"/>
    <path d="M110.8,134.79l7.27-21.29c.82-2.39,2.14-3.41,4.02-3.41s3.2,1.08,3.99,3.41l7.14,21.29h-5.26l-1.86-6.06h-8.35l-1.82,6.06h-5.12ZM124.92,124.93l-3.04-9.88-2.99,9.88h6.03Z" fill="#165c7d"/>
    <path d="M151.83,134.31c-2.09.51-4.24.76-6.39.73-8.12,0-10.12-3.79-10.12-12.47s2.01-12.47,10.12-12.47c2.15-.02,4.3.23,6.39.74l-.44,3.83c-1.67-.28-3.35-.42-5.04-.42-5.87,0-5.98,3.51-5.98,8.32s.08,8.32,5.98,8.32c1.68,0,3.37-.14,5.03-.42l.45,3.84Z" fill="#165c7d"/>
    <path d="M160.3,134.79h-4.96v-24.02c2.63-.45,5.29-.68,7.96-.68,5.4,0,9.82,1.07,9.82,7.68,0,4.34-1.82,6.35-4.69,7.23l5.58,9.79h-5.71l-5.01-9.22c-.99,0-2.13-.05-2.99-.11v9.33ZM160.3,121.52c1,.1,2.01.14,3.02.12,3.1,0,4.89-.79,4.89-3.89,0-2.71-1.24-3.79-4.79-3.79-1.04,0-2.07.08-3.1.21l-.02,7.34Z" fill="#165c7d"/>
    <path d="M192.5,114.32h-6.74c-2.93,0-3.43.62-3.43,3.3v2.76h9.71v3.95h-9.71v3.17c0,2.7.5,3.32,3.43,3.32h6.74v3.84c-1.72.09-5,.19-6.64.19-4.41,0-8.49-.24-8.49-5.97v-12.64c0-5.73,4.07-5.96,8.49-5.96,1.77,0,4.96.09,6.64.17v3.86Z" fill="#165c7d"/>
    <path d="M197.03,110.79c2.63-.46,5.29-.7,7.96-.69,9.16,0,10.79,4.17,10.79,12.47s-1.62,12.47-10.79,12.47c-2.67,0-5.33-.22-7.96-.67v-23.58ZM201.99,114.33v16.49c.77.12,1.54.18,2.32.18,6.44,0,6.5-3.65,6.5-8.42s-.06-8.41-6.5-8.41c-.78,0-1.55.06-2.32.17Z" fill="#165c7d"/>
    <path d="M220.04,110.35h4.96v24.44h-4.96v-24.44Z" fill="#165c7d"/>
    <path d="M84.81,151.64c-.74.16-1.49.24-2.24.24-3.06,0-3.81-1.48-3.81-4.86s.76-4.88,3.81-4.88c.75,0,1.51.08,2.24.24l-.12,1.03c-.57-.09-1.15-.14-1.74-.15-2.71,0-2.85,1.44-2.85,3.72s.16,3.72,2.85,3.72c.58,0,1.17-.06,1.74-.15l.12,1.1Z" fill="#165c7d"/>
    <path d="M86.23,147.02c0-3.45.82-4.86,3.68-4.86s3.67,1.41,3.67,4.86-.81,4.86-3.67,4.86-3.68-1.41-3.68-4.86ZM92.24,147.02c0-2.21-.08-3.76-2.34-3.76s-2.34,1.55-2.34,3.76.07,3.76,2.34,3.76,2.34-1.55,2.34-3.76Z" fill="#165c7d"/>
    <path d="M95.45,147.02c0-3.45.81-4.86,3.68-4.86s3.67,1.41,3.67,4.86-.81,4.86-3.67,4.86-3.68-1.41-3.68-4.86ZM101.46,147.02c0-2.21-.08-3.76-2.34-3.76s-2.34,1.55-2.34,3.76.07,3.76,2.34,3.76,2.34-1.55,2.34-3.76Z" fill="#165c7d"/>
    <path d="M106.22,151.78h-1.31v-9.38c.97-.16,1.95-.24,2.93-.24,2.03,0,3.69.42,3.69,2.91s-1.48,2.98-3.58,2.98c-.5,0-1.28,0-1.72-.06v3.79ZM106.22,146.92c.54.06,1.08.09,1.62.08,1.52,0,2.38-.38,2.38-1.92,0-1.33-.62-1.86-2.34-1.86-.56,0-1.11.04-1.66.11v3.59Z" fill="#165c7d"/>
    <path d="M118.72,143.32h-2.43c-1.53,0-1.79.3-1.79,1.66v1.42h4.04v1.06h-4.04v1.6c0,1.37.26,1.65,1.79,1.65h2.43v1.03c-.72.04-1.7.06-2.39.06-1.63,0-3.14-.09-3.14-2.17v-5.23c0-2.09,1.51-2.18,3.14-2.18.62,0,1.65,0,2.39.06v1.02Z" fill="#165c7d"/>
    <path d="M120.73,151.78v-9.38c.97-.16,1.95-.23,2.93-.24,2.02,0,3.72.39,3.72,2.88,0,1.8-.84,2.55-2.14,2.81l2.24,3.93h-1.56l-2.09-3.81h-.07c-.5,0-1.28-.04-1.72-.06v3.87h-1.31ZM122.05,146.83c.54.06,1.07.08,1.61.07,1.51,0,2.39-.38,2.39-1.86,0-1.31-.62-1.82-2.34-1.82-.56,0-1.11.04-1.66.11v3.5Z" fill="#165c7d"/>
    <path d="M128.59,151.78l3.06-8.68c.04-.26.18-.49.38-.66.2-.17.45-.26.72-.26s.52.09.72.26c.2.17.33.4.38.66l3.01,8.68h-1.39l-.89-2.64h-3.76l-.88,2.64h-1.34ZM134.23,148.11l-1.54-4.59-1.53,4.59h3.07Z" fill="#165c7d"/>
    <path d="M143.88,143.34h-2.48v8.45h-1.32v-8.45h-2.48v-1.07h6.28v1.07Z" fill="#165c7d"/>
    <path d="M145.39,142.26h1.31v9.52h-1.31v-9.52Z" fill="#165c7d"/>
    <path d="M153.21,150.97c-.22.62-.54.92-1.03.92s-.81-.27-1.03-.92l-2.9-8.68h1.39l2.55,8.06,2.58-8.06h1.34l-2.91,8.68Z" fill="#165c7d"/>
    <path d="M156.89,151.78l3.06-8.68c.04-.26.18-.49.38-.66s.45-.26.72-.26.52.09.72.26c.2.17.33.4.38.66l3.01,8.68h-1.39l-.89-2.64h-3.76l-.88,2.64h-1.34ZM162.53,148.11l-1.54-4.59-1.53,4.59h3.07Z" fill="#165c7d"/>
    <path d="M169.7,151.78l3.06-8.68c.04-.26.18-.49.38-.66.2-.17.45-.26.72-.26s.52.09.72.26.33.4.38.66l3.01,8.68h-1.39l-.89-2.64h-3.77l-.88,2.64h-1.34ZM175.34,148.11l-1.56-4.59-1.53,4.59h3.09Z" fill="#165c7d"/>
    <path d="M179.52,142.26h1.31v9.52h-1.31v-9.52Z" fill="#165c7d"/>
    <path d="M188.52,151.76c-.73,0-1.59.05-2.23.05-1.62,0-3.14-.09-3.14-2.17v-7.38h1.32v6.82c0,1.36.25,1.65,1.79,1.65h2.26v1.02Z" fill="#165c7d"/>
    <path d="M189.65,147.02c0-3.45.82-4.86,3.67-4.86s3.67,1.41,3.67,4.86-.81,4.86-3.67,4.86-3.67-1.41-3.67-4.86ZM195.66,147.02c0-2.21-.08-3.76-2.34-3.76s-2.34,1.55-2.34,3.76.07,3.76,2.34,3.76,2.34-1.55,2.34-3.76Z" fill="#165c7d"/>
    <path d="M199.96,144.58c0,1.2.62,1.37,2.03,1.77,1.61.45,2.59,1.09,2.59,2.8,0,2-1.24,2.73-3.39,2.73-.83,0-1.66-.08-2.48-.25l.13-1.07c.77.12,1.55.18,2.33.19,1.24,0,2.06-.27,2.06-1.56,0-1.13-.82-1.39-1.92-1.72-1.67-.51-2.65-.97-2.65-2.71,0-1.96,1.16-2.6,3.25-2.6.83,0,1.66.09,2.48.24l-.12,1.04c-.64-.1-1.28-.16-1.93-.17-1.12,0-2.39.11-2.39,1.31Z" fill="#165c7d"/>
    <path d="M61.55,125.48l-4.72-11.57c-.46-1.07-.81-1.86-1.52-1.86s-1.06.82-1.49,1.86l-2.88,6.67-2.84-6.67c-.43-1.02-.77-1.86-1.49-1.86s-1.05.77-1.52,1.86l-4.72,11.58c-.17.35-.25.75-.22,1.14.03.39.16.77.38,1.1.22.33.53.59.88.76.36.17.75.24,1.14.21h2.08v2.63c0,.46.18.89.5,1.21.32.32.76.5,1.21.5h.62c.46,0,.89-.18,1.21-.5.32-.32.5-.76.5-1.21v-1.29s0-.09,0-.14v-1.24h4.59v1.24s0,.09,0,.14v1.29c0,.46.18.89.5,1.21.32.32.76.5,1.21.5h.62c.45,0,.89-.18,1.21-.5.32-.32.5-.76.5-1.21v-2.63h2.08c.39.03.79-.04,1.15-.21.36-.17.66-.43.88-.76.22-.33.35-.71.38-1.1.03-.39-.05-.79-.22-1.14h-.05ZM48.96,127.41h-1.57v3.92c0,.12-.05.23-.13.31-.08.08-.19.13-.31.13h-.62c-.12,0-.23-.05-.31-.13s-.13-.19-.13-.31v-3.92h-3.34c-.18.03-.37.01-.54-.06-.17-.07-.32-.19-.42-.34-.11-.15-.16-.33-.17-.52,0-.19.04-.37.14-.53l4.71-11.55c.07-.14.2-.46.33-.73.09.19.2.43.32.72l3.32,7.82-1.27,3.27c-.13.3-.2.63-.2.96,0,.33.06.66.18.96ZM51.74,126.98c-.09.13-.2.23-.34.3-.14.07-.29.11-.44.11s-.31-.04-.44-.11c-.14-.07-.25-.18-.34-.3-.08-.16-.12-.34-.12-.51s.04-.35.12-.51l.78-2,.81,2.01c.08.16.11.34.11.51,0,.18-.05.35-.13.51ZM60.34,126.98c-.12.14-.27.25-.44.32s-.35.1-.54.08h-3.35v3.92c0,.12-.05.23-.13.31-.08.08-.19.13-.31.13h-.62c-.12,0-.23-.05-.31-.13-.08-.08-.13-.19-.13-.31v-3.89h-1.56c.13-.3.19-.63.19-.96s-.07-.66-.19-.96l-1.31-3.27,3.37-7.82c.12-.3.23-.53.32-.72.14.27.27.58.33.72l4.69,11.55c.09.16.13.34.13.53s-.04.36-.13.53v-.02Z" fill="#165c7d"/>
    <path d="M64.07,134.3c-1.68,1.81-3.71,3.25-5.97,4.23-2.26.98-4.7,1.49-7.16,1.49-.55,0-1.09,0-1.62-.07-3.82,1.01-7.85.84-11.57-.5,2.47,3.2,5.87,5.54,9.74,6.71,3.87,1.17,8,1.1,11.82-.2,3.82-1.3,7.15-3.76,9.5-7.03,2.36-3.28,3.63-7.21,3.65-11.25,0-.85-.05-1.7-.17-2.55-1.67,3.87-4.56,7.09-8.22,9.18Z" fill="url(#Gradiente_sem_nome_4)"/>
    <path d="M53.97,104.42c2.8.48,5.44,1.61,7.72,3.31,2.27,1.7,4.11,3.91,5.37,6.46,2.88,2.98,4.73,6.8,5.27,10.91,1.67-3.91,2.01-8.26.96-12.38-1.05-4.12-3.42-7.78-6.76-10.42-3.34-2.64-7.45-4.1-11.7-4.18-4.25-.07-8.41,1.26-11.83,3.79.46,0,.91-.04,1.38-.04,3.37,0,6.68.88,9.6,2.56Z" fill="url(#Gradiente_sem_nome_2)"/>
    <path d="M68.88,122.09c0,4.53-1.72,8.9-4.82,12.2,3.68-2.09,6.58-5.32,8.26-9.2-.54-4.11-2.39-7.93-5.27-10.91,1.21,2.46,1.83,5.16,1.83,7.9Z" fill="#886b25"/>
    <path d="M33.75,127.16c-.72-2.44-.91-5.01-.56-7.53.35-2.52,1.23-4.94,2.58-7.09,1.13-4.26,3.67-8.01,7.21-10.64-4.43.32-8.61,2.14-11.85,5.18-3.24,3.03-5.34,7.09-5.95,11.48-.61,4.4.31,8.87,2.6,12.67,2.29,3.8,5.82,6.7,10,8.21-2.6-3.38-4.01-7.52-4.01-11.78-.03-.18-.02-.34-.02-.5Z" fill="url(#Gradiente_sem_nome_3)"/>
    <path d="M49.33,139.94c-3.58-.33-6.97-1.72-9.75-3.99-2.78-2.28-4.81-5.34-5.83-8.78v.48c0,4.26,1.41,8.4,4.01,11.78,3.72,1.34,7.75,1.51,11.57.5v.02Z" fill="#007d8a"/>
    <path d="M35.78,112.54c1.89-3,4.63-5.37,7.87-6.81,3.24-1.44,6.83-1.9,10.32-1.31-2.93-1.69-6.25-2.57-9.63-2.57-.46,0-.92,0-1.38.04-3.53,2.63-6.07,6.38-7.18,10.64Z" fill="#007041"/>
  </g>
    </symbol>
    <symbol id="lg-viacredi-m" viewBox="0 0 250 250">
  <rect y="0" width="250" height="250" fill="none"/>
  <g>
    <path d="M93.27,131.74c-.77,2.36-1.98,3.3-3.77,3.3s-2.98-.87-3.77-3.3l-7.01-21.38h5.29l5.54,18.86,5.58-18.86h5.1l-6.95,21.38Z" fill="currentColor"/>
    <path d="M103.02,110.35h4.96v24.44h-4.96v-24.44Z" fill="currentColor"/>
    <path d="M110.8,134.79l7.27-21.29c.82-2.39,2.14-3.41,4.02-3.41s3.2,1.08,3.99,3.41l7.14,21.29h-5.26l-1.86-6.06h-8.35l-1.82,6.06h-5.12ZM124.92,124.93l-3.04-9.88-2.99,9.88h6.03Z" fill="currentColor"/>
    <path d="M151.83,134.31c-2.09.51-4.24.76-6.39.73-8.12,0-10.12-3.79-10.12-12.47s2.01-12.47,10.12-12.47c2.15-.02,4.3.23,6.39.74l-.44,3.83c-1.67-.28-3.35-.42-5.04-.42-5.87,0-5.98,3.51-5.98,8.32s.08,8.32,5.98,8.32c1.68,0,3.37-.14,5.03-.42l.45,3.84Z" fill="currentColor"/>
    <path d="M160.3,134.79h-4.96v-24.02c2.63-.45,5.29-.68,7.96-.68,5.4,0,9.82,1.07,9.82,7.68,0,4.34-1.82,6.35-4.69,7.23l5.58,9.79h-5.71l-5.01-9.22c-.99,0-2.13-.05-2.99-.11v9.33ZM160.3,121.52c1,.1,2.01.14,3.02.12,3.1,0,4.89-.79,4.89-3.89,0-2.71-1.24-3.79-4.79-3.79-1.04,0-2.07.08-3.1.21l-.02,7.34Z" fill="currentColor"/>
    <path d="M192.5,114.32h-6.74c-2.93,0-3.43.62-3.43,3.3v2.76h9.71v3.95h-9.71v3.17c0,2.7.5,3.32,3.43,3.32h6.74v3.84c-1.72.09-5,.19-6.64.19-4.41,0-8.49-.24-8.49-5.97v-12.64c0-5.73,4.07-5.96,8.49-5.96,1.77,0,4.96.09,6.64.17v3.86Z" fill="currentColor"/>
    <path d="M197.03,110.79c2.63-.46,5.29-.7,7.96-.69,9.16,0,10.79,4.17,10.79,12.47s-1.62,12.47-10.79,12.47c-2.67,0-5.33-.22-7.96-.67v-23.58ZM201.99,114.33v16.49c.77.12,1.54.18,2.32.18,6.44,0,6.5-3.65,6.5-8.42s-.06-8.41-6.5-8.41c-.78,0-1.55.06-2.32.17Z" fill="currentColor"/>
    <path d="M220.04,110.35h4.96v24.44h-4.96v-24.44Z" fill="currentColor"/>
    <path d="M84.81,151.64c-.74.16-1.49.24-2.24.24-3.06,0-3.81-1.48-3.81-4.86s.76-4.88,3.81-4.88c.75,0,1.51.08,2.24.24l-.12,1.03c-.57-.09-1.15-.14-1.74-.15-2.71,0-2.85,1.44-2.85,3.72s.16,3.72,2.85,3.72c.58,0,1.17-.06,1.74-.15l.12,1.1Z" fill="currentColor"/>
    <path d="M86.23,147.02c0-3.45.82-4.86,3.68-4.86s3.67,1.41,3.67,4.86-.81,4.86-3.67,4.86-3.68-1.41-3.68-4.86ZM92.24,147.02c0-2.21-.08-3.76-2.34-3.76s-2.34,1.55-2.34,3.76.07,3.76,2.34,3.76,2.34-1.55,2.34-3.76Z" fill="currentColor"/>
    <path d="M95.45,147.02c0-3.45.81-4.86,3.68-4.86s3.67,1.41,3.67,4.86-.81,4.86-3.67,4.86-3.68-1.41-3.68-4.86ZM101.46,147.02c0-2.21-.08-3.76-2.34-3.76s-2.34,1.55-2.34,3.76.07,3.76,2.34,3.76,2.34-1.55,2.34-3.76Z" fill="currentColor"/>
    <path d="M106.22,151.78h-1.31v-9.38c.97-.16,1.95-.24,2.93-.24,2.03,0,3.69.42,3.69,2.91s-1.48,2.98-3.58,2.98c-.5,0-1.28,0-1.72-.06v3.79ZM106.22,146.92c.54.06,1.08.09,1.62.08,1.52,0,2.38-.38,2.38-1.92,0-1.33-.62-1.86-2.34-1.86-.56,0-1.11.04-1.66.11v3.59Z" fill="currentColor"/>
    <path d="M118.72,143.32h-2.43c-1.53,0-1.79.3-1.79,1.66v1.42h4.04v1.06h-4.04v1.6c0,1.37.26,1.65,1.79,1.65h2.43v1.03c-.72.04-1.7.06-2.39.06-1.63,0-3.14-.09-3.14-2.17v-5.23c0-2.09,1.51-2.18,3.14-2.18.62,0,1.65,0,2.39.06v1.02Z" fill="currentColor"/>
    <path d="M120.73,151.78v-9.38c.97-.16,1.95-.23,2.93-.24,2.02,0,3.72.39,3.72,2.88,0,1.8-.84,2.55-2.14,2.81l2.24,3.93h-1.56l-2.09-3.81h-.07c-.5,0-1.28-.04-1.72-.06v3.87h-1.31ZM122.05,146.83c.54.06,1.07.08,1.61.07,1.51,0,2.39-.38,2.39-1.86,0-1.31-.62-1.82-2.34-1.82-.56,0-1.11.04-1.66.11v3.5Z" fill="currentColor"/>
    <path d="M128.59,151.78l3.06-8.68c.04-.26.18-.49.38-.66.2-.17.45-.26.72-.26s.52.09.72.26c.2.17.33.4.38.66l3.01,8.68h-1.39l-.89-2.64h-3.76l-.88,2.64h-1.34ZM134.23,148.11l-1.54-4.59-1.53,4.59h3.07Z" fill="currentColor"/>
    <path d="M143.88,143.34h-2.48v8.45h-1.32v-8.45h-2.48v-1.07h6.28v1.07Z" fill="currentColor"/>
    <path d="M145.39,142.26h1.31v9.52h-1.31v-9.52Z" fill="currentColor"/>
    <path d="M153.21,150.97c-.22.62-.54.92-1.03.92s-.81-.27-1.03-.92l-2.9-8.68h1.39l2.55,8.06,2.58-8.06h1.34l-2.91,8.68Z" fill="currentColor"/>
    <path d="M156.89,151.78l3.06-8.68c.04-.26.18-.49.38-.66s.45-.26.72-.26.52.09.72.26c.2.17.33.4.38.66l3.01,8.68h-1.39l-.89-2.64h-3.76l-.88,2.64h-1.34ZM162.53,148.11l-1.54-4.59-1.53,4.59h3.07Z" fill="currentColor"/>
    <path d="M169.7,151.78l3.06-8.68c.04-.26.18-.49.38-.66.2-.17.45-.26.72-.26s.52.09.72.26.33.4.38.66l3.01,8.68h-1.39l-.89-2.64h-3.77l-.88,2.64h-1.34ZM175.34,148.11l-1.56-4.59-1.53,4.59h3.09Z" fill="currentColor"/>
    <path d="M179.52,142.26h1.31v9.52h-1.31v-9.52Z" fill="currentColor"/>
    <path d="M188.52,151.76c-.73,0-1.59.05-2.23.05-1.62,0-3.14-.09-3.14-2.17v-7.38h1.32v6.82c0,1.36.25,1.65,1.79,1.65h2.26v1.02Z" fill="currentColor"/>
    <path d="M189.65,147.02c0-3.45.82-4.86,3.67-4.86s3.67,1.41,3.67,4.86-.81,4.86-3.67,4.86-3.67-1.41-3.67-4.86ZM195.66,147.02c0-2.21-.08-3.76-2.34-3.76s-2.34,1.55-2.34,3.76.07,3.76,2.34,3.76,2.34-1.55,2.34-3.76Z" fill="currentColor"/>
    <path d="M199.96,144.58c0,1.2.62,1.37,2.03,1.77,1.61.45,2.59,1.09,2.59,2.8,0,2-1.24,2.73-3.39,2.73-.83,0-1.66-.08-2.48-.25l.13-1.07c.77.12,1.55.18,2.33.19,1.24,0,2.06-.27,2.06-1.56,0-1.13-.82-1.39-1.92-1.72-1.67-.51-2.65-.97-2.65-2.71,0-1.96,1.16-2.6,3.25-2.6.83,0,1.66.09,2.48.24l-.12,1.04c-.64-.1-1.28-.16-1.93-.17-1.12,0-2.39.11-2.39,1.31Z" fill="currentColor"/>
    <path d="M61.55,125.48l-4.72-11.57c-.46-1.07-.81-1.86-1.52-1.86s-1.06.82-1.49,1.86l-2.88,6.67-2.84-6.67c-.43-1.02-.77-1.86-1.49-1.86s-1.05.77-1.52,1.86l-4.72,11.58c-.17.35-.25.75-.22,1.14.03.39.16.77.38,1.1.22.33.53.59.88.76.36.17.75.24,1.14.21h2.08v2.63c0,.46.18.89.5,1.21.32.32.76.5,1.21.5h.62c.46,0,.89-.18,1.21-.5.32-.32.5-.76.5-1.21v-1.29s0-.09,0-.14v-1.24h4.59v1.24s0,.09,0,.14v1.29c0,.46.18.89.5,1.21.32.32.76.5,1.21.5h.62c.45,0,.89-.18,1.21-.5.32-.32.5-.76.5-1.21v-2.63h2.08c.39.03.79-.04,1.15-.21.36-.17.66-.43.88-.76.22-.33.35-.71.38-1.1.03-.39-.05-.79-.22-1.14h-.05ZM48.96,127.41h-1.57v3.92c0,.12-.05.23-.13.31-.08.08-.19.13-.31.13h-.62c-.12,0-.23-.05-.31-.13s-.13-.19-.13-.31v-3.92h-3.34c-.18.03-.37.01-.54-.06-.17-.07-.32-.19-.42-.34-.11-.15-.16-.33-.17-.52,0-.19.04-.37.14-.53l4.71-11.55c.07-.14.2-.46.33-.73.09.19.2.43.32.72l3.32,7.82-1.27,3.27c-.13.3-.2.63-.2.96,0,.33.06.66.18.96ZM51.74,126.98c-.09.13-.2.23-.34.3-.14.07-.29.11-.44.11s-.31-.04-.44-.11c-.14-.07-.25-.18-.34-.3-.08-.16-.12-.34-.12-.51s.04-.35.12-.51l.78-2,.81,2.01c.08.16.11.34.11.51,0,.18-.05.35-.13.51ZM60.34,126.98c-.12.14-.27.25-.44.32s-.35.1-.54.08h-3.35v3.92c0,.12-.05.23-.13.31-.08.08-.19.13-.31.13h-.62c-.12,0-.23-.05-.31-.13-.08-.08-.13-.19-.13-.31v-3.89h-1.56c.13-.3.19-.63.19-.96s-.07-.66-.19-.96l-1.31-3.27,3.37-7.82c.12-.3.23-.53.32-.72.14.27.27.58.33.72l4.69,11.55c.09.16.13.34.13.53s-.04.36-.13.53v-.02Z" fill="currentColor"/>
    <path d="M64.07,134.3c-1.68,1.81-3.71,3.25-5.97,4.23-2.26.98-4.7,1.49-7.16,1.49-.55,0-1.09,0-1.62-.07-3.82,1.01-7.85.84-11.57-.5,2.47,3.2,5.87,5.54,9.74,6.71,3.87,1.17,8,1.1,11.82-.2,3.82-1.3,7.15-3.76,9.5-7.03,2.36-3.28,3.63-7.21,3.65-11.25,0-.85-.05-1.7-.17-2.55-1.67,3.87-4.56,7.09-8.22,9.18Z" fill="currentColor"/>
    <path d="M53.97,104.42c2.8.48,5.44,1.61,7.72,3.31,2.27,1.7,4.11,3.91,5.37,6.46,2.88,2.98,4.73,6.8,5.27,10.91,1.67-3.91,2.01-8.26.96-12.38-1.05-4.12-3.42-7.78-6.76-10.42-3.34-2.64-7.45-4.1-11.7-4.18-4.25-.07-8.41,1.26-11.83,3.79.46,0,.91-.04,1.38-.04,3.37,0,6.68.88,9.6,2.56Z" fill="currentColor"/>
    <path d="M68.88,122.09c0,4.53-1.72,8.9-4.82,12.2,3.68-2.09,6.58-5.32,8.26-9.2-.54-4.11-2.39-7.93-5.27-10.91,1.21,2.46,1.83,5.16,1.83,7.9Z" fill="currentColor"/>
    <path d="M33.75,127.16c-.72-2.44-.91-5.01-.56-7.53.35-2.52,1.23-4.94,2.58-7.09,1.13-4.26,3.67-8.01,7.21-10.64-4.43.32-8.61,2.14-11.85,5.18-3.24,3.03-5.34,7.09-5.95,11.48-.61,4.4.31,8.87,2.6,12.67,2.29,3.8,5.82,6.7,10,8.21-2.6-3.38-4.01-7.52-4.01-11.78-.03-.18-.02-.34-.02-.5Z" fill="currentColor"/>
    <path d="M49.33,139.94c-3.58-.33-6.97-1.72-9.75-3.99-2.78-2.28-4.81-5.34-5.83-8.78v.48c0,4.26,1.41,8.4,4.01,11.78,3.72,1.34,7.75,1.51,11.57.5v.02Z" fill="currentColor"/>
    <path d="M35.78,112.54c1.89-3,4.63-5.37,7.87-6.81,3.24-1.44,6.83-1.9,10.32-1.31-2.93-1.69-6.25-2.57-9.63-2.57-.46,0-.92,0-1.38.04-3.53,2.63-6.07,6.38-7.18,10.64Z" fill="currentColor"/>
  </g>
    </symbol>

</svg>
