<svg xmlns="http://www.w3.org/2000/svg" style="display: none;">
    <!-- Banco do Brasil -->
    <symbol id="lg-bb" viewBox="0 0 250 250">
        <defs>
            <style>
            .st500 {
                fill: none;
            }

            .st501 {
                fill: #003882;
                fill-rule: evenodd;
            }
            </style>
        </defs>
        <rect class="st500" y="0" width="250" height="250"/>
        <path class="st501" d="M62.44,78.06l26.03,17.45,31.28-20.92-13.01-8.73,16.94-11.28,36.49,24.39-59.91,40.06,13.01,8.73,74.3-49.7-62.56-41.84-62.56,41.84h0ZM187.56,119.9l-26.08-17.45-31.28,20.92,13.01,8.68-16.94,11.33-36.49-24.39,59.91-40.06-13.01-8.73-74.25,49.7,62.56,41.84,62.56-41.84h0ZM187.56,53.67l-13.06,8.73-13.01-8.73,26.08-17.45v17.45ZM62.44,144.3l13.01-8.73,13.01,8.73-26.03,17.45v-17.45Z"/>
        <path class="st501" d="M22.85,213.18c2.47,0,8.62-.28,8.62-6.69,0-3.48-1.08-5.9-5.24-6.43,3.17-.62,4.76-2.74,4.76-5.66,0-5.39-3.66-6.55-8.13-6.55h-10.37v25.33h10.35ZM208.85,213.18c3.46,0,6.97-.46,6.97-5.83,0-6.2-8.95-5.58-8.95-9.52,0-1.42.88-2.19,2.35-2.19h4.81v-3.2h-6.74c-5.53,0-6.89,2.52-6.89,5.75,0,6.17,9.92,6.03,9.92,9.5,0,1.39-.76,2.35-2.29,2.35h-7.11l-5.27-17.59h-6.31l-5.83,18.87-3.66-8.11c2.69-.49,3.76-2.19,3.77-5.32,0-3.54-2.1-5.42-5.35-5.42h-9.86v20.72h5.38v-17.54h1.79c1.51,0,2.83,1.11,2.83,3.15,0,1.73-.87,3.15-2.24,3.06h-1.51l4.91,11.33h8.62l1.3-4.59h5.58l1.27,4.59h12.52l-.02-.02ZM194.24,205.42h-3.99l1.9-8.48,2.09,8.48ZM134.2,213.78c8.05,0,8.05-5.36,8.05-10.86s0-10.88-8.05-10.88-8.05,5.32-8.05,10.88,0,10.86,8.05,10.86ZM134.2,210.63c-2.36,0-2.67-2.32-2.67-7.71s.31-7.73,2.67-7.73,2.66,2.33,2.66,7.73-.29,7.71-2.66,7.71ZM108.66,213.18h7.85c8.24,0,7.7-7.31,7.7-10.51,0-6.48-1.19-10.28-7.5-10.28h-8.05v20.79h0ZM113.9,195.61h2.12c2.89,0,2.89,3.37,2.89,7.2,0,5.22-.51,7.22-3.03,7.22h-1.99v-14.4l.02-.02ZM155.67,202.13h1.3c2.52,0,3.32,1.38,3.32,3.62,0,3.55-2.38,3.59-3.46,3.59h-2.77v-7.16l1.61-.05h0ZM154.06,198.27v-6.48h3.09c1.68,0,2.87,1.36,2.87,3.23,0,2.46-1.53,3.21-2.61,3.21h-1.75s-1.61.03-1.61.03ZM158.02,213.2c2.47,0,8.62-.28,8.62-6.71,0-3.48-1.08-5.89-5.22-6.43,3.17-.62,4.76-2.74,4.76-5.66,0-5.39-3.68-6.55-8.13-6.55h-10.39v25.35h10.35ZM237.5,213.18v-3.14h-6.14v-17.59h-5.25v20.72h11.39ZM223.03,192.44h-5.27v20.72h5.27s0-20.72,0-20.72ZM94.89,213.78c8.05,0,8.05-5.38,8.05-10.91s0-10.93-8.05-10.93-8.04,5.32-8.04,10.93,0,10.91,8.04,10.91ZM94.89,210.63c-2.36,0-2.66-2.35-2.66-7.76s.29-7.76,2.66-7.76,2.67,2.33,2.67,7.76-.31,7.76-2.67,7.76ZM42.87,205.41h-4l1.9-8.47s2.1,8.47,2.1,8.47ZM36.81,213.18l1.3-4.59h5.58l1.28,4.59h5.5l-6.21-20.72h-6.29l-6.35,20.72h5.19ZM78.07,213.78c4.56,0,7.23-1.81,7.23-7.46h-5.21c-.06,1.67-.09,4.31-2.02,4.31-2.21,0-2.53-1.36-2.53-7.76s.51-7.76,2.43-7.76c1.38,0,2.01,1.04,2.01,3.86h5.18c.19-4.54-2.33-7.03-7.31-7.03-7.42,0-7.62,4.73-7.62,10.93s-.19,10.91,7.85,10.91ZM56.16,213.18v-13.82l5.73,13.82h6.21v-20.72h-4.48v13.4l-5.59-13.4h-6.37v20.72h4.5ZM20.13,202.1h.82c3.09,0,4.06,1.38,4.06,3.62,0,3.54-2.92,3.57-4.22,3.57h-1.92v-7.16l1.27-.03h-.02ZM18.88,198.22v-6.48h2.29c2.07,0,3.52,1.38,3.52,3.23,0,2.46-1.87,3.23-3.2,3.23h-2.61v.02Z"/>
    </symbol>

    <!-- Logo BNDES -->
    <symbol id="lg-bndes" viewBox="0 0 250 250">
        <defs>
            <style>
            .st400 {
                fill: none;
            }

            .st401 {
                fill: #00539b;
            }

            .st402 {
                fill: #008752;
            }
            </style>
        </defs>
        <rect class="st400" width="250" height="250"/>
        <path class="st402" d="M97.26,60.28c-7.77,0-15.42,1.92-22.25,5.62-6.83,3.7-12.63,9.01-16.9,15.5v64.68h64.91c8.41-5.54,14.78-13.61,18.22-23.04,3.43-9.43,3.73-19.72.83-29.34s-8.79-18.06-16.86-24.06c-8.07-6-17.88-9.28-27.95-9.28v-.08ZM58.08,12.54v53.97L111.63,13.1l79.76,79.54-53.55,53.36h54.08V12.5H58.11l-.04.04Z"/>
        <path class="st401" d="M55.75,195.93c-.32-4.61-2.28-8.07-5.83-10.32-2.91-1.82-6.89-2.79-11.57-2.79h-16.11l-7.52,53.8h15.69c9.98,0,16.99-2.09,20.84-6.23,2.53-2.72,3.65-6.28,3.34-10.62-.39-5.76-3.23-9.73-7.84-11.17,5.62-1.72,9.39-6.87,8.99-12.65v-.02ZM41.32,224.44c-2.3,2.47-6.69,2.8-11.08,2.8h-3.02l1.98-14.24h2.97c5.37,0,10.39.71,10.76,5.86.17,2.43-.35,4.26-1.59,5.59h0l-.02-.02ZM42.77,201.51c-2.03,2.18-5.89,2.64-8.78,2.64h-3.56l1.76-11.98h3.28c4.41,0,8.39.37,8.7,4.8.14,1.89-.34,3.41-1.4,4.56h0l.02-.02ZM109.87,182.82h-11.05l-5.64,38.75-13.63-38.75h-14.21l-7.82,53.78h11.2l5.39-39.07,13.43,39.07h14.44l7.91-53.78h-.02ZM149.41,187.33c-4.26-2.99-9.83-4.49-16.59-4.49h-16.33l-7.6,53.78h18.43c10.83,0,19.05-2.94,24.42-8.7,6.79-7.26,7.2-16.94,6.84-22.06-.59-8.43-3.68-14.66-9.17-18.51v-.02ZM141.76,221.79c-3.4,3.63-8.61,5.49-15.51,5.49h-4.32l4.9-35.1h3.21c9.71,0,15.81,4.56,16.35,12.2.54,7.65-1.01,13.55-4.63,17.41h0ZM177.75,192.16h20.69l1.13-9.34h-32.18l-7.58,53.78h32.57l1.39-9.34h-20.91l1.94-13.78h18.56l1.22-9.34h-18.5s1.67-11.98,1.67-11.98ZM234.88,184.29c-4.04-1.57-8.77-2.38-14.07-2.38-6.69,0-12.21,1.98-15.56,5.59-2.64,2.82-3.82,6.49-3.5,10.89.56,8.01,6.4,11.13,11.55,13.9,4.16,2.23,7.74,4.16,8.02,8.18.14,2.03-.39,3.72-1.64,5.03-1.59,1.71-4.27,2.67-7.38,2.67-4.59,0-9.12-1.86-13.01-3.58l-.56-.25-2.33,10.03.46.15c5.57,1.98,10.76,2.97,15.46,2.97,7.72,0,13.68-2.03,17.25-5.84,2.85-3.06,4.12-7.2,3.75-12.3-.61-8.61-6.99-12.23-12.16-15.15-3.88-2.2-7.23-4.09-7.47-7.45-.05-.59,0-1.17.2-1.72.19-.56.49-1.06.9-1.49,1.57-1.69,4.58-2.3,6.86-2.3,3.8.07,7.53.98,10.95,2.67l.57.29,2.11-9.75-.44-.17h.03Z"/>
    </symbol>

    <!-- Logo Bradesco -->
    <symbol id="lg-bradesco" viewBox="0 0 250 250">
        <defs>
            <style>
            .st900 {
                fill: #fff;
            }

            .st901 {
                fill: none;
            }
            </style>
        </defs>
        <rect class="st901" width="250" height="250"/>
        <path class="st900" d="M77.07,186.83c-3.27,0-6.18.33-9,1.02-.57,1.92-.45,4.62,0,6.52,3.48-.78,5.4-.9,7.65-.9,4.28,0,6.42,1.68,6.42,5.28v.33c-1.23-.12-2.82-.23-3.93-.23-7.08,0-13.17,2.58-13.17,9.33,0,7.77,5.52,10.35,13.5,10.35,3.72,0,7.87-.67,11.58-1.8v-17.32c0-8.32-4.5-12.38-13.05-12.6h0v.02ZM82.13,211.79s-2.58.33-3.6.33c-3.83,0-5.85-1.13-5.85-3.83s2.02-3.72,5.85-3.72c1.23,0,2.7.12,3.6.23v7.08-.12h0v.02Z"/>
        <path class="st900" d="M61.78,187.28c-3.93,0-6.18,1.58-8.33,4.28-.22-1.47-.45-2.58-.9-3.93-.78-.23-2.25-.33-3.37-.33s-2.58.12-3.37.33v30.38c1.02.23,2.7.33,4.17.33s3.27-.12,4.17-.33v-14.85c0-5.85,3.03-9,7.2-9,.78,0,2.02,0,2.7.12.45-1.92.57-4.73.12-6.75-.45-.12-1.68-.23-2.37-.23h0v-.02Z"/>
        <path class="st900" d="M27.02,186.94c-2.37,0-4.72.57-6.18,1.23v-14.85c-2.37.9-4.83,2.03-6.87,3.72-1.13.9-1.47,1.68-1.47,3.03v36.67c2.25.9,6.75,1.68,11.03,1.68,10.92,0,17.1-6.63,17.1-16.2s-4.38-15.42-13.5-15.42l-.12.12h0v.02ZM23.98,211.91c-.9,0-2.25,0-3.15-.33v-16.65c1.13-.57,2.7-.9,4.83-.9,4.17,0,6.42,2.93,6.42,8.32,0,5.73-2.58,9.68-7.98,9.68l-.12-.12h0Z"/>
        <path class="st900" d="M114.32,180.19v7.32c-1.47-.45-3.03-.45-4.38-.45-9.23,0-15.42,6.18-15.42,15.97s6.07,15.63,15.63,15.63c4.38,0,8.67-.57,12.48-1.92v-43.32c-2.37.9-4.83,2.03-6.87,3.72-1.13.9-1.47,1.68-1.47,3.03h0v.02ZM114.32,211.34c-1.47.45-2.37.45-3.6.45-5.52,0-7.65-3.6-7.65-8.88,0-5.85,2.13-9.33,7.53-9.33,1.58,0,2.58.23,3.6.45v17.33h.12v-.02Z"/>
        <path class="st900" d="M173.72,199.88l-3.38-1.47c-1.92-.78-3.03-1.47-3.03-2.7,0-1.92,1.68-2.37,4.05-2.37s4.62.23,7.87,1.23c.45-2.25.45-4.28,0-6.18-2.03-1.13-5.73-1.58-9-1.58-6.42,0-11.37,3.48-11.37,8.67,0,4.73,2.03,7.08,7.65,9.33l2.58,1.13c2.48,1.02,3.27,1.57,3.27,3.27,0,2.37-2.37,2.82-4.38,2.82-3.38,0-5.85-.67-9.12-1.8-.57,1.92-.57,4.5,0,6.52,2.7,1.47,6.52,1.92,10.47,1.92,6.42,0,11.47-3.37,11.47-9.33,0-4.95-2.13-7.32-6.87-9.33l-.22-.12h.02Z"/>
        <path class="st900" d="M199.58,211.79c-4.17,0-6.87-3.27-6.87-9s2.25-9,6.98-9c2.03,0,3.37.33,5.28,1.13.57-1.92,1.57-4.05,2.93-5.85-2.58-1.35-5.17-2.03-9.33-2.03-9.22,0-14.52,6.52-14.52,15.87s5.4,15.87,14.85,15.87c3.37,0,6.52-.57,9.12-2.03-1.13-1.47-2.37-3.48-3.15-5.85-2.37.9-3.37,1.02-5.28,1.02v-.12h-.02Z"/>
        <path class="st900" d="M222.88,186.83c-9.33,0-14.52,6.42-14.52,15.98s5.52,15.87,14.52,15.87,14.62-6.18,14.62-15.87-5.17-15.98-14.62-15.98ZM222.88,211.91c-4.62,0-6.08-3.72-6.08-9.12s1.47-9.22,6.08-9.22,6.08,3.93,6.08,9.22c0,5.62-1.57,9.12-6.08,9.12Z"/>
        <path class="st900" d="M141.77,186.83c-9,0-14.52,6.08-14.52,16.08s5.85,15.63,15.87,15.63c3.38,0,7.08-.57,9.45-1.68.45-1.92.45-4.5,0-6.42-3.03.9-5.73,1.47-8.55,1.47-4.62,0-7.87-1.68-8.55-6.63h18.9c.23-.78.33-3.27.33-4.27,0-9-5.07-14.18-12.93-14.18h0ZM135.47,199.09c.57-3.72,2.82-5.85,6.18-5.85,3.72,0,5.18,2.58,5.4,5.85h-11.58Z"/>
        <path class="st900" d="M121.52,57.56c-7.53,0-15.87.67-23.97,2.13,8.22-10.58,21.37-17.43,36-17.43,10.8,0,21.6,4.05,28.8,10.12,1.35,1.12,2.37,1.23,3.38.22s.9-2.03-.23-3.27c-9.45-11.03-23.4-18.45-39.82-18.12-21.48.45-39.72,13.95-46.68,32.85-6.3,2.02-12.15,4.38-17.32,7.2-1.47.78-1.92,1.8-1.47,2.93.45,1.12,1.47,1.47,2.92,1.12,4.38-1.23,9-2.37,13.73-3.38-.45,2.47-.78,5.07-.78,7.77-.45,17.32,8.88,33.75,23.17,42.87,1.47.9,2.58.9,3.38-.23.78-1.13.68-2.13-.45-3.15-9.12-8.1-14.07-20.25-14.07-32.17,0-6.07,1.23-11.92,3.48-17.1,4.73-.45,9.9-.67,15.52-.67,36.68,0,67.62,12.03,67.62,27.9,0,7.98-10.12,16.08-22.28,21.38-2.93,1.23-3.27,2.13-2.82,3.48.45,1.23,1.68,1.58,3.27,1.13,21.15-6.97,37.13-18.33,37.13-32.07,0-18.78-30.27-33.18-68.52-33.18v-.33h0Z"/>
        <path class="st900" d="M138.95,152.84v-40.17c0-1.58-1.47-2.13-2.7-1.35l-10.23,5.85v37.58h10.92c1.13,0,1.92-.9,1.92-1.92h.12-.02Z"/>
        <path class="st900" d="M113.63,125.74v27.78c0,.68.57,1.23,1.23,1.23h7.77v-35.67l-7.77,4.38c-.78.45-1.23,1.13-1.23,2.13v.12h0v.02Z"/>
    </symbol>

    <!-- Logo BRB -->
    <symbol id="lg-brb" viewBox="0 0 250 250">
        <defs>
            <style>
            .st300 {
                fill: #00adef;
            }

            .st300, .st301 {
                fill-rule: evenodd;
            }

            .st301, .st302 {
                fill: #173e7d;
            }

            .st303 {
                fill: none;
            }

            .st304 {
                clip-path: url(#clippath);
            }
            </style>
            <clipPath id="clippath">
            <rect class="st3" x="12.5" y="76.32" width="225" height="97.35"/>
            </clipPath>
        </defs>
        <rect class="st303" y="0" width="250" height="250"/>
        <g class="st304">
            <g>
            <path class="st301" d="M130.76,138.85c6.3-3.34,10.29-9.63,10.29-16.78,0-4.17-1.35-7.71-3.9-10.26-2.94-3.03-6.51-4.18-13.15-4.18h-21.77l-.22,1.35-8.49,53.7c-.63,3.92-.1,10.84,8.56,10.88h14.97c12.73,0,21.63-8.83,21.63-21.47,0-6.15-2.98-10.95-7.91-13.26h-.01ZM122.99,161.72c-2.37,1.62-3.91,2.1-9.67,2.1h-8.9l2.93-18.95h9.4c9.09,0,10.31,4,10.31,7.91s-1.48,7.17-4.06,8.95h-.01ZM117.32,134.54h-8.32l2.73-17.14h9.41c5.43,0,6.35.5,7.19,1.63.72,1,1.02,2.12,1.02,3.81,0,7.01-4.83,11.71-12.02,11.71h0ZM173.15,145.24c9.45-1.81,16.79-10.89,16.79-21.36s-6.56-16.24-18.48-16.24h-20.64l-.22,1.35-8.72,55.8c-.39,2.85-2.56,8.79,7.84,8.78h1.72l.22-1.35,3.99-25.55h6l12.72,26,.44.9h12.56l-1.17-2.31-13.1-26.02h.04ZM157.23,136.92l3.11-19.52h8.83c8.15,0,9.64,2.19,9.64,6.48,0,7.8-5.34,13.04-13.27,13.04h-8.32ZM227.21,138.85c6.3-3.34,10.29-9.63,10.29-16.78,0-4.17-1.35-7.71-3.9-10.26-2.94-3.03-6.51-4.18-13.15-4.18h-21.78l-.21,1.35-8.47,53.59c-.55,3.9-.21,10.95,8.55,10.99h14.95c12.74,0,21.63-8.83,21.63-21.47,0-6.15-2.98-10.95-7.91-13.26h0ZM219.45,161.72c-2.35,1.62-3.91,2.1-9.67,2.1h-8.9l2.93-18.95h9.4c9.09,0,10.31,4,10.31,7.91s-1.49,7.17-4.08,8.95ZM213.78,134.54h-8.32l2.73-17.14h9.4c5.43,0,6.35.5,7.2,1.63.72,1,1.02,2.12,1.02,3.81,0,7.01-4.83,11.71-12.03,11.71h.01Z"/>
            <path class="st300" d="M21.76,107.63l-.95,6.09c13.56,2.75,25.66,9.57,34.95,19.13l13.96-9.13s1.61-1.08,2.35-.18c0,0,.73.71-.67,2.21l-11.46,11.85c8.07,10.04,13.31,22.44,14.5,35.97h6.53l10.35-65.96H21.76Z"/>
            <path class="st301" d="M35.13,154.61l-.64-.77,14.93-16.71c-8.04-7.92-18.3-13.59-29.76-15.98l-6.08,38.76c-1.07,7.26.27,13.68,12.42,13.68h40.91c-1.13-11.44-5.52-21.93-12.23-30.56l-19.54,11.58h0Z"/>
            <path class="st302" d="M21.58,97.07l4.13-20.65h3.48l-1.84,9.24-1.09,3.87-.55,3.51-.81,4.04h-3.32,0ZM30.59,97.27c-1.23,0-2.29-.22-3.18-.64-.89-.45-1.58-1.09-2.07-1.95-.49-.85-.72-1.92-.72-3.18,0-1.39.17-2.66.5-3.81.35-1.17.86-2.17,1.53-3.01.69-.85,1.5-1.5,2.46-1.95.96-.46,2.07-.69,3.29-.69s2.34.26,3.32.78c.99.5,1.76,1.25,2.34,2.22.59.96.89,2.13.89,3.51,0,1.26-.22,2.42-.64,3.48-.41,1.05-.99,1.98-1.76,2.75-.76.78-1.67,1.4-2.67,1.84-1,.42-2.1.64-3.29.64h.01ZM30.32,94.28c1,0,1.89-.23,2.65-.69.76-.49,1.36-1.14,1.81-1.98s.67-1.8.67-2.89-.35-2.06-1.03-2.73c-.69-.67-1.66-1-2.91-1-.99,0-1.86.24-2.65.72-.76.46-1.36,1.12-1.81,1.94-.45.84-.67,1.8-.67,2.89s.35,2.06,1.03,2.73c.69.67,1.66,1,2.91,1h0ZM47.41,97.27c-1.21,0-2.31-.26-3.32-.78-.99-.51-1.77-1.26-2.37-2.22-.58-.98-.86-2.16-.86-3.54,0-1.26.21-2.42.62-3.48.42-1.05,1.03-1.98,1.79-2.75s1.66-1.39,2.65-1.81c1.03-.42,2.13-.64,3.34-.64s2.31.22,3.21.67c.91.45,1.59,1.12,2.07,2.03.46.89.68,2.01.64,3.34-.04,1.84-.37,3.45-1,4.85-.63,1.38-1.52,2.44-2.65,3.2s-2.51,1.14-4.1,1.14h-.03ZM48.31,94.28c1,0,1.89-.23,2.65-.69.76-.49,1.36-1.14,1.81-1.98.45-.84.67-1.8.67-2.89s-.35-2.06-1.03-2.73c-.69-.67-1.66-1-2.91-1-.99,0-1.86.24-2.65.72-.76.46-1.36,1.12-1.81,1.94-.45.84-.67,1.8-.67,2.89s.35,2.06,1.03,2.73c.69.67,1.66,1,2.91,1h0ZM51.96,97.07l.67-3.39.95-3.95.48-3.97.69-3.54h3.48l-2.96,14.86h-3.32,0ZM70.92,82.04c1.29,0,2.38.26,3.27.78.89.51,1.52,1.29,1.86,2.31.37,1,.41,2.24.12,3.7l-1.65,8.24h-3.48l1.62-8.15c.24-1.21.13-2.15-.33-2.82-.46-.68-1.31-1.03-2.55-1.03s-2.34.35-3.18,1.05-1.4,1.77-1.7,3.23l-1.57,7.7h-3.48l2.96-14.86h3.32l-.84,4.23-.55-1.34c.71-1.05,1.59-1.83,2.65-2.31,1.08-.5,2.26-.75,3.55-.75h-.01ZM86.43,97.27c-1.47,0-2.76-.27-3.88-.81-1.09-.55-1.94-1.31-2.55-2.28-.59-.98-.89-2.13-.89-3.45,0-1.67.39-3.15,1.14-4.45.76-1.31,1.81-2.35,3.15-3.09,1.34-.76,2.88-1.14,4.63-1.14,1.5,0,2.8.3,3.88.89,1.09.58,1.94,1.44,2.55,2.58l-2.98,1.53c-.33-.71-.82-1.22-1.45-1.56-.62-.33-1.36-.5-2.26-.5-.96,0-1.84.24-2.62.72-.78.46-1.4,1.12-1.84,1.94-.45.84-.67,1.8-.67,2.89s.35,2.06,1.03,2.73c.69.67,1.67,1,2.93,1,.82,0,1.58-.17,2.29-.5.71-.33,1.3-.85,1.79-1.56l2.57,1.72c-.69,1.04-1.63,1.85-2.84,2.44-1.21.58-2.53.86-3.96.86h-.01ZM102.35,97.27c-1.45,0-2.73-.27-3.82-.81-1.08-.55-1.92-1.31-2.51-2.28-.59-.98-.89-2.13-.89-3.45,0-1.67.39-3.15,1.14-4.45.76-1.31,1.8-2.35,3.12-3.09,1.34-.76,2.87-1.14,4.58-1.14,1.47,0,2.74.27,3.82.81,1.09.51,1.94,1.27,2.53,2.25.59.96.89,2.11.89,3.45,0,1.65-.39,3.14-1.14,4.45s-1.81,2.35-3.15,3.11c-1.32.76-2.84,1.14-4.58,1.14ZM102.56,94.28c1,0,1.89-.23,2.65-.69.76-.49,1.36-1.14,1.81-1.98.45-.84.67-1.8.67-2.89s-.35-2.06-1.03-2.73c-.69-.67-1.66-1-2.91-1-.99,0-1.86.24-2.65.72-.76.46-1.36,1.12-1.81,1.94-.45.84-.67,1.8-.67,2.89,0,1.17.35,2.08,1.03,2.75.69.66,1.66.98,2.91.98h0Z"/>
            </g>
        </g>
    </symbol>

    <!-- Logo BV -->
    <symbol id="lg-bv" viewBox="0 0 250 250">
        <defs>
            <style>
            .st200, .st201 {
                fill: #31c7ed;
            }

            .st202 {
                fill: url(#Gradiente_sem_nome);
                isolation: isolate;
                opacity: .8;
            }

            .st203 {
                fill: #fff;
            }

            .st203, .st201 {
                fill-rule: evenodd;
            }

            .st204 {
                fill: none;
            }
            </style>
            <linearGradient id="Gradiente_sem_nome" data-name="Gradiente sem nome" x1="72.83" y1="744.39" x2="88.12" y2="717.94" gradientTransform="translate(0 -589.89)" gradientUnits="userSpaceOnUse">
            <stop offset="0" stop-color="#fff"/>
            <stop offset="1" stop-color="#d7d7d7"/>
            </linearGradient>
        </defs>
        <rect class="st204" y="0" width="250" height="250"/>
        <g>
            <path class="st201" d="M237.5,82.37s-11.73-.04-24.13,0c-12.39.04-15.53,9.53-15.53,9.53l-31,80.16,12.07,31.19c12.38-.05,15.52-9.53,15.52-9.53l43.07-111.37h0Z"/>
            <path class="st203" d="M146.1,118.46l-.03-.08v-.03l-.03-.05c-2.71-6.81-8.34-12.45-14.82-16.8,6.51-5.7,10.56-14.19,10.56-23.68,0-13.69-11.76-31.11-45.54-31.11h-59.26v45.71H12.51v26.29h24.45v47.24h62.29c5.37.04,10.72-.58,15.94-1.83h.06c3.79-.94,7.47-2.31,10.93-4.13l13.05,33.75s3.14,9.49,15.53,9.53,24.12,0,24.12,0l-32.8-84.82h0ZM72.12,73h21.9c9.64,0,12.66,5.03,12.66,9.72s-3,9.68-12.59,9.71h-21.97s0-19.43,0-19.43ZM72.12,118.7h23.22c10.22,0,13.42,5.32,13.42,10.3s-3.18,10.26-13.33,10.3h-23.3v-20.6h-.01Z"/>
            <path class="st202" d="M113.53,127.27s-2.61-8.6-16.8-8.6h-1v.04c9.91.13,13.04,5.39,13.04,10.3s-3.18,10.26-13.33,10.3h-23.3v-20.61l-35.15.03v47.24h62.28c5.37.04,10.72-.58,15.94-1.83h.06c3.79-.94,7.47-2.31,10.93-4.13l-12.65-32.73h-.01Z"/>
            <path class="st200" d="M36.95,118.72H12.5l24.45,11.28v-11.28Z"/>
        </g>
    </symbol>

    <!-- Logo Itaú -->
    <symbol id="lg-itau" viewBox="0 0 250 250">
  <defs>
    <style>
      .st150 {
        fill: #fff;
      }

      .st151 {
        fill: none;
      }
    </style>
  </defs>
  <rect class="st151" y="0" width="250" height="250"/>
  <g>
    <path class="st150" d="M110.34,12.62c-6.48.15-11.23.39-19.95.91-4.03.24-8.42.59-11.52.9-.77.09-2.4.24-3.6.36-5.05.5-12.55,1.44-15.7,1.98-.67.12-1.65.27-2.19.36-.54.08-1.5.24-2.12.36s-1.67.31-2.33.42c-2.34.4-6.31,1.21-8.55,1.74-.62.15-1.74.42-2.48.59-.73.17-1.4.32-1.48.33-4.14.99-8.26,2.98-11.43,5.57-3.09,2.51-5.84,6.55-7.23,10.57-.23.62-.45,1.26-.53,1.41-.24.54-1.29,5.07-2.03,8.77-.12.62-.31,1.54-.42,2.04-.12.51-.27,1.4-.37,1.98-.09.58-.19,1.29-.27,1.56-.22.81-1.08,6.33-1.63,10.33-.54,3.87-.89,6.69-1.2,9.54-.15,1.4-.31,2.78-.33,3.05-.04.27-.17,1.65-.3,3.05-.12,1.4-.28,3.11-.37,3.82-.3,2.6-1.03,13.93-1.4,21.93-.28,5.93-.46,18.62-.37,25.53.1,8.63.31,16.33.51,19.02.08,1.09.22,3.38.3,5.09.09,1.71.19,3.91.27,4.87.32,4.9.58,8.1.71,9.12.08.62.24,2.28.36,3.67s.28,3.05.36,3.68c.09.64.24,2.01.35,3.06.36,3.36.62,5.54.85,7.01.12.77.31,2.11.42,2.97.41,3.11.89,6.13,1.41,8.91.12.62.3,1.67.42,2.33.24,1.41.8,4.23,1.18,6.01,1.36,6.24,1.95,8.1,3.55,11.18.44.85,1,1.84,1.26,2.19.24.36.59.86.77,1.13.81,1.2,3.11,3.55,4.39,4.46.21.15.62.45.89.67.28.23.55.4.62.4.05,0,.19.1.31.22.55.54,4.44,2.39,6.11,2.88.31.1.69.23.85.3.37.17,2.44.69,4.95,1.26,1.09.26,2.21.53,2.47.59.66.17,4.76.99,7.84,1.56,1.79.32,5.25.87,7.42,1.18.82.12,1.86.27,2.33.35,1.71.3,8.78,1.12,13.22,1.54,1.59.15,3.56.33,4.39.42,1.32.14,2.69.26,9.2.72.98.08,3.2.19,4.95.28s4.21.21,5.44.28c10.07.58,38.86.58,48.79,0,1.25-.09,3.69-.19,5.44-.28,3.01-.14,4.12-.22,8.84-.57,6.06-.46,14.96-1.32,17.97-1.75.86-.13,2.35-.32,3.32-.45,3.6-.46,8.55-1.22,11.38-1.74,3.1-.57,7.2-1.39,7.84-1.56.27-.08,1.39-.33,2.47-.59,2.44-.55,4.57-1.09,4.95-1.26.48-.17.94-.33,1.41-.5,1.16-.39,5-2.21,5.34-2.52.1-.1.39-.31.62-.45,1.11-.69,1.61-1.09,2.62-1.99,1.13-1.03,2.7-2.73,3.09-3.31.13-.19.46-.68.75-1.05.3-.4.54-.75.54-.81s.23-.45.5-.87c.27-.42.59-1.04.72-1.39.14-.32.28-.68.33-.75.27-.36,1.26-3.16,1.68-4.77.67-2.47,1.9-8.32,2.37-11.07.12-.71.24-1.38.28-1.48.13-.31.9-5.17,1.61-10.11.15-1.09.31-2.17.36-2.4.12-.66.62-4.99.85-7.28.12-1.13.27-2.43.35-2.91.09-.46.24-1.99.36-3.4s.27-3.13.33-3.82c.09-.71.22-2.31.3-3.6.09-1.29.22-2.87.28-3.54.09-.67.24-3.11.36-5.44.13-2.34.27-5.21.36-6.37.63-10.29.63-37.27,0-47.88-.08-1.21-.19-3.56-.28-5.23s-.22-3.87-.28-4.89c-.09-1.02-.27-3.52-.42-5.58-.15-2.07-.31-4-.36-4.31-.04-.31-.17-1.68-.28-3.05-.12-1.36-.24-2.64-.28-2.83-.04-.19-.19-1.5-.36-2.91-.36-3.38-.82-7.11-.91-7.55-.04-.19-.19-1.32-.36-2.49-.69-5.29-1.98-12.65-3.09-17.68-.15-.71-.41-1.85-.57-2.55-.4-1.81-.86-3.64-1.02-3.96-.08-.15-.19-.54-.3-.85-.31-1.04-1.88-4.54-2.28-5.09-.05-.09-.51-.75-.99-1.48-1-1.52-3.58-4.21-5.12-5.34-3.05-2.25-6.46-3.78-10.83-4.85-.76-.18-1.5-.37-2.26-.57-.53-.15-1.57-.39-3.82-.85-.64-.13-1.27-.27-1.9-.41-2.73-.67-11.61-2.11-17.4-2.84-1.16-.14-2.3-.3-2.55-.35-.42-.09-2.48-.3-6.65-.71-1.16-.12-2.76-.28-3.54-.36-.77-.09-2.17-.21-3.11-.3-.94-.06-2.46-.19-3.4-.27-3.16-.27-11.96-.77-16.83-.99-9.4-.41-26.78-.54-37.55-.27h.05ZM48.03,108.2c.09.06.5.19.9.3.76.18,1.84.68,2.65,1.22.64.42,2.13,2.03,2.43,2.6.14.28.3.54.33.58s.17.32.28.63c.1.31.23.64.3.71.18.27.4,1.95.4,3.2s-.18,2.65-.42,3.16c-.76,1.75-1.13,2.33-2.1,3.36-.89.91-1.26,1.2-2.47,1.8-.99.5-1.7.75-2.26.81-.45.05-.85.15-.89.22-.1.17-3.16.17-3.16,0,0-.05-.36-.15-.81-.22-.44-.05-.99-.18-1.23-.28-.31-.14-.62-.27-.94-.39-.27-.1-.53-.22-.57-.26-.04-.05-.26-.18-.5-.3-.82-.41-2.52-2.29-3.01-3.32-.27-.55-.53-1.09-.59-1.2-.48-.96-.57-5.35-.12-6.37.13-.27.31-.72.41-.99.1-.27.22-.53.26-.57.04-.04.21-.32.37-.64.27-.53,1.95-2.34,2.19-2.34.05,0,.18-.1.28-.23.27-.3,1.63-.96,2.47-1.17.4-.1.84-.24.99-.31.15-.06.54-.14.85-.18.84-.09,3.77.04,3.95.17h.01ZM202.14,118.06v7.14h-27.44v-9.56l1.53-.24c3.38-.53,5.49-.87,5.62-.96.09-.05.77-.17,1.56-.27.77-.1,1.49-.23,1.56-.28.09-.05.75-.18,1.49-.28.73-.09,1.7-.26,2.12-.37.42-.1,1.31-.26,1.98-.33.67-.09,1.32-.22,1.49-.27.15-.06.86-.19,1.56-.3.71-.09,1.5-.21,1.76-.3.27-.06,1.29-.27,2.26-.42s2.25-.36,2.83-.46c.58-.12,1.2-.19,1.39-.22h.31v7.12h-.01ZM85.03,124.38v8.48h14.15v12.59h-14.16l.05,13.12c.04,14.13.01,13.44.78,15.18.58,1.35,2.22,2.71,3.64,3.06.24.05.51.17.62.26.27.21,5.99.21,6.25-.01.12-.09.62-.19,1.16-.26l.95-.1v12.41l-.39.17c-.35.15-1.98.41-4.22.68-3.18.37-8.98.41-9.32.05-.09-.06-.31-.13-.53-.13-.55,0-2.84-.42-3.01-.55-.09-.05-.46-.19-.86-.28-.39-.1-.76-.23-.85-.28-.06-.08-.4-.19-.71-.3-.31-.1-.59-.23-.64-.27-.04-.04-.3-.19-.57-.36-1.17-.62-1.53-.85-2.15-1.38-.37-.3-.71-.55-.77-.55-.14-.01-1.22-1.18-2.06-2.26-.66-.84-1.61-2.43-1.94-3.25-.12-.27-.24-.53-.28-.57-.05-.04-.19-.48-.33-.99-.13-.51-.3-1.04-.37-1.2-.06-.15-.24-.8-.35-1.41-.12-.59-.24-1.18-.39-1.77-.1-.42-.17-5.4-.21-14.83l-.05-14.17h-8.19v-12.59h8.2v-14.26l.96-.1c.53-.05,1.02-.15,1.09-.21.09-.05.78-.18,1.56-.28s1.49-.24,1.56-.3c.09-.05.98-.22,1.98-.33,1.02-.14,1.9-.3,1.98-.36.09-.05.55-.15,1.05-.19.67-.08,1.32-.19,1.98-.32,1.52-.31,4.15-.72,4.28-.66.05.03.1,3.87.1,8.54h-.01ZM131.92,131.5c1.98.12,4.22.37,4.39.5.09.05.42.15.77.19.81.13,2.78.71,3.96,1.18.99.4,3.2,1.5,3.54,1.79.12.09.37.26.57.33.19.1.82.59,1.38,1.08.55.5,1.07.91,1.13.95.22.1,2.73,3.15,2.73,3.32,0,.04.13.27.28.48.3.42,1.56,2.87,1.56,3.02,0,.05.12.37.27.69.14.32.31.82.37,1.09.05.27.15.55.21.64.05.08.18.53.28.99.09.46.19.95.24,1.05.05.12.18.72.3,1.35.17.94.21,4.45.27,20.05l.05,18.93h-15.43v-1.67c-.03-.9-.08-2.22-.13-2.92l-.09-1.27-.41.57c-.66.86-2.79,2.89-3.64,3.46-1.85,1.22-2.35,1.52-2.86,1.68-.31.09-.72.26-.91.36-.22.1-.73.27-1.16.36-.42.1-.85.23-.91.28-.72.54-9.63.53-10.33,0-.06-.05-.58-.18-1.13-.28-.54-.1-1.17-.26-1.41-.37-.23-.1-.84-.36-1.32-.55-.57-.24-1.13-.53-1.67-.82-.37-.23-.76-.45-1.14-.67-.59-.32-.8-.51-2.4-2.12-1.66-1.66-1.86-1.88-1.86-2.03,0-.05-.18-.37-.4-.69-.23-.32-.55-.91-.72-1.3-.17-.4-.4-.86-.5-1.05-.12-.19-.27-.71-.37-1.13s-.23-.85-.28-.91c-.15-.19-.42-2.21-.42-3.09,0-.41-.06-.82-.15-.9-.17-.17-.13-.73.31-4.14.09-.67.22-1.27.27-1.34.05-.09.18-.45.27-.84.18-.73.57-1.7.96-2.42.13-.24.3-.57.39-.73.09-.18.19-.32.27-.32.05,0,.1-.09.1-.18,0-.15,1.56-2.17,1.83-2.37.05-.04.15-.18.19-.32.05-.15.23-.3.39-.33s.28-.13.28-.18c0-.14,2.38-2.01,3.18-2.47.58-.35,1.88-1.02,3.78-1.93.27-.14,2.91-.99,4.08-1.31.42-.13,1.26-.3,1.84-.39.58-.1,1.13-.22,1.21-.27.09-.05.93-.18,1.9-.27s2.17-.23,2.69-.3c2.01-.3,9.07-.24,9.81.08.26.12.27.05.17-1.14-.05-.69-.15-1.29-.21-1.32-.08-.04-.15-.31-.22-.59-.1-.53-.64-1.67-1.14-2.44-.32-.49-1.7-1.92-1.85-1.92-.05,0-.3-.14-.54-.32-.62-.45-1.62-.9-2.24-1.02-.3-.05-.54-.15-.54-.22,0-.62-9.13-.72-11.88-.12-.36.06-1.17.23-1.84.33-.67.12-1.32.27-1.49.33-.15.06-.67.19-1.13.28s-.98.22-1.13.28c-.15.08-.72.23-1.26.36-.54.13-1.04.27-1.13.33-.09.05-.46.19-.86.3-.39.1-.77.24-.85.3-.09.05-.46.18-.85.28-.4.09-.95.28-1.23.42-.3.15-.57.27-.6.27s-.08-2.96-.08-6.56c0-5.11.04-6.6.18-6.7.1-.09.5-.23.87-.32.4-.09.77-.22.85-.27.09-.05.55-.23,1.07-.36.51-.14.99-.3,1.05-.35.09-.08.53-.18.98-.28.46-.1.95-.23,1.05-.3.13-.05.71-.22,1.29-.33.45-.09.9-.19,1.35-.3.15-.04.95-.17,1.76-.28.82-.12,1.68-.27,1.9-.33.82-.26,8.23-.72,9.9-.62.46.03,1.49.09,2.26.13h0l.04-.08ZM53.91,161v28.15h-16.55v-56.3h16.55v28.15ZM178.95,150.38c0,16.74.08,19.99.41,20.45.06.06.15.35.22.62.19,1.05,1.12,2.6,2.16,3.65.55.57,1.17,1.07,1.38,1.12.22.04.37.13.37.18s.5.26,1.11.45c.9.28,1.39.33,2.8.33.99,0,1.85-.06,2.04-.15.18-.1.62-.24.98-.33s.99-.4,1.41-.68c.8-.5,2.26-1.86,2.26-2.1,0-.06.19-.39.42-.68.24-.31.42-.62.42-.71s.13-.39.27-.67c.15-.28.32-.76.39-1.05.04-.31.14-.62.22-.69.36-.45.41-3.31.41-19.91v-17.37h16.55v56.3h-7.83c-6.12,0-7.88-.04-7.96-.18-.05-.09-.13-1.43-.15-2.97-.03-1.53-.1-2.79-.15-2.79s-.23.17-.4.39c-.8,1.08-2.03,2.29-3.99,3.91-.28.23-.86.54-2.13,1.16-.58.28-1.22.6-1.41.71-.19.1-.73.26-1.21.36-.46.1-.87.23-.91.28-.14.21-2.65.42-5.12.42s-4.41-.17-4.99-.41c-.15-.06-.69-.24-1.21-.37-.51-.13-.98-.3-1.05-.36-.06-.05-.41-.19-.73-.3-.33-.09-.6-.21-.6-.27s-.26-.18-.57-.28-.57-.23-.57-.28-.15-.17-.33-.26c-1.22-.55-3.97-3.14-5.13-4.81-.71-1.02-1.8-3.06-2.02-3.81-.09-.3-.26-.73-.36-.96-.1-.24-.27-.75-.36-1.13-.09-.4-.21-.81-.28-.95-.06-.13-.19-.8-.28-1.49-.09-.68-.24-1.38-.32-1.53-.13-.21-.18-5.26-.22-20.35l-.04-20.05h16.56v17.54l-.05.04Z"/>
    <path class="st150" d="M130.35,162.65c-.72.06-1.45.18-1.61.24-.17.08-.68.21-1.17.3-.46.08-1.09.24-1.39.36-2.2.89-3.27,1.47-4,2.17-.71.68-1.4,1.94-1.52,2.73-.03.27-.13.62-.22.77-.17.31-.1,1.27.17,2.53.3,1.36,1.47,3.04,2.51,3.54,1.85.87,2.2,1.02,3.23,1.17,1.84.26,5.36.1,6.12-.27.13-.06.67-.3,1.2-.51.53-.23,1.22-.59,1.54-.82s.68-.5.82-.59c.84-.58,2.38-2.95,2.58-3.92.04-.24.17-.53.24-.64.1-.12.18-1.36.21-3.6l.06-3.42-.8-.08c-1.07-.13-6.34-.08-7.96.05h-.03Z"/>
  </g>
    </symbol>
    <!-- Logo Porto -->
    <symbol id="lg-porto" viewBox="0 0 250 250">
        <defs>
            <style>
            .st950 {
                fill: none;
            }

            .st951 {
                fill: #2b56c0;
            }
            </style>
        </defs>
        <rect class="st950" y="0" width="250" height="250"/>
        <g>
            <path class="st951" d="M90.34,128.01c-7.83-9.59-33.65-4.58-53.77,1.85-.05.03-.12.03-.18.03s-.12-.03-.17-.06-.09-.08-.12-.13c-.03-.05-.05-.12-.05-.17.03-1.02.05-2.04.05-3.07.01-5.12-.41-10.22-1.29-15.25-.01-.09,0-.17.05-.24.05-.06.13-.12.21-.13,16.65-6.07,50.18-7.96,55.93,16.91h0c.09.37-.45.59-.68.28M73.48,155.91c-.55.41-1.27-.26-.8-.75,8.1-8.29,14.76-21.43-43.96,5.31-.36.17-.72-.21-.48-.5,3.24-4.63,6.12-12.07,7.43-22.64,0-.06.04-.13.08-.18.04-.05.09-.09.15-.12,36.8-14.79,78.35-14.25,37.58,18.87M24.37,89.78c-.06-.04-.13-.09-.15-.17s-.04-.15-.01-.23.06-.14.14-.18c.06-.04.14-.06.22-.05,10.18.03,40.85-.73,56.66,19.41.22.35-.28.69-.59.42-4.77-4.15-17.68-11.19-47.44-5.03-.09.03-.19.01-.28-.04s-.15-.13-.18-.22c-2.37-7.57-5.37-11.66-8.33-13.92M89.77,80.22H22.9c-2.78.03-5.44,1.14-7.39,3.12s-3.03,4.65-3.01,7.43v67.87c-.03,2.78,1.07,5.45,3.01,7.43,1.95,1.98,4.6,3.11,7.39,3.12h66.87c2.78-.03,5.44-1.14,7.39-3.12s3.03-4.65,3.02-7.43v-67.87c.03-2.78-1.07-5.45-3.02-7.43s-4.6-3.11-7.39-3.12"/>
            <path class="st951" d="M113.31,80.39h15.3c7.95,0,12.69,4.9,12.69,11.82s-4.73,11.82-12.69,11.82h-8.06v14.48h-7.24s0-38.11,0-38.11ZM128.29,97.97c4.24,0,5.99-2.73,5.99-5.77s-1.75-5.77-5.99-5.77h-7.73v11.55s7.73,0,7.73,0ZM155.78,90.62c8.33,0,14.32,5.99,14.32,14.16s-5.99,14.16-14.32,14.16-14.37-5.99-14.37-14.16,5.99-14.16,14.37-14.16ZM155.78,113.16c4.53,0,7.57-3.43,7.57-8.38s-3.05-8.38-7.57-8.38-7.62,3.43-7.62,8.38,3.05,8.38,7.62,8.38ZM173.15,100.85c0-6.26,3.54-9.8,9.8-9.8h6.15v5.61h-5.12c-2.67,0-4.14,1.53-4.14,4.19v17.64h-6.7v-17.64h.01ZM192.47,82.78h6.7v8.28h7.62v5.61h-7.62v11.98c0,2.78,1.47,4.19,3.97,4.19h3.65v5.66h-4.41c-5.99,0-9.91-3.48-9.91-9.58v-26.14ZM223.18,90.62c8.33,0,14.32,5.99,14.32,14.16s-5.99,14.16-14.32,14.16-14.37-5.99-14.37-14.16,5.99-14.16,14.37-14.16h0ZM223.18,113.16c4.53,0,7.57-3.43,7.57-8.38s-3.05-8.38-7.57-8.38-7.62,3.43-7.62,8.38,3.05,8.38,7.62,8.38h0Z"/>
            <path d="M113.27,130.28h15.12c7.14,0,12.23,3.57,12.23,10.04-.01,1.59-.46,3.15-1.3,4.51-.84,1.35-2.02,2.46-3.45,3.19,2.02.69,3.77,2.02,4.96,3.77,1.21,1.76,1.81,3.86,1.74,5.99,0,7.25-5.41,11.55-13.62,11.55h-15.67v-39.06h-.01ZM127.89,145.57c3.91,0,5.86-1.67,5.86-4.69s-1.95-4.69-5.97-4.69h-7.25v9.37h7.37-.01ZM128.18,162.93c4.96,0,7.3-1.9,7.3-5.53s-2.34-5.58-7.3-5.58h-7.65v11.1h7.65Z"/>
            <path d="M157.85,145.91c-3.63,0-5.8,2.29-5.91,4.8h-6.13c.33-5.58,5.08-9.93,12.39-9.93s12.16,4.13,12.16,10.49v18.08h-6.75v-4.19c-1.17,2.79-4.41,4.63-8.42,4.63-5.58,0-9.37-3.57-9.37-8.42,0-5.46,4.24-8.87,10.54-8.87h7.25v-1.17c0-3.46-2.12-5.41-5.75-5.41h-.01ZM156.8,164.72c4.29,0,6.8-3.01,6.8-7.25v-.33h-5.97c-3.24,0-5.19,1.5-5.19,3.96,0,2.17,1.79,3.63,4.36,3.63h0Z"/>
            <path d="M175.21,141.23h6.87v4.36c1.57-3.07,4.74-4.8,8.76-4.8,6.36,0,10.49,4.58,10.49,11.16v17.41h-6.87v-15.96c0-3.84-2.34-6.53-5.86-6.53-3.84,0-6.53,3.01-6.53,7.14v15.34h-6.87v-28.12h.01Z"/>
            <path d="M207,169.34v-40.18h6.87v22.32l10.76-10.26h8.7l-11.44,11.04,12.39,17.07h-8.32l-8.76-12.55-3.34,3.24v9.32h-6.87Z"/>
        </g>
    </symbol>
    <!-- Logo Sicoob -->
    <symbol id="lg-sicoob" viewBox="0 0 250 250">
        <defs>
            <style>
            .st100 {
                fill: #b8d335;
            }

            .st101 {
                fill: #fff;
            }

            .st102 {
                fill: #6ebb49;
            }

            .st103 {
                fill: none;
            }

            .st104 {
                fill: #00ae9c;
            }
            </style>
        </defs>
        <rect class="st103" width="250" height="250"/>
        <g>
            <path class="st102" d="M15.35,100.04c-.45.04-.9.15-1.31.41-.98.57-1.54,1.61-1.54,2.66,0,.45.12.94.33,1.39l15.11,26.3,4.91-8.48,7.98-13.81-4.91-8.48H15.34h.01Z"/>
            <path class="st102" d="M15.35,100.04c-.45.04-.9.15-1.31.41-.98.57-1.54,1.61-1.54,2.66,0,.45.12.94.33,1.39l15.11,26.3,4.91-8.48,7.98-13.81-4.91-8.48H15.34h.01Z"/>
            <path class="st104" d="M35.97,100.04l12.86,22.25h9.74l10.31-17.86c.19-.41.3-.82.3-1.31,0-1.65-1.27-2.97-2.89-3.07h-30.33.01Z"/>
            <path class="st100" d="M57.89,122.29h-25l-4.91,8.48,10.35,17.86c.22.37.6.68.98.94.49.26,1.02.41,1.54.41,1.02,0,1.99-.53,2.58-1.39l15.18-26.3h-.72Z"/>
            <path class="st101" d="M156.57,108.04h-.19c-10.12.12-16.38,7.8-16.38,17.45s5.7,17.03,16.04,17.03h.37c10.08-.12,16.38-6.94,16.38-17.6-.04-8.9-5.48-16.88-16.24-16.88h.01ZM156.5,135.46l-.12-.04c-4.31,0-7.01-4.17-6.93-10.13,0-5.81,2.62-10.17,6.93-10.17s6.93,4.36,6.93,10.13-2.51,10.21-6.83,10.21h.01ZM230.96,123.94v-.08c3.93-1.5,5.44-4.2,5.44-6.98,0-3.27-1.88-5.67-4.5-6.9-2.21-1.09-4.62-1.5-8.18-1.62-.64-.04-1.31-.04-2.06-.04-4.09,0-8.51.33-10.53.75v32.72c1.8.33,4.76.6,8.81.6,1.35,0,2.58-.04,3.79-.12,4.87-.33,7.98-1.35,10.01-2.85,2.25-1.68,3.75-4.17,3.75-7.31,0-4.01-2.47-7.06-6.52-8.18h-.03ZM219.96,114.98c.6-.12,1.47-.19,2.92-.19.26,0,.57.04.78.04,2.48.19,3.72,1.39,3.72,3.11s-1.2,2.97-3.72,3.34c-.6.08-1.23.15-1.95.15h-1.76v-6.45h.01ZM223.72,135.77c-.37.04-.75.08-1.12.08-1.13,0-1.95,0-2.58-.12v-7.96h2.13c.57,0,1.09,0,1.58.08,2.55.33,4.35,1.47,4.35,3.83,0,2.58-1.92,3.83-4.35,4.09h-.01ZM208.42,124.96c0-8.93-5.44-16.92-16.2-16.92h-.19c-10.12.12-16.38,7.8-16.38,17.45s5.7,17.03,16.04,17.03h.33c10.08-.12,16.38-6.94,16.38-17.56h.01ZM192.15,135.46l-.12-.04c-4.31,0-6.97-4.17-6.93-10.13,0-5.81,2.62-10.17,6.93-10.17s6.94,4.36,6.94,10.13-2.51,10.21-6.83,10.21ZM137.42,134.11c-1.39.57-3.82.94-5.97.94-6.15,0-9.74-3.79-9.74-9.8,0-6.79,4.42-9.83,9.56-9.83,2.66,0,5.44.78,6.18,1.2,1.57-3.6,1.2-8.52-6.59-8.52-9.98,0-18.59,6-18.59,17.72,0,8.9,5.52,16.66,18,16.66,3.97,0,7.12-.75,8.36-1.39l-1.2-6.98h-.01ZM99.1,108.59v33.4h8.96v-27.92c-.04-4.24-2.29-5.48-8.96-5.48ZM86.06,121.77c-4.24-1.58-6-2.21-6-3.91,0-1.5,1.5-2.48,4.24-2.48,3.34,0,6.59,1.23,7.24,1.58,1.27-3.42,1.99-8.9-7.12-8.9-8.43,0-13.42,4.58-13.42,10.46,0,4.95,3.79,8.03,9.41,10.05,3.79,1.27,5.25,2.17,5.25,3.83s-1.5,2.7-4.58,2.7c-3.34,0-6.59-1.02-8.66-2.1l-1.68,7.39c1.88,1.02,5.77,2.03,9.78,2.03,9.74,0,14.21-4.91,14.21-10.66,0-4.62-2.66-7.8-8.66-10.01h.01Z"/>
            <path class="st104" d="M68.85,104.4c.19-.41.3-.86.3-1.35,0-1.13-.64-2.13-1.54-2.66-.41-.23-.86-.37-1.35-.37l-30.33.08,4.91,8.48,7.98,13.77,9.78-.08,10.23-17.86h.01Z"/>
            <path class="st100" d="M38.29,148.64c.26.37.6.68,1.02.94.98.57,2.13.53,3.07,0,.41-.23.75-.57,1.02-.98l15.18-26.26h-9.78l-15.93-.04-4.87,8.48,10.31,17.86h-.01Z"/>
        </g>
    </symbol>
    <!-- Logo Socredi -->
    <symbol id="lg-sicredi" viewBox="0 0 250 250">
        <defs>
            <style>
            .st800 {
                fill: #fff;
            }

            .st801 {
                fill: none;
            }
            </style>
        </defs>
        <rect class="st801" y="0" width="250" height="250"/>
        <g>
            <path class="st800" d="M45.99,114.59c-.01,2.26-.6,3.41-1.34,3.5-.48.05-1.03-.33-1.53-1.16-1.65-2.69-3.45-5.26-5.35-7.77h0c.75-3.99,1.93-8.04,3.96-11.56,2.53,5.09,4.29,11.33,4.26,17h0ZM36.48,114.46c1.79,1.61,2.29,2.88,1.88,3.57-.26.46-.91.67-1.88.57-3.21-.37-6.42-.53-9.67-.55h0c-3.06-3.65-5.84-7.74-7.61-12.16,6.07,1.44,12.64,4.42,17.28,8.58M30.35,122.75c2.39-.5,3.7-.09,4,.69.19.51-.05,1.21-.72,1.95-2.24,2.44-4.29,5-6.27,7.68h-.01c-4.83.36-9.86.15-14.57-1.02,4.81-4.24,11.31-7.98,17.59-9.31M33.1,132.97c1.05-2.22,2.17-3.06,2.93-2.83.5.15.87.76,1.02,1.75.44,3.1,1.05,6.13,1.81,9.17h0c-2.62,3.73-5.45,7.32-8.99,10.22-.42-6.02.68-12.88,3.23-18.31ZM42.16,136.62c-.93-2.03-.86-3.42-.23-3.9.41-.31,1.08-.26,1.85.21,2.35,1.39,4.77,2.67,7.3,3.7h0c.91,3.82,1.44,7.8,1.21,11.73-4.23-2.76-8.06-7.2-10.13-11.74ZM50.16,131.61c-1.93-.42-2.85-1.29-2.8-2.07.04-.51.49-1.02,1.29-1.36,2.43-1.08,4.83-2.26,7.08-3.68h0c3,1.52,5.86,3.46,8.18,5.9-4.2,1.63-9.41,2.16-13.76,1.2h.01ZM51.74,122.15c-1.53,1.34-2.71,1.56-3.23,1.02-.33-.36-.41-1.04-.15-1.93.81-2.82,1.44-5.66,1.97-8.55h.01c3.09-1.44,6.18-2.76,9.6-3.11-1.62,4.6-4.55,9.39-8.22,12.59"/>
            <path class="st800" d="M41.74,97.59c-2.03,3.52-3.21,7.57-3.95,11.55h0c-.51-.64-1.18-1.44-1.77-2.16-2.21-2.75-4.67-5.32-7.14-7.84,4.06-1.63,8.52-2.16,12.87-1.53h-.01ZM12.5,119.14c3.79-.46,7.6-.89,11.37-1.02.98-.04,2.08-.08,2.96-.08h0c-3.06-3.65-5.84-7.74-7.61-12.16-3.38,3.73-5.68,8.34-6.7,13.26M19.97,144.98c1.79-3.24,3.66-6.44,5.71-9.48.54-.8,1.16-1.72,1.67-2.44h-.01c-4.83.36-9.85.15-14.57-1.02,1.21,4.85,3.68,9.36,7.2,12.92h0ZM42.71,152.28c-1.14-2.88-2.25-5.79-3.12-8.72-.24-.81-.53-1.76-.73-2.52h0c-2.62,3.73-5.45,7.32-8.99,10.22,4.27,1.25,8.42,1.84,12.84,1h0ZM60.43,139.68c-2.47-.62-4.92-1.32-7.28-2.25-.67-.27-1.45-.54-2.07-.81h0c.91,3.82,1.44,7.8,1.21,11.73,3.32-2.24,6.11-5.22,8.14-8.65M63.74,118.74c-1.98,1.62-4.01,3.19-6.16,4.56-.6.39-1.29.85-1.85,1.2h0c3,1.52,5.86,3.46,8.18,5.9.55-4.05.5-7.64-.18-11.66h.01ZM51.51,101.18c-.18,3.03-.4,6.07-.81,9.04-.12.8-.24,1.74-.36,2.48h.01c3.09-1.44,6.18-2.76,9.6-3.11-2.15-3.38-5.03-6.27-8.43-8.4"/>
            <path class="st800" d="M224.1,106.06l-5.26,36.99h-6.69v-4.14c-3.32,3.16-6.75,4.76-10.23,4.76-2.44,0-4.26-.71-5.53-2.16-1.97-2.24-2.55-6.18-1.76-12.09,1.54-11.04,5.67-13.27,11.84-13.27,2.44,0,5.23.22,7.73.59l1.52-10.7h8.38ZM209.69,122.26c-4.65,0-5.64.59-6.57,7.37-.48,3.47-.6,5.64.08,6.43.28.32.77.46,1.5.44,2.55-.05,4.56-1.39,7.17-3.69l1.48-10.54h-3.66,0ZM134.17,116.17c-4.74,0-7.98.98-10.22,3.09-2.2,2.08-3.5,5.27-4.22,10.32-.72,5.03-.1,8.56,1.86,10.84,1.9,2.19,5.13,3.25,9.87,3.25,2.33,0,5.75-.21,8.83-1.22l.22-.06.87-6.18-.55.09c-2.15.31-4.85.46-8.02.46-2.2,0-3.29-.27-3.91-.96-.76-.85-.9-2.52-.49-5.75.73-5.99,2.6-6.96,6.78-6.96,1.7,0,8.02.1,8.02.1l.82-5.86s-3.55-1.17-9.87-1.17M191.05,119.09c1.27,1.47,1.7,3.52,1.31,6.27-.81,5.57-4.73,6.96-10.79,7.38l-7.2.54c.19,3.02,1.77,3.59,4.74,3.59,2.56,0,8.73-.3,9.73-.55l.41-.1.05.41c.24,2.19.98,4.6.99,4.63l.09.31-.31.13c-3.28,1.38-8.43,1.99-11.84,1.99-4.83,0-8.16-1.09-10.17-3.34-2.04-2.29-2.75-5.88-2.15-10.94,1.2-9.89,5.03-13.22,15.16-13.22,5.01,0,8.27.95,9.96,2.91M180.38,127.53c2.44-.19,3.57-.67,3.86-2.98.06-.81-.01-1.3-.27-1.58-.39-.41-1.29-.5-2.61-.5h-.78c-3.92,0-4.9,1.34-5.67,5.57l5.48-.51h0ZM166.85,116.9h-1.62c-3.07,0-6.08,1.52-9.95,5.04v-5.04h-6.63l-3.68,26.16h8.4l2.03-15.04c1.05-1.35,4-2.93,6.18-2.93h1.79l.06-.28s.76-3.39,3.09-7.35l.32-.55h.01ZM78.71,115.72c-.71,5.4,1.2,8.59,6.33,10.67l6.79,2.69c2.16.78,2.64,1.18,2.35,3.32-.42,2.74-1.49,3.47-6.24,3.47h-11.53l-1.03,7.19h12.9c10.04,0,13.41-2.37,14.44-10.11.63-4.89-.22-8.4-6.39-10.77l-6.42-2.43c-2.48-.93-2.94-1.3-2.61-3.47.39-2.42,1.27-2.94,3.14-3.07h13.76l1.03-7.19h-12.28c-8.36,0-13.1,1.54-14.22,9.69M105.29,143.06h8.34l3.68-26.16h-8.34l-3.68,26.16ZM117.81,113.2l1-7.19h-8.34l-1,7.19s8.34,0,8.34,0ZM223.96,143.06h8.34l3.68-26.16h-8.34l-3.68,26.16ZM236.5,113.2l1-7.19h-8.34l-1,7.19s8.34,0,8.34,0Z"/>
        </g>
    </symbol>
    <!-- Logo Solfácil -->
    <symbol id="lg-solfacil" viewBox="0 0 250 250">
  <defs>
    <style>
      .st700 {
        fill: none;
      }

      .st701 {
        fill: url(#Gradiente_sem_nome);
      }

      .st702 {
        fill: #fafafa;
      }
    </style>
    <linearGradient id="Gradiente_sem_nome" data-name="Gradiente sem nome" x1="73.08" y1="741.8" x2="73.08" y2="696.72" gradientTransform="translate(0 -589.89)" gradientUnits="userSpaceOnUse">
      <stop offset="0" stop-color="#00b569"/>
      <stop offset="1" stop-color="#bfff00"/>
    </linearGradient>
  </defs>
  <rect class="st700" y="0" width="250" height="250"/>
  <g>
    <path class="st701" d="M93.58,120.09h-41.01c-.46,1.02-.85,2.08-1.16,3.16h43.32c-.31-1.09-.69-2.15-1.14-3.16ZM73.07,151.83c5.54,0,10.61-2.01,14.53-5.34h-29.07c3.92,3.32,8.99,5.34,14.53,5.34h.01ZM89.04,113.49h-31.92c-.81.81-1.56,1.68-2.22,2.62h36.39c-.68-.93-1.41-1.8-2.22-2.62h-.01ZM74.46,106.88c-.46-.03-.91-.05-1.39-.05s-.93.01-1.39.05c-2.89.18-5.64.9-8.14,2.07h19.04c-2.49-1.17-5.25-1.89-8.14-2.07h.01ZM95.42,126.7h-44.68c-.1.86-.15,1.75-.15,2.65,0,.36,0,.72.03,1.08h44.94c.01-.36.03-.72.03-1.08,0-.9-.06-1.77-.15-2.65ZM56.66,144.72h32.81c1.35-1.44,2.52-3.06,3.46-4.82h-39.73c.94,1.76,2.11,3.38,3.46,4.82ZM52.14,137.57h41.88c.54-1.36.94-2.79,1.21-4.27h-44.28c.26,1.48.67,2.91,1.21,4.27h-.01Z"/>
    <path class="st702" d="M29.61,148.26c-5.46,0-9.67-.99-12.61-2.98-2.94-1.98-4.45-4.65-4.5-8.01h5.63c.05,1.74.95,3.29,2.69,4.65s4.68,2.04,8.81,2.04c3.81,0,6.66-.66,8.56-1.98,1.9-1.31,2.85-2.92,2.85-4.78,0-3.36-3.09-5.31-9.24-5.89l-4.82-.4c-3.91-.36-7.05-1.34-9.4-2.94s-3.54-3.86-3.54-6.76c0-3.12,1.41-5.64,4.26-7.57,2.84-1.92,6.62-2.88,11.33-2.88s8.27.9,11.13,2.67c2.87,1.79,4.33,4.33,4.38,7.64h-5.63c-.05-1.7-.91-3.12-2.57-4.28s-4.1-1.74-7.32-1.74-5.8.62-7.43,1.84c-1.63,1.23-2.46,2.69-2.46,4.38,0,1.48.62,2.69,1.85,3.65s3.16,1.56,5.79,1.77l4.82.4c4.28.4,7.78,1.43,10.49,3.09,2.7,1.65,4.06,4.02,4.06,7.1,0,2.1-.71,3.99-2.13,5.66-1.41,1.67-3.42,2.98-5.99,3.92s-5.57,1.4-9,1.4h-.01Z"/>
    <path class="st702" d="M99.63,98.36h5.79v48.9h-5.79v-48.9Z"/>
    <path class="st702" d="M112.88,109.08c0-3.75,1.17-6.51,3.5-8.27s5.77-2.65,10.32-2.65h5.39v4.28h-6.51c-2.25,0-3.97.49-5.14,1.48-1.18.98-1.76,2.37-1.76,4.15v3.34h10.9v4.64h-10.9v31.19h-5.79v-38.19h-.01Z"/>
    <path class="st702" d="M144.3,148.19c-8.29,0-13.64-4.64-13.64-11.39,0-3.57,1.45-6.31,4.38-8.24,2.92-1.92,7.03-2.88,12.33-2.88h11.89v-1.45c0-2.64-.84-4.65-2.49-6.06-1.66-1.4-4.23-2.11-7.71-2.11h-12.54v-4.64h10.36c7.64,0,11.13,1.02,13.95,3.05s4.22,5.37,4.22,10.02v22.77h-5.79v-9.3c-2.2,5.98-9.22,10.23-14.97,10.23h0ZM144.53,143.24c12.97,0,14.72-12.61,14.72-13.38v-.28l-11.37-.06c-8.47,0-11.38,3.29-11.38,7.37,0,4.65,4.81,6.36,8.02,6.36h0Z"/>
    <path class="st702" d="M171.56,129.44v-.46c0-2.24.44-4.45,1.32-6.63.89-2.19,2.21-4.18,3.97-5.97,1.77-1.79,3.97-3.21,6.63-4.28,2.65-1.07,5.77-1.61,9.36-1.61s6.66.55,9.53,1.65c2.87,1.09,5.18,2.64,6.96,4.62,1.76,1.98,2.79,4.32,3.05,6.99h-5.79c-.32-2.42-1.72-4.47-4.22-6.2s-5.67-2.58-9.53-2.58c-3.43,0-6.27.66-8.52,1.98-2.25,1.31-3.93,3.07-5.07,5.26-1.12,2.19-1.68,4.6-1.68,7.24s.57,5.05,1.68,7.24c1.13,2.19,2.82,3.95,5.07,5.26,2.25,1.31,5.09,1.98,8.52,1.98,3.86,0,7.03-.86,9.53-2.58s3.9-3.78,4.22-6.2h5.79c-.27,2.67-1.29,5.01-3.05,6.99-1.77,1.99-4.09,3.52-6.96,4.63-2.87,1.09-6.04,1.65-9.53,1.65s-6.71-.54-9.36-1.61-4.86-2.49-6.63-4.28c-1.76-1.79-3.1-3.77-3.97-5.97-.89-2.19-1.32-4.4-1.32-6.63v-.48Z"/>
    <path class="st702" d="M218.6,147.26v-35.43h5.79v35.43h-5.79Z"/>
    <path class="st702" d="M218.6,106.27v-7.91h5.79v7.91h-5.79Z"/>
    <path class="st702" d="M140.83,103.21l18.42-4.83v4.22l-18.42,4.83v-4.22Z"/>
    <path class="st702" d="M231.71,98.36h5.79v48.9h-5.79v-48.9Z"/>
  </g>
    </symbol>
    <!-- Logo Viacredi -->
    <symbol id="lg-viacredi" viewBox="0 0 250 250">
        <defs>
            <style>
            .st600 {
                fill: url(#Gradiente_sem_nome_2);
            }

            .st601 {
                fill: none;
            }

            .st602 {
                fill: url(#Gradiente_sem_nome);
            }

            .st603 {
                fill: #007041;
            }

            .st604 {
                fill: #007d8a;
            }

            .st605 {
                fill: #165c7d;
            }

            .st606 {
                fill: #886b25;
            }

            .st607 {
                fill: url(#Gradiente_sem_nome_3);
            }
            </style>
            <linearGradient id="Gradiente_sem_nome" data-name="Gradiente sem nome" x1="93.1" y1="705.72" x2="187.64" y2="705.72" gradientTransform="translate(0 -589.89)" gradientUnits="userSpaceOnUse">
            <stop offset="0" stop-color="#00a9ce"/>
            <stop offset=".41" stop-color="#00a7cb"/>
            <stop offset=".66" stop-color="#009fc3"/>
            <stop offset=".86" stop-color="#0091b5"/>
            <stop offset="1" stop-color="#0083a6"/>
            </linearGradient>
            <linearGradient id="Gradiente_sem_nome_2" data-name="Gradiente sem nome 2" x1="107.36" y1="639.14" x2="191.6" y2="639.14" gradientTransform="translate(0 -589.89)" gradientUnits="userSpaceOnUse">
            <stop offset="0" stop-color="#ffa300"/>
            <stop offset=".35" stop-color="#fca200"/>
            <stop offset=".56" stop-color="#f49d00"/>
            <stop offset=".73" stop-color="#e69600"/>
            <stop offset=".89" stop-color="#d28b00"/>
            <stop offset="1" stop-color="#bd8000"/>
            </linearGradient>
            <linearGradient id="Gradiente_sem_nome_3" data-name="Gradiente sem nome 3" x1="58.33" y1="663.8" x2="107.33" y2="663.8" gradientTransform="translate(0 -589.89)" gradientUnits="userSpaceOnUse">
            <stop offset="0" stop-color="#00b140"/>
            <stop offset=".39" stop-color="#00ae40"/>
            <stop offset=".62" stop-color="#01a63e"/>
            <stop offset=".82" stop-color="#02983b"/>
            <stop offset=".99" stop-color="#038437"/>
            <stop offset="1" stop-color="#038237"/>
            </linearGradient>
        </defs>
        <rect class="st601" width="250" height="250"/>
        <g>
            <g>
            <path class="st605" d="M40.04,208.3c-1.11,3.43-2.88,4.79-5.47,4.79s-4.33-1.26-5.47-4.79l-10.16-31.01h7.67l8.04,27.34,8.09-27.34h7.39s-10.09,31.01-10.09,31.01Z"/>
            <path class="st605" d="M54.16,177.29h7.19v35.45h-7.19s0-35.45,0-35.45Z"/>
            <path class="st605" d="M65.45,212.73l10.54-30.86c1.19-3.46,3.1-4.94,5.82-4.94s4.64,1.57,5.78,4.94l10.36,30.86h-7.62l-2.7-8.78h-12.11l-2.63,8.78h-7.42ZM85.93,198.42l-4.41-14.33-4.33,14.33h8.75-.02Z"/>
            <path class="st605" d="M124.96,212.03c-3.03.75-6.15,1.09-9.26,1.06-11.77,0-14.68-5.5-14.68-18.08s2.92-18.08,14.68-18.08c3.12-.03,6.23.33,9.26,1.08l-.65,5.55c-2.42-.4-4.86-.6-7.31-.61-8.52,0-8.67,5.1-8.67,12.06s.12,12.06,8.67,12.06c2.44,0,4.87-.2,7.29-.6l.66,5.57v-.02Z"/>
            <path class="st605" d="M137.24,212.73h-7.19v-34.83c3.81-.66,7.67-.99,11.53-.98,7.84,0,14.24,1.56,14.24,11.14,0,6.3-2.63,9.21-6.79,10.47l8.09,14.19h-8.29l-7.28-13.37c-1.44,0-3.08-.07-4.33-.15v13.52l.02.02ZM137.24,193.49c1.46.15,2.92.2,4.37.18,4.49,0,7.09-1.14,7.09-5.63,0-3.93-1.79-5.49-6.94-5.49-1.51,0-3,.12-4.49.3l-.03,10.64h0Z"/>
            <path class="st605" d="M183.92,183.05h-9.78c-4.24,0-4.97.89-4.97,4.79v4.01h14.09v5.72h-14.09v4.59c0,3.91.73,4.82,4.97,4.82h9.78v5.57c-2.49.13-7.26.28-9.63.28-6.4,0-12.3-.35-12.3-8.65v-18.33c0-8.3,5.9-8.63,12.3-8.63,2.57,0,7.19.13,9.63.25v5.58Z"/>
            <path class="st605" d="M190.5,177.92c3.81-.68,7.67-1.01,11.53-1.01,13.29,0,15.64,6.03,15.64,18.08s-2.35,18.08-15.64,18.08c-3.86,0-7.72-.31-11.53-.98v-34.19.02ZM197.69,183.05v23.91c1.11.17,2.24.27,3.36.27,9.35,0,9.41-5.29,9.41-12.21s-.08-12.2-9.41-12.2c-1.13,0-2.25.08-3.36.25v-.02Z"/>
            <path class="st605" d="M223.86,177.29h7.19v35.45h-7.19v-35.45Z"/>
            <path class="st605" d="M27.77,237.15c-1.06.23-2.15.35-3.25.35-4.42,0-5.52-2.15-5.52-7.04s1.09-7.08,5.52-7.08c1.09,0,2.19.12,3.25.35l-.18,1.49c-.83-.13-1.67-.22-2.52-.22-3.93,0-4.13,2.09-4.13,5.39s.23,5.39,4.13,5.39c.85,0,1.69-.08,2.52-.23l.17,1.59.02.02Z"/>
            <path class="st605" d="M29.82,230.46c0-5,1.19-7.04,5.34-7.04s5.32,2.04,5.32,7.04-1.18,7.04-5.32,7.04-5.34-2.05-5.34-7.04ZM38.54,230.46c0-3.21-.12-5.45-3.38-5.45s-3.38,2.25-3.38,5.45.12,5.45,3.38,5.45,3.38-2.25,3.38-5.45Z"/>
            <path class="st605" d="M43.19,230.46c0-5,1.18-7.04,5.34-7.04s5.32,2.04,5.32,7.04-1.18,7.04-5.32,7.04-5.34-2.05-5.34-7.04ZM51.91,230.46c0-3.21-.12-5.45-3.38-5.45s-3.38,2.25-3.38,5.45.12,5.45,3.38,5.45,3.38-2.25,3.38-5.45Z"/>
            <path class="st605" d="M58.8,237.37h-1.89v-13.61c1.41-.23,2.82-.35,4.24-.35,2.95,0,5.35.6,5.35,4.23s-2.15,4.31-5.19,4.31c-.71,0-1.86,0-2.5-.08v5.49l-.02.02ZM58.8,230.31c.78.08,1.56.12,2.35.12,2.2,0,3.45-.56,3.45-2.78,0-1.92-.89-2.7-3.38-2.7-.81,0-1.61.05-2.4.17v5.2h-.02Z"/>
            <path class="st605" d="M76.95,225.09h-3.53c-2.22,0-2.6.43-2.6,2.4v2.05h5.85v1.54h-5.85v2.32c0,1.99.38,2.4,2.6,2.4h3.53v1.49c-1.04.05-2.47.08-3.46.08-2.37,0-4.56-.13-4.56-3.15v-7.57c0-3.03,2.19-3.15,4.56-3.15.89,0,2.4,0,3.46.08v1.49Z"/>
            <path class="st605" d="M79.87,237.37v-13.61c1.41-.23,2.82-.33,4.24-.35,2.93,0,5.39.56,5.39,4.18,0,2.62-1.23,3.7-3.1,4.08l3.25,5.7h-2.25l-3.03-5.53h-.1c-.71,0-1.86-.05-2.5-.08v5.62h-1.91.02ZM81.76,230.18c.78.08,1.56.12,2.34.12,2.19,0,3.46-.55,3.46-2.7,0-1.91-.89-2.63-3.38-2.63-.81,0-1.61.07-2.4.17v5.07l-.02-.02Z"/>
            <path class="st605" d="M91.25,237.37l4.44-12.58c.07-.38.27-.71.55-.96.3-.25.66-.38,1.04-.38s.75.13,1.04.38c.3.25.48.58.55.96l4.37,12.58h-2.01l-1.29-3.83h-5.45l-1.28,3.83h-1.97ZM99.44,232.05l-2.24-6.66-2.22,6.66h4.46Z"/>
            <path class="st605" d="M113.42,225.1h-3.6v12.25h-1.92v-12.25h-3.6v-1.56h9.11v1.56Z"/>
            <path class="st605" d="M115.63,223.56h1.91v13.8h-1.91v-13.8Z"/>
            <path class="st605" d="M126.95,236.17c-.31.89-.78,1.33-1.49,1.33s-1.18-.38-1.49-1.33l-4.21-12.58h2.02l3.7,11.68,3.75-11.68h1.94l-4.21,12.58h0Z"/>
            <path class="st605" d="M132.28,237.37l4.44-12.58c.07-.38.27-.71.55-.96s.66-.38,1.04-.38.75.13,1.04.38c.3.25.48.58.55.96l4.37,12.58h-2.01l-1.29-3.83h-5.45l-1.28,3.83h-1.97ZM140.47,232.05l-2.24-6.66-2.22,6.66h4.46Z"/>
            <path class="st605" d="M150.86,237.37l4.44-12.58c.07-.38.27-.71.55-.96.3-.25.66-.38,1.04-.38s.75.13,1.04.38.48.58.55.96l4.37,12.58h-2.01l-1.29-3.83h-5.47l-1.28,3.83h-1.96ZM159.05,232.05l-2.27-6.66-2.22,6.66h4.49,0Z"/>
            <path class="st605" d="M165.11,223.56h1.91v13.8h-1.91v-13.8Z"/>
            <path class="st605" d="M178.15,237.32c-1.04,0-2.3.07-3.23.07-2.35,0-4.56-.13-4.56-3.15v-10.69h1.92v9.89c0,1.97.36,2.4,2.59,2.4h3.28v1.47Z"/>
            <path class="st605" d="M179.79,230.46c0-5,1.19-7.04,5.34-7.04s5.32,2.04,5.32,7.04-1.18,7.04-5.32,7.04-5.34-2.05-5.34-7.04ZM188.51,230.46c0-3.21-.12-5.45-3.38-5.45s-3.38,2.25-3.38,5.45.1,5.45,3.38,5.45,3.38-2.25,3.38-5.45Z"/>
            <path class="st605" d="M194.74,226.91c0,1.74.89,1.99,2.93,2.57,2.34.66,3.76,1.57,3.76,4.06,0,2.9-1.81,3.96-4.91,3.96-1.21,0-2.42-.12-3.6-.36l.18-1.56c1.13.17,2.25.27,3.38.28,1.81,0,3-.4,3-2.27,0-1.64-1.19-2.01-2.78-2.5-2.42-.73-3.84-1.41-3.84-3.93,0-2.83,1.67-3.76,4.71-3.76,1.21,0,2.4.12,3.6.35l-.18,1.51c-.93-.15-1.86-.23-2.8-.25-1.62,0-3.46.17-3.46,1.89l.02.02Z"/>
            </g>
            <g>
            <path class="st605" d="M157.98,87.03l-12.86-31.53c-1.28-2.93-2.21-5.07-4.14-5.07s-2.9,2.24-4.05,5.07l-7.84,18.18-7.72-18.18c-1.15-2.77-2.09-5.07-4.05-5.07s-2.86,2.09-4.14,5.07l-12.86,31.53c-.47.97-.68,2.02-.59,3.11.06,1.06.44,2.12,1.06,2.99.59.9,1.43,1.59,2.4,2.05.97.47,2.05.65,3.11.56h5.67v7.16c0,1.25.5,2.43,1.37,3.3s2.05,1.37,3.3,1.37h1.68c1.25,0,2.43-.5,3.3-1.37.87-.87,1.37-2.05,1.37-3.3v-7.25h12.48v7.25c0,1.25.5,2.43,1.37,3.3s2.05,1.37,3.3,1.37h1.68c1.25,0,2.43-.5,3.3-1.37s1.37-2.05,1.37-3.3v-7.16h5.67c1.06.09,2.15-.09,3.11-.56.97-.47,1.81-1.18,2.4-2.05.59-.9.97-1.93,1.03-2.99.06-1.06-.12-2.15-.62-3.11h-.12.03ZM123.7,92.29h-4.3v10.68c0,.31-.12.62-.34.84s-.53.34-.84.34h-1.68c-.31,0-.62-.12-.84-.34s-.34-.53-.34-.84v-10.68h-9.09c-.5.09-1,.03-1.49-.16-.47-.19-.87-.53-1.15-.93-.28-.4-.44-.9-.47-1.4,0-.5.12-1,.37-1.43l12.83-31.44c.19-.37.56-1.25.9-1.99.25.5.53,1.15.87,1.96l9.06,21.29-3.46,8.9c-.34.84-.53,1.71-.56,2.61,0,.9.16,1.81.5,2.61l.03-.03ZM131.27,91.14c-.25.34-.56.62-.93.84-.37.19-.78.31-1.21.31s-.84-.09-1.21-.31c-.37-.19-.68-.5-.93-.84-.22-.44-.34-.9-.34-1.4s.12-.97.34-1.4l2.12-5.45,2.21,5.48c.22.44.31.9.28,1.4,0,.5-.12.97-.37,1.37h.06ZM154.68,91.14c-.31.37-.72.68-1.18.87s-.97.28-1.46.22h-9.12v10.68c0,.31-.12.62-.34.84s-.53.34-.84.34h-1.68c-.31,0-.62-.12-.84-.34s-.34-.53-.34-.84v-10.62h-4.23c.34-.84.53-1.71.53-2.61s-.19-1.77-.53-2.61l-3.58-8.9,9.18-21.29c.34-.81.62-1.46.87-1.96.37.72.75,1.59.9,1.96l12.76,31.44c.25.44.34.93.34,1.43s-.12,1-.34,1.43v-.06l-.09.03Z"/>
            <path class="st602" d="M164.82,111.06c-4.58,4.92-10.09,8.84-16.25,11.52-6.16,2.68-12.79,4.05-19.52,4.05-1.49,0-2.96,0-4.42-.22-10.4,2.77-21.39,2.3-31.53-1.34,6.72,8.72,16,15.1,26.52,18.27,10.52,3.18,21.79,2.99,32.19-.56,10.43-3.55,19.46-10.24,25.9-19.15,6.41-8.93,9.9-19.64,9.93-30.63,0-2.33-.16-4.64-.47-6.94-4.54,10.55-12.42,19.33-22.38,25h.03Z"/>
            <path class="st600" d="M137.34,29.66c7.63,1.31,14.82,4.39,21.01,9.03,6.19,4.64,11.21,10.65,14.63,17.59,7.84,8.12,12.89,18.52,14.35,29.73,4.54-10.65,5.48-22.51,2.61-33.75-2.86-11.24-9.34-21.2-18.4-28.39-9.09-7.19-20.3-11.18-31.88-11.36s-22.91,3.42-32.22,10.3c1.25,0,2.49-.12,3.74-.12,9.18,0,18.18,2.4,26.15,6.97Z"/>
            <path class="st606" d="M177.96,77.82c0,12.36-4.67,24.22-13.11,33.25,10.02-5.7,17.93-14.48,22.48-25.06-1.46-11.18-6.51-21.6-14.35-29.73,3.3,6.69,4.98,14.07,4.98,21.51v.03Z"/>
            <path class="st607" d="M82.27,91.61c-1.96-6.66-2.46-13.63-1.53-20.51.97-6.88,3.36-13.45,7.04-19.33,3.08-11.61,9.99-21.82,19.64-28.98-12.05.87-23.47,5.85-32.28,14.1-8.84,8.25-14.57,19.3-16.22,31.29-1.65,11.99.84,24.16,7.1,34.52,6.26,10.37,15.88,18.24,27.24,22.35-7.1-9.18-10.93-20.48-10.93-32.06-.09-.5-.06-.93-.06-1.37Z"/>
            <path class="st604" d="M124.7,126.41c-9.74-.87-18.99-4.67-26.55-10.86-7.56-6.19-13.11-14.54-15.88-23.91v1.31c0,11.61,3.83,22.88,10.93,32.06,10.12,3.64,21.11,4.11,31.53,1.34v.06h-.03Z"/>
            <path class="st603" d="M87.78,51.79c5.17-8.16,12.61-14.63,21.42-18.55,8.81-3.92,18.62-5.17,28.11-3.58-7.97-4.61-17.03-7-26.24-7-1.28,0-2.49,0-3.74.12-9.62,7.16-16.53,17.37-19.58,28.98l.03.03Z"/>
            </g>
        </g>
    </symbol>
</svg>
