<svg xmlns="http://www.w3.org/2000/svg" style="display: none;">
    <!-- Banco do Brasil -->
    <symbol id="lg-bb" viewBox="0 0 250 250">
        <rect fill="#fde100" width="250" height="250" />
        <g>
            <path fill="#003882" d="M37.5,120.9l5.1,3.42,6.13-4.1-2.55-1.71,3.32-2.21,7.15,4.78-11.74,7.85,2.55,1.71,14.56-9.74-12.26-8.2-12.26,8.2ZM62.02,129.1l-5.11-3.42-6.13,4.1,2.55,1.7-3.32,2.22-7.15-4.78,11.74-7.85-2.55-1.71-14.55,9.74,12.26,8.2,12.26-8.2ZM62.02,116.12l-2.56,1.71-2.55-1.71,5.11-3.42v3.42ZM37.5,133.88l2.55-1.71,2.55,1.71-5.1,3.42v-3.42Z" />
            <path fill="#003882" d="M73.61,133.19c1.6,0,5.58-.18,5.58-4.33,0-2.25-.7-3.82-3.39-4.16,2.05-.4,3.08-1.77,3.08-3.66,0-3.49-2.37-4.24-5.26-4.24h-6.71v16.39h6.69ZM193.96,133.19c2.24,0,4.51-.3,4.51-3.77,0-4.01-5.79-3.61-5.79-6.16,0-.92.57-1.42,1.52-1.42h3.11v-2.07h-4.36c-3.58,0-4.46,1.63-4.46,3.72,0,3.99,6.42,3.9,6.42,6.15,0,.9-.49,1.52-1.48,1.52h-4.6l-3.41-11.38h-4.08l-3.77,12.21-2.37-5.25c1.74-.32,2.43-1.42,2.44-3.44,0-2.29-1.36-3.51-3.46-3.51h-6.38v13.41h3.48v-11.35h1.16c.98,0,1.83.72,1.83,2.04,0,1.12-.56,2.04-1.45,1.98h-.98s3.18,7.33,3.18,7.33h5.58l.84-2.97h3.61l.82,2.97h8.1ZM184.51,128.17h-2.58l1.23-5.49,1.35,5.49ZM145.66,133.58c5.21,0,5.21-3.47,5.21-7.03s0-7.04-5.21-7.04-5.21,3.44-5.21,7.04,0,7.03,5.21,7.03ZM145.66,131.54c-1.53,0-1.73-1.5-1.73-4.99s.2-5,1.73-5,1.72,1.51,1.72,5-.19,4.99-1.72,4.99ZM129.13,133.19h5.08c5.33,0,4.98-4.73,4.98-6.8,0-4.19-.77-6.65-4.85-6.65h-5.21v13.45ZM132.52,121.82h1.37c1.87,0,1.87,2.18,1.87,4.66,0,3.38-.33,4.67-1.96,4.67h-1.29v-9.32ZM159.55,126.04h.84c1.63,0,2.15.89,2.15,2.34,0,2.3-1.54,2.32-2.24,2.32h-1.79v-4.63l1.04-.03ZM158.51,123.54v-4.19h2c1.09,0,1.86.88,1.86,2.09,0,1.59-.99,2.08-1.69,2.08h-1.13l-1.04.02ZM161.07,133.2c1.6,0,5.58-.18,5.58-4.34,0-2.25-.7-3.81-3.38-4.16,2.05-.4,3.08-1.77,3.08-3.66,0-3.49-2.38-4.24-5.26-4.24h-6.72v16.4h6.69ZM212.5,133.19v-2.03h-3.97v-11.38h-3.4v13.41h7.37ZM203.14,119.77h-3.41v13.41h3.41v-13.41ZM120.22,133.58c5.21,0,5.21-3.48,5.21-7.06s0-7.07-5.21-7.07-5.2,3.44-5.2,7.07,0,7.06,5.2,7.06ZM120.22,131.54c-1.53,0-1.72-1.52-1.72-5.02s.19-5.02,1.72-5.02,1.73,1.51,1.73,5.02-.2,5.02-1.73,5.02ZM86.56,128.16h-2.59l1.23-5.48,1.36,5.48ZM82.64,133.19l.84-2.97h3.61l.83,2.97h3.56l-4.02-13.41h-4.07l-4.11,13.41h3.36ZM109.34,133.58c2.95,0,4.68-1.17,4.68-4.83h-3.37c-.04,1.08-.06,2.79-1.31,2.79-1.43,0-1.64-.88-1.64-5.02s.33-5.02,1.57-5.02c.89,0,1.3.67,1.3,2.5h3.35c.12-2.94-1.51-4.55-4.73-4.55-4.8,0-4.93,3.06-4.93,7.07s-.12,7.06,5.08,7.06ZM95.16,133.19v-8.94l3.71,8.94h4.02v-13.41h-2.9v8.67l-3.62-8.67h-4.12v13.41h2.9ZM71.85,126.02h.53c2,0,2.63.89,2.63,2.34,0,2.29-1.89,2.31-2.73,2.31h-1.24v-4.63l.82-.02ZM71.04,123.51v-4.19h1.48c1.34,0,2.28.89,2.28,2.09,0,1.59-1.21,2.09-2.07,2.09h-1.69Z" />
        </g>
    </symbol>

    <!-- Logo BNDES -->
    <symbol id="lg-bndes" viewBox="0 0 250 250">
        <rect fill="#ffffff" width="250" height="250" />
        <g>
            <path fill="#008752" d="M47.89,119.68c-2.06,0-4.09.51-5.9,1.49-1.81.98-3.35,2.39-4.48,4.11v17.15h17.21c2.23-1.47,3.92-3.61,4.83-6.11.91-2.5.99-5.23.22-7.78-.77-2.55-2.33-4.79-4.47-6.38-2.14-1.59-4.74-2.46-7.41-2.46ZM37.5,107.02v14.31l14.2-14.16,21.15,21.09-14.2,14.15h14.34v-35.4h-35.48Z" />
            <path fill="#00539b" d="M106.19,118.35c-.19-2.73-1.35-4.78-3.45-6.11-1.72-1.08-4.08-1.65-6.85-1.65h-9.54l-4.45,31.85h9.29c5.91,0,10.06-1.24,12.34-3.69,1.5-1.61,2.16-3.72,1.98-6.29-.23-3.41-1.91-5.76-4.64-6.61,3.33-1.02,5.56-4.07,5.32-7.49ZM97.65,135.23c-1.36,1.46-3.96,1.66-6.56,1.66h-1.79l1.17-8.43h1.76c3.18,0,6.15.42,6.37,3.47.1,1.44-.21,2.52-.94,3.31h0ZM98.51,121.65c-1.2,1.29-3.49,1.56-5.2,1.56h-2.11l1.04-7.09h1.94c2.61,0,4.97.22,5.15,2.84.08,1.12-.2,2.02-.83,2.7h0ZM138.23,110.59h-6.54l-3.34,22.94-8.07-22.94h-8.41l-4.63,31.84h6.63l3.19-23.13,7.95,23.13h8.55l4.68-31.84ZM161.64,113.26c-2.52-1.77-5.82-2.66-9.82-2.66h-9.67l-4.5,31.84h10.91c6.41,0,11.28-1.74,14.46-5.15,4.02-4.3,4.26-10.03,4.05-13.06-.35-4.99-2.18-8.68-5.43-10.96ZM157.11,133.66c-2.01,2.15-5.1,3.25-9.18,3.25h-2.56l2.9-20.78h1.9c5.75,0,9.36,2.7,9.68,7.22.32,4.53-.6,8.02-2.74,10.31ZM178.42,116.12h12.25l.67-5.53h-19.05l-4.49,31.84h19.28l.82-5.53h-12.38l1.15-8.16h10.99l.72-5.53h-10.95l.99-7.09ZM212.24,111.46c-2.39-.93-5.19-1.41-8.33-1.41-3.96,0-7.23,1.17-9.21,3.31-1.56,1.67-2.26,3.84-2.07,6.45.33,4.74,3.79,6.59,6.84,8.23,2.46,1.32,4.58,2.46,4.75,4.84.08,1.2-.23,2.2-.97,2.98-.94,1.01-2.53,1.58-4.37,1.58-2.72,0-5.4-1.1-7.7-2.12l-.33-.15-1.38,5.94.27.09c3.3,1.17,6.37,1.76,9.15,1.76,4.57,0,8.1-1.2,10.21-3.46,1.69-1.81,2.44-4.26,2.22-7.28-.36-5.1-4.14-7.24-7.2-8.97-2.3-1.3-4.28-2.42-4.42-4.41-.03-.35,0-.69.12-1.02.11-.33.29-.63.53-.88.93-1,2.71-1.36,4.06-1.36,2.25.04,4.46.58,6.48,1.58l.34.17,1.25-5.77-.26-.1Z" />
        </g>
    </symbol>

    <!-- Logo Bradesco -->
    <symbol id="lg-bradesco" viewBox="0 0 250 250">

        <rect fill="#cc092f" width="250" height="250" />
        <g>
            <path fill="#ffffff" d="M87.72,173.09c-2.54,0-4.81.26-7,.79-.44,1.49-.35,3.59,0,5.07,2.71-.61,4.2-.7,5.95-.7,3.33,0,4.99,1.31,4.99,4.11v.26c-.96-.09-2.19-.18-3.06-.18-5.51,0-10.24,2.01-10.24,7.26,0,6.04,4.29,8.05,10.5,8.05,2.89,0,6.12-.52,9.01-1.4v-13.47c0-6.47-3.5-9.63-10.15-9.8ZM91.66,192.51s-2.01.26-2.8.26c-2.98,0-4.55-.88-4.55-2.98s1.57-2.89,4.55-2.89c.96,0,2.1.09,2.8.18v5.51-.09Z" />
            <path fill="#ffffff" d="M75.83,173.44c-3.06,0-4.81,1.23-6.48,3.33-.17-1.14-.35-2.01-.7-3.06-.61-.18-1.75-.26-2.62-.26s-2.01.09-2.62.26v23.63c.79.18,2.1.26,3.24.26s2.54-.09,3.24-.26v-11.55c0-4.55,2.36-7,5.6-7,.61,0,1.57,0,2.1.09.35-1.49.44-3.68.09-5.25-.35-.09-1.31-.18-1.84-.18Z" />
            <path fill="#ffffff" d="M48.79,173.17c-1.84,0-3.67.44-4.81.96v-11.55c-1.84.7-3.76,1.58-5.34,2.89-.88.7-1.14,1.31-1.14,2.36v28.52c1.75.7,5.25,1.31,8.58,1.31,8.49,0,13.3-5.16,13.3-12.6s-3.41-11.99-10.5-11.99l-.09.09ZM46.43,192.6c-.7,0-1.75,0-2.45-.26v-12.95c.88-.44,2.1-.7,3.76-.7,3.24,0,4.99,2.28,4.99,6.47,0,4.46-2.01,7.53-6.21,7.53l-.09-.09Z" />
            <path fill="#ffffff" d="M116.69,167.92v5.69c-1.14-.35-2.36-.35-3.41-.35-7.18,0-11.99,4.81-11.99,12.42s4.72,12.16,12.16,12.16c3.41,0,6.74-.44,9.71-1.49v-33.69c-1.84.7-3.76,1.58-5.34,2.89-.88.7-1.14,1.31-1.14,2.36ZM116.69,192.16c-1.14.35-1.84.35-2.8.35-4.29,0-5.95-2.8-5.95-6.91,0-4.55,1.66-7.26,5.86-7.26,1.23,0,2.01.18,2.8.35v13.48h.09Z" />
            <path fill="#ffffff" d="M162.89,183.24l-2.63-1.14c-1.49-.61-2.36-1.14-2.36-2.1,0-1.49,1.31-1.84,3.15-1.84s3.59.18,6.12.96c.35-1.75.35-3.33,0-4.81-1.58-.88-4.46-1.23-7-1.23-4.99,0-8.84,2.71-8.84,6.74,0,3.68,1.58,5.51,5.95,7.26l2.01.88c1.93.79,2.54,1.22,2.54,2.54,0,1.84-1.84,2.19-3.41,2.19-2.63,0-4.55-.52-7.09-1.4-.44,1.49-.44,3.5,0,5.07,2.1,1.14,5.07,1.49,8.14,1.49,4.99,0,8.92-2.62,8.92-7.26,0-3.85-1.66-5.69-5.34-7.26l-.17-.09Z" />
            <path fill="#ffffff" d="M183.01,192.51c-3.24,0-5.34-2.54-5.34-7s1.75-7,5.43-7c1.58,0,2.62.26,4.11.88.44-1.49,1.22-3.15,2.28-4.55-2.01-1.05-4.02-1.58-7.26-1.58-7.17,0-11.29,5.07-11.29,12.34s4.2,12.34,11.55,12.34c2.62,0,5.07-.44,7.09-1.58-.88-1.14-1.84-2.71-2.45-4.55-1.84.7-2.62.79-4.11.79v-.09Z" />
            <path fill="#ffffff" d="M201.13,173.09c-7.26,0-11.29,4.99-11.29,12.43s4.29,12.34,11.29,12.34,11.37-4.81,11.37-12.34-4.02-12.43-11.37-12.43ZM201.13,192.6c-3.59,0-4.73-2.89-4.73-7.09s1.14-7.17,4.73-7.17,4.73,3.06,4.73,7.17c0,4.37-1.22,7.09-4.73,7.09Z" />
            <path fill="#ffffff" d="M138.04,173.09c-7,0-11.29,4.73-11.29,12.51s4.55,12.16,12.34,12.16c2.63,0,5.51-.44,7.35-1.31.35-1.49.35-3.5,0-4.99-2.36.7-4.46,1.14-6.65,1.14-3.59,0-6.12-1.31-6.65-5.16h14.7c.18-.61.26-2.54.26-3.32,0-7-3.94-11.03-10.06-11.03ZM133.14,182.62c.44-2.89,2.19-4.55,4.81-4.55,2.89,0,4.03,2.01,4.2,4.55h-9.01Z" />
            <path fill="#ffffff" d="M122.29,72.55c-5.86,0-12.34.52-18.64,1.66,6.39-8.23,16.62-13.56,28-13.56,8.4,0,16.8,3.15,22.4,7.87,1.05.87,1.84.96,2.63.17s.7-1.58-.18-2.54c-7.35-8.58-18.2-14.35-30.97-14.09-16.71.35-30.89,10.85-36.31,25.55-4.9,1.57-9.45,3.41-13.47,5.6-1.14.61-1.49,1.4-1.14,2.28.35.87,1.14,1.14,2.27.87,3.41-.96,7-1.84,10.68-2.63-.35,1.92-.61,3.94-.61,6.04-.35,13.47,6.91,26.25,18.02,33.34,1.14.7,2.01.7,2.63-.18.61-.88.53-1.66-.35-2.45-7.09-6.3-10.94-15.75-10.94-25.02,0-4.72.96-9.27,2.71-13.3,3.68-.35,7.7-.52,12.07-.52,28.53,0,52.59,9.36,52.59,21.7,0,6.21-7.87,12.51-17.33,16.63-2.28.96-2.54,1.66-2.19,2.71.35.96,1.31,1.23,2.54.88,16.45-5.42,28.88-14.26,28.88-24.94,0-14.61-23.54-25.81-53.29-25.81v-.26Z" />
            <path fill="#ffffff" d="M135.85,146.66v-31.24c0-1.23-1.14-1.66-2.1-1.05l-7.96,4.55v29.23h8.49c.88,0,1.49-.7,1.49-1.49h.09Z" />
            <path fill="#ffffff" d="M116.16,125.57v21.61c0,.53.44.96.96.96h6.04v-27.74l-6.04,3.41c-.61.35-.96.88-.96,1.66v.09Z" />
        </g>
    </symbol>

    <!-- Logo BRB -->
    <symbol id="lg-brb" viewBox="0 0 250 250">
        <defs>
            <style>
                .st70 {
                fill: #00adef;
                }

                .st70,
                .st71 {
                fill-rule: evenodd;
                }

                .st71,
                .st72 {
                fill: #173e7d;
                }

                .st73 {
                fill: #fff;
                }

                .st74 {
                fill: none;
                }

                .st75 {
                clip-path: url(#clippath);
                }
            </style>
            <clipPath id="clippath">
                <rect class="st74" x="37.5" y="87.14" width="175" height="75.72" />
            </clipPath>
        </defs>
        <rect class="st73" x="0" width="250" height="250" />
        <g class="st75">
            <g>
                <path class="st71"
                    d="M129.48,135.77c4.9-2.6,8-7.49,8-13.05,0-3.24-1.05-6-3.03-7.98-2.29-2.36-5.06-3.25-10.23-3.25h-16.93s-.17,1.05-.17,1.05l-6.6,41.77c-.49,3.05-.08,8.43,6.66,8.46h0s11.64,0,11.64,0c9.9,0,16.82-6.87,16.82-16.7,0-4.78-2.32-8.52-6.15-10.31ZM123.44,153.56c-1.84,1.26-3.04,1.63-7.52,1.63h-6.92l2.28-14.74h7.31c7.07,0,8.02,3.11,8.02,6.15s-1.15,5.58-3.16,6.96ZM119.03,132.42h-6.47l2.12-13.33h7.32c4.22,0,4.94.39,5.59,1.27.56.78.79,1.65.79,2.96,0,5.45-3.76,9.11-9.35,9.11ZM162.45,140.74c7.35-1.41,13.06-8.47,13.06-16.61s-5.1-12.63-14.37-12.63h-16.05l-.17,1.05-6.78,43.4c-.3,2.22-1.99,6.84,6.1,6.83h.78s.56,0,.56,0l.17-1.05,3.1-19.87h4.67l9.89,20.22.34.7h9.77l-.91-1.8-10.19-20.24ZM150.07,134.27l2.42-15.18h6.87c6.34,0,7.5,1.7,7.5,5.04,0,6.07-4.15,10.14-10.32,10.14h-6.47ZM204.5,135.77c4.9-2.6,8-7.49,8-13.05,0-3.24-1.05-6-3.03-7.98-2.29-2.36-5.06-3.25-10.23-3.25h-16.94s-.16,1.05-.16,1.05l-6.59,41.68c-.43,3.03-.16,8.52,6.65,8.55h0s11.63,0,11.63,0c9.91,0,16.82-6.87,16.82-16.7,0-4.78-2.32-8.52-6.15-10.31ZM198.46,153.56c-1.83,1.26-3.04,1.63-7.52,1.63h-6.92l2.28-14.74h7.31c7.07,0,8.02,3.11,8.02,6.15s-1.16,5.58-3.17,6.96ZM194.05,132.42h-6.47l2.12-13.33h7.31c4.22,0,4.94.39,5.6,1.27.56.78.79,1.65.79,2.96,0,5.45-3.76,9.11-9.36,9.11Z" />
                <path class="st70"
                    d="M44.7,111.49l-.74,4.74c10.55,2.14,19.96,7.44,27.18,14.88l10.86-7.1s1.25-.84,1.83-.14c0,0,.57.55-.52,1.72l-8.91,9.22c6.28,7.81,10.35,17.45,11.28,27.98h5.08l8.05-51.3h-54.1Z" />
                <path class="st71"
                    d="M55.1,148.03l-.5-.6,11.61-13c-6.25-6.16-14.23-10.57-23.15-12.43l-4.73,30.15c-.83,5.65.21,10.64,9.66,10.64h31.82c-.88-8.9-4.29-17.06-9.51-23.77l-15.2,9.01Z" />
                <path class="st72"
                    d="M44.56,103.28l3.21-16.06h2.71l-1.43,7.19-.85,3.01-.43,2.73-.63,3.14h-2.58ZM51.57,103.43c-.96,0-1.78-.17-2.47-.5-.69-.35-1.23-.85-1.61-1.52-.38-.66-.56-1.49-.56-2.47,0-1.08.13-2.07.39-2.96.27-.91.67-1.69,1.19-2.34.54-.66,1.17-1.17,1.91-1.52.75-.36,1.61-.54,2.56-.54s1.82.2,2.58.61c.77.39,1.37.97,1.82,1.73.46.75.69,1.66.69,2.73,0,.98-.17,1.88-.5,2.71-.32.82-.77,1.54-1.37,2.14-.59.61-1.3,1.09-2.08,1.43-.78.33-1.63.5-2.56.5ZM51.36,101.11c.78,0,1.47-.18,2.06-.54.59-.38,1.06-.89,1.41-1.54.35-.65.52-1.4.52-2.25,0-.89-.27-1.6-.8-2.12-.54-.52-1.29-.78-2.26-.78-.77,0-1.45.19-2.06.56-.59.36-1.06.87-1.41,1.51-.35.65-.52,1.4-.52,2.25,0,.89.27,1.6.8,2.12.54.52,1.29.78,2.26.78ZM64.65,103.43c-.94,0-1.8-.2-2.58-.61-.77-.4-1.38-.98-1.84-1.73-.45-.76-.67-1.68-.67-2.75,0-.98.16-1.88.48-2.71.33-.82.8-1.54,1.39-2.14.59-.6,1.29-1.08,2.06-1.41.8-.33,1.66-.5,2.6-.5s1.8.17,2.5.52c.71.35,1.24.87,1.61,1.58.36.69.53,1.56.5,2.6-.03,1.43-.29,2.68-.78,3.77-.49,1.07-1.18,1.9-2.06,2.49-.88.59-1.95.89-3.19.89ZM65.35,101.11c.78,0,1.47-.18,2.06-.54.59-.38,1.06-.89,1.41-1.54.35-.65.52-1.4.52-2.25,0-.89-.27-1.6-.8-2.12-.54-.52-1.29-.78-2.26-.78-.77,0-1.45.19-2.06.56-.59.36-1.06.87-1.41,1.51-.35.65-.52,1.4-.52,2.25,0,.89.27,1.6.8,2.12.54.52,1.29.78,2.26.78ZM68.19,103.28l.52-2.64.74-3.07.37-3.09.54-2.75h2.71l-2.3,11.56h-2.58ZM82.94,91.59c1,0,1.85.2,2.54.61.69.4,1.18,1,1.45,1.8.29.78.32,1.74.09,2.88l-1.28,6.41h-2.71l1.26-6.34c.19-.94.1-1.67-.26-2.19-.36-.53-1.02-.8-1.98-.8s-1.82.27-2.47.82c-.65.55-1.09,1.38-1.32,2.51l-1.22,5.99h-2.71l2.3-11.56h2.58l-.65,3.29-.43-1.04c.55-.82,1.24-1.42,2.06-1.8.84-.39,1.76-.58,2.76-.58ZM95,103.43c-1.14,0-2.15-.21-3.02-.63-.85-.43-1.51-1.02-1.98-1.77-.46-.76-.69-1.66-.69-2.68,0-1.3.3-2.45.89-3.46.59-1.02,1.41-1.83,2.45-2.4,1.04-.59,2.24-.89,3.6-.89,1.17,0,2.18.23,3.02.69.85.45,1.51,1.12,1.98,2.01l-2.32,1.19c-.26-.55-.64-.95-1.13-1.21-.48-.26-1.06-.39-1.76-.39-.75,0-1.43.19-2.04.56-.61.36-1.09.87-1.43,1.51-.35.65-.52,1.4-.52,2.25,0,.89.27,1.6.8,2.12.54.52,1.3.78,2.28.78.64,0,1.23-.13,1.78-.39.55-.26,1.01-.66,1.39-1.21l2,1.34c-.54.81-1.27,1.44-2.21,1.9-.94.45-1.97.67-3.08.67ZM107.38,103.43c-1.13,0-2.12-.21-2.97-.63-.84-.43-1.49-1.02-1.95-1.77-.46-.76-.69-1.66-.69-2.68,0-1.3.3-2.45.89-3.46.59-1.02,1.4-1.83,2.43-2.4,1.04-.59,2.23-.89,3.56-.89,1.14,0,2.13.21,2.97.63.85.4,1.51.99,1.97,1.75.46.75.69,1.64.69,2.68,0,1.28-.3,2.44-.89,3.46-.59,1.02-1.41,1.83-2.45,2.42-1.03.59-2.21.89-3.56.89ZM107.55,101.11c.78,0,1.47-.18,2.06-.54.59-.38,1.06-.89,1.41-1.54.35-.65.52-1.4.52-2.25,0-.89-.27-1.6-.8-2.12-.54-.52-1.29-.78-2.26-.78-.77,0-1.45.19-2.06.56-.59.36-1.06.87-1.41,1.51-.35.65-.52,1.4-.52,2.25,0,.91.27,1.62.8,2.14.54.51,1.29.76,2.26.76Z" />
            </g>
        </g>
    </symbol>

    <!-- Logo BV -->
    <symbol id="lg-bv" viewBox="0 0 250 250">
        <defs>
            <style>
                .st60,
                .st61 {
                fill: #31c7ed;
                }

                .st62 {
                fill: #fff;
                }

                .st62,
                .st61 {
                fill-rule: evenodd;
                }

                .st63 {
                fill: url(#Gradiente_sem_nome_5);
                isolation: isolate;
                opacity: .8;
                }

                .st64 {
                fill: #17278c;
                }
            </style>
            <linearGradient id="Gradiente_sem_nome_5" data-name="Gradiente sem nome 5" x1="84.42"
                y1="104.06" x2="96.31"
                y2="124.63" gradientTransform="translate(0 252) scale(1 -1)"
                gradientUnits="userSpaceOnUse">
                <stop offset="0" stop-color="#fff" />
                <stop offset="1" stop-color="#d7d7d7" />
            </linearGradient>
        </defs>
        <rect class="st64" width="250" height="250" />
        <g>
            <path class="st61"
                d="M212.5,91.84s-9.12-.03-18.77,0c-9.64.03-12.08,7.41-12.08,7.41l-24.11,62.35,9.39,24.26c9.63-.04,12.07-7.41,12.07-7.41l33.5-86.62Z" />
            <path class="st62"
                d="M141.41,119.91l-.02-.06s0-.01,0-.02l-.02-.04c-2.11-5.3-6.49-9.68-11.53-13.07,5.06-4.43,8.21-11.04,8.21-18.42,0-10.65-9.15-24.2-35.42-24.2h-46.09v35.55h-19.03v20.45h19.02v36.74h48.45c4.18.03,8.34-.45,12.4-1.42h.05c2.95-.73,5.81-1.8,8.5-3.21l10.15,26.25s2.44,7.38,12.08,7.41c9.64.03,18.76,0,18.76,0l-25.51-65.97ZM83.87,84.55h17.03c7.5,0,9.85,3.91,9.85,7.56s-2.33,7.53-9.79,7.55h-17.09v-15.11ZM83.87,120.1h18.06c7.95,0,10.44,4.14,10.44,8.01s-2.47,7.98-10.37,8.01h-18.12v-16.02Z" />
            <path class="st63"
                d="M116.08,126.76s-2.03-6.69-13.07-6.69h-.78v.03c7.71.1,10.14,4.19,10.14,8.01s-2.47,7.98-10.37,8.01h-18.12v-16.03l-27.34.02v36.74h48.44c4.18.03,8.34-.45,12.4-1.42h.05c2.95-.73,5.81-1.8,8.5-3.21l-9.84-25.46Z" />
            <path class="st60" d="M56.52,120.11h-19.02l19.02,8.77v-8.77Z" />
        </g>
    </symbol>

    <!-- Logo Itaú -->
    <symbol id="lg-itau" viewBox="0 0 250 250">
        <defs>
            <style>
                .st50 {
                fill: #fff;
                }

                .st51 {
                fill: #ff6200;
                }
            </style>
        </defs>
        <rect class="st51" x="0" width="250" height="250" />
        <g>
            <path class="st50"
                d="M113.58,37.61c-5.04.12-8.73.3-15.51.71-3.13.19-6.55.46-8.96.7-.6.07-1.87.19-2.8.28-3.93.39-9.76,1.12-12.21,1.54-.52.09-1.28.21-1.7.28-.42.06-1.17.19-1.65.28-.48.09-1.3.24-1.81.33-1.82.31-4.91.94-6.65,1.35-.48.12-1.35.33-1.93.46-.57.13-1.09.25-1.15.26-3.22.77-6.42,2.32-8.89,4.33-2.4,1.95-4.54,5.09-5.62,8.22-.18.48-.35.98-.41,1.1-.19.42-1,3.94-1.58,6.82-.09.48-.24,1.2-.33,1.59-.09.4-.21,1.09-.29,1.54-.07.45-.15,1-.21,1.21-.17.63-.84,4.92-1.27,8.03-.42,3.01-.69,5.2-.93,7.42-.12,1.09-.24,2.16-.26,2.37-.03.21-.13,1.28-.23,2.37-.09,1.09-.22,2.42-.29,2.97-.23,2.02-.8,10.83-1.09,17.05-.22,4.61-.36,14.48-.29,19.85.08,6.71.24,12.7.4,14.79.06.85.17,2.63.23,3.96.07,1.33.15,3.04.21,3.79.25,3.81.45,6.3.55,7.09.06.48.19,1.77.28,2.85.09,1.08.22,2.37.28,2.86.07.5.19,1.56.27,2.38.28,2.61.48,4.31.66,5.45.09.6.24,1.64.33,2.31.32,2.42.69,4.77,1.1,6.93.09.48.23,1.3.33,1.81.19,1.1.62,3.29.92,4.67,1.06,4.85,1.52,6.3,2.76,8.69.34.66.78,1.43.98,1.7.19.28.46.67.6.88.63.93,2.42,2.76,3.41,3.47.16.12.48.35.69.52.22.18.43.31.48.31.04,0,.15.08.24.17.43.42,3.45,1.86,4.75,2.24.24.08.54.18.66.23.29.13,1.9.54,3.85.98.85.2,1.72.41,1.92.46.51.13,3.7.77,6.1,1.21,1.39.25,4.08.68,5.77.92.64.09,1.45.21,1.81.27,1.33.23,6.83.87,10.28,1.2,1.24.12,2.77.26,3.41.33,1.03.11,2.09.2,7.15.56.76.06,2.49.15,3.85.22,1.36.07,3.27.16,4.23.22,7.83.45,30.22.45,37.94,0,.97-.07,2.87-.15,4.23-.22,2.34-.11,3.2-.17,6.87-.44,4.71-.36,11.63-1.03,13.97-1.36.67-.1,1.83-.25,2.58-.35,2.8-.36,6.65-.95,8.85-1.35,2.41-.44,5.6-1.08,6.1-1.21.21-.06,1.08-.26,1.92-.46,1.9-.43,3.55-.85,3.85-.98.37-.13.73-.26,1.1-.39.9-.3,3.89-1.72,4.15-1.96.08-.08.3-.24.48-.35.86-.54,1.25-.85,2.04-1.55.88-.8,2.1-2.12,2.4-2.57.1-.15.36-.53.58-.82.23-.31.42-.58.42-.63s.18-.35.39-.68c.21-.33.46-.81.56-1.08.11-.25.22-.53.26-.58.21-.28.98-2.46,1.31-3.71.52-1.92,1.48-6.47,1.84-8.61.09-.55.19-1.07.22-1.15.1-.24.7-4.02,1.25-7.86.12-.85.24-1.69.28-1.87.09-.51.48-3.88.66-5.66.09-.88.21-1.89.27-2.26.07-.36.19-1.55.28-2.64.09-1.09.21-2.43.26-2.97.07-.55.17-1.8.23-2.8.07-1,.17-2.23.22-2.75.07-.52.19-2.42.28-4.23.1-1.82.21-4.05.28-4.95.49-8,.49-28.98,0-37.23-.06-.94-.15-2.77-.22-4.07-.07-1.3-.17-3.01-.22-3.8-.07-.79-.21-2.74-.33-4.34-.12-1.61-.24-3.11-.28-3.35-.03-.24-.13-1.31-.22-2.37-.09-1.06-.19-2.05-.22-2.2-.03-.15-.15-1.17-.28-2.26-.28-2.63-.64-5.53-.71-5.87-.03-.15-.15-1.03-.28-1.94-.54-4.11-1.54-9.84-2.4-13.75-.12-.55-.32-1.44-.44-1.98-.31-1.41-.67-2.83-.79-3.08-.06-.12-.15-.42-.23-.66-.24-.81-1.46-3.53-1.77-3.96-.04-.07-.4-.58-.77-1.15-.78-1.18-2.78-3.27-3.98-4.15-2.37-1.75-5.02-2.94-8.42-3.77-.59-.14-1.17-.29-1.76-.44-.41-.12-1.22-.3-2.97-.66-.5-.1-.99-.21-1.48-.32-2.12-.52-9.03-1.64-13.53-2.21-.9-.11-1.79-.23-1.98-.27-.33-.07-1.93-.23-5.17-.55-.9-.09-2.15-.22-2.75-.28-.6-.07-1.69-.16-2.42-.23-.73-.05-1.91-.15-2.64-.21-2.46-.21-9.3-.6-13.09-.77-7.31-.32-20.82-.42-29.2-.21ZM65.13,111.93c.07.05.39.15.7.23.59.14,1.43.53,2.06.95.5.33,1.66,1.58,1.89,2.02.11.22.23.42.26.45.03.03.13.25.22.49.08.24.18.5.23.55.14.21.31,1.52.31,2.49s-.14,2.06-.33,2.46c-.59,1.36-.88,1.81-1.63,2.61-.69.71-.98.93-1.92,1.4-.77.39-1.32.58-1.76.63-.35.04-.66.12-.69.17-.08.13-2.46.13-2.46,0,0-.04-.28-.12-.63-.17-.34-.04-.77-.14-.96-.22-.24-.11-.48-.21-.73-.3-.21-.08-.41-.17-.44-.2-.03-.04-.2-.14-.39-.23-.64-.32-1.96-1.78-2.34-2.58-.21-.43-.41-.85-.46-.93-.37-.75-.44-4.16-.09-4.95.1-.21.24-.56.32-.77.08-.21.17-.41.2-.44.03-.03.16-.25.29-.5.21-.41,1.52-1.82,1.7-1.82.04,0,.14-.08.22-.18.21-.23,1.27-.75,1.92-.91.31-.08.65-.19.77-.24.12-.05.42-.11.66-.14.65-.07,2.93.03,3.07.13ZM184.96,119.6v5.55h-21.34v-7.43l1.19-.19c2.63-.41,4.27-.68,4.37-.75.07-.04.6-.13,1.21-.21.6-.08,1.16-.18,1.21-.22.07-.04.58-.14,1.16-.22.57-.07,1.32-.2,1.65-.29.33-.08,1.02-.2,1.54-.26.52-.07,1.03-.17,1.16-.21.12-.05.67-.15,1.21-.23.55-.07,1.17-.16,1.37-.23.21-.05,1-.21,1.76-.33.76-.12,1.75-.28,2.2-.36.45-.09.93-.15,1.08-.17h.24s0,5.54,0,5.54ZM93.9,124.51v6.59h11v9.79h-11.01l.04,10.2c.03,10.99.01,10.45.61,11.8.45,1.05,1.73,2.11,2.83,2.38.19.04.4.13.48.2.21.16,4.66.16,4.86-.01.09-.07.48-.15.9-.2l.74-.08v9.65l-.3.13c-.27.12-1.54.32-3.28.53-2.47.29-6.98.32-7.25.04-.07-.05-.24-.1-.41-.1-.43,0-2.21-.33-2.34-.43-.07-.04-.36-.15-.67-.22-.3-.08-.59-.18-.66-.22-.05-.06-.31-.15-.55-.23-.24-.08-.46-.18-.5-.21-.03-.03-.23-.15-.44-.28-.91-.48-1.19-.66-1.67-1.07-.29-.23-.55-.43-.6-.43-.11-.01-.95-.92-1.6-1.76-.51-.65-1.25-1.89-1.51-2.53-.09-.21-.19-.41-.22-.44-.04-.03-.15-.37-.26-.77-.1-.4-.23-.81-.29-.93-.05-.12-.19-.62-.27-1.1-.09-.46-.19-.92-.3-1.38-.08-.33-.13-4.2-.16-11.53l-.04-11.02h-6.37v-9.79h6.38v-11.09l.75-.08c.41-.04.79-.12.85-.16.07-.04.61-.14,1.21-.22.6-.08,1.16-.19,1.21-.23.07-.04.76-.17,1.54-.26.79-.11,1.48-.23,1.54-.28.07-.04.43-.12.82-.15.52-.06,1.03-.15,1.54-.25,1.18-.24,3.23-.56,3.33-.51.04.02.08,3.01.08,6.64ZM130.36,130.05c1.54.09,3.28.29,3.41.39.07.04.33.12.6.15.63.1,2.16.55,3.08.92.77.31,2.49,1.17,2.75,1.39.09.07.29.2.44.26.15.08.64.46,1.07.84.43.39.83.71.88.74.17.08,2.12,2.45,2.12,2.58,0,.03.1.21.22.37.23.33,1.21,2.23,1.21,2.35,0,.04.09.29.21.54.11.25.24.64.29.85.04.21.12.43.16.5.04.06.14.41.22.77.07.36.15.74.19.82.04.09.14.56.23,1.05.13.73.16,3.46.21,15.59l.04,14.72h-12v-1.3c-.02-.7-.06-1.73-.1-2.27l-.07-.99-.32.44c-.51.67-2.17,2.25-2.83,2.69-1.44.95-1.83,1.18-2.22,1.31-.24.07-.56.2-.71.28-.17.08-.57.21-.9.28-.33.08-.66.18-.71.22-.56.42-7.49.41-8.03,0-.05-.04-.45-.14-.88-.22-.42-.08-.91-.2-1.1-.29-.18-.08-.65-.28-1.03-.43-.44-.19-.88-.41-1.3-.64-.29-.18-.59-.35-.89-.52-.46-.25-.62-.4-1.87-1.65-1.29-1.29-1.45-1.46-1.45-1.58,0-.04-.14-.29-.31-.54-.18-.25-.43-.71-.56-1.01-.13-.31-.31-.67-.39-.82-.09-.15-.21-.55-.29-.88-.08-.33-.18-.66-.22-.71-.12-.15-.33-1.72-.33-2.4,0-.32-.05-.64-.12-.7-.13-.13-.1-.57.24-3.22.07-.52.17-.99.21-1.04.04-.07.14-.35.21-.65.14-.57.44-1.32.75-1.88.1-.19.23-.44.3-.57.07-.14.15-.25.21-.25.04,0,.08-.07.08-.14,0-.12,1.21-1.69,1.42-1.84.04-.03.12-.14.15-.25.04-.12.18-.23.3-.26.12-.03.22-.1.22-.14,0-.11,1.85-1.56,2.47-1.92.45-.27,1.46-.79,2.94-1.5.21-.11,2.26-.77,3.17-1.02.33-.1.98-.23,1.43-.3.45-.08.88-.17.94-.21.07-.04.72-.14,1.48-.21.76-.07,1.69-.18,2.09-.23,1.56-.23,7.05-.19,7.63.06.2.09.21.04.13-.89-.04-.54-.12-1-.16-1.03-.06-.03-.12-.24-.17-.46-.08-.41-.5-1.3-.89-1.9-.25-.38-1.32-1.49-1.44-1.49-.04,0-.23-.11-.42-.25-.48-.35-1.26-.7-1.74-.79-.23-.04-.42-.12-.42-.17,0-.48-7.1-.56-9.24-.09-.28.05-.91.18-1.43.26-.52.09-1.03.21-1.16.26-.12.05-.52.15-.88.22-.36.07-.76.17-.88.22-.12.06-.56.18-.98.28-.42.1-.81.21-.88.26-.07.04-.36.15-.67.23-.3.08-.6.19-.66.23-.07.04-.36.14-.66.22-.31.07-.74.22-.96.33-.23.12-.44.21-.47.21s-.06-2.3-.06-5.1c0-3.97.03-5.13.14-5.21.08-.07.39-.18.68-.25.31-.07.6-.17.66-.21.07-.04.43-.18.83-.28.4-.11.77-.23.82-.27.07-.06.41-.14.76-.22.36-.08.74-.18.82-.23.1-.04.55-.17,1-.26.35-.07.7-.15,1.05-.23.12-.03.74-.13,1.37-.22.64-.09,1.31-.21,1.48-.26.64-.2,6.4-.56,7.7-.48.36.02,1.16.07,1.76.1h0ZM69.7,152.99v21.89h-12.87v-43.78h12.87v21.89ZM166.93,144.73c0,13.02.06,15.54.32,15.9.05.05.12.27.17.48.15.82.87,2.02,1.68,2.84.43.44.91.83,1.07.87.17.03.29.1.29.14s.39.2.86.35c.7.22,1.08.26,2.18.26.77,0,1.44-.05,1.59-.12.14-.08.48-.19.76-.26s.77-.31,1.1-.53c.62-.39,1.76-1.45,1.76-1.63,0-.05.15-.3.33-.53.19-.24.33-.48.33-.55s.1-.3.21-.52c.12-.22.25-.59.3-.82.03-.24.11-.48.17-.54.28-.35.32-2.57.32-15.48v-13.51h12.87v43.78h-6.09c-4.76,0-6.13-.03-6.19-.14-.04-.07-.1-1.11-.12-2.31-.02-1.19-.08-2.17-.12-2.17s-.18.13-.31.3c-.62.84-1.58,1.78-3.1,3.04-.22.18-.67.42-1.66.9-.45.22-.95.47-1.1.55-.15.08-.57.2-.94.28-.36.08-.68.18-.71.22-.11.16-2.06.33-3.98.33s-3.43-.13-3.88-.32c-.12-.05-.54-.19-.94-.29-.4-.1-.76-.23-.82-.28-.05-.04-.32-.15-.57-.23-.26-.07-.47-.16-.47-.21s-.2-.14-.44-.22c-.24-.08-.44-.18-.44-.22s-.12-.13-.26-.2c-.95-.43-3.09-2.44-3.99-3.74-.55-.79-1.4-2.38-1.57-2.96-.07-.23-.2-.57-.28-.75-.08-.19-.21-.58-.28-.88-.07-.31-.16-.63-.22-.74-.05-.1-.15-.62-.22-1.16-.07-.53-.19-1.07-.25-1.19-.1-.16-.14-4.09-.17-15.82l-.03-15.59h12.88v13.64Z" />
            <path class="st50"
                d="M129.14,154.27c-.56.05-1.13.14-1.25.19-.13.06-.53.16-.91.23-.36.06-.85.19-1.08.28-1.71.69-2.54,1.14-3.11,1.69-.55.53-1.09,1.51-1.18,2.12-.02.21-.1.48-.17.6-.13.24-.08.99.13,1.97.23,1.06,1.14,2.36,1.95,2.75,1.44.68,1.71.79,2.51.91,1.43.2,4.17.08,4.76-.21.1-.05.52-.23.93-.4.41-.18.95-.46,1.2-.64.25-.18.53-.39.64-.46.65-.45,1.85-2.29,2.01-3.05.03-.19.13-.41.19-.5.08-.09.14-1.06.16-2.8l.05-2.66-.62-.06c-.83-.1-4.93-.06-6.19.04Z" />
        </g>
    </symbol>
    <!-- Logo Porto -->
    <symbol id="lg-porto" viewBox="0 0 250 250">
        <rect fill="#ffffff" width="250" height="250" />
        <g>
            <path fill="#2b56c0" d="M98.04,127.34c-6.09-7.46-26.17-3.56-41.82,1.44-.04.02-.09.02-.14.02-.05,0-.09-.02-.13-.05-.04-.03-.07-.06-.09-.1-.02-.04-.04-.09-.04-.13.02-.79.04-1.59.04-2.39.01-3.98-.32-7.95-1-11.86-.01-.07,0-.13.04-.19.04-.05.1-.09.16-.1,12.95-4.72,39.03-6.19,43.5,13.15h0c.07.29-.35.46-.53.22M84.93,149.04c-.43.32-.99-.2-.62-.58,6.3-6.45,11.48-16.67-34.19,4.13-.28.13-.56-.16-.37-.39,2.52-3.6,4.76-9.39,5.78-17.61,0-.05.03-.1.06-.14.03-.04.07-.07.12-.09,28.62-11.5,60.94-11.08,29.23,14.68M46.73,97.61c-.05-.03-.1-.07-.12-.13-.02-.06-.03-.12-.01-.18.02-.06.05-.11.11-.14.05-.03.11-.05.17-.04,7.92.02,31.77-.57,44.07,15.1.17.27-.22.54-.46.33-3.71-3.23-13.75-8.7-36.9-3.91-.07.02-.15.01-.22-.03-.07-.04-.12-.1-.14-.17-1.84-5.89-4.18-9.07-6.48-10.83M97.6,90.17h-52.01c-2.16.02-4.23.89-5.75,2.43-1.52,1.54-2.36,3.62-2.34,5.78v52.79c-.02,2.16.83,4.24,2.34,5.78,1.52,1.54,3.58,2.42,5.75,2.43h52.01c2.16-.02,4.23-.89,5.75-2.43,1.52-1.54,2.36-3.62,2.35-5.78v-52.79c.02-2.16-.83-4.24-2.35-5.78-1.52-1.54-3.58-2.42-5.75-2.43" />
            <path fill="#2b56c0" d="M115.91,90.3h11.9c6.18,0,9.87,3.81,9.87,9.19s-3.68,9.19-9.87,9.19h-6.27v11.26h-5.63v-29.64ZM127.56,103.98c3.3,0,4.66-2.12,4.66-4.49s-1.36-4.49-4.66-4.49h-6.01v8.98h6.01ZM148.94,98.26c6.48,0,11.14,4.66,11.14,11.01s-4.66,11.01-11.14,11.01-11.18-4.66-11.18-11.01,4.66-11.01,11.18-11.01ZM148.94,115.79c3.52,0,5.89-2.67,5.89-6.52s-2.37-6.52-5.89-6.52-5.93,2.67-5.93,6.52,2.37,6.52,5.93,6.52ZM162.45,106.22c0-4.87,2.75-7.62,7.62-7.62h4.78v4.36h-3.98c-2.08,0-3.22,1.19-3.22,3.26v13.72h-5.21v-13.72h0ZM177.48,92.16h5.21v6.44h5.93v4.36h-5.93v9.32c0,2.16,1.14,3.26,3.09,3.26h2.84v4.4h-3.43c-4.66,0-7.71-2.71-7.71-7.45v-20.33ZM201.36,98.26c6.48,0,11.14,4.66,11.14,11.01s-4.66,11.01-11.14,11.01-11.18-4.66-11.18-11.01,4.66-11.01,11.18-11.01h0ZM201.36,115.79c3.52,0,5.89-2.67,5.89-6.52s-2.37-6.52-5.89-6.52-5.93,2.67-5.93,6.52,2.37,6.52,5.93,6.52h0Z" />
            <path fill="#000000" d="M115.88,129.11h11.76c5.55,0,9.51,2.78,9.51,7.81-.01,1.24-.36,2.45-1.01,3.51-.65,1.05-1.57,1.91-2.68,2.48,1.57.54,2.93,1.57,3.86,2.93.94,1.37,1.41,3,1.35,4.66,0,5.64-4.21,8.98-10.59,8.98h-12.19v-30.38h0ZM127.25,141c3.04,0,4.56-1.3,4.56-3.65s-1.52-3.65-4.64-3.65h-5.64v7.29h5.73ZM127.47,154.5c3.86,0,5.68-1.48,5.68-4.3s-1.82-4.34-5.68-4.34h-5.95v8.63h5.95Z" />
            <path fill="#000000" d="M150.55,141.26c-2.82,0-4.51,1.78-4.6,3.73h-4.77c.26-4.34,3.95-7.72,9.64-7.72s9.46,3.21,9.46,8.16v14.06h-5.25v-3.26c-.91,2.17-3.43,3.6-6.55,3.6-4.34,0-7.29-2.78-7.29-6.55,0-4.25,3.3-6.9,8.2-6.9h5.64v-.91c0-2.69-1.65-4.21-4.47-4.21ZM149.73,155.89c3.34,0,5.29-2.34,5.29-5.64v-.26h-4.64c-2.52,0-4.04,1.17-4.04,3.08,0,1.69,1.39,2.82,3.39,2.82Z" />
            <path fill="#000000" d="M164.05,137.62h5.34v3.39c1.22-2.39,3.69-3.73,6.81-3.73,4.95,0,8.16,3.56,8.16,8.68v13.54h-5.34v-12.41c0-2.99-1.82-5.08-4.56-5.08-2.99,0-5.08,2.34-5.08,5.55v11.93h-5.34v-21.87h0Z" />
            <path fill="#000000" d="M188.78,159.49v-31.25h5.34v17.36l8.37-7.98h6.77l-8.9,8.59,9.64,13.28h-6.47l-6.81-9.76-2.6,2.52v7.25h-5.34Z" />
        </g>
    </symbol>
    <!-- Logo Sicoob -->
    <symbol id="lg-sicoob" viewBox="0 0 250 250">
        <rect fill="#003641" width="250" height="250" />
        <g>
            <path fill="#6ebb49" d="M39.72,105.59c-.35.03-.7.12-1.02.32-.76.44-1.2,1.25-1.2,2.07,0,.35.09.73.26,1.08l11.75,20.46,3.82-6.6,6.21-10.74-3.82-6.6h-16.01Z" />
            <path fill="#00ae9c" d="M55.76,105.59l10,17.31h7.58l8.02-13.89c.15-.32.23-.64.23-1.02,0-1.28-.99-2.31-2.25-2.39h-23.59Z" />
            <path fill="#b8d335" d="M72.81,122.9h-19.45l-3.82,6.6,8.05,13.89c.17.29.47.53.76.73.38.2.79.32,1.2.32.79,0,1.55-.41,2.01-1.08l11.81-20.46h-.55Z" />
            <path fill="#ffffff" d="M149.57,111.81h-.15c-7.87.09-12.74,6.07-12.74,13.57s4.43,13.25,12.48,13.25h.29c7.84-.09,12.74-5.4,12.74-13.69-.03-6.92-4.26-13.13-12.63-13.13ZM149.51,133.14l-.09-.03c-3.35,0-5.45-3.24-5.39-7.88,0-4.52,2.04-7.91,5.39-7.91s5.39,3.39,5.39,7.88-1.95,7.94-5.31,7.94ZM207.43,124.18v-.06c3.06-1.17,4.23-3.27,4.23-5.43,0-2.54-1.46-4.41-3.5-5.37-1.72-.85-3.59-1.17-6.36-1.26-.5-.03-1.02-.03-1.6-.03-3.18,0-6.62.26-8.19.58v25.45c1.4.26,3.7.47,6.85.47,1.05,0,2.01-.03,2.95-.09,3.79-.26,6.21-1.05,7.79-2.22,1.75-1.31,2.92-3.24,2.92-5.69,0-3.12-1.92-5.49-5.07-6.36ZM198.88,117.21c.47-.09,1.14-.15,2.27-.15.2,0,.44.03.61.03,1.93.15,2.89,1.08,2.89,2.42s-.93,2.31-2.89,2.6c-.47.06-.96.12-1.52.12h-1.37v-5.02ZM201.8,133.38c-.29.03-.58.06-.87.06-.88,0-1.52,0-2.01-.09v-6.19h1.66c.44,0,.85,0,1.23.06,1.98.26,3.38,1.14,3.38,2.98,0,2.01-1.49,2.98-3.38,3.18ZM189.9,124.97c0-6.95-4.23-13.16-12.6-13.16h-.15c-7.87.09-12.74,6.07-12.74,13.57s4.43,13.25,12.48,13.25h.26c7.84-.09,12.74-5.4,12.74-13.66ZM177.24,133.14l-.09-.03c-3.35,0-5.42-3.24-5.39-7.88,0-4.52,2.04-7.91,5.39-7.91s5.4,3.39,5.4,7.88-1.95,7.94-5.31,7.94ZM134.67,132.09c-1.08.44-2.97.73-4.64.73-4.78,0-7.58-2.95-7.58-7.62,0-5.28,3.44-7.65,7.44-7.65,2.07,0,4.23.61,4.81.93,1.22-2.8.93-6.63-5.13-6.63-7.76,0-14.46,4.67-14.46,13.78,0,6.92,4.29,12.96,14,12.96,3.09,0,5.54-.58,6.5-1.08l-.93-5.43ZM104.86,112.24v25.98h6.97v-21.72c-.03-3.3-1.78-4.26-6.97-4.26ZM94.72,122.49c-3.3-1.23-4.67-1.72-4.67-3.04,0-1.17,1.17-1.93,3.3-1.93,2.6,0,5.13.96,5.63,1.23.99-2.66,1.55-6.92-5.54-6.92-6.56,0-10.44,3.56-10.44,8.14,0,3.85,2.95,6.25,7.32,7.82,2.95.99,4.08,1.69,4.08,2.98s-1.17,2.1-3.56,2.1c-2.6,0-5.13-.79-6.74-1.63l-1.31,5.75c1.46.79,4.49,1.58,7.61,1.58,7.58,0,11.05-3.82,11.05-8.29,0-3.59-2.07-6.07-6.74-7.79Z" />
        </g>
    </symbol>
    <!-- Logo Socredi -->
    <symbol id="lg-sicredi" viewBox="0 0 250 250">
        <defs>
            <style>
                .st20 {
                fill: #33820d;
                }

                .st21 {
                fill: #fff;
                }
            </style>
        </defs>
        <rect class="st20" width="250" height="250" />
        <g>
            <path class="st21"
                d="M63.55,116.9c-.01,1.76-.47,2.65-1.04,2.72-.37.04-.8-.26-1.19-.9-1.28-2.09-2.68-4.09-4.16-6.04,0,0,0,0,0-.01.58-3.09,1.5-6.24,3.08-8.98,1.97,3.96,3.34,8.81,3.31,13.22ZM56.15,116.8c1.39,1.25,1.78,2.24,1.46,2.78-.2.36-.71.52-1.46.44-2.5-.29-4.99-.41-7.52-.43,0,0,0,0,0-.01-2.38-2.83-4.54-6.01-5.92-9.45,4.72,1.12,9.83,3.44,13.44,6.67M51.38,123.25c1.86-.39,2.88-.07,3.11.54.15.4-.04.94-.56,1.52-1.74,1.9-3.34,3.89-4.88,5.97h-.01c-3.76.28-7.67.12-11.33-.79,3.74-3.3,8.8-6.21,13.68-7.24M53.52,131.2c.82-1.73,1.69-2.38,2.28-2.2.39.12.68.59.79,1.36.34,2.41.82,4.77,1.41,7.13,0,0,0,0,0,.01-2.04,2.89-4.24,5.68-6.99,7.94-.33-4.68.53-10.02,2.51-14.24ZM60.57,134.04c-.72-1.58-.67-2.66-.18-3.03.32-.24.84-.2,1.44.16,1.83,1.08,3.71,2.08,5.68,2.88,0,0,0,0,0,.01.71,2.96,1.12,6.06.94,9.11-3.29-2.15-6.27-5.6-7.88-9.13ZM66.79,130.14c-1.5-.33-2.22-1-2.18-1.61.03-.4.38-.79,1-1.06,1.89-.84,3.76-1.76,5.51-2.86,0,0,0,0,0,0,2.33,1.18,4.56,2.69,6.36,4.59-3.27,1.27-7.32,1.68-10.7.93ZM68.02,122.78c-1.19,1.04-2.11,1.21-2.51.79-.26-.28-.32-.81-.12-1.5.63-2.19,1.12-4.4,1.53-6.65,0,0,0,0,.01,0,2.4-1.12,4.81-2.15,7.47-2.42-1.26,3.58-3.54,7.3-6.39,9.79" />
            <path class="st21"
                d="M60.24,103.68c-1.58,2.74-2.5,5.89-3.07,8.98,0,0,0,0,0,.01-.4-.51-.92-1.13-1.38-1.69-1.72-2.14-3.63-4.14-5.55-6.1,3.16-1.27,6.63-1.68,10.01-1.19ZM37.5,120.44c2.95-.36,5.91-.69,8.84-.79.76-.03,1.62-.06,2.3-.06,0,0,0,0,0-.01-2.38-2.83-4.54-6.01-5.92-9.45-2.63,2.9-4.42,6.49-5.21,10.31M43.31,140.54c1.39-2.52,2.85-5.01,4.44-7.37.42-.62.9-1.34,1.3-1.9h-.01c-3.76.28-7.66.12-11.33-.79.94,3.77,2.86,7.28,5.6,10.05ZM61,146.22c-.89-2.24-1.75-4.5-2.43-6.78-.19-.63-.41-1.37-.57-1.96,0,0,0,0,0,.01-2.04,2.89-4.24,5.68-6.99,7.94,3.32.97,6.55,1.43,9.99.78ZM74.78,136.42c-1.92-.48-3.83-1.03-5.66-1.75-.52-.21-1.13-.42-1.61-.63,0,0,0,0,0,.01.71,2.96,1.12,6.06.94,9.11,2.58-1.74,4.75-4.06,6.33-6.73M77.35,120.13c-1.54,1.26-3.12,2.48-4.79,3.55-.47.3-1,.66-1.44.93,0,0,0,0,0,0,2.33,1.18,4.56,2.69,6.36,4.59.43-3.15.39-5.94-.14-9.07ZM67.84,106.47c-.14,2.36-.31,4.72-.63,7.03-.09.62-.19,1.35-.28,1.93,0,0,0,0,.01,0,2.4-1.12,4.81-2.15,7.47-2.42-1.67-2.63-3.91-4.88-6.56-6.53" />
            <path class="st21"
                d="M202.08,110.27l-4.09,28.77h-5.2v-3.22c-2.58,2.46-5.25,3.7-7.96,3.7-1.9,0-3.31-.55-4.3-1.68-1.53-1.74-1.98-4.81-1.37-9.4,1.2-8.59,4.41-10.32,9.21-10.32,1.9,0,4.07.17,6.01.46l1.18-8.32h6.52ZM190.87,122.87c-3.62,0-4.39.46-5.11,5.73-.37,2.7-.47,4.39.06,5,.22.25.6.36,1.17.34,1.98-.04,3.55-1.08,5.58-2.87l1.15-8.2h-2.85,0ZM132.13,118.13c-3.69,0-6.21.76-7.95,2.4-1.71,1.62-2.72,4.1-3.28,8.03-.56,3.91-.08,6.66,1.45,8.43,1.48,1.7,3.99,2.53,7.68,2.53,1.81,0,4.47-.16,6.87-.95l.17-.05.68-4.81-.43.07c-1.67.24-3.77.36-6.24.36-1.71,0-2.56-.21-3.04-.75-.59-.66-.7-1.96-.38-4.47.57-4.66,2.02-5.41,5.27-5.41,1.32,0,6.24.08,6.24.08l.64-4.56s-2.76-.91-7.68-.91M176.37,120.4c.99,1.14,1.32,2.74,1.02,4.88-.63,4.33-3.68,5.41-8.39,5.74l-5.6.42c.15,2.35,1.38,2.79,3.69,2.79,1.99,0,6.79-.23,7.57-.43l.32-.08.04.32c.19,1.7.76,3.58.77,3.6l.07.24-.24.1c-2.55,1.07-6.56,1.55-9.21,1.55-3.76,0-6.35-.85-7.91-2.6-1.59-1.78-2.14-4.57-1.67-8.51.93-7.69,3.91-10.28,11.79-10.28,3.9,0,6.43.74,7.75,2.26M168.07,126.97c1.9-.15,2.78-.52,3-2.32.05-.63-.01-1.01-.21-1.23-.3-.32-1-.39-2.03-.39-.19,0-.4,0-.61,0-3.05,0-3.81,1.04-4.41,4.33l4.26-.4h0ZM157.55,118.7h-1.26c-2.39,0-4.73,1.18-7.74,3.92v-3.92h-5.16l-2.86,20.35h6.53l1.58-11.7c.82-1.05,3.11-2.28,4.81-2.28h1.39l.05-.22s.59-2.64,2.4-5.72l.25-.43h0ZM89,117.78c-.55,4.2.93,6.68,4.92,8.3l5.28,2.09c1.68.61,2.05.92,1.83,2.58-.33,2.13-1.16,2.7-4.85,2.7h-8.97l-.8,5.59h10.03c7.81,0,10.43-1.84,11.23-7.86.49-3.8-.17-6.53-4.97-8.38l-4.99-1.89c-1.93-.72-2.29-1.01-2.03-2.7.3-1.88.99-2.29,2.44-2.39h10.7l.8-5.59h-9.55c-6.5,0-10.19,1.2-11.06,7.54M109.67,139.05h6.49l2.86-20.35h-6.49l-2.86,20.35ZM119.41,115.82l.78-5.59h-6.49l-.78,5.59h6.49ZM201.97,139.05h6.49l2.86-20.35h-6.49l-2.86,20.35ZM211.72,115.82l.78-5.59h-6.49l-.78,5.59h6.49Z" />
        </g>
    </symbol>
    <!-- Logo Solfácil -->
    <symbol id="lg-solfacil" viewBox="0 0 250 250">
        <defs>
            <style>
                .st10 {
                fill: #0a0b0a;
                }

                .st11 {
                fill: url(#Gradiente_sem_nome_6);
                }

                .st12 {
                fill: #fafafa;
                }
            </style>
            <linearGradient id="Gradiente_sem_nome_6" data-name="Gradiente sem nome 6" x1="84.61"
                y1="106.07" x2="84.61"
                y2="141.13" gradientTransform="translate(0 252) scale(1 -1)"
                gradientUnits="userSpaceOnUse">
                <stop offset="0" stop-color="#00b569" />
                <stop offset="1" stop-color="#bfff00" />
            </linearGradient>
        </defs>
        <rect class="st10" width="250" height="250" />
        <g>
            <path class="st11"
                d="M100.56,121.18h-31.9c-.36.79-.66,1.62-.9,2.46h33.69c-.24-.85-.54-1.67-.89-2.46ZM84.61,145.87c4.31,0,8.25-1.56,11.3-4.15h-22.61c3.05,2.58,6.99,4.15,11.3,4.15ZM97.03,116.05h-24.83c-.63.63-1.21,1.31-1.73,2.04h28.3c-.53-.72-1.1-1.4-1.73-2.04ZM85.69,110.91c-.36-.02-.71-.04-1.08-.04s-.72.01-1.08.04c-2.25.14-4.39.7-6.33,1.61h14.81c-1.94-.91-4.08-1.47-6.33-1.61ZM101.99,126.32h-34.75c-.08.67-.12,1.36-.12,2.06,0,.28,0,.56.02.84h34.95c.01-.28.02-.56.02-.84,0-.7-.05-1.38-.12-2.06ZM71.85,140.34h25.52c1.05-1.12,1.96-2.38,2.69-3.75h-30.9c.73,1.37,1.64,2.63,2.69,3.75ZM68.33,134.78h32.57c.42-1.06.73-2.17.94-3.32h-34.44c.2,1.15.52,2.26.94,3.32Z" />
            <path class="st12"
                d="M50.81,143.09c-4.25,0-7.52-.77-9.81-2.32-2.29-1.54-3.46-3.62-3.5-6.23h4.38c.04,1.35.74,2.56,2.09,3.62,1.35,1.06,3.64,1.59,6.85,1.59,2.96,0,5.18-.51,6.66-1.54,1.48-1.02,2.22-2.27,2.22-3.72,0-2.61-2.4-4.13-7.19-4.58l-3.75-.31c-3.04-.28-5.48-1.04-7.31-2.29s-2.75-3-2.75-5.26c0-2.43,1.1-4.39,3.31-5.89,2.21-1.49,5.15-2.24,8.81-2.24s6.43.7,8.66,2.08c2.23,1.39,3.37,3.37,3.41,5.94h-4.38c-.04-1.32-.71-2.43-2-3.33-1.29-.9-3.19-1.35-5.69-1.35s-4.51.48-5.78,1.43c-1.27.96-1.91,2.09-1.91,3.41,0,1.15.48,2.09,1.44,2.84.96.75,2.46,1.21,4.5,1.38l3.75.31c3.33.31,6.05,1.11,8.16,2.4,2.1,1.28,3.16,3.13,3.16,5.52,0,1.63-.55,3.1-1.66,4.4-1.1,1.3-2.66,2.32-4.66,3.05-2,.73-4.33,1.09-7,1.09Z" />
            <path class="st12" d="M105.27,104.28h4.5v38.03h-4.5v-38.03Z" />
            <path class="st12"
                d="M115.57,112.62c0-2.92.91-5.06,2.72-6.43,1.81-1.37,4.49-2.06,8.03-2.06h4.19v3.33h-5.06c-1.75,0-3.09.38-4,1.15-.92.76-1.37,1.84-1.37,3.23v2.6h8.48v3.61h-8.48v24.26h-4.5v-29.7Z" />
            <path class="st12"
                d="M140.01,143.04c-6.45,0-10.61-3.61-10.61-8.86,0-2.78,1.13-4.91,3.41-6.41,2.27-1.49,5.47-2.24,9.59-2.24h9.25v-1.13c0-2.05-.65-3.62-1.94-4.71-1.29-1.09-3.29-1.64-6-1.64h-9.75v-3.61h8.06c5.94,0,8.66.79,10.85,2.37,2.19,1.58,3.28,4.18,3.28,7.79v17.71h-4.5v-7.23c-1.71,4.65-7.17,7.96-11.64,7.96ZM140.19,139.19c10.09,0,11.45-9.81,11.45-10.41v-.22l-8.84-.05c-6.59,0-8.85,2.56-8.85,5.73,0,3.62,3.74,4.95,6.24,4.95Z" />
            <path class="st12"
                d="M161.21,128.45v-.36c0-1.74.34-3.46,1.03-5.16.69-1.7,1.72-3.25,3.09-4.64,1.38-1.39,3.09-2.5,5.16-3.33,2.06-.83,4.49-1.25,7.28-1.25s5.18.43,7.41,1.28c2.23.85,4.03,2.05,5.41,3.59,1.37,1.54,2.17,3.36,2.37,5.44h-4.5c-.25-1.88-1.34-3.48-3.28-4.82-1.94-1.34-4.41-2.01-7.41-2.01-2.67,0-4.88.51-6.63,1.54-1.75,1.02-3.06,2.39-3.94,4.09-.87,1.7-1.31,3.58-1.31,5.63s.44,3.93,1.31,5.63c.88,1.7,2.19,3.07,3.94,4.09,1.75,1.02,3.96,1.54,6.63,1.54,3,0,5.47-.67,7.41-2.01,1.94-1.34,3.03-2.94,3.28-4.82h4.5c-.21,2.08-1,3.9-2.37,5.44-1.38,1.55-3.18,2.74-5.41,3.6-2.23.85-4.7,1.28-7.41,1.28s-5.22-.42-7.28-1.25c-2.06-.83-3.78-1.94-5.16-3.33-1.37-1.39-2.41-2.93-3.09-4.64-.69-1.7-1.03-3.42-1.03-5.16v-.37Z" />
            <path class="st12" d="M197.8,142.31v-27.56h4.5v27.56h-4.5Z" />
            <path class="st12" d="M197.8,110.43v-6.15h4.5v6.15h-4.5Z" />
            <path class="st12" d="M137.31,108.05l14.33-3.76v3.28l-14.33,3.76v-3.28Z" />
            <path class="st12" d="M208,104.28h4.5v38.03h-4.5v-38.03Z" />
        </g>
    </symbol>
    <!-- Logo Viacredi -->
    <symbol id="lg-viacredi" viewBox="0 0 250 250">
        <defs>
            <style>
                .st0 {
                fill: url(#Gradiente_sem_nome_2);
                }

                .st1 {
                fill: #fff;
                }

                .st2 {
                fill: #007041;
                }

                .st3 {
                fill: #007d8a;
                }

                .st4 {
                fill: #165c7d;
                }

                .st5 {
                fill: #886b25;
                }

                .st6 {
                fill: url(#Gradiente_sem_nome_4);
                }

                .st7 {
                fill: url(#Gradiente_sem_nome_3);
                }
            </style>
            <linearGradient id="Gradiente_sem_nome_4" data-name="Gradiente sem nome 4" x1="48.65"
                y1="117.33" x2="79.02"
                y2="117.33" gradientTransform="translate(0 252) scale(1 -1)"
                gradientUnits="userSpaceOnUse">
                <stop offset="0" stop-color="#00a9ce" />
                <stop offset=".41" stop-color="#00a7cb" />
                <stop offset=".66" stop-color="#009fc3" />
                <stop offset=".86" stop-color="#0091b5" />
                <stop offset="1" stop-color="#0083a6" />
            </linearGradient>
            <linearGradient id="Gradiente_sem_nome_2" data-name="Gradiente sem nome 2" x1="53.22"
                y1="138.72" x2="80.28"
                y2="138.72" gradientTransform="translate(0 252) scale(1 -1)"
                gradientUnits="userSpaceOnUse">
                <stop offset="0" stop-color="#ffa300" />
                <stop offset=".35" stop-color="#fca200" />
                <stop offset=".56" stop-color="#f49d00" />
                <stop offset=".73" stop-color="#e69600" />
                <stop offset=".89" stop-color="#d28b00" />
                <stop offset="1" stop-color="#bd8000" />
            </linearGradient>
            <linearGradient id="Gradiente_sem_nome_3" data-name="Gradiente sem nome 3" x1="37.47"
                y1="130.78" x2="53.21"
                y2="130.78" gradientTransform="translate(0 252) scale(1 -1)"
                gradientUnits="userSpaceOnUse">
                <stop offset="0" stop-color="#00b140" />
                <stop offset=".39" stop-color="#00ae40" />
                <stop offset=".62" stop-color="#01a63e" />
                <stop offset=".82" stop-color="#02983b" />
                <stop offset=".99" stop-color="#038437" />
                <stop offset="1" stop-color="#038237" />
            </linearGradient>
        </defs>
        <rect class="st1" width="250" height="250" />
        <g>
            <path class="st4"
                d="M97.24,130.9c-.67,2.07-1.74,2.89-3.3,2.89s-2.61-.76-3.3-2.89l-6.13-18.71h4.63l4.85,16.5,4.88-16.5h4.46l-6.09,18.71Z" />
            <path class="st4" d="M105.76,112.19h4.34v21.39h-4.34v-21.39Z" />
            <path class="st4"
                d="M112.57,133.57l6.36-18.62c.72-2.09,1.87-2.98,3.51-2.98s2.8.95,3.49,2.98l6.25,18.62h-4.6l-1.63-5.3h-7.31l-1.59,5.3h-4.48ZM124.93,124.94l-2.66-8.65-2.61,8.65h5.28Z" />
            <path class="st4"
                d="M148.48,133.15c-1.83.45-3.71.66-5.59.64-7.1,0-8.86-3.32-8.86-10.91s1.76-10.91,8.86-10.91c1.88-.02,3.76.2,5.59.65l-.39,3.35c-1.46-.24-2.93-.36-4.41-.37-5.14,0-5.23,3.08-5.23,7.28s.07,7.28,5.23,7.28c1.47,0,2.94-.12,4.4-.36l.4,3.36Z" />
            <path class="st4"
                d="M155.89,133.57h-4.34v-21.02c2.3-.4,4.63-.6,6.96-.59,4.73,0,8.59.94,8.59,6.72,0,3.8-1.59,5.56-4.1,6.32l4.88,8.56h-5l-4.39-8.07c-.87,0-1.86-.04-2.61-.09v8.16ZM155.89,121.96c.88.09,1.76.12,2.64.11,2.71,0,4.28-.69,4.28-3.4,0-2.37-1.08-3.31-4.19-3.31-.91,0-1.81.07-2.71.18l-.02,6.42Z" />
            <path class="st4"
                d="M184.06,115.66h-5.9c-2.56,0-3,.54-3,2.89v2.42h8.5v3.45h-8.5v2.77c0,2.36.44,2.91,3,2.91h5.9v3.36c-1.5.08-4.38.17-5.81.17-3.86,0-7.42-.21-7.42-5.22v-11.06c0-5.01,3.56-5.21,7.42-5.21,1.55,0,4.34.08,5.81.15v3.37Z" />
            <path class="st4"
                d="M188.03,112.57c2.3-.41,4.63-.61,6.96-.61,8.02,0,9.44,3.64,9.44,10.91s-1.42,10.91-9.44,10.91c-2.33,0-4.66-.19-6.96-.59v-20.63ZM192.37,115.66v14.43c.67.1,1.35.16,2.03.16,5.64,0,5.68-3.19,5.68-7.37s-.05-7.36-5.68-7.36c-.68,0-1.36.05-2.03.15Z" />
            <path class="st4" d="M208.16,112.19h4.34v21.39h-4.34v-21.39Z" />
            <path class="st4"
                d="M89.83,148.31c-.64.14-1.3.21-1.96.21-2.67,0-3.33-1.3-3.33-4.25s.66-4.27,3.33-4.27c.66,0,1.32.07,1.96.21l-.11.9c-.5-.08-1.01-.13-1.52-.13-2.37,0-2.49,1.26-2.49,3.25s.14,3.25,2.49,3.25c.51,0,1.02-.05,1.52-.14l.1.96Z" />
            <path class="st4"
                d="M91.07,144.27c0-3.02.72-4.25,3.22-4.25s3.21,1.23,3.21,4.25-.71,4.25-3.21,4.25-3.22-1.24-3.22-4.25ZM96.33,144.27c0-1.94-.07-3.29-2.04-3.29s-2.04,1.36-2.04,3.29.07,3.29,2.04,3.29,2.04-1.36,2.04-3.29Z" />
            <path class="st4"
                d="M99.14,144.27c0-3.02.71-4.25,3.22-4.25s3.21,1.23,3.21,4.25-.71,4.25-3.21,4.25-3.22-1.24-3.22-4.25ZM104.4,144.27c0-1.94-.07-3.29-2.04-3.29s-2.04,1.36-2.04,3.29.07,3.29,2.04,3.29,2.04-1.36,2.04-3.29Z" />
            <path class="st4"
                d="M108.56,148.44h-1.14v-8.21c.85-.14,1.7-.21,2.56-.21,1.78,0,3.23.36,3.23,2.55s-1.3,2.6-3.13,2.6c-.43,0-1.12,0-1.51-.05v3.31ZM108.56,144.18c.47.05.94.07,1.42.07,1.33,0,2.08-.34,2.08-1.68,0-1.16-.54-1.63-2.04-1.63-.49,0-.97.03-1.45.1v3.14Z" />
            <path class="st4"
                d="M119.51,141.03h-2.13c-1.34,0-1.57.26-1.57,1.45v1.24h3.53v.93h-3.53v1.4c0,1.2.23,1.45,1.57,1.45h2.13v.9c-.63.03-1.49.05-2.09.05-1.43,0-2.75-.08-2.75-1.9v-4.57c0-1.83,1.32-1.9,2.75-1.9.54,0,1.45,0,2.09.05v.89Z" />
            <path class="st4"
                d="M121.27,148.44v-8.21c.85-.14,1.7-.2,2.56-.21,1.77,0,3.25.34,3.25,2.52,0,1.58-.74,2.23-1.87,2.46l1.96,3.44h-1.36l-1.83-3.34h-.06c-.43,0-1.12-.03-1.51-.05v3.39h-1.15ZM122.41,144.1c.47.05.94.07,1.41.07,1.32,0,2.09-.33,2.09-1.63,0-1.15-.54-1.59-2.04-1.59-.49,0-.97.04-1.45.1v3.06Z" />
            <path class="st4"
                d="M128.14,148.44l2.68-7.59c.04-.23.16-.43.33-.58.18-.15.4-.23.63-.23s.45.08.63.23c.18.15.29.35.33.58l2.64,7.59h-1.21l-.78-2.31h-3.29l-.77,2.31h-1.18ZM133.08,145.23l-1.35-4.02-1.34,4.02h2.69Z" />
            <path class="st4" d="M141.52,141.04h-2.17v7.39h-1.16v-7.39h-2.17v-.94h5.5v.94Z" />
            <path class="st4" d="M142.85,140.11h1.15v8.33h-1.15v-8.33Z" />
            <path class="st4"
                d="M149.68,147.72c-.19.54-.47.8-.9.8s-.71-.23-.9-.8l-2.54-7.59h1.22l2.23,7.05,2.26-7.05h1.17l-2.54,7.59Z" />
            <path class="st4"
                d="M152.9,148.44l2.68-7.59c.04-.23.16-.43.33-.58s.4-.23.63-.23.45.08.63.23c.18.15.29.35.33.58l2.64,7.59h-1.21l-.78-2.31h-3.29l-.77,2.31h-1.18ZM157.84,145.23l-1.35-4.02-1.34,4.02h2.69Z" />
            <path class="st4"
                d="M164.11,148.44l2.68-7.59c.04-.23.16-.43.33-.58.18-.15.4-.23.63-.23s.45.08.63.23.29.35.33.58l2.64,7.59h-1.21l-.78-2.31h-3.3l-.77,2.31h-1.17ZM169.05,145.23l-1.37-4.02-1.34,4.02h2.71Z" />
            <path class="st4" d="M172.71,140.11h1.15v8.33h-1.15v-8.33Z" />
            <path class="st4"
                d="M180.58,148.41c-.63,0-1.39.04-1.95.04-1.42,0-2.75-.08-2.75-1.9v-6.45h1.16v5.97c0,1.19.22,1.45,1.56,1.45h1.98v.89Z" />
            <path class="st4"
                d="M181.57,144.27c0-3.02.72-4.25,3.22-4.25s3.21,1.23,3.21,4.25-.71,4.25-3.21,4.25-3.22-1.24-3.22-4.25ZM186.83,144.27c0-1.94-.07-3.29-2.04-3.29s-2.04,1.36-2.04,3.29.06,3.29,2.04,3.29,2.04-1.36,2.04-3.29Z" />
            <path class="st4"
                d="M190.59,142.13c0,1.05.54,1.2,1.77,1.55,1.41.4,2.27.95,2.27,2.45,0,1.75-1.09,2.39-2.96,2.39-.73,0-1.46-.07-2.17-.22l.11-.94c.68.1,1.36.16,2.04.17,1.09,0,1.81-.24,1.81-1.37,0-.99-.72-1.21-1.68-1.51-1.46-.44-2.32-.85-2.32-2.37,0-1.71,1.01-2.27,2.84-2.27.73,0,1.45.07,2.17.21l-.11.91c-.56-.09-1.12-.14-1.69-.15-.98,0-2.09.1-2.09,1.14Z" />
            <path class="st4"
                d="M69.48,125.42l-4.13-10.13c-.41-.94-.71-1.63-1.33-1.63s-.93.72-1.3,1.63l-2.52,5.84-2.48-5.84c-.37-.89-.67-1.63-1.3-1.63s-.92.67-1.33,1.63l-4.13,10.13c-.15.31-.22.65-.19,1,.02.34.14.68.34.96.19.29.46.51.77.66.31.15.66.21,1,.18h1.82v2.3c0,.4.16.78.44,1.06.28.28.66.44,1.06.44h.54c.4,0,.78-.16,1.06-.44.28-.28.44-.66.44-1.06v-1.13s0-.08,0-.12v-1.08h4.01v1.08s0,.08,0,.12v1.13c0,.4.16.78.44,1.06.28.28.66.44,1.06.44h.54c.4,0,.78-.16,1.06-.44.28-.28.44-.66.44-1.06v-2.3h1.82c.34.03.69-.03,1-.18.31-.15.58-.38.77-.66.19-.29.31-.62.33-.96.02-.34-.04-.69-.2-1h-.04ZM58.47,127.11h-1.38v3.43c0,.1-.04.2-.11.27-.07.07-.17.11-.27.11h-.54c-.1,0-.2-.04-.27-.11s-.11-.17-.11-.27v-3.43h-2.92c-.16.03-.32.01-.48-.05-.15-.06-.28-.17-.37-.3-.09-.13-.14-.29-.15-.45,0-.16.04-.32.12-.46l4.12-10.1c.06-.12.18-.4.29-.64.08.16.17.37.28.63l2.91,6.84-1.11,2.86c-.11.27-.17.55-.18.84,0,.29.05.58.16.84ZM60.9,126.74c-.08.11-.18.2-.3.27-.12.06-.25.1-.39.1s-.27-.03-.39-.1c-.12-.06-.22-.16-.3-.27-.07-.14-.11-.29-.11-.45s.04-.31.11-.45l.68-1.75.71,1.76c.07.14.1.29.09.45,0,.16-.04.31-.12.44ZM68.42,126.74c-.1.12-.23.22-.38.28s-.31.09-.47.07h-2.93v3.43c0,.1-.04.2-.11.27-.07.07-.17.11-.27.11h-.54c-.1,0-.2-.04-.27-.11-.07-.07-.11-.17-.11-.27v-3.41h-1.36c.11-.27.17-.55.17-.84s-.06-.57-.17-.84l-1.15-2.86,2.95-6.84c.11-.26.2-.47.28-.63.12.23.24.51.29.63l4.1,10.1c.08.14.11.3.11.46s-.04.32-.11.46v-.02Z" />
            <path class="st6"
                d="M71.68,133.14c-1.47,1.58-3.24,2.84-5.22,3.7-1.98.86-4.11,1.3-6.27,1.3-.48,0-.95,0-1.42-.07-3.34.89-6.87.74-10.13-.43,2.16,2.8,5.14,4.85,8.52,5.87,3.38,1.02,7,.96,10.34-.18,3.35-1.14,6.25-3.29,8.32-6.15,2.06-2.87,3.18-6.31,3.19-9.84,0-.75-.05-1.49-.15-2.23-1.46,3.39-3.99,6.21-7.19,8.03Z" />
            <path class="st0"
                d="M62.85,106.99c2.45.42,4.76,1.41,6.75,2.9,1.99,1.49,3.6,3.42,4.7,5.65,2.52,2.61,4.14,5.95,4.61,9.55,1.46-3.42,1.76-7.23.84-10.84-.92-3.61-3-6.81-5.91-9.12-2.92-2.31-6.52-3.59-10.24-3.65s-7.36,1.1-10.35,3.31c.4,0,.8-.04,1.2-.04,2.95,0,5.84.77,8.4,2.24Z" />
            <path class="st5"
                d="M75.9,122.46c0,3.97-1.5,7.78-4.21,10.68,3.22-1.83,5.76-4.65,7.22-8.05-.47-3.59-2.09-6.94-4.61-9.55,1.06,2.15,1.6,4.52,1.6,6.91Z" />
            <path class="st7"
                d="M45.16,126.89c-.63-2.14-.79-4.38-.49-6.59.31-2.21,1.08-4.32,2.26-6.21.99-3.73,3.21-7.01,6.31-9.31-3.87.28-7.54,1.88-10.37,4.53-2.84,2.65-4.68,6.2-5.21,10.05-.53,3.85.27,7.76,2.28,11.09,2.01,3.33,5.1,5.86,8.75,7.18-2.28-2.95-3.51-6.58-3.51-10.3-.03-.16-.02-.3-.02-.44Z" />
            <path class="st3"
                d="M58.79,138.07c-3.13-.28-6.1-1.5-8.53-3.49-2.43-1.99-4.21-4.67-5.1-7.68v.42c0,3.73,1.23,7.35,3.51,10.3,3.25,1.17,6.78,1.32,10.13.43v.02Z" />
            <path class="st2"
                d="M46.93,114.1c1.66-2.62,4.05-4.7,6.88-5.96,2.83-1.26,5.98-1.66,9.03-1.15-2.56-1.48-5.47-2.25-8.43-2.25-.41,0-.8,0-1.2.04-3.09,2.3-5.31,5.58-6.29,9.31Z" />
        </g>
    </symbol>
</svg>