<svg xmlns="http://www.w3.org/2000/svg" style="display: none;">
  <!-- mail -->
  <symbol id="mail" viewBox="0 0 250 250">
    <title>mail</title>
  <defs>
    <style>
      .st10 {
        isolation: isolate;
        opacity: .4;
      }

      .st1 {
        fill: currentColor;
      }
    </style>
  </defs>
  <path class="st11" d="M249.21,101.86c-.51-11.6-.79-17.97-4.21-23.95-3.41-5.98-8.98-9.63-19.09-16.23l-45.2-29.61c-26.5-17.35-39.8-26.06-55.69-26.06s-29.21,8.71-55.7,26.06l-45.2,29.61c-10.11,6.61-15.66,10.25-19.09,16.23-3.41,5.98-3.7,12.37-4.21,23.95C.28,114.08.02,126.02.02,137.98c0,5.91.06,11.83.19,17.79.46,21.1.79,36.31,3.61,48.22.54,2.27,1.16,4.41,1.9,6.46,2.31,6.42,5.68,11.84,10.69,16.81,14.95,14.85,34.56,15.33,73.64,16.3,11.77.29,23.37.43,34.96.43s23.21-.14,34.97-.43c39.07-.97,58.68-1.45,73.64-16.3,4.99-4.96,8.37-10.38,10.67-16.78.74-2.06,1.38-4.21,1.92-6.49,2.82-11.91,3.15-27.13,3.62-48.22.38-18.01.18-35.64-.62-53.91ZM226.85,220.43c-12.24,12.15-30.58,12.61-67.11,13.51-23.37.58-46.09.58-69.46,0-36.52-.9-54.86-1.36-67.1-13.51-3.62-3.59-6.19-7.65-8.04-12.51l75.47-51.42c1.37-.93,2.69-1.82,3.98-2.65.13-.09.25-.16.38-.24,24.11-15.63,35.98-15.63,60.09,0,.13.08.25.15.38.24,1.29.84,2.62,1.72,3.98,2.65l75.47,51.42c-1.86,4.86-4.42,8.92-8.04,12.51ZM240.21,155.57c-.4,18.4-.7,32.01-2.65,42.53l-67.98-46.31-4.75-3.24c-2.34-1.59-4.59-3.07-6.75-4.42-25.44-15.9-40.68-15.9-66.13,0-2.16,1.36-4.41,2.84-6.75,4.42l-4.75,3.24L12.47,198.1c-1.95-10.52-2.25-24.13-2.65-42.54-.37-16.93-.2-33.54.5-50.65.03-.88.07-1.75.11-2.63.15-3.49.28-6.39.47-8.86.38-4.91.98-8.12,2.48-10.75,2.27-3.97,6.87-6.97,16-12.96l45.21-29.6c24.89-16.31,37.39-24.49,50.43-24.49s25.53,8.18,50.43,24.49l45.2,29.6c9.13,5.99,13.73,8.99,16,12.96,1.5,2.63,2.11,5.84,2.49,10.75.18,2.47.31,5.38.46,8.86.04.88.08,1.75.11,2.63.7,17.13.87,33.72.5,50.66Z"/>
  <g class="st10">
    <path class="st11" d="M94.6,153.85h.38v-.24c-.13.08-.25.15-.38.24ZM155.06,153.61v.24h.38c-.13-.09-.25-.16-.38-.24Z"/>
    <path class="st11" d="M91.95,144.13c-2.16,1.36-4.41,2.84-6.75,4.42l-4.75,3.24c-9.83-2.95-17.73-8.7-26.46-15.07l-43.67-31.82c.03-.88.07-1.75.11-2.63.15-3.49.28-6.39.47-8.86l48.76,35.53c10.88,7.92,19.63,14.3,32.3,15.17Z"/>
    <path class="st11" d="M239.71,104.9l-43.67,31.82c-8.73,6.37-16.63,12.12-26.46,15.07l-4.75-3.24c-2.34-1.59-4.59-3.07-6.75-4.42,12.67-.88,21.42-7.25,32.3-15.17l48.77-35.53c.18,2.47.31,5.38.46,8.86.04.88.08,1.75.11,2.63Z"/>
  </g>
</symbol>

  <!-- phone -->
  <symbol id="phone" viewBox="0 0 250 250">
    <title>phone</title>
  <defs>
    <style>
      .st20 {
        isolation: isolate;
        opacity: .4;
      }

      .st21 {
        fill: currentColor;
      }
    </style>
  </defs>
  <g class="st20">
    <path class="st21" d="M141.41,244.63l-8.07,5.37-9.22-13.84c-1.54-2.3-3.51-4.22-5.86-5.68l-43.58-27.23c5.47.33,11.74.41,18.98.43l29.74,18.58c3.52,2.2,6.48,5.07,8.79,8.53l9.22,13.85Z"/>
    <path class="st21" d="M238.71,220.89l-8.68,4.34c-2.07-4.12-4.8-8.68-7.7-13.51-7.99-13.31-17.05-28.38-17.05-42.87,0-4.97.24-10.04.49-15.42.81-16.74,1.65-34.04-5.11-47.54-3.49-7-7.52-16.47-7.52-27.63v-43.97c0-.19-.16-.35-.34-.35-14.52,0-26.33,11.81-26.33,26.33h-.02c0-9.42-.09-17.24-.62-23.84,6.6-7.48,16.25-12.19,26.97-12.19,5.54,0,10.04,4.51,10.04,10.05v43.97c0,7.23,1.95,14.19,6.5,23.29,7.88,15.78,6.94,35.22,6.12,52.35-.25,5.26-.48,10.22-.48,14.96,0,11.79,8.32,25.65,15.66,37.87,3,4.99,5.84,9.71,8.07,14.17Z"/>
  </g>
  <path class="st21" d="M166.46,60.27c0-9.42-.09-17.24-.62-23.84-.97-11.94-3.43-19.89-9.67-26.13C145.87,0,130.87,0,101,0s-44.88,0-55.18,10.3c-6.47,6.47-8.76,15.16-9.65,26.07h-4.89c-11.03,0-20,8.97-20,20.01,0,6.05,2.7,11.48,6.95,15.15-4.26,3.68-6.95,9.11-6.95,15.16s2.7,11.48,6.95,15.15c-4.26,3.68-6.95,9.11-6.95,15.16s2.7,11.48,6.95,15.15c-4.26,3.68-6.95,9.11-6.95,15.16,0,11.03,8.97,20,20,20h4.89c.89,10.91,3.18,19.61,9.65,26.08,6.7,6.7,15.38,9.04,28.86,9.86,5.47.33,11.74.41,18.98.43,2.34,0,4.78,0,7.33,0,29.87,0,44.87,0,55.17-10.3,10.3-10.3,10.3-25.29,10.3-55.18v-72.74c0-1.78,0-3.52,0-5.2ZM31.29,46.07h18.18c5.68,0,10.31,4.63,10.31,10.31s-4.63,10.3-10.31,10.3h-18.18c-5.68,0-10.3-4.62-10.3-10.3s4.62-10.31,10.3-10.31ZM31.29,76.38h30.31c5.68,0,10.31,4.63,10.31,10.31s-4.63,10.3-10.31,10.3h-30.31c-5.68,0-10.3-4.62-10.3-10.3s4.62-10.31,10.3-10.31ZM31.29,106.68h18.18c5.68,0,10.31,4.63,10.31,10.31s-4.63,10.3-10.31,10.3h-18.18c-5.68,0-10.3-4.62-10.3-10.3s4.62-10.31,10.3-10.31ZM43.41,157.6h-12.12c-5.68,0-10.3-4.62-10.3-10.3s4.62-10.31,10.3-10.31h12.12c5.68,0,10.31,4.63,10.31,10.31s-4.63,10.3-10.31,10.3ZM156.77,138.2c0,27.2,0,40.86-7.46,48.32-7.46,7.46-21.11,7.46-48.31,7.46s-40.86,0-48.32-7.46c-3.94-3.94-5.91-9.42-6.79-19.39,9.87-1.21,17.53-9.65,17.53-19.83,0-4.8-1.7-9.21-4.53-12.67,6.29-3.37,10.59-10.02,10.59-17.64,0-4.01-1.18-7.73-3.21-10.86,8.79-2.1,15.33-10.03,15.33-19.45s-6.55-17.35-15.33-19.46c2.03-3.13,3.21-6.86,3.21-10.85,0-11.04-8.97-20.01-20.01-20.01h-3.57c.89-9.86,2.87-15.3,6.78-19.21,7.46-7.46,21.11-7.46,48.32-7.46s40.85,0,48.31,7.46c7.46,7.46,7.46,21.1,7.46,48.31v72.74Z"/>
  <g class="st20">
    <rect class="st21" x="96.16" y="152.75" width="9.81" height="19.4" rx="4.85" ry="4.85"/>
  </g>
  </symbol>
</svg>
