<svg xmlns="http://www.w3.org/2000/svg" style="display: none;">
  <!-- home -->
  <symbol id="home" viewBox="0 0 250 250">
<g>
	<path d="M237.27,226.751V110.259c0-0.021-0.006-0.04-0.006-0.061
		c-0.004-0.153-0.018-0.303-0.045-0.453c-0.007-0.038-0.011-0.076-0.019-0.113c-0.037-0.168-0.086-0.332-0.152-0.491
		c-0.017-0.041-0.04-0.079-0.059-0.119c-0.053-0.113-0.111-0.223-0.179-0.33c-0.036-0.056-0.074-0.109-0.113-0.162
		c-0.063-0.086-0.131-0.167-0.203-0.246c-0.045-0.049-0.089-0.099-0.138-0.145c-0.019-0.018-0.035-0.039-0.055-0.057L199.847,75.27
		c-0.537-0.488-1.241-0.752-1.963-0.752h-6.28v-9.186c2.393-1.02,4.073-3.394,4.073-6.158v-6.701c0-3.692-2.999-6.691-6.691-6.691
		h-14.838c-3.692,0-6.691,2.999-6.691,6.691v6.701c0,2.763,1.68,5.138,4.073,6.158v9.186h-28.659l-43.87-39.922
		c-1.944-1.768-4.464-2.745-7.101-2.745l-0.166,0.01l-0.361-0.01c-2.637,0-5.157,0.977-7.101,2.745L62.543,54.371
		C61.481,25.299,48.282,9.403,44.008,5.011c-3.165-3.243-5.763-4.933-7.756-5.001C36.174,0,36.086,0,36.028,0
		c-1.875,0-4.415,1.602-7.541,4.767C23.974,9.318,9.303,26.705,9.635,59.418c0.15,15.048,3.652,26.336,10.399,33.643L7.095,104.837
		c-4.308,3.917-4.62,10.608-0.703,14.916c1.993,2.188,4.845,3.438,7.814,3.438c1.976,0,3.887-0.549,5.538-1.568v105.109h-6.662
		c-6.418,0-11.634,5.216-11.634,11.634c0,6.418,5.216,11.634,11.634,11.634h223.835c6.408,0,11.634-5.216,11.634-11.634
		C248.551,232.068,243.524,226.939,237.27,226.751z M197.464,165.107c-15.149,0-27.477,12.327-27.477,27.477v34.149h-6.478V121.61
		c1.656,1.027,3.574,1.582,5.559,1.582l-0.001,0c2.969,0,5.812-1.26,7.814-3.448c1.705-1.875,2.607-4.201,2.729-6.554h51.799
		v113.544h-6.469v-34.149C224.94,177.434,212.614,165.107,197.464,165.107z M197.465,173.419c-10.569,0-19.165,8.596-19.165,19.165
		v34.149h-2.452v-34.149c0-11.917,9.7-21.617,21.617-21.617s21.617,9.7,21.617,21.617v34.149h-2.451v-34.149
		C216.63,182.015,208.034,173.419,197.465,173.419z M206.911,211.408h3.858v15.325h-26.608v-34.149
		c0-7.336,5.968-13.304,13.304-13.304c7.336,0,13.304,5.968,13.304,13.304v12.963h-3.858c-1.612,0-2.93,1.319-2.93,2.93
		S205.289,211.408,206.911,211.408z M173.318,52.483c0-0.449,0.381-0.83,0.83-0.83h14.838c0.449,0,0.83,0.381,0.83,0.83v6.701
		c0,0.449-0.381,0.83-0.83,0.83h-0.199c-0.039-0.002-0.075-0.011-0.114-0.011h-14.213c-0.039,0-0.075,0.01-0.113,0.011h-0.199
		c-0.449,0-0.83-0.381-0.83-0.83V52.483z M185.743,77.458v6.964h-8.352v-6.959c0-0.005,0.002-0.01,0.002-0.015
		s-0.002-0.01-0.002-0.015V65.865h8.352v11.574c0,0.003-0.001,0.006-0.001,0.01C185.742,77.452,185.743,77.455,185.743,77.458z
		 M171.53,80.378v6.974c0,1.622,1.309,2.93,2.93,2.93h14.213c1.622,0,2.93-1.309,2.93-2.93v-6.974h5.156l29.94,26.949h-48.502
		c-0.529-0.91-1.201-1.756-2.02-2.501l-26.866-24.449H171.53z M15.496,59.371C15.144,24.567,32.482,8.049,36.126,5.988c0,0,0,0,0,0
		h0c0,0,0,0,0,0c4.425,2.208,21.107,20.668,20.62,53.66l-18.755,17.07V60.042l9.485-9.485c1.143-1.143,1.143-2.999,0-4.141
		c-1.143-1.143-2.999-1.143-4.142,0l-5.343,5.343V36.94c0-1.622-1.309-2.93-2.93-2.93c-1.622,0-2.93,1.309-2.93,2.93v45.111
		l-7.777,7.078C18.679,82.938,15.632,72.732,15.496,59.371z M17.372,116.109c-0.859,0.781-1.983,1.211-3.155,1.211
		c-1.328,0-2.598-0.557-3.477-1.524c-1.749-1.924-1.602-4.903,0.313-6.642l77.176-70.232c0.859-0.781,1.973-1.211,3.311-1.211h0.01
		h0.361c1.172,0,2.295,0.43,3.155,1.211l44.599,40.586c0.015,0.016,0.033,0.029,0.048,0.044l32.529,29.602
		c1.915,1.748,2.051,4.728,0.313,6.642c-1.67,1.827-4.806,1.983-6.642,0.313L93.61,50.313c-0.418-0.381-0.923-0.618-1.446-0.714
		c-0.874-0.162-1.805,0.074-2.51,0.712l-68.952,62.76c-0.012,0.011-0.021,0.026-0.033,0.037L17.372,116.109z M157.66,116.53v110.202
		H25.606l0.003-110.199l66.029-60.087l51.071,46.475L157.66,116.53z M236.917,244.139H13.083c-3.184,0-5.773-2.589-5.773-5.773
		c0-3.184,2.589-5.773,5.773-5.773h223.835c3.184,0,5.773,2.589,5.773,5.773C242.69,241.551,240.102,244.139,236.917,244.139z"/>
	<path d="M196.135,39.978c-0.004,0-0.008,0-0.012,0c-0.002,0-0.005,0-0.007,0
		L196.135,39.978z"/>
	<path d="M183.495,39.861c2.266,0,4.405-0.674,6.232-1.954
		c1.853,1.346,4.046,2.068,6.395,2.07c3.455-0.002,6.822-1.603,9.009-4.278c1.612-1.973,2.452-4.347,2.452-6.857
		c2.608-1.475,4.532-3.936,5.333-6.906c0.938-3.477,0.283-6.906-1.836-9.67c-2.188-2.852-5.626-4.552-9.211-4.552
		c-2.237,0-4.357,0.674-6.174,1.924c-1.836-1.299-3.995-1.993-6.291-1.993c-3.429,0-6.779,1.573-8.957,4.22
		c-1.602,1.944-2.452,4.288-2.491,6.779c-2.686,1.465-4.708,3.985-5.519,6.994c-0.928,3.477-0.283,6.916,1.836,9.67
		C176.462,38.162,179.91,39.861,183.495,39.861z M178.103,27.163c0.498-1.866,1.905-3.292,3.761-3.819
		c1.455-0.42,2.364-1.885,2.071-3.38c-0.401-2.081,0.352-3.517,1.045-4.366c1.065-1.289,2.774-2.09,4.444-2.09
		c1.084,0,2.677,0.332,4.015,1.944c0.547,0.664,1.367,1.045,2.227,1.055h0.02c0.86,0,1.67-0.381,2.227-1.026
		c1.358-1.582,2.911-1.914,3.975-1.914c1.748,0,3.497,0.86,4.562,2.256c0.694,0.908,1.407,2.442,0.83,4.591
		c-0.479,1.817-1.846,3.233-3.653,3.79c-1.446,0.44-2.315,1.915-2.012,3.39c0.43,2.1-0.313,3.555-1.006,4.405
		c-1.065,1.309-2.784,2.12-4.474,2.12c-1.123,0-2.745-0.352-4.083-2.032c-0.547-0.694-1.377-1.094-2.256-1.104h-0.029l0.02,0.01
		c-0.869,0-1.69,0.391-2.256,1.055c-1.358,1.622-2.94,1.963-4.024,1.963c-1.748,0-3.507-0.86-4.571-2.256
		C178.23,30.846,177.527,29.312,178.103,27.163z"/>
	<path d="M37.991,130.196v65.631c0,11.487,9.348,20.835,20.835,20.835h65.621
		c11.487,0,20.835-9.348,20.835-20.835v-65.631c0-11.487-9.348-20.835-20.835-20.835H58.826
		C47.339,109.36,37.991,118.708,37.991,130.196z M139.422,130.206v65.621c0,8.254-6.72,14.974-14.974,14.974H58.826
		c-8.264,0-14.984-6.711-14.984-14.974v-65.631c0-8.254,6.72-14.974,14.984-14.974v0.01h65.621
		C132.701,115.232,139.422,121.943,139.422,130.206z"/>
	<path d="M48.337,133.372v29.61c0,0.008-0.003,0.016-0.003,0.025
		s0.002,0.016,0.003,0.025v29.612c0,7.541,6.125,13.675,13.665,13.675h59.272v-0.01c7.531,0,13.665-6.134,13.665-13.665v-29.549
		c0.001-0.033,0.01-0.065,0.01-0.099c0-0.034-0.009-0.066-0.01-0.099v-29.526c0-7.531-6.134-13.665-13.665-13.665H91.761
		c-0.042-0.002-0.082-0.013-0.125-0.013s-0.082,0.011-0.125,0.013h-29.51C54.471,119.707,48.337,125.841,48.337,133.372z
		 M94.567,125.567h26.707c4.298,0,7.805,3.497,7.805,7.805v26.695H94.567V125.567z M94.567,165.927h34.511v26.717
		c0,4.308-3.497,7.814-7.805,7.814H94.567V165.927z M54.197,133.372c0-4.298,3.497-7.805,7.805-7.805h26.704v34.509H54.197V133.372z
		 M54.197,165.937h34.509v34.521H62.002c-4.298,0-7.805-3.507-7.805-7.814V165.937z"/>
	<path d="M197.463,124.08c-8.947,0-16.225,7.268-16.225,16.215
		s7.277,16.225,16.225,16.225s16.225-7.287,16.225-16.225S206.41,124.08,197.463,124.08z M197.463,150.658
		c-5.714,0-10.364-4.649-10.364-10.364c0-5.704,4.649-10.354,10.364-10.354c5.714,0,10.364,4.64,10.364,10.354
		C207.827,146.009,203.177,150.658,197.463,150.658z"/>
</g>
  </symbol>

  <!-- industry -->
  <symbol id="industry" viewBox="0 0 250 250">
<path d="M18.706,250c-1.629,0-2.955-1.326-2.955-2.955v-77.447c0-0.356-0.192-0.684-0.503-0.857
	c-0.149-0.084-0.314-0.125-0.479-0.125c-0.179,0-0.357,0.048-0.515,0.146l-9.744,5.994c-0.471,0.282-1.011,0.435-1.552,0.435
	c-0.499,0-0.998-0.131-1.441-0.378c-0.934-0.519-1.514-1.506-1.514-2.577v-19.685c0-0.997,0.504-1.923,1.347-2.475l60.251-39.299
	c0.279-0.181,0.446-0.491,0.446-0.823l8.229-59.627c0.038-0.281-0.046-0.566-0.232-0.78c-0.187-0.214-0.457-0.337-0.741-0.337
	h-3.356c-1.629,0-2.955-1.325-2.955-2.954V26.572c0-1.629,1.326-2.954,2.955-2.954h55.116c1.629,0,2.955,1.325,2.955,2.954v19.684
	c0,1.629-1.326,2.954-2.955,2.954h-3.356c-0.284,0-0.554,0.123-0.741,0.337c-0.186,0.214-0.271,0.499-0.232,0.78l3.799,27.559
	c0.067,0.486,0.482,0.848,0.973,0.848h23.178c1.128,0,2.142,0.625,2.645,1.631l6.781,13.573c0.166,0.334,0.507,0.543,0.879,0.543
	h11.377c0.491,0,0.906-0.362,0.973-0.848l9.232-66.925c0.038-0.281-0.046-0.566-0.232-0.78c-0.187-0.214-0.457-0.337-0.741-0.337
	h-3.356c-1.629,0-2.955-1.325-2.955-2.954V2.954c0-1.629,1.326-2.954,2.955-2.954h55.116c1.629,0,2.954,1.325,2.954,2.954
	l-0.01,19.684c0,1.629-1.325,2.955-2.954,2.955h-3.356c-0.284,0-0.554,0.123-0.741,0.337c-0.186,0.214-0.271,0.499-0.232,0.78
	l14.664,106.295c0.067,0.486,0.482,0.848,0.973,0.848h8.287c0.032,0.004,0.065,0.005,0.098,0.005c1.629,0,2.955,1.326,2.955,2.955
	v15.747c0,1.629-1.326,2.955-2.955,2.955h-3.937c-0.542,0-0.982,0.44-0.982,0.982v90.549c0,1.629-1.326,2.955-2.955,2.955H18.706z
	 M101.377,155.513c-0.542,0-0.982,0.44-0.982,0.982v86.61c0,0.542,0.44,0.982,0.982,0.982h133.852c0.542,0,0.982-0.44,0.982-0.982
	v-86.61c0-0.542-0.44-0.982-0.982-0.982H101.377z M42.325,230.312c-0.542,0-0.982,0.44-0.982,0.982v11.811
	c0,0.542,0.44,0.982,0.982,0.982H73.82c0.542,0,0.982-0.44,0.982-0.982v-11.811c0-0.542-0.44-0.982-0.982-0.982H42.325z
	 M77.757,177.158c1.629,0,2.955,1.326,2.955,2.955v62.989c0,0.542,0.44,0.982,0.982,0.982h11.81c0.542,0,0.982-0.44,0.982-0.982
	V121.141c0-0.356-0.192-0.684-0.503-0.857c-0.15-0.084-0.314-0.125-0.479-0.125c-0.179,0-0.357,0.048-0.515,0.146l-70.862,43.611
	c-0.29,0.178-0.468,0.495-0.468,0.837v78.351c0,0.542,0.44,0.982,0.982,0.982h11.81c0.542,0,0.982-0.44,0.982-0.982v-62.989
	c0-1.629,1.326-2.955,2.955-2.955H77.757z M42.325,214.563c-0.542,0-0.982,0.44-0.982,0.982v7.874c0,0.542,0.44,0.982,0.982,0.982
	H73.82c0.542,0,0.982-0.44,0.982-0.982v-7.874c0-0.542-0.44-0.982-0.982-0.982H42.325z M42.325,198.817
	c-0.542,0-0.982,0.44-0.982,0.982v7.874c0,0.542,0.44,0.982,0.982,0.982H73.82c0.542,0,0.982-0.44,0.982-0.982v-7.874
	c0-0.542-0.44-0.982-0.982-0.982H42.325z M42.325,183.069c-0.542,0-0.982,0.44-0.982,0.982v7.874c0,0.542,0.44,0.982,0.982,0.982
	H73.82c0.542,0,0.982-0.44,0.982-0.982v-7.874c0-0.542-0.44-0.982-0.982-0.982H42.325z M92.569,97.837
	c-0.184,0-0.37,0.051-0.535,0.159L6.357,153.87c-0.279,0.181-0.446,0.491-0.446,0.823l0.001,10.501c0,0.356,0.192,0.684,0.503,0.858
	c0.15,0.083,0.314,0.124,0.479,0.124c0.179,0,0.357-0.048,0.515-0.146l92.682-57.036c0.235-0.145,0.399-0.382,0.451-0.654
	c0.051-0.271-0.014-0.552-0.179-0.773l-7.007-9.339C93.163,97.974,92.869,97.837,92.569,97.837z M101.377,139.765
	c-0.542,0-0.982,0.44-0.982,0.982v7.874c0,0.542,0.44,0.982,0.982,0.982h141.726c0.542,0,0.982-0.44,0.982-0.982v-7.874
	c0-0.542-0.44-0.982-0.982-0.982H101.377z M93.505,90.555c0.925,0,1.808,0.443,2.361,1.185l11.811,15.749
	c0.5,0.655,0.695,1.497,0.539,2.318c-0.155,0.816-0.646,1.531-1.349,1.965l-6.004,3.691c-0.29,0.178-0.468,0.495-0.468,0.837v16.575
	c0,0.542,0.44,0.982,0.982,0.982h19.782c0.284,0,0.554-0.123,0.741-0.337c0.186-0.215,0.271-0.499,0.232-0.78l-8.149-59.055
	c-0.067-0.486-0.482-0.848-0.973-0.848H73.987c-0.38,0-0.725,0.219-0.888,0.562c-0.065,0.137-0.095,0.283-0.094,0.429l-4.185,30.321
	c-0.052,0.381,0.122,0.758,0.447,0.964c0.161,0.102,0.343,0.153,0.527,0.153c0.187,0,0.374-0.053,0.536-0.159l21.565-14.064
	C92.378,90.723,92.933,90.555,93.505,90.555z M122.598,84.648c-0.284,0-0.554,0.123-0.741,0.337
	c-0.186,0.215-0.271,0.499-0.232,0.78l6.516,47.241c0.067,0.486,0.482,0.848,0.973,0.848h31.829c0.491,0,0.906-0.362,0.973-0.848
	l4.34-31.495c0.038-0.281-0.046-0.565-0.232-0.78c-0.187-0.214-0.457-0.337-0.741-0.337h-12.726c-1.127,0-2.141-0.626-2.644-1.632
	l-6.781-13.572c-0.166-0.334-0.507-0.543-0.879-0.543H122.598z M180.283,49.216c-0.491,0-0.917,0.362-0.984,0.848l-11.396,82.673
	c-0.038,0.281,0.046,0.565,0.232,0.78c0.187,0.214,0.457,0.337,0.741,0.337h61.828c0.284,0,0.554-0.123,0.741-0.337
	c0.186-0.215,0.271-0.499,0.232-0.78L220.28,50.064c-0.067-0.486-0.482-0.848-0.973-0.848H180.283z M77.265,49.216
	c-0.491,0-0.906,0.362-0.973,0.848l-2.175,15.747c-0.038,0.281,0.046,0.566,0.232,0.78c0.187,0.214,0.457,0.337,0.741,0.337h36.849
	c0.284,0,0.554-0.123,0.741-0.337c0.186-0.214,0.271-0.499,0.232-0.78l-2.175-15.747c-0.067-0.486-0.482-0.848-0.973-0.848H77.265z
	 M69.883,29.532c-0.542,0-0.982,0.44-0.982,0.983v11.81c0,0.543,0.44,0.983,0.982,0.983h47.242c0.542,0,0.982-0.44,0.982-0.983
	v-11.81c0-0.543-0.44-0.983-0.982-0.983H69.883z M183.561,25.593c-0.491,0-0.906,0.362-0.973,0.848l-2.175,15.748
	c-0.038,0.281,0.046,0.566,0.232,0.78c0.187,0.214,0.457,0.337,0.741,0.337h36.849c0.284,0,0.554-0.123,0.741-0.337
	c0.186-0.214,0.271-0.499,0.232-0.78l-2.175-15.748c-0.067-0.486-0.482-0.848-0.973-0.848H183.561z M176.179,5.909
	c-0.542,0-0.982,0.44-0.982,0.983v11.81c0,0.543,0.44,0.983,0.982,0.983h47.242c0.542,0,0.982-0.44,0.982-0.983V6.892
	c0-0.543-0.44-0.983-0.982-0.983H176.179z M124.998,222.44c-1.629,0-2.955-1.326-2.955-2.955v-39.369
	c0-1.629,1.326-2.955,2.955-2.955h86.611c1.629,0,2.955,1.326,2.955,2.955v39.369c0,1.629-1.326,2.955-2.955,2.955H124.998z
	 M172.24,183.072c-0.542,0-0.982,0.44-0.982,0.982v31.495c0,0.542,0.44,0.982,0.982,0.982h35.431c0.542,0,0.982-0.44,0.982-0.982
	v-31.495c0-0.542-0.44-0.982-0.982-0.982H172.24z M128.934,183.072c-0.542,0-0.982,0.44-0.982,0.982v31.495
	c0,0.542,0.44,0.982,0.982,0.982h35.431c0.542,0,0.982-0.44,0.982-0.982v-31.495c0-0.542-0.44-0.982-0.982-0.982H128.934z"/>
  </symbol>

  <!-- farm -->
  <symbol id="farm" viewBox="0 0 250 250">
<path d="M20.918,250c-0.906,0-1.746-0.405-2.305-1.113c-0.492-0.619-0.712-1.389-0.621-2.172c0.09-0.781,0.479-1.478,1.093-1.962
	c12.714-10.089,28.003-15.421,44.216-15.421c16.254,0,31.57,5.331,44.294,15.419c0.611,0.485,0.996,1.182,1.086,1.963
	c0.09,0.784-0.13,1.554-0.62,2.17c-0.566,0.707-1.41,1.113-2.313,1.113c-0.672,0-1.307-0.22-1.837-0.638
	c-11.664-9.252-25.712-14.144-40.622-14.144c-14.868,0-28.888,4.892-40.542,14.146C22.221,249.78,21.588,250,20.918,250z
	 M221.511,249.999c-1.267,0-2.389-0.805-2.794-2.002c-1.965-5.785-4.288-11.539-6.903-17.106c-0.012-0.027-0.074-0.149-0.074-0.149
	c-6.879-14.627-15.886-28.15-26.757-40.165c-0.023-0.026-0.047-0.05-0.074-0.073c-0.004-0.005-0.123-0.144-0.127-0.149
	c-31.07-34.198-75.356-53.806-121.515-53.806c-20.394,0-40.321,3.732-59.226,11.091c-0.339,0.131-0.696,0.198-1.059,0.198
	c-1.229,0-2.31-0.738-2.754-1.88c-0.584-1.514,0.17-3.225,1.682-3.814c19.587-7.623,40.235-11.488,61.368-11.488
	c10.479,0,21.059,0.991,31.444,2.944c0.056,0.01,0.112,0.016,0.168,0.016c0.21,0,0.415-0.073,0.579-0.21
	c0.208-0.172,0.328-0.428,0.328-0.697V78.61c0-0.501-0.406-0.907-0.906-0.907h-9.041c-1.625,0-2.948-1.322-2.948-2.947V58.019
	c0.006-0.046,0.02-0.227,0.02-0.262c0.014-0.21,0.06-0.454,0.137-0.694c0.001-0.003,0.031-0.097,0.032-0.1
	c0.12-0.32,0.246-0.553,0.393-0.75l0.101-0.126c0.186-0.235,0.392-0.431,0.615-0.587c0.016-0.011,80.624-54.988,80.624-54.988
	C165.317,0.177,165.892,0,166.486,0c0.594,0,1.169,0.177,1.663,0.512l80.454,54.914c0.03,0.028,0.064,0.056,0.089,0.073
	c0.208,0.146,0.407,0.336,0.612,0.585c0.008,0.01,0.076,0.089,0.084,0.098c0.152,0.197,0.277,0.433,0.396,0.733
	c0.006,0.023,0.038,0.131,0.046,0.152c0.067,0.209,0.11,0.435,0.128,0.678c0,0.001,0.001,0.009,0.001,0.011
	c-0.007,0.044-0.011,0.089-0.011,0.134c0,0.04,0.004,0.085,0.01,0.129v16.74c0,1.625-1.321,2.947-2.946,2.947h-9.042
	c-0.501,0-0.907,0.406-0.907,0.907v65.048c0,0.25,0.103,0.489,0.285,0.66c0.169,0.158,0.391,0.247,0.622,0.247
	c0.018,0,0.036-0.001,0.054-0.002c3.229-0.195,6.169-0.289,8.988-0.289c1.625,0,2.946,1.321,2.946,2.946
	c0,1.625-1.321,2.947-2.946,2.947c-9.913,0-19.857,1.057-29.555,3.142c-0.032,0.007-0.065,0.016-0.096,0.027
	c-15.23,3.286-29.669,9.054-42.915,17.146c-0.248,0.15-0.408,0.411-0.432,0.699c-0.023,0.289,0.092,0.572,0.313,0.76
	c4.517,3.889,8.812,7.989,12.766,12.187c0.176,0.187,0.417,0.285,0.66,0.285c0.151,0,0.305-0.038,0.444-0.117
	c17.942-10.079,38.276-15.407,58.803-15.407c1.625,0,2.946,1.321,2.946,2.946s-1.321,2.947-2.946,2.947
	c-18.933,0-37.751,4.779-54.422,13.818c-0.241,0.131-0.41,0.363-0.459,0.632c-0.05,0.269,0.025,0.546,0.203,0.754
	c3.727,4.349,7.25,8.9,10.472,13.526c0.174,0.25,0.455,0.389,0.745,0.389c0.137,0,0.276-0.031,0.406-0.096
	c13.324-6.693,28.209-10.23,43.044-10.23c1.625,0,2.947,1.321,2.947,2.946s-1.322,2.947-2.947,2.947
	c-13.623,0-27.3,3.169-39.554,9.164c-0.231,0.113-0.403,0.32-0.474,0.567c-0.07,0.248-0.031,0.513,0.105,0.732
	c2.9,4.598,5.678,9.547,8.255,14.713c0.158,0.317,0.479,0.502,0.812,0.502c0.129,0,0.261-0.028,0.385-0.087
	c9.464-4.454,20.004-6.808,30.483-6.808c1.625,0,2.947,1.322,2.947,2.947s-1.322,2.946-2.947,2.946
	c-9.602,0-19.271,2.157-27.961,6.238c-0.446,0.21-0.643,0.737-0.444,1.187c2.208,4.986,4.073,9.741,5.7,14.535
	c0.521,1.541-0.304,3.218-1.839,3.738C222.14,249.946,221.816,249.999,221.511,249.999z M170.336,140.554
	c-0.501,0-0.906,0.406-0.906,0.907v22.649c0,0.236-0.038,0.491-0.12,0.803c-0.095,0.359,0.039,0.74,0.337,0.96
	c0.159,0.118,0.349,0.178,0.539,0.178c0.165,0,0.331-0.045,0.478-0.137c6.073-3.765,12.475-7.1,19.027-9.912
	c0.291-0.125,0.496-0.391,0.54-0.704c0.045-0.313-0.076-0.627-0.32-0.827l-16.588-13.708c-0.162-0.135-0.367-0.209-0.577-0.209
	H170.336z M160.22,140.545c-0.21,0-0.414,0.074-0.576,0.208l-12.725,10.477c-0.231,0.19-0.353,0.481-0.327,0.779
	c0.026,0.298,0.198,0.564,0.458,0.71c5.164,2.91,10.228,6.129,15.052,9.571c0.156,0.112,0.341,0.169,0.526,0.169
	c0.142,0,0.284-0.033,0.415-0.101c0.302-0.155,0.491-0.466,0.491-0.806v-20.1c0-0.501-0.406-0.907-0.906-0.907H160.22z
	 M184.844,140.544c-0.383,0-0.724,0.24-0.853,0.6c-0.13,0.36-0.02,0.762,0.275,1.005l12.695,10.497
	c0.165,0.137,0.37,0.209,0.577,0.209c0.104,0,0.209-0.019,0.309-0.055c1.419-0.514,2.953-1.034,4.825-1.634
	c0.376-0.121,0.631-0.469,0.631-0.864v-8.851c0-0.501-0.406-0.907-0.907-0.907H184.844z M208.493,96.596
	c0.034,0.06,0.07,0.113,0.111,0.163c0.044,0.056,0.094,0.121,0.131,0.187l0.074,0.131c0.028,0.048,0.056,0.095,0.078,0.143
	c0.067,0.126,0.089,0.196,0.114,0.265c0.04,0.107,0.069,0.19,0.09,0.279l0.05,0.293c0.013,0.09,0.02,0.208,0.029,0.325
	c0.002,0.032,0.016,0.15,0.022,0.183l-0.005,49.478c0,0.28,0.13,0.545,0.351,0.716c0.161,0.125,0.357,0.191,0.556,0.191
	c0.076,0,0.151-0.01,0.226-0.03c0.686-0.176,1.375-0.337,2.064-0.498l0.85-0.2c0.408-0.097,0.697-0.462,0.697-0.882l0.001-55.625
	c0-0.24-0.095-0.471-0.266-0.641c-0.17-0.17-0.401-0.266-0.641-0.266h-93.157c-0.501,0-0.906,0.406-0.906,0.907v47.637
	c0,0.389,0.247,0.733,0.615,0.859c0.995,0.338,1.99,0.677,2.975,1.044c0.103,0.038,0.211,0.058,0.317,0.058
	c0.182,0,0.363-0.055,0.517-0.162c0.244-0.169,0.39-0.448,0.39-0.745V98.47c0.01-0.004,0.02-0.085,0.02-0.171
	c0-0.096,0.017-0.193,0.031-0.289c0.011-0.11,0.022-0.167,0.037-0.225c0.03-0.125,0.058-0.206,0.092-0.295l0.118-0.276
	c0.025-0.055,0.055-0.104,0.083-0.153l0.068-0.12c0.026-0.037,0.075-0.118,0.133-0.19c0.041-0.051,0.077-0.107,0.107-0.167
	c0.012-0.001,0.07-0.057,0.124-0.124c0.021-0.013,0.093-0.087,0.167-0.152c0.089-0.079,0.178-0.15,0.266-0.221
	c0.021-0.009,0.095-0.059,0.178-0.108c0.088-0.052,0.174-0.098,0.275-0.146l0.263-0.099c0.111-0.037,0.179-0.063,0.253-0.079
	l0.288-0.054c0.092-0.012,0.213-0.02,0.341-0.028c0.03-0.002,0.086-0.01,0.116-0.015l79.456-0.014
	c0.068,0.009,0.165,0.021,0.209,0.021c0.104,0,0.203,0.016,0.3,0.03c0.12,0.012,0.176,0.022,0.233,0.037l0.323,0.105
	c0.074,0.027,0.159,0.058,0.244,0.096c0.098,0.041,0.163,0.078,0.23,0.12c0.103,0.062,0.184,0.12,0.265,0.177
	c0.047,0.039,0.136,0.11,0.215,0.18l0.075,0.073c0.03,0.028,0.062,0.054,0.089,0.086C208.393,96.495,208.448,96.552,208.493,96.596z
	 M130.575,140.544c-0.501,0-0.906,0.406-0.906,0.907v2.097c0,0.363,0.216,0.691,0.55,0.833c3.477,1.486,6.594,2.929,9.531,4.412
	c0.129,0.065,0.27,0.097,0.409,0.097c0.206,0,0.41-0.071,0.576-0.207l7.938-6.532c0.296-0.244,0.407-0.646,0.277-1.006
	s-0.471-0.601-0.853-0.601H130.575z M216.878,84.915c1.625,0,2.947,1.322,2.947,2.947v57.854c0,0.269,0.12,0.523,0.326,0.695
	c0.164,0.138,0.371,0.211,0.581,0.211c0.054,0,0.108-0.005,0.161-0.015c3.155-0.572,6.348-1.042,9.494-1.397
	c0.458-0.052,0.805-0.44,0.805-0.901l-0.002-65.703c0-0.501-0.406-0.907-0.907-0.907H102.617c-0.501,0-0.906,0.406-0.906,0.907
	l-0.01,55.717c0,0.421,0.29,0.787,0.7,0.882c3.054,0.714,6.162,1.546,9.5,2.546c0.085,0.026,0.173,0.038,0.26,0.038
	c0.193,0,0.383-0.062,0.541-0.18c0.23-0.171,0.365-0.441,0.365-0.727V87.862c0-1.625,1.322-2.947,2.947-2.947H216.878z
	 M130.575,127.95c-0.501,0-0.906,0.406-0.906,0.907v4.888c0,0.501,0.406,0.907,0.906,0.907h71.811c0.501,0,0.907-0.406,0.907-0.907
	v-4.888c0-0.501-0.406-0.907-0.907-0.907H130.575z M202.397,105.763c-0.207,0-0.411,0.071-0.577,0.208l-17.541,14.48
	c-0.295,0.244-0.405,0.646-0.275,1.006c0.129,0.36,0.47,0.6,0.853,0.6h17.541c0.501,0,0.907-0.406,0.907-0.907v-14.48
	c0-0.351-0.203-0.671-0.52-0.82C202.661,105.791,202.528,105.763,202.397,105.763z M137.44,101.448c-0.383,0-0.724,0.24-0.853,0.6
	s-0.019,0.762,0.276,1.006l22.78,18.796c0.162,0.134,0.366,0.208,0.577,0.208h2.408c0.501,0,0.906-0.406,0.906-0.907v-18.796
	c0-0.501-0.406-0.907-0.906-0.907H137.44z M130.576,105.763c-0.131,0-0.263,0.029-0.387,0.087c-0.317,0.15-0.52,0.469-0.52,0.82
	v14.48c0,0.501,0.406,0.907,0.906,0.907h17.541c0.383,0,0.724-0.24,0.853-0.6c0.129-0.36,0.019-0.762-0.276-1.006l-17.541-14.48
	C130.988,105.834,130.783,105.763,130.576,105.763z M170.334,101.437c-0.501,0-0.906,0.406-0.906,0.907v18.796
	c0,0.501,0.406,0.907,0.906,0.907h2.408c0.21,0,0.414-0.074,0.577-0.208l22.78-18.796c0.294-0.244,0.405-0.646,0.275-1.006
	c-0.129-0.36-0.47-0.6-0.853-0.6H170.334z M89.724,60.886c-0.501,0-0.906,0.406-0.906,0.907v9.112c0,0.501,0.406,0.907,0.906,0.907
	h153.447c0.501,0,0.907-0.406,0.907-0.907v-9.112c0-0.501-0.406-0.907-0.907-0.907H89.724z M166.48,6.704
	c-0.179,0-0.357,0.053-0.511,0.158L97.85,53.325c-0.329,0.223-0.473,0.635-0.355,1.016c0.117,0.38,0.468,0.639,0.866,0.639h136.177
	c0.397,0,0.749-0.26,0.867-0.639c0.117-0.38-0.028-0.792-0.355-1.016L166.991,6.862C166.837,6.757,166.659,6.704,166.48,6.704z
	 M236.827,249.997c-1.359,0-2.537-0.925-2.862-2.25c-0.383-1.579,0.587-3.177,2.163-3.559c3.59-0.875,7.256-1.319,10.896-1.319
	c1.625,0,2.946,1.321,2.946,2.946s-1.321,2.947-2.946,2.947c-3.16,0-6.355,0.387-9.496,1.149
	C237.291,249.968,237.047,249.997,236.827,249.997z M168.095,249.987c-1.117,0-2.126-0.621-2.633-1.621
	c-4.508-8.906-10.335-17.313-17.319-24.987c-0.175-0.193-0.42-0.297-0.67-0.297c-0.11,0-0.221,0.021-0.327,0.061
	c-0.349,0.136-0.579,0.471-0.579,0.846v9.001c0,1.625-1.322,2.947-2.947,2.947s-2.947-1.322-2.947-2.947v-12.955
	c0-0.3-0.149-0.58-0.396-0.75c-4.45-3.028-8.051-7.188-10.413-12.032c-0.067-0.137-0.167-0.255-0.292-0.343
	c-19.444-13.738-42.365-20.999-66.285-20.999c-4.007,0-7.686,0.169-11.247,0.516c-0.243,0.024-0.466,0.145-0.619,0.334
	c-0.153,0.191-0.223,0.435-0.193,0.677c0.151,1.242,0.224,2.352,0.224,3.394c0,4.729-1.257,9.428-3.634,13.589
	c-0.173,0.302-0.157,0.676,0.04,0.963c0.171,0.248,0.451,0.393,0.747,0.393c0.045,0,0.091-0.004,0.138-0.011
	c4.899-0.752,9.792-1.133,14.544-1.133c31.125,0,60.474,15.219,78.508,40.71c0.932,1.323,0.615,3.165-0.708,4.107
	c-0.497,0.348-1.083,0.534-1.692,0.534c-0.96,0-1.861-0.464-2.411-1.241c-16.94-23.935-44.49-38.226-73.695-38.226
	c-7.838,0-15.686,1.041-23.326,3.093c-0.396,0.106-0.671,0.465-0.671,0.875v10.566c0,1.625-1.322,2.947-2.947,2.947
	c-1.625,0-2.947-1.322-2.947-2.947v-8.108c0-0.296-0.145-0.574-0.388-0.744c-0.154-0.107-0.335-0.163-0.518-0.163
	c-0.106,0-0.212,0.019-0.314,0.056C22.175,219.784,13,225.17,4.906,232.103c-0.533,0.456-1.211,0.708-1.911,0.708
	c-0.862,0-1.678-0.376-2.24-1.031c-0.511-0.597-0.76-1.357-0.699-2.14c0.061-0.784,0.424-1.497,1.022-2.01
	c8.139-6.968,17.363-12.49,27.415-16.412c0.282-0.11,0.49-0.354,0.556-0.65c0.065-0.295-0.022-0.604-0.231-0.822
	c-3.938-4.105-6.47-9.231-7.324-14.823c-0.042-0.274-0.207-0.514-0.449-0.651c-0.138-0.079-0.293-0.119-0.448-0.119
	c-0.116,0-0.232,0.023-0.342,0.067c-5.5,2.239-10.796,4.891-15.742,7.881c-0.466,0.279-0.978,0.421-1.518,0.421
	c-1.028,0-1.996-0.543-2.526-1.418c-0.408-0.672-0.53-1.46-0.343-2.222c0.188-0.765,0.664-1.413,1.341-1.821
	c5.983-3.624,12.51-6.776,19.4-9.371c0.311-0.117,0.533-0.395,0.578-0.724c1.152-8.383,6.048-15.625,13.432-19.871
	c0.446-0.255,0.954-0.391,1.468-0.391c0.518,0,1.03,0.138,1.48,0.398c5.072,2.94,9.139,7.576,11.451,13.056
	c0.143,0.338,0.474,0.555,0.835,0.555c0.033,0,0.066-0.002,0.099-0.006c4.174-0.455,8.451-0.677,13.078-0.677
	c21.994,0,43.5,5.941,62.194,17.181c0.144,0.087,0.305,0.13,0.467,0.13c0.166,0,0.331-0.046,0.478-0.137
	c0.289-0.179,0.453-0.505,0.425-0.844l-0.052-0.597c-0.06-0.667-0.116-1.297-0.116-1.939c0-4.913,1.264-9.892,3.657-14.397
	c0.233-0.438,0.07-0.982-0.364-1.22c-20.237-11.102-43.297-16.971-66.688-16.971c-20.662,0-40.526,4.416-59.041,13.122
	c-0.396,0.186-0.817,0.28-1.251,0.28c-1.135,0-2.184-0.665-2.673-1.695c-0.689-1.471-0.056-3.23,1.413-3.92
	c19.316-9.079,40.025-13.682,61.551-13.682c24.665,0,48.957,6.262,70.248,18.109c0.138,0.078,0.29,0.115,0.44,0.115
	c0.251,0,0.498-0.104,0.675-0.301c2.264-2.52,4.783-4.595,7.488-6.165c0.449-0.261,0.961-0.398,1.479-0.398
	c0.513,0,1.022,0.136,1.47,0.391c9.067,5.201,14.806,14.603,15.35,25.15c0.012,0.24,0.12,0.465,0.298,0.627
	c16.159,14.61,29.04,32.956,37.251,53.056c0.301,0.733,0.299,1.535-0.005,2.261c-0.304,0.724-0.873,1.287-1.604,1.583
	c-0.355,0.141-0.733,0.213-1.114,0.213c-1.204,0-2.277-0.72-2.734-1.835c-7.123-17.442-18.013-33.675-31.493-46.945
	c-0.172-0.169-0.401-0.261-0.636-0.261c-0.08,0-0.161,0.011-0.241,0.032c-0.312,0.087-0.554,0.331-0.636,0.644
	c-1.464,5.577-4.484,10.637-8.735,14.633c-0.176,0.164-0.278,0.393-0.285,0.634c-0.007,0.241,0.082,0.474,0.248,0.649
	c8.127,8.569,14.846,18.048,19.969,28.176c0.357,0.701,0.417,1.499,0.172,2.248c-0.245,0.748-0.767,1.356-1.47,1.713
	C169.017,249.879,168.559,249.987,168.095,249.987z M143.621,194.069c1.625,0,2.947,1.321,2.947,2.946v12.956
	c0,0.375,0.23,0.71,0.58,0.846c0.106,0.04,0.217,0.061,0.327,0.061c0.251,0,0.496-0.104,0.671-0.297
	c4.196-4.622,6.507-10.576,6.507-16.766c0-8.076-3.924-15.683-10.497-20.349c-0.157-0.111-0.341-0.167-0.525-0.167
	c-0.185,0-0.37,0.057-0.527,0.169c-6.584,4.708-10.515,12.314-10.515,20.347c0,6.16,2.311,12.103,6.506,16.735
	c0.175,0.193,0.421,0.298,0.672,0.298c0.11,0,0.22-0.021,0.326-0.061c0.35-0.135,0.58-0.471,0.58-0.846v-12.925
	C140.673,195.39,141.996,194.069,143.621,194.069z M36.334,173.329c-0.187,0-0.375,0.058-0.534,0.174
	c-5.556,4.046-8.742,10.367-8.742,17.342c0,4.953,1.635,9.592,4.727,13.415c0.176,0.216,0.436,0.336,0.705,0.336
	c0.101,0,0.203-0.018,0.302-0.052c0.362-0.128,0.604-0.471,0.604-0.855v-10.085c0-1.625,1.322-2.946,2.947-2.946
	c1.625,0,2.948,1.321,2.948,2.946v9.955c0,0.386,0.244,0.73,0.609,0.857c0.097,0.033,0.198,0.05,0.297,0.05
	c0.272,0,0.536-0.123,0.712-0.345c2.999-3.799,4.65-8.517,4.65-13.286c0-6.948-3.167-13.264-8.688-17.328
	C36.711,173.388,36.523,173.329,36.334,173.329z M16.686,52.355C7.513,52.354,0.05,44.86,0.05,35.649
	c0-6.457,3.782-12.397,9.633-15.134c0.291-0.136,0.488-0.416,0.518-0.735C11.28,8.508,20.672,0.008,32.049,0.008
	c10.694,0,19.763,7.647,21.565,18.183c0.075,0.436,0.452,0.754,0.894,0.754h1.425c9.217,0,16.715,7.493,16.715,16.704
	c0,9.212-7.498,16.705-16.715,16.705H16.686z M32.06,5.892c-8.855,0-16.059,7.174-16.059,15.99v0.511c0,1.32-0.886,2.489-2.156,2.84
	c-4.577,1.271-7.899,5.652-7.899,10.417c0,5.962,4.818,10.812,10.741,10.812l39.257-0.011c5.966,0,10.821-4.85,10.821-10.811
	S61.91,24.829,55.944,24.829h-4.947c-1.625,0-2.947-1.322-2.947-2.947C48.049,13.066,40.877,5.892,32.06,5.892z M155.995,47.77
	c-1.625,0-2.947-1.322-2.947-2.947V24c0-1.625,1.322-2.947,2.947-2.947h20.903c1.625,0,2.947,1.322,2.947,2.947v20.823
	c0,1.625-1.322,2.947-2.947,2.947H155.995z M159.848,26.946c-0.501,0-0.906,0.406-0.906,0.907v13.116
	c0,0.501,0.406,0.907,0.906,0.907h13.197c0.501,0,0.907-0.406,0.907-0.907V27.853c0-0.501-0.406-0.907-0.907-0.907H159.848z"/>
  </symbol>

    <!-- charger -->
  <symbol id="charger" viewBox="0 0 250 250">
<g>
	<path d="M74.833,97.247h19.1c1.611,0,2.922-1.31,2.922-2.922c0-1.611-1.31-2.922-2.922-2.922h-19.1
		c-1.611,0-2.922,1.31-2.922,2.922C71.911,95.936,73.222,97.247,74.833,97.247z"/>
	<path d="M74.833,70.913h19.1c1.611,0,2.922-1.31,2.922-2.922s-1.31-2.922-2.922-2.922h-19.1c-1.611,0-2.922,1.31-2.922,2.922
		S73.222,70.913,74.833,70.913z"/>
	<path d="M74.833,84.078h19.1c1.611,0,2.922-1.31,2.922-2.922c0-1.611-1.31-2.922-2.922-2.922h-19.1
		c-1.611,0-2.922,1.31-2.922,2.922C71.911,82.768,73.222,84.078,74.833,84.078z"/>
	<path d="M107.731,159.529L94.243,158.6l2.559-13.252c0.166-0.857-0.056-1.736-0.614-2.414c-0.557-0.674-1.378-1.06-2.252-1.06
		h-19.1c-1.301,0-2.457,0.873-2.811,2.124l-10.733,37.836c-0.27,0.946-0.047,1.958,0.596,2.707c0.555,0.643,1.368,1.011,2.231,1.011
		c0.117,0,0.235-0.007,0.357-0.02l13.976-1.807l-0.752,22.606c-0.046,1.325,0.81,2.517,2.082,2.897
		c0.275,0.081,0.557,0.122,0.837,0.122c1.026,0,1.958-0.522,2.492-1.396l26.908-43.986c0.532-0.864,0.571-1.961,0.106-2.864
		C109.661,160.203,108.743,159.599,107.731,159.529z M83.907,195.451l0.497-14.971c0.029-0.859-0.318-1.682-0.954-2.26
		c-0.541-0.489-1.239-0.758-1.966-0.758c-0.124,0-0.244,0.009-0.374,0.023l-12.994,1.679l8.922-31.451h13.35l-2.511,13.018
		c-0.159,0.817,0.041,1.668,0.551,2.336c0.51,0.661,1.281,1.074,2.117,1.132l11.977,0.827L83.907,195.451z"/>
	<path d="M246.074,30.759h-26.417c-0.121,0-0.222,0.029-0.296,0.05l-0.107,0.016l-0.107-0.005c-0.029,0-0.125,0.01-0.154,0.016
		l-17.348,4.033c-1.355,0.316-2.608,0.979-3.623,1.917l-19.247,17.714c-1.968,1.813-3.081,4.286-3.138,6.96
		c-0.036,1.63,0.369,3.272,1.172,4.766c-13.892,15.316-17.087,37.193-8.129,55.815l37.557,78.1
		c2.556,5.305,0.573,11.795-4.511,14.774c-1.747,1.024-3.738,1.566-5.759,1.566c-2.742,0-5.396-0.993-7.474-2.796l-10.032-8.712
		c0.248-0.189,0.503-0.385,0.742-0.623c5.115-5.116,5.115-13.444,0-18.563l-13.394-13.396c-3.078-3.073-7.167-4.767-11.513-4.767
		h-8.834c-0.015-4.47-3.658-8.101-8.133-8.101h-4.104v-38.817c0-0.117-0.006-0.235-0.02-0.349l-1.999-16.491l8.116-68.331
		c0.102-0.864-0.181-1.721-0.78-2.356c-0.563-0.592-1.299-0.917-2.073-0.917c-0.081,0-0.163,0.003-0.236,0.01l-13.545,0.86
		l-0.96-7.958l19.715-4.855c5.203-1.283,8.395-6.56,7.114-11.761c-1.069-4.357-4.949-7.4-9.434-7.4
		c-0.785,0-1.568,0.095-2.329,0.282L32.322,27.165c-6.419,1.581-10.902,7.301-10.902,13.907v189.485H6.365
		c-4.061,0-7.365,3.306-7.365,7.371v4.701C-1,246.694,2.304,250,6.365,250h135.112c4.064,0,7.37-3.306,7.37-7.371v-4.701
		c0-4.065-3.306-7.371-7.37-7.371h-8.248v-12.531h4.104c4.485,0,8.134-3.646,8.134-8.128v-5.182h2.868
		c2.287,0,4.522-0.926,6.133-2.54c0.507-0.507,1.236-0.797,2.002-0.797c0.764,0,1.493,0.29,2.001,0.797l2.169,2.171
		c2.475,2.476,5.771,3.839,9.284,3.839c0.891,0,1.844-0.121,2.91-0.368l11.831,10.277c3.137,2.728,7.152,4.231,11.306,4.231
		c3.058,0,6.07-0.82,8.709-2.369c7.691-4.504,10.69-14.32,6.826-22.35l-37.557-78.097c-7.883-16.385-5.115-35.661,7.039-49.196
		c1.106,0.563,2.29,0.901,3.526,1.009l3.226,8.19c1.61,4.078,3.404,4.766,6.816,4.766l4.104-0.01c3.033,0,6-1.229,8.143-3.37
		c0.052-0.051,0.12-0.08,0.193-0.08c0.072,0,0.138,0.028,0.19,0.081c2.177,2.174,5.069,3.371,8.145,3.371
		c6.348,0,11.512-5.166,11.512-11.514c0-0.358-0.064-0.709-0.19-1.043l-2.575-6.732l21.71,2.163c0.097,0.01,0.195,0.015,0.292,0.015
		c0.719,0,1.433-0.276,1.96-0.756c0.611-0.551,0.962-1.341,0.962-2.166V33.68C248.994,32.07,247.682,30.759,246.074,30.759z
		 M133.111,38.325l-4.859,40.908l-4.859-40.29L133.111,38.325z M127.386,120.856v109.701h-86.52V48.893
		c0-2.246,1.52-4.185,3.697-4.719l71.454-17.593L127.386,120.856z M27.263,41.072c0-3.911,2.655-7.297,6.457-8.234L138.2,7.115
		c0.299-0.075,0.607-0.113,0.913-0.113c1.767,0,3.355,1.241,3.777,2.95c0.246,1.005,0.087,2.046-0.451,2.934
		c-0.536,0.888-1.385,1.512-2.39,1.759L43.164,38.499c-4.794,1.182-8.143,5.456-8.143,10.395v181.664h-7.758V41.072z M141.477,236.4
		c0.842,0,1.527,0.685,1.527,1.528v4.701c0,0.842-0.684,1.527-1.527,1.527H6.365c-0.839,0-1.522-0.685-1.522-1.527v-4.701
		c0-0.842,0.682-1.528,1.522-1.528H141.477z M139.623,209.898c0,1.26-1.027,2.285-2.29,2.285h-4.104v-46.819h4.104
		c1.263,0,2.29,1.025,2.29,2.286V209.898z M175.075,200.217c-1.375,1.374-3.204,2.13-5.151,2.13c-1.948,0-3.779-0.757-5.154-2.132
		l-2.168-2.169c-1.562-1.565-3.797-2.463-6.133-2.463c-2.336,0-4.572,0.898-6.135,2.464c-0.521,0.524-1.249,0.825-1.999,0.825
		h-2.868v-25.405h8.833c2.786,0,5.408,1.086,7.382,3.057l13.393,13.394C177.913,192.758,177.913,197.378,175.075,200.217z
		 M187.797,64.707c-0.664,0.531-1.522,0.823-2.415,0.823c-1.053,0-2.062-0.405-2.768-1.11c-0.755-0.758-1.159-1.765-1.135-2.835
		c0.02-1.07,0.466-2.059,1.255-2.786l19.25-17.716c0.278-0.257,0.62-0.437,0.988-0.521l13.763-3.2v21.321h-18.578
		c-1.816,0-3.6,0.625-5.023,1.761L187.797,64.707z M215.327,78.424c-1.514,0-2.94-0.59-4.014-1.662
		c-1.151-1.15-2.684-1.783-4.318-1.783s-3.17,0.634-4.325,1.785c-1.052,1.055-2.514,1.66-4.01,1.66l-3.792,0.009
		c-0.578,0.007-0.951,0.011-1.197,0.031c-0.094-0.168-0.256-0.494-0.495-1.093l-2.882-7.318c0.422-0.244,0.802-0.503,1.154-0.785
		l5.333-4.26c0.392-0.312,0.883-0.484,1.38-0.484h19.487l3.329,8.712C220.726,76.152,218.261,78.424,215.327,78.424z
		 M243.151,61.007l-20.573-2.048V36.603h20.573V61.007z"/>
</g>
  </symbol>

  <!-- maintenance -->
  <symbol id="maintenance" viewBox="0 0 250 250">
<g>
	<path d="M153.49,195.766c-0.442,0-0.88,0.125-1.351,0.39c-5.311,2.903-10.912,5.209-16.647,6.852
		c-1.273,0.365-2.161,1.545-2.161,2.87v19.755c0,3.51-2.857,6.367-6.368,6.367H98.876c-3.511,0-6.368-2.856-6.368-6.367v-19.755
		c0-1.34-0.87-2.494-2.161-2.87c-5.723-1.636-11.323-3.942-16.645-6.851c-0.437-0.238-0.932-0.364-1.428-0.364
		c-0.796,0-1.544,0.309-2.106,0.871l-13.955,13.912c-1.133,1.196-2.775,1.883-4.505,1.883c-1.741,0-3.399-0.693-4.529-1.88
		l-19.824-19.824c-1.208-1.171-1.898-2.837-1.891-4.572c0.006-1.713,0.698-3.352,1.875-4.473l13.915-13.957
		c0.928-0.935,1.138-2.388,0.511-3.532c-2.893-5.274-5.198-10.875-6.853-16.648c-0.364-1.273-1.545-2.162-2.871-2.162H12.287
		c-3.511,0-6.368-2.856-6.368-6.368v-28.087c0-3.51,2.857-6.367,6.368-6.367h19.754c1.341,0,2.495-0.871,2.871-2.162
		c1.637-5.723,3.942-11.323,6.851-16.645c0.641-1.177,0.439-2.595-0.506-3.534L27.344,68.293c-1.196-1.133-1.884-2.772-1.886-4.495
		c-0.003-1.742,0.692-3.405,1.883-4.539l19.824-19.825c1.161-1.199,2.818-1.887,4.547-1.887c1.725,0,3.372,0.69,4.498,1.871
		L70.17,53.337c0.561,0.561,1.309,0.87,2.106,0.87c0.505,0,1.008-0.129,1.449-0.371c5.133-2.85,10.73-5.154,16.632-6.844
		c1.273-0.366,2.162-1.547,2.162-2.871V24.366c0-3.51,2.857-6.367,6.368-6.367h28.087c3.511,0,6.368,2.856,6.368,6.367v19.755
		c0,1.321,0.885,2.496,2.153,2.86c5.684,1.641,11.189,3.888,16.363,6.679c0.042,0.022,0.082,0.047,0.121,0.074
		c0.436,0.304,0.971,0.465,1.548,0.465c0.915,0,1.823-0.41,2.37-1.071c0.026-0.031,0.053-0.06,0.081-0.089l13.656-13.613
		c1.129-1.198,2.768-1.886,4.497-1.886c1.741,0,3.403,0.692,4.539,1.88l19.825,19.824c1.208,1.171,1.898,2.837,1.891,4.573
		c-0.007,1.713-0.699,3.352-1.875,4.472l-13.915,13.957c-0.928,0.935-1.138,2.388-0.511,3.532
		c2.893,5.274,5.198,10.875,6.852,16.648c0.365,1.272,1.546,2.162,2.871,2.162h9.63c2.016-0.024,2.921-1.523,2.925-2.999
		c0.004-1.343-0.762-2.926-2.911-2.963h-6.514c-0.541,0-1.019-0.347-1.187-0.861c-1.339-4.099-3.012-8.161-4.974-12.073
		c-0.241-0.481-0.147-1.061,0.232-1.442l11.731-11.762c2.279-2.166,3.591-5.328,3.6-8.678c0.008-3.368-1.297-6.558-3.602-8.77
		l-19.858-19.858c-2.174-2.275-5.358-3.58-8.734-3.58c-3.365,0-6.525,1.303-8.697,3.602L153.691,46.92
		c-0.24,0.239-0.559,0.364-0.882,0.364c-0.19,0-0.381-0.043-0.559-0.132c-3.872-1.941-7.934-3.611-12.074-4.962
		c-0.514-0.168-0.862-0.647-0.862-1.188V24.366c0-6.799-5.531-12.33-12.329-12.33H98.897c-6.798,0-12.329,5.531-12.329,12.33v16.624
		c0,0.54-0.348,1.02-0.863,1.188c-4.168,1.357-8.229,3.03-12.07,4.971c-0.178,0.091-0.371,0.134-0.563,0.134
		c-0.323,0-0.643-0.125-0.882-0.364L60.438,35.197c-2.164-2.286-5.338-3.597-8.711-3.597c-3.363,0-6.539,1.305-8.734,3.6
		L23.133,55.06c-2.284,2.185-3.591,5.373-3.583,8.749c0.007,3.352,1.312,6.507,3.604,8.682l11.728,11.76
		c0.38,0.381,0.473,0.961,0.232,1.441c-1.972,3.934-3.645,7.996-4.973,12.073c-0.168,0.514-0.647,0.862-1.188,0.862H12.329
		C5.531,98.626,0,104.157,0,110.956v28.087c0,6.799,5.531,12.33,12.329,12.33h16.592c0.541,0,1.019,0.347,1.187,0.861
		c1.34,4.101,3.014,8.164,4.974,12.073c0.241,0.481,0.147,1.061-0.232,1.442l-11.73,11.762c-2.279,2.166-3.591,5.329-3.6,8.678
		c-0.009,3.368,1.297,6.558,3.601,8.77l19.858,19.859c2.174,2.274,5.358,3.579,8.734,3.579c3.365,0,6.525-1.303,8.697-3.601
		l11.76-11.728c0.24-0.239,0.559-0.364,0.882-0.364c0.19,0,0.382,0.043,0.559,0.132c3.929,1.971,7.991,3.643,12.072,4.973
		c0.514,0.168,0.863,0.647,0.863,1.188v16.624c0,6.799,5.531,12.33,12.329,12.33h28.087c6.799,0,12.329-5.531,12.329-12.33v-16.624
		c0-0.541,0.348-1.02,0.862-1.188c4.155-1.356,8.245-3.043,12.156-5.014c0.178-0.089,0.37-0.133,0.562-0.133
		c0.236,0,0.471,0.066,0.676,0.198c0.493,0.317,1.007,0.477,1.529,0.477c1.18,0,2.349-0.839,2.843-2.042
		c0.262-0.638,0.524-1.885-0.736-3.135C155.79,196.549,154.582,195.766,153.49,195.766z"/>
	<path d="M155.104,174.9c-0.623,0-1.236,0.232-1.814,0.684c-11.606,9.233-25.559,14.113-40.407,14.113c-0.001,0-0.004,0-0.005,0
		c-44.2-1.833-64.327-34.828-64.323-64.709C48.559,95.109,68.69,62.121,112.931,60.3c8.211,0,16.165,1.51,23.638,4.485
		c0.356,0.14,0.726,0.211,1.103,0.211c0,0,0,0,0,0c1.231,0,2.322-0.739,2.779-1.881c0.294-0.737,0.283-1.547-0.034-2.278
		c-0.317-0.734-0.898-1.301-1.562-1.569c-9.703-3.158-19.159-4.76-28.104-4.76c-42.555,0-66.685,35.914-67.784,69.706
		c-0.583,17.924,5.05,34.698,15.863,47.233c12.363,14.331,31.086,22.704,54.142,24.215c16.148-0.01,31.373-5.338,44.019-15.403
		c1.419-1.154,1.221-2.482,0.976-3.169C157.516,175.82,156.312,174.9,155.104,174.9z"/>
	<path d="M217.395,58.832c-0.364-0.185-0.759-0.279-1.175-0.279c-0.808,0-1.645,0.365-2.24,0.976
		c-0.542,0.557-0.829,1.263-0.809,2.019v46.212c0,0.521-0.323,0.986-0.811,1.17l-23.391,8.767c-0.142,0.052-0.29,0.079-0.438,0.079
		s-0.297-0.027-0.438-0.079L164.7,108.93c-0.54-0.203-0.857-0.741-0.799-1.295V61.551c0-1.024-0.519-1.966-1.383-2.517
		c-0.481-0.303-1.036-0.463-1.604-0.463c-0.443,0-0.872,0.096-1.27,0.281c-20.223,9.533-32.786,28.071-32.786,48.384
		c0,21.806,14.592,41.518,37.174,50.217c0.482,0.186,0.8,0.649,0.8,1.166v55.647c0,13.067,10.63,23.698,23.698,23.698
		c13.067,0,23.698-10.631,23.698-23.698v-55.647c0-0.518,0.32-0.982,0.803-1.167c21.997-8.4,36.149-27.023,36.932-48.601
		C250.743,87.433,238.582,68.742,217.395,58.832z M243.794,112.183c-2.264,18.616-15.858,34.181-35.474,40.62
		c-1.215,0.402-2.031,1.537-2.031,2.823l-0.001,58.656c-0.38,12.055-9.464,17.547-17.742,17.548c-0.002,0-0.002,0-0.003,0
		c-8.266,0-17.339-5.492-17.726-17.588v-58.617c0-1.285-0.816-2.419-2.027-2.822c-19.62-6.434-33.216-21.999-35.48-40.621
		c-2.148-17.665,6.353-34.329,22.739-44.576c0.202-0.126,0.432-0.189,0.662-0.189c0.208,0,0.417,0.051,0.605,0.156
		c0.398,0.221,0.644,0.639,0.644,1.093v42.016c0,1.235,0.78,2.358,1.939,2.796l27.62,10.353c0.339,0.126,0.692,0.19,1.049,0.19
		s0.711-0.064,1.047-0.19l27.442-10.285c0.046-0.025,0.096-0.047,0.146-0.066c1.162-0.44,1.943-1.564,1.943-2.798V68.666
		c0-0.454,0.247-0.873,0.644-1.093c0.188-0.105,0.397-0.156,0.605-0.156c0.231,0,0.461,0.063,0.663,0.19
		C237.443,77.862,245.942,94.526,243.794,112.183z"/>
	<path d="M188.576,200.928c-6.728,0.175-9.792,5.247-9.792,9.887c0,4.633,3.054,9.697,9.76,9.887
		c6.708-0.189,9.764-5.252,9.764-9.883C198.308,206.178,195.242,201.103,188.576,200.928z M188.536,214.74
		c-2.539-0.015-3.867-1.985-3.867-3.924c0-1.939,1.328-3.91,3.867-3.924c0.002,0,0.005,0,0.007,0c0.003,0,0.005,0,0.007,0
		c2.539,0.015,3.867,1.985,3.867,3.924C192.418,212.754,191.09,214.725,188.536,214.74z"/>
</g>
  </symbol>

  <!-- arrow -->
  <symbol id="arrow" viewBox="0 0 24 24">
	<path d="M18.41,13.41h0s-10,10-10,10c-.78.78-2.05.78-2.83,0-.69-.69-.77-1.75-.24-2.53l7.46-7.46h0c.78-.79.78-2.06,0-2.84L5.34,3.12c-.52-.78-.44-1.84.24-2.53.78-.78,2.05-.78,2.83,0l10,10c.78.78.78,2.05,0,2.83Z"/>
  </symbol>

	<!-- close -->
   <symbol id="close" viewBox="0 0 24 24">
	<path d="M23.29,4.099c0.937-0.937,0.937-2.459,0-3.396c-0.937-0.937-2.459-0.937-3.396,0L12,8.604L4.099,0.71
		c-0.937-0.937-2.459-0.937-3.396,0s-0.937,2.459,0,3.396L8.604,12L0.71,19.901c-0.937,0.937-0.937,2.459,0,3.396
		c0.937,0.937,2.459,0.937,3.396,0L12,15.396l7.901,7.894c0.937,0.937,2.459,0.937,3.396,0c0.937-0.937,0.937-2.459,0-3.396
		L15.396,12L23.29,4.099z"/>
  </symbol>

 </svg>
