<svg xmlns="http://www.w3.org/2000/svg" style="display: none;">
  <!-- Logo ecosolares -->
  <symbol id="lg-eco" viewBox="0 0 250 250">
<radialGradient id="SVGID_1_" cx="3087.9446" cy="1645.8359" r="530.648" gradientTransform="matrix(0.2006 0 0 -0.2006 -507.4644 382.4728)" gradientUnits="userSpaceOnUse">
	<stop  offset="0" style="stop-color:#F8BE14"/>
	<stop  offset="1" style="stop-color:#F05F27"/>
</radialGradient>
<path fill="url(#SVGID_1_)" d="M134.36,243.04c0.57,8.1-1.35,7.45,7.67,6.23c-0.29-5.77-2.13-13.09,7.04-14.37
	c17.23-2.41,28.95-6.08,28.56,1.3c-0.18,3.43-1.6,3.69,5.46,0c0.68-9.89,7.66-3.08,20.58-13.5c-9.75,1.19-19.95,4.37-19.44-3.1
	c0.88-12.71-0.82-25.42,8.1-25.52c12.88-0.14,24.26-2.68,23.08,5.39c-2.58,17.7-3.97,17.05,3.16,9.07l1.45-9.23
	c0.48-3.03,3.08-5.57,5.73-5.6c4.84-0.05,3.62,1.26,7.36-5.08c-5.05-0.06-11.56,1.02-10.46-5.98c2.59-16.44,2.49-27.05,9.4-26.01
	c16.3,2.44,13.58,3.59,15.23-3.68c-11.16-1.98-19.78-1.11-18.3-10.48c5.82-37.02,3.88-33.05,21.03-26.95
	C245.03,50.9,190.96,0,124.99,0C-18.37,0-48.8,203.25,88.41,245C92.15,242.16,133.66,233.23,134.36,243.04L134.36,243.04z
	 M190.1,134.37c1.4-20.36-0.11-40.19,10.4-36.46c19.4,6.9,28.63,7.24,27.01,18.39c-2.77,19.03-2.49,32.7-10.42,31.29
	C203.84,145.24,189.29,146.13,190.1,134.37L190.1,134.37z M188.47,157.99c0.76-10.98,13.9-5.8,27.73-3.73
	c7.65,1.15,4.06,11.78,1.67,28.22c-1.19,8.21-9.27,5.88-25.05,5.71C183.95,188.09,187.18,176.9,188.47,157.99L188.47,157.99z
	 M178.48,220.17c-0.41,7.77-10.57,6.87-29.57,9.19c-10.16,1.24-8.23-7.34-9.22-27.36c-0.51-10.35,16.2-7.54,33.23-7.73
	C182.23,194.17,179.33,204.27,178.48,220.17z M181.85,157.18c-0.92,17.25,1.35,30.9-8.7,30.79c-16.56-0.18-34.01,2.82-34.56-8.3
	c-0.9-18.27-5.89-37.91,7.98-35.84c23.47,3.51,35.86,2.66,35.28,13.36V157.18z M144.76,78.07c29.59,10.53,40.71,11.4,40.01,24.61
	c-1.18,22.04,1.17,39.38-9.9,37.41c-17.96-3.19-38.36-2.62-39.07-17.05C134.7,100.68,128.53,72.29,144.76,78.07z M54.36,106.07
	c-6.6-30.5-21.76-67.91,4.45-58.59c44.13,15.7,63.01,18.21,64.23,35.54c2.36,33.35,7.21,49.16-7.92,46.47
	C88.89,124.84,58.38,124.65,54.36,106.07L54.36,106.07z M69.75,177.22c-4.86-22.43-16.03-47.3,4.86-44.17
	c36.05,5.4,52.29,4.62,53.21,17.59c1.66,23.43,5.92,36.89-7.19,36.75C97.2,187.13,72.65,190.63,69.75,177.22z M75.58,204.16
	c-2.72-12.58,24.04-9.09,45.75-9.32c12.84-0.14,10.43,11.65,11.73,29.98c0.63,8.87-13.58,8.14-39.41,11.28
	C78.44,237.95,80.09,225.01,75.58,204.16L75.58,204.16z"/>
<radialGradient id="SVGID_00000017504061878505761190000001346578316466095526_" cx="3125.1443" cy="1571.3878" r="547.9407" gradientTransform="matrix(0.2006 0 0 -0.1685 -507.4644 364.423)" gradientUnits="userSpaceOnUse">
	<stop  offset="0" style="stop-color:#F8BE14"/>
	<stop  offset="1" style="stop-color:#F05F27"/>
</radialGradient>
<path opacity="0.48" fill="url(#SVGID_00000017504061878505761190000001346578316466095526_)" enable-background="new    " d="
	M238.64,72.4c-18.12-6.12-37.87-9.5-58.5-9.5s-42.12,3.62-60.87,10.25c-7.37-9.25-26.37-13.5-60.5-25.62
	c-26.13-9.38-11,28-4.38,58.5c0.5,2.38,1.5,4.5,2.88,6.38c-21.75,22.62-34.75,51.5-34.75,82.75c0,1.37,0,2.75,0.13,4.12
	c-53.14-74-10.14-199.25,102.35-199.25C175.4,0.03,218.76,29.65,238.64,72.4z"/>
  </symbol>

  <!-- Logo ecosolares tema escuro -->
  <symbol id="lg-eco-w" viewBox="0 0 250 250">
    <path fill="#fcfcfc" d="M134.37,243.04c.57,8.1-1.35,7.45,7.67,6.23-.29-5.77-2.13-13.09,7.04-14.37,17.23-2.41,28.95-6.08,28.56,1.3-.18,3.43-1.6,3.69,5.46,0,.68-9.89,7.66-3.08,20.58-13.5-9.75,1.19-19.95,4.37-19.44-3.1.88-12.71-.82-25.42,8.1-25.52,12.88-.14,24.26-2.68,23.08,5.39-2.58,17.7-3.97,17.05,3.16,9.07l1.45-9.23c.48-3.03,3.08-5.57,5.73-5.6,4.84-.05,3.62,1.26,7.36-5.08-5.05-.06-11.56,1.02-10.46-5.98,2.59-16.44,2.49-27.05,9.4-26.01,16.3,2.44,13.58,3.59,15.23-3.68-11.16-1.98-19.78-1.11-18.3-10.48,5.82-37.02,3.88-33.05,21.03-26.95C245.05,50.9,190.98,0,125,0-18.37,0-48.8,203.25,88.42,245c3.74-2.84,45.25-11.77,45.94-1.96ZM190.12,134.37c1.4-20.36-.11-40.19,10.4-36.46,19.4,6.9,28.63,7.24,27.01,18.39-2.77,19.03-2.49,32.7-10.42,31.29-13.25-2.35-27.8-1.46-26.99-13.23ZM188.49,157.99c.76-10.98,13.9-5.8,27.73-3.73,7.65,1.15,4.06,11.78,1.67,28.22-1.19,8.21-9.27,5.88-25.05,5.71-8.88-.1-5.65-11.29-4.35-30.2ZM178.49,220.17c-.41,7.77-10.57,6.87-29.57,9.19-10.16,1.24-8.23-7.34-9.22-27.36-.51-10.35,16.2-7.54,33.23-7.73,9.31-.1,6.41,10,5.56,25.9ZM181.86,157.18c-.92,17.25,1.35,30.9-8.7,30.79-16.56-.18-34.01,2.82-34.56-8.3-.9-18.27-5.89-37.91,7.98-35.84,23.47,3.51,35.86,2.66,35.28,13.36ZM144.77,78.07c29.59,10.53,40.71,11.4,40.01,24.61-1.18,22.04,1.17,39.38-9.9,37.41-17.96-3.19-38.36-2.62-39.07-17.05-1.1-22.36-7.27-50.75,8.96-44.97ZM54.36,106.07c-6.6-30.5-21.76-67.91,4.45-58.59,44.13,15.7,63.02,18.21,64.24,35.54,2.36,33.35,7.21,49.16-7.92,46.47-26.23-4.65-56.75-4.84-60.77-23.43ZM69.76,177.22c-4.86-22.43-16.03-47.3,4.86-44.17,36.05,5.4,52.29,4.62,53.21,17.59,1.66,23.43,5.92,36.89-7.19,36.75-23.43-.26-47.98,3.24-50.88-10.17ZM75.59,204.16c-2.72-12.58,24.04-9.09,45.75-9.32,12.84-.14,10.43,11.65,11.73,29.98.63,8.87-13.58,8.14-39.41,11.28-15.21,1.85-13.56-11.09-18.07-31.94Z"/>
  </symbol>

  <!-- Logo ecosolares tema claro -->

  <symbol id="lg-eco-b" viewBox="0 0 250 250">
    <path fill="#0c0c0c" d="M134.37,243.04c.57,8.1-1.35,7.45,7.67,6.23-.29-5.77-2.13-13.09,7.04-14.37,17.23-2.41,28.95-6.08,28.56,1.3-.18,3.43-1.6,3.69,5.46,0,.68-9.89,7.66-3.08,20.58-13.5-9.75,1.19-19.95,4.37-19.44-3.1.88-12.71-.82-25.42,8.1-25.52,12.88-.14,24.26-2.68,23.08,5.39-2.58,17.7-3.97,17.05,3.16,9.07l1.45-9.23c.48-3.03,3.08-5.57,5.73-5.6,4.84-.05,3.62,1.26,7.36-5.08-5.05-.06-11.56,1.02-10.46-5.98,2.59-16.44,2.49-27.05,9.4-26.01,16.3,2.44,13.58,3.59,15.23-3.68-11.16-1.98-19.78-1.11-18.3-10.48,5.82-37.02,3.88-33.05,21.03-26.95C245.05,50.9,190.98,0,125,0-18.37,0-48.8,203.25,88.42,245c3.74-2.84,45.25-11.77,45.94-1.96ZM190.12,134.37c1.4-20.36-.11-40.19,10.4-36.46,19.4,6.9,28.63,7.24,27.01,18.39-2.77,19.03-2.49,32.7-10.42,31.29-13.25-2.35-27.8-1.46-26.99-13.23ZM188.49,157.99c.76-10.98,13.9-5.8,27.73-3.73,7.65,1.15,4.06,11.78,1.67,28.22-1.19,8.21-9.27,5.88-25.05,5.71-8.88-.1-5.65-11.29-4.35-30.2ZM178.49,220.17c-.41,7.77-10.57,6.87-29.57,9.19-10.16,1.24-8.23-7.34-9.22-27.36-.51-10.35,16.2-7.54,33.23-7.73,9.31-.1,6.41,10,5.56,25.9ZM181.86,157.18c-.92,17.25,1.35,30.9-8.7,30.79-16.56-.18-34.01,2.82-34.56-8.3-.9-18.27-5.89-37.91,7.98-35.84,23.47,3.51,35.86,2.66,35.28,13.36ZM144.77,78.07c29.59,10.53,40.71,11.4,40.01,24.61-1.18,22.04,1.17,39.38-9.9,37.41-17.96-3.19-38.36-2.62-39.07-17.05-1.1-22.36-7.27-50.75,8.96-44.97ZM54.36,106.07c-6.6-30.5-21.76-67.91,4.45-58.59,44.13,15.7,63.02,18.21,64.24,35.54,2.36,33.35,7.21,49.16-7.92,46.47-26.23-4.65-56.75-4.84-60.77-23.43ZM69.76,177.22c-4.86-22.43-16.03-47.3,4.86-44.17,36.05,5.4,52.29,4.62,53.21,17.59,1.66,23.43,5.92,36.89-7.19,36.75-23.43-.26-47.98,3.24-50.88-10.17ZM75.59,204.16c-2.72-12.58,24.04-9.09,45.75-9.32,12.84-.14,10.43,11.65,11.73,29.98.63,8.87-13.58,8.14-39.41,11.28-15.21,1.85-13.56-11.09-18.07-31.94Z"/>
  </symbol>
</svg>
