<svg xmlns="http://www.w3.org/2000/svg" style="display: none;">
  <!-- Logo ecosolares -->
  <symbol id="lg-eco" viewBox="0 0 20 20">
    <title>logo ecosolares</title>
    <path fill="#fab300" d="M17.53 11.3 l 2.47 -1.3 l -2.47 -1.3 c -0.08 -0.46 -0.2 -0.9 -0.36 -1.34 l 1.49 -2.36 l -2.79 0.11 c -0.15 -0.18 -0.3 -0.35 -0.47 -0.51 c -0.16 -0.16 -0.33 -0.32 -0.51 -0.47 l 0.11 -2.79 l -2.36 1.49 c -0.43 -0.16 -0.88 -0.28 -1.34 -0.36 l -1.3 -2.47 l -1.3 2.47 c -0.46 0.08 -0.9 0.2 -1.34 0.36 l -2.36 -1.49 l 0.11 2.79 c -0.18 0.15 -0.35 0.3 -0.51 0.47 c -0.16 0.16 -0.32 0.33 -0.47 0.51 l -2.79 -0.11 l 1.49 2.36 c -0.16 0.43 -0.28 0.88 -0.36 1.34 l -2.47 1.3 l 2.47 1.3 c 0.08 0.46 0.2 0.9 0.36 1.34 l -1.49 2.36 l 2.79 -0.11 c 0.15 0.18 0.3 0.35 0.47 0.51 c 0.16 0.16 0.33 0.32 0.51 0.47 l -0.11 2.79 l 2.36 -1.49 c 0.43 0.16 0.88 0.28 1.34 0.36 l 1.3 2.47 l 1.3 -2.47 c 0.46 -0.08 0.9 -0.2 1.34 -0.36 l 2.36 1.49 l -0.11 -2.79 c 0.18 -0.15 0.35 -0.3 0.51 -0.47 c 0.16 -0.16 0.32 -0.33 0.47 -0.51 l 2.79 0.11 l -1.49 -2.36 c 0.16 -0.43 0.28 -0.88 0.36 -1.34 Z M 15.89 12.49 c -0.32 0.76 -0.78 1.44 -1.37 2.03 c -0.59 0.59 -1.27 1.05 -2.03 1.37 c -0.79 0.33 -1.62 0.5 -2.49 0.5 s -1.7 -0.17 -2.49 -0.5 c -0.76 -0.32 -1.44 -0.78 -2.03 -1.37 c -0.59 -0.59 -1.05 -1.27 -1.37 -2.03 c -0.33 -0.79 -0.5 -1.62 -0.5 -2.49 s 0.17 -1.7 0.5 -2.49 c 0.32 -0.76 0.78 -1.44 1.37 -2.03 c 0.59 -0.59 1.27 -1.05 2.03 -1.37 c 0.79 -0.33 1.62 -0.5 2.49 -0.5 s 1.7 0.17 2.49 0.5 c 0.76 0.32 1.44 0.78 2.03 1.37 c 0.59 0.59 1.05 1.27 1.37 2.03 c 0.33 0.79 0.5 1.62 0.5 2.49 s -0.17 1.7 -0.5 2.49 Z"/>
    <polygon fill="#fab300" points="10.34 5.44 7.18 11.12 9.49 11.12 9.66 14.6 12.82 8.91 10.51 8.91 10.34 5.44"/>
  </symbol>
  
  <!-- Logo Banco do Brasil -->
  <symbol id="lg-banco-do-brasil" viewBox="0 0 20 20">
    <title>logo banco do brasil</title>
    <rect x="2" y="2" width="16" height="16" rx="2"/>
    <text x="10" y="12" font-family="Arial" font-size="8" fill="#000000" text-anchor="middle">BB</text>
  </symbol>
  
  <!-- Logo Santander -->
  <symbol id="lg-santander" viewBox="0 0 20 20">
    <title>logo santander</title>
    <circle cx="10" cy="10" r="8"/>
    <text x="10" y="12" font-family="Arial" font-size="8" fill="#000000" text-anchor="middle">S</text>
  </symbol>
  
  <!-- Logo Caixa -->
  <symbol id="lg-caixa" viewBox="0 0 20 20">
    <title>logo caixa</title>
    <rect x="2" y="2" width="16" height="16"/>
    <text x="10" y="12" font-family="Arial" font-size="8" fill="#000000" text-anchor="middle">C</text>
  </symbol>
  
  <!-- Logo Bradesco (placeholder) -->
  <symbol id="lg-bradesco" viewBox="0 0 20 20">
    <title>logo bradesco</title>
    <rect x="2" y="2" width="16" height="16" rx="2"/>
    <text x="10" y="12" font-family="Arial" font-size="8" fill="#000000" text-anchor="middle">B</text>
  </symbol>
  
  <!-- Logo Itaú (placeholder) -->
  <symbol id="lg-itau" viewBox="0 0 20 20">
    <title>logo itau</title>
    <circle cx="10" cy="10" r="8"/>
    <text x="10" y="12" font-family="Arial" font-size="8" fill="#000000" text-anchor="middle">I</text>
  </symbol>
  
  <!-- Logo X -->
  <symbol id="x" viewBox="0 0 18 18">
    <title>logo x</title>
    <path d="M14.21.86h2.76l-6.03,6.89,7.09,9.38h-5.55l-4.35-5.69-4.98,5.69H.39l6.45-7.37L.04.86h5.69l3.93,5.19L14.21.86h0ZM13.24,15.48h1.53L4.91,2.43h-1.64l9.98,13.05h0Z"/>
  </symbol>
    
  <!-- Logo Telegram -->
  <symbol id="telegram" viewBox="0 0 18 18">
    <title>logo telegram</title>
    <path d="M1.24,7.96c4.82-2.1,8.05-3.49,9.66-4.16,4.6-1.91,5.55-2.25,6.18-2.26.13,0,.44.03.65.2.16.13.21.32.23.45.02.13.05.42.02.65-.24,2.62-1.32,8.97-1.87,11.91-.23,1.24-.69,1.66-1.13,1.7-.96.09-1.69-.64-2.63-1.24-1.46-.96-2.28-1.55-3.7-2.48-1.64-1.08-.58-1.67.36-2.64.24-.25,4.48-4.1,4.56-4.46,0-.04.02-.21-.07-.29-.1-.08-.24-.06-.34-.03-.15.03-2.47,1.57-6.98,4.61-.66.46-1.26.67-1.8.67-.59-.02-1.73-.33-2.58-.6C.77,9.62-.06,9.44,0,8.87c.04-.3.45-.6,1.23-.92h0Z"/>
  </symbol>
</svg>
