<svg xmlns="http://www.w3.org/2000/svg" style="display: none;">
  <!-- Logo ecosolares -->
  <symbol id="lg-eco" viewBox="0 0 250 250">
    <defs>
      <style>
        .st0 {
          fill: url(#Gradiente_sem_nome);
        }

        .st1 {
          fill: url(#Gradiente_sem_nome_2);
          mix-blend-mode: color-dodge;
          opacity: .48;
        }

        .st1, .st2 {
          isolation: isolate;
        }
      </style>
      <radialGradient id="Gradiente_sem_nome" data-name="Gradiente sem nome" cx="111.88" cy="199.79" fx="111.88" fy="199.79" r="106.44" gradientTransform="translate(.01 252.13) scale(1 -1)" gradientUnits="userSpaceOnUse">
        <stop offset="0" stop-color="#f8be14"/>
        <stop offset="1" stop-color="#f05f27"/>
      </radialGradient>
      <radialGradient id="Gradiente_sem_nome_2" data-name="Gradiente sem nome 2" cx="119.34" cy="73.49" fx="119.34" fy="73.49" r="109.91" gradientTransform="translate(.01 161.39) scale(1 -.84)" gradientUnits="userSpaceOnUse">
        <stop offset="0" stop-color="#f8be14"/>
        <stop offset="1" stop-color="#f05f27"/>
      </radialGradient>
    </defs>
    <g class="st2">
      <g id="Camada_11" data-name="logo-eco">
        <g>
          <path class="st0" d="M134.36,243.04c.57,8.1-1.35,7.45,7.67,6.23-.29-5.77-2.13-13.09,7.04-14.37,17.23-2.41,28.95-6.08,28.56,1.3-.18,3.43-1.6,3.69,5.46,0,.68-9.89,7.66-3.08,20.58-13.5-9.75,1.19-19.95,4.37-19.44-3.1.88-12.71-.82-25.42,8.1-25.52,12.88-.14,24.26-2.68,23.08,5.39-2.58,17.7-3.97,17.05,3.16,9.07l1.45-9.23c.48-3.03,3.08-5.57,5.73-5.6,4.84-.05,3.62,1.26,7.36-5.08-5.05-.06-11.56,1.02-10.46-5.98,2.59-16.44,2.49-27.05,9.4-26.01,16.3,2.44,13.58,3.59,15.23-3.68-11.16-1.98-19.78-1.11-18.3-10.48,5.82-37.02,3.88-33.05,21.03-26.95C245.03,50.9,190.96,0,124.99,0-18.37,0-48.8,203.25,88.41,245c3.74-2.84,45.25-11.77,45.94-1.96h0ZM190.1,134.37c1.4-20.36-.11-40.19,10.4-36.46,19.4,6.9,28.63,7.24,27.01,18.39-2.77,19.03-2.49,32.7-10.42,31.29-13.25-2.35-27.8-1.46-26.99-13.23h0ZM188.47,157.99c.76-10.98,13.9-5.8,27.73-3.73,7.65,1.15,4.06,11.78,1.67,28.22-1.19,8.21-9.27,5.88-25.05,5.71-8.88-.1-5.65-11.29-4.35-30.2h0ZM178.48,220.17c-.41,7.77-10.57,6.87-29.57,9.19-10.16,1.24-8.23-7.34-9.22-27.36-.51-10.35,16.2-7.54,33.23-7.73,9.31-.1,6.41,10,5.56,25.9ZM181.85,157.18c-.92,17.25,1.35,30.9-8.7,30.79-16.56-.18-34.01,2.82-34.56-8.3-.9-18.27-5.89-37.91,7.98-35.84,23.47,3.51,35.86,2.66,35.28,13.36h0ZM144.76,78.07c29.59,10.53,40.71,11.4,40.01,24.61-1.18,22.04,1.17,39.38-9.9,37.41-17.96-3.19-38.36-2.62-39.07-17.05-1.1-22.36-7.27-50.75,8.96-44.97ZM54.36,106.07c-6.6-30.5-21.76-67.91,4.45-58.59,44.13,15.7,63.01,18.21,64.23,35.54,2.36,33.35,7.21,49.16-7.92,46.47-26.23-4.65-56.75-4.84-60.77-23.43h0ZM69.75,177.22c-4.86-22.43-16.03-47.3,4.86-44.17,36.05,5.4,52.29,4.62,53.21,17.59,1.66,23.43,5.92,36.89-7.19,36.75-23.43-.26-47.98,3.24-50.88-10.17ZM75.58,204.16c-2.72-12.58,24.04-9.09,45.75-9.32,12.84-.14,10.43,11.65,11.73,29.98.63,8.87-13.58,8.14-39.41,11.28-15.21,1.85-13.56-11.09-18.07-31.94h0Z"/>
          <path class="st1" d="M238.64,72.4c-18.12-6.12-37.87-9.5-58.5-9.5s-42.12,3.62-60.87,10.25c-7.37-9.25-26.37-13.5-60.5-25.62-26.13-9.38-11,28-4.38,58.5.5,2.38,1.5,4.5,2.88,6.38-21.75,22.62-34.75,51.5-34.75,82.75,0,1.37,0,2.75.13,4.12C-30.47,125.28,12.53.03,125.02.03,175.4.03,218.76,29.65,238.64,72.4Z"/>
        </g>
      </g>
    </g>
  </symbol>

  <!-- Logo ecosolares tema escuro -->
  <symbol id="lg-eco-w" viewBox="0 0 250 250">
    <path fill="#fcfcfc" d="M134.37,243.04c.57,8.1-1.35,7.45,7.67,6.23-.29-5.77-2.13-13.09,7.04-14.37,17.23-2.41,28.95-6.08,28.56,1.3-.18,3.43-1.6,3.69,5.46,0,.68-9.89,7.66-3.08,20.58-13.5-9.75,1.19-19.95,4.37-19.44-3.1.88-12.71-.82-25.42,8.1-25.52,12.88-.14,24.26-2.68,23.08,5.39-2.58,17.7-3.97,17.05,3.16,9.07l1.45-9.23c.48-3.03,3.08-5.57,5.73-5.6,4.84-.05,3.62,1.26,7.36-5.08-5.05-.06-11.56,1.02-10.46-5.98,2.59-16.44,2.49-27.05,9.4-26.01,16.3,2.44,13.58,3.59,15.23-3.68-11.16-1.98-19.78-1.11-18.3-10.48,5.82-37.02,3.88-33.05,21.03-26.95C245.05,50.9,190.98,0,125,0-18.37,0-48.8,203.25,88.42,245c3.74-2.84,45.25-11.77,45.94-1.96ZM190.12,134.37c1.4-20.36-.11-40.19,10.4-36.46,19.4,6.9,28.63,7.24,27.01,18.39-2.77,19.03-2.49,32.7-10.42,31.29-13.25-2.35-27.8-1.46-26.99-13.23ZM188.49,157.99c.76-10.98,13.9-5.8,27.73-3.73,7.65,1.15,4.06,11.78,1.67,28.22-1.19,8.21-9.27,5.88-25.05,5.71-8.88-.1-5.65-11.29-4.35-30.2ZM178.49,220.17c-.41,7.77-10.57,6.87-29.57,9.19-10.16,1.24-8.23-7.34-9.22-27.36-.51-10.35,16.2-7.54,33.23-7.73,9.31-.1,6.41,10,5.56,25.9ZM181.86,157.18c-.92,17.25,1.35,30.9-8.7,30.79-16.56-.18-34.01,2.82-34.56-8.3-.9-18.27-5.89-37.91,7.98-35.84,23.47,3.51,35.86,2.66,35.28,13.36ZM144.77,78.07c29.59,10.53,40.71,11.4,40.01,24.61-1.18,22.04,1.17,39.38-9.9,37.41-17.96-3.19-38.36-2.62-39.07-17.05-1.1-22.36-7.27-50.75,8.96-44.97ZM54.36,106.07c-6.6-30.5-21.76-67.91,4.45-58.59,44.13,15.7,63.02,18.21,64.24,35.54,2.36,33.35,7.21,49.16-7.92,46.47-26.23-4.65-56.75-4.84-60.77-23.43ZM69.76,177.22c-4.86-22.43-16.03-47.3,4.86-44.17,36.05,5.4,52.29,4.62,53.21,17.59,1.66,23.43,5.92,36.89-7.19,36.75-23.43-.26-47.98,3.24-50.88-10.17ZM75.59,204.16c-2.72-12.58,24.04-9.09,45.75-9.32,12.84-.14,10.43,11.65,11.73,29.98.63,8.87-13.58,8.14-39.41,11.28-15.21,1.85-13.56-11.09-18.07-31.94Z"/>
  </symbol>

  <!-- Logo ecosolares tema claro -->

  <symbol id="lg-eco-b" viewBox="0 0 250 250">
    <path fill="#0c0c0c" d="M134.37,243.04c.57,8.1-1.35,7.45,7.67,6.23-.29-5.77-2.13-13.09,7.04-14.37,17.23-2.41,28.95-6.08,28.56,1.3-.18,3.43-1.6,3.69,5.46,0,.68-9.89,7.66-3.08,20.58-13.5-9.75,1.19-19.95,4.37-19.44-3.1.88-12.71-.82-25.42,8.1-25.52,12.88-.14,24.26-2.68,23.08,5.39-2.58,17.7-3.97,17.05,3.16,9.07l1.45-9.23c.48-3.03,3.08-5.57,5.73-5.6,4.84-.05,3.62,1.26,7.36-5.08-5.05-.06-11.56,1.02-10.46-5.98,2.59-16.44,2.49-27.05,9.4-26.01,16.3,2.44,13.58,3.59,15.23-3.68-11.16-1.98-19.78-1.11-18.3-10.48,5.82-37.02,3.88-33.05,21.03-26.95C245.05,50.9,190.98,0,125,0-18.37,0-48.8,203.25,88.42,245c3.74-2.84,45.25-11.77,45.94-1.96ZM190.12,134.37c1.4-20.36-.11-40.19,10.4-36.46,19.4,6.9,28.63,7.24,27.01,18.39-2.77,19.03-2.49,32.7-10.42,31.29-13.25-2.35-27.8-1.46-26.99-13.23ZM188.49,157.99c.76-10.98,13.9-5.8,27.73-3.73,7.65,1.15,4.06,11.78,1.67,28.22-1.19,8.21-9.27,5.88-25.05,5.71-8.88-.1-5.65-11.29-4.35-30.2ZM178.49,220.17c-.41,7.77-10.57,6.87-29.57,9.19-10.16,1.24-8.23-7.34-9.22-27.36-.51-10.35,16.2-7.54,33.23-7.73,9.31-.1,6.41,10,5.56,25.9ZM181.86,157.18c-.92,17.25,1.35,30.9-8.7,30.79-16.56-.18-34.01,2.82-34.56-8.3-.9-18.27-5.89-37.91,7.98-35.84,23.47,3.51,35.86,2.66,35.28,13.36ZM144.77,78.07c29.59,10.53,40.71,11.4,40.01,24.61-1.18,22.04,1.17,39.38-9.9,37.41-17.96-3.19-38.36-2.62-39.07-17.05-1.1-22.36-7.27-50.75,8.96-44.97ZM54.36,106.07c-6.6-30.5-21.76-67.91,4.45-58.59,44.13,15.7,63.02,18.21,64.24,35.54,2.36,33.35,7.21,49.16-7.92,46.47-26.23-4.65-56.75-4.84-60.77-23.43ZM69.76,177.22c-4.86-22.43-16.03-47.3,4.86-44.17,36.05,5.4,52.29,4.62,53.21,17.59,1.66,23.43,5.92,36.89-7.19,36.75-23.43-.26-47.98,3.24-50.88-10.17ZM75.59,204.16c-2.72-12.58,24.04-9.09,45.75-9.32,12.84-.14,10.43,11.65,11.73,29.98.63,8.87-13.58,8.14-39.41,11.28-15.21,1.85-13.56-11.09-18.07-31.94Z"/>
  </symbol>

  <!-- Logo Banco do Brasil -->
  <symbol id="lg-banco-do-brasil" viewBox="0 0 20 20">
    <title>logo banco do brasil</title>
    <rect x="2" y="2" width="16" height="16" rx="2"/>
    <text x="10" y="12" font-family="Arial" font-size="8" fill="#000000" text-anchor="middle">BB</text>
  </symbol>
  
  <!-- Logo Santander -->
  <symbol id="lg-santander" viewBox="0 0 20 20">
    <title>logo santander</title>
    <circle cx="10" cy="10" r="8"/>
    <text x="10" y="12" font-family="Arial" font-size="8" fill="#000000" text-anchor="middle">S</text>
  </symbol>
  
  <!-- Logo Caixa -->
  <symbol id="lg-caixa" viewBox="0 0 20 20">
    <title>logo caixa</title>
    <rect x="2" y="2" width="16" height="16"/>
    <text x="10" y="12" font-family="Arial" font-size="8" fill="#000000" text-anchor="middle">C</text>
  </symbol>
  
  <!-- Logo Bradesco (placeholder) -->
  <symbol id="lg-bradesco" viewBox="0 0 20 20">
    <title>logo bradesco</title>
    <rect x="2" y="2" width="16" height="16" rx="2"/>
    <text x="10" y="12" font-family="Arial" font-size="8" fill="#000000" text-anchor="middle">B</text>
  </symbol>
  
  <!-- Logo Itaú (placeholder) -->
  <symbol id="lg-itau" viewBox="0 0 20 20">
    <title>logo itau</title>
    <circle cx="10" cy="10" r="8"/>
    <text x="10" y="12" font-family="Arial" font-size="8" fill="#000000" text-anchor="middle">I</text>
  </symbol>
  
  <!-- Logo X -->
  <symbol id="x" viewBox="0 0 18 18">
    <title>logo x</title>
    <path d="M14.21.86h2.76l-6.03,6.89,7.09,9.38h-5.55l-4.35-5.69-4.98,5.69H.39l6.45-7.37L.04.86h5.69l3.93,5.19L14.21.86h0ZM13.24,15.48h1.53L4.91,2.43h-1.64l9.98,13.05h0Z"/>
  </symbol>
    
  <!-- Logo Telegram -->
  <symbol id="telegram" viewBox="0 0 18 18">
    <title>logo telegram</title>
    <path d="M1.24,7.96c4.82-2.1,8.05-3.49,9.66-4.16,4.6-1.91,5.55-2.25,6.18-2.26.13,0,.44.03.65.2.16.13.21.32.23.45.02.13.05.42.02.65-.24,2.62-1.32,8.97-1.87,11.91-.23,1.24-.69,1.66-1.13,1.7-.96.09-1.69-.64-2.63-1.24-1.46-.96-2.28-1.55-3.7-2.48-1.64-1.08-.58-1.67.36-2.64.24-.25,4.48-4.1,4.56-4.46,0-.04.02-.21-.07-.29-.1-.08-.24-.06-.34-.03-.15.03-2.47,1.57-6.98,4.61-.66.46-1.26.67-1.8.67-.59-.02-1.73-.33-2.58-.6C.77,9.62-.06,9.44,0,8.87c.04-.3.45-.6,1.23-.92h0Z"/>
  </symbol>

</svg>