<svg xmlns="http://www.w3.org/2000/svg" style="display: none;">
  <!-- Logo ecosolares -->
  <symbol id="lg-eco" viewBox="0 0 250 250">
<g>
	<path style="fill:#F6A21A;" d="M134.359,243.042c0.57,8.1-1.35,7.45,7.669,6.23c-0.29-5.77-2.13-13.09,7.039-14.37
		c17.229-2.41,28.948-6.08,28.558,1.3c-0.18,3.43-1.6,3.69,5.46,0c0.68-9.89,7.659-3.08,20.578-13.5
		c-9.749,1.19-19.948,4.37-19.438-3.1c0.88-12.71-0.82-25.42,8.099-25.52c12.879-0.14,24.258-2.68,23.078,5.39
		c-2.58,17.7-3.97,17.05,3.16,9.07l1.45-9.23c0.48-3.03,3.08-5.57,5.73-5.6c4.84-0.05,3.62,1.26,7.359-5.08
		c-5.05-0.06-11.559,1.02-10.459-5.98c2.59-16.44,2.49-27.05,9.399-26.01c16.299,2.44,13.579,3.59,15.229-3.68
		c-11.159-1.98-19.778-1.11-18.299-10.48c5.82-37.02,3.88-33.05,21.028-26.95C245.03,50.9,190.965,0,124.99,0
		C-18.368,0-48.796,203.252,88.413,245.002c3.74-2.84,45.246-11.77,45.936-1.96H134.359z M190.105,134.371
		c1.4-20.36-0.11-40.19,10.399-36.46c19.398,6.9,28.628,7.24,27.008,18.39c-2.77,19.03-2.49,32.7-10.419,31.29
		c-13.249-2.35-27.798-1.46-26.988-13.23L190.105,134.371z M188.475,157.991c0.76-10.98,13.899-5.8,27.728-3.73
		c7.649,1.15,4.06,11.78,1.67,28.22c-1.19,8.21-9.269,5.88-25.048,5.71C183.945,188.091,187.175,176.901,188.475,157.991
		L188.475,157.991z M178.476,220.172c-0.41,7.77-10.569,6.87-29.568,9.19c-10.159,1.24-8.229-7.34-9.219-27.36
		c-0.51-10.35,16.199-7.54,33.227-7.73C182.225,194.171,179.326,204.272,178.476,220.172z M181.846,157.181
		c-0.92,17.25,1.35,30.9-8.699,30.79c-16.559-0.18-34.007,2.82-34.557-8.3c-0.9-18.27-5.89-37.91,7.979-35.84
		c23.468,3.51,35.857,2.66,35.277,13.36V157.181z M144.758,78.071c29.588,10.53,40.707,11.4,40.007,24.61
		c-1.18,22.04,1.17,39.38-9.899,37.41c-17.959-3.19-38.357-2.62-39.067-17.05C134.699,100.681,128.53,72.291,144.758,78.071z
		 M54.356,106.071c-6.599-30.5-21.758-67.911,4.45-58.59c44.126,15.7,63.015,18.21,64.235,35.54c2.36,33.35,7.209,49.16-7.919,46.47
		c-26.228-4.65-56.745-4.84-60.765-23.43L54.356,106.071z M69.755,177.221c-4.86-22.43-16.029-47.3,4.86-44.17
		c36.047,5.4,52.286,4.62,53.206,17.59c1.66,23.43,5.92,36.89-7.189,36.75C97.202,187.131,72.654,190.631,69.755,177.221z
		 M75.584,204.162c-2.72-12.58,24.038-9.09,45.746-9.32c12.839-0.14,10.429,11.65,11.729,29.98c0.63,8.87-13.579,8.14-39.407,11.28
		C78.444,237.952,80.094,225.012,75.584,204.162L75.584,204.162z"/>
	<path style="fill:#F9C61F;" d="M238.641,72.401c-18.119-6.12-37.867-9.5-58.495-9.5s-42.117,3.62-60.865,10.25
		c-7.369-9.25-26.368-13.5-60.495-25.62c-26.128-9.38-10.999,28-4.38,58.5c0.5,2.38,1.5,4.5,2.88,6.38
		c-21.748,22.62-34.747,51.5-34.747,82.751c0,1.37,0,2.75,0.13,4.12C-30.467,125.281,12.529,0.03,125.02,0.03
		C175.396,0.03,218.763,29.65,238.641,72.401z"/>
</g>
  </symbol>

  <!-- Logo ecosolares tema escuro -->
  <symbol id="lg-eco-w" viewBox="0 0 250 250">
<path style="fill:#FCFCFC;" d="M134.365,243.041c0.573,8.097-1.348,7.454,7.673,6.229c-0.285-5.772-2.129-13.089,7.039-14.369
	c17.235-2.406,28.951-6.081,28.557,1.298c-0.183,3.432-1.596,3.686,5.464-0.01c0.681-9.892,7.664-3.081,20.584-13.498
	c-9.754,1.189-19.953,4.372-19.438-3.104c0.877-12.712-0.817-25.424,8.097-25.521c12.882-0.139,24.257-2.683,23.083,5.39
	c-2.576,17.701-3.969,17.05,3.157,9.071l1.452-9.226c0.477-3.032,3.079-5.567,5.727-5.596c4.841-0.053,3.621,1.256,7.356-5.078
	c-5.047-0.055-11.565,1.016-10.463-5.982c2.586-16.439,2.488-27.049,9.396-26.015c16.299,2.441,13.583,3.588,15.228-3.68
	c-11.158-1.98-19.777-1.111-18.303-10.482c5.824-37.016,3.881-33.047,21.025-26.945C245.047,50.898,190.977,0,125.005,0
	C-18.367,0-48.804,203.251,88.422,245.003C92.158,242.164,133.672,233.229,134.365,243.041z M190.122,134.369
	c1.404-20.357-0.106-40.192,10.397-36.455c19.397,6.903,28.63,7.241,27.008,18.39c-2.77,19.03-2.493,32.7-10.42,31.292
	C203.855,145.243,189.312,146.138,190.122,134.369z M188.493,157.985c0.757-10.981,13.9-5.798,27.733-3.727
	c7.652,1.147,4.062,11.779,1.67,28.216c-1.195,8.211-9.274,5.882-25.054,5.709C183.966,188.086,187.189,176.891,188.493,157.985z
	 M178.491,220.174c-0.414,7.768-10.568,6.874-29.566,9.19c-10.157,1.238-8.233-7.337-9.222-27.363
	c-0.511-10.345,16.205-7.542,33.229-7.726C182.241,194.174,179.342,204.271,178.491,220.174z M181.86,157.182
	c-0.922,17.246,1.352,30.896-8.701,30.785c-16.56-0.182-34.01,2.815-34.559-8.303c-0.902-18.266-5.894-37.915,7.975-35.837
	C170.043,147.342,182.431,146.488,181.86,157.182z M144.768,78.074c29.59,10.53,40.712,11.398,40.006,24.611
	c-1.178,22.036,1.171,39.379-9.898,37.415c-17.959-3.188-38.359-2.619-39.072-17.054C134.7,100.692,128.53,72.296,144.768,78.074z
	 M54.361,106.07c-6.602-30.5-21.761-67.913,4.448-58.586c44.128,15.704,63.017,18.209,64.242,35.542
	c2.358,33.348,7.212,49.156-7.918,46.471C88.902,124.843,58.383,124.654,54.361,106.07z M69.763,177.224
	c-4.855-22.429-16.027-47.302,4.859-44.174c36.052,5.399,52.293,4.619,53.21,17.594c1.657,23.43,5.916,36.89-7.193,36.747
	C97.205,187.133,72.664,190.626,69.763,177.224z M75.593,204.157c-2.723-12.576,24.044-9.09,45.754-9.324
	c12.836-0.138,10.433,11.651,11.73,29.983c0.627,8.873-13.582,8.135-39.412,11.283C78.454,237.952,80.107,225.011,75.593,204.157z"
	/>
  </symbol>

  <!-- Logo ecosolares tema claro -->
  <symbol id="lg-eco-b" viewBox="0 0 250 250">
<path style="fill:#0C0C0C;" d="M134.365,243.041c0.573,8.097-1.348,7.454,7.673,6.229c-0.285-5.772-2.129-13.089,7.039-14.369
	c17.235-2.406,28.951-6.081,28.557,1.298c-0.183,3.432-1.596,3.686,5.464-0.01c0.681-9.892,7.664-3.081,20.584-13.498
	c-9.754,1.189-19.953,4.372-19.438-3.104c0.877-12.712-0.817-25.424,8.097-25.521c12.882-0.139,24.257-2.683,23.083,5.39
	c-2.576,17.701-3.969,17.05,3.157,9.071l1.452-9.226c0.477-3.032,3.079-5.567,5.727-5.596c4.841-0.053,3.621,1.256,7.356-5.078
	c-5.047-0.055-11.565,1.016-10.463-5.982c2.586-16.439,2.488-27.049,9.396-26.015c16.299,2.441,13.583,3.588,15.228-3.68
	c-11.158-1.98-19.777-1.111-18.303-10.482c5.824-37.016,3.881-33.047,21.025-26.945C245.047,50.898,190.977,0,125.005,0
	C-18.367,0-48.804,203.251,88.422,245.003C92.158,242.164,133.672,233.229,134.365,243.041z M190.122,134.369
	c1.404-20.357-0.106-40.192,10.397-36.455c19.397,6.903,28.63,7.241,27.008,18.39c-2.77,19.03-2.493,32.7-10.42,31.292
	C203.855,145.243,189.312,146.138,190.122,134.369z M188.493,157.985c0.757-10.981,13.9-5.798,27.733-3.727
	c7.652,1.147,4.062,11.779,1.67,28.216c-1.195,8.211-9.274,5.882-25.054,5.709C183.966,188.086,187.189,176.891,188.493,157.985z
	 M178.491,220.174c-0.414,7.768-10.568,6.874-29.566,9.19c-10.157,1.238-8.233-7.337-9.222-27.363
	c-0.511-10.345,16.205-7.542,33.229-7.726C182.241,194.174,179.342,204.271,178.491,220.174z M181.86,157.182
	c-0.922,17.246,1.352,30.896-8.701,30.785c-16.56-0.182-34.01,2.815-34.559-8.303c-0.902-18.266-5.894-37.915,7.975-35.837
	C170.043,147.342,182.431,146.488,181.86,157.182z M144.768,78.074c29.59,10.53,40.712,11.398,40.006,24.611
	c-1.178,22.036,1.171,39.379-9.898,37.415c-17.959-3.188-38.359-2.619-39.072-17.054C134.7,100.692,128.53,72.296,144.768,78.074z
	 M54.361,106.07c-6.602-30.5-21.761-67.913,4.448-58.586c44.128,15.704,63.017,18.209,64.242,35.542
	c2.358,33.348,7.212,49.156-7.918,46.471C88.902,124.843,58.383,124.654,54.361,106.07z M69.763,177.224
	c-4.855-22.429-16.027-47.302,4.859-44.174c36.052,5.399,52.293,4.619,53.21,17.594c1.657,23.43,5.916,36.89-7.193,36.747
	C97.205,187.133,72.664,190.626,69.763,177.224z M75.593,204.157c-2.723-12.576,24.044-9.09,45.754-9.324
	c12.836-0.138,10.433,11.651,11.73,29.983c0.627,8.873-13.582,8.135-39.412,11.283C78.454,237.952,80.107,225.011,75.593,204.157z"
	/>
  </symbol>
</svg>
