<svg xmlns="http://www.w3.org/2000/svg">
  <symbol id="lg-eco" viewBox="0 0 20 20">
    <title>logo ecosolares</title>
    <path fill="#ffffff" d="M18.34,1.71c-1.26.22-2.33-.09-2.33-.09-2.3-.67-5.16-2.03-7.62-1.5-1.24.27-3.44,1.37-3.88,2.66.12-.04,1.68-.79,2.18-.88s1.66-.16,2.38-.09,1.16.09,1.16.09c-2.52.06-4.17.46-5.99,1.16C.07,6.1.19,11.89,3.47,15.27c1.27,1.31,2.92,2.34,5.07,2.63,3.6.49,7.04-.96,8.94-4.09.52-.86,1.65-3.18,1.44-4.25-.06-.31,0-.03,0-.1,0,0-.15,1.31-.71,2.4-.79,1.54-1.99,3.03-3.53,3.88-1.97-.53,1.22-2.35,2.09-3.03,1.63-.18,3.77-.16,5.19-1.03,1.27-3.53,1.19-8.73,5.35-4.44,1.65,5.61,9.05,1.43,12.91-2.66l.08-.07"/>
  </symbol>
  <symbol id="lg-banco-do-brasil" viewBox="0 0 20 20">
    <title>logo banco do brasil</title>
    <rect fill="#ffffff" x="2" y="2" width="16" height="16" rx="2"/>
    <text x="10" y="12" font-family="Arial" font-size="8" fill="#000000" text-anchor="middle">BB</text>
  </symbol>
  <symbol id="lg-santander" viewBox="0 0 20 20">
    <title>logo santander</title>
    <circle fill="#ffffff" cx="10" cy="10" r="8"/>
    <text x="10" y="12" font-family="Arial" font-size="8" fill="#000000" text-anchor="middle">S</text>
  </symbol>
  <symbol id="lg-caixa" viewBox="0 0 20 20">
    <title>logo caixa</title>
    <rect fill="#ffffff" x="2" y="2" width="16" height="16"/>
    <text x="10" y="12" font-family="Arial" font-size="8" fill="#000000" text-anchor="middle">C</text>
  </symbol>
</svg>