<svg xmlns="http://www.w3.org/2000/svg" style="display: none;">
  <!-- Logo ecosolares -->
  <symbol id="lg-eco" viewBox="0 0 250 250">
<svg version="1.1" id="Camada_1" xmlns="http://www.w3.org/2000/svg" xmlns:xlink="http://www.w3.org/1999/xlink" x="0px" y="0px"
	 viewBox="0 0 250 250" style="enable-background:new 0 0 250 250;" xml:space="preserve">
<g>
	<path style="fill:#F6A21A;" d="M134.359,243.042c0.57,8.1-1.35,7.45,7.669,6.23c-0.29-5.77-2.13-13.09,7.039-14.37
		c17.229-2.41,28.948-6.08,28.558,1.3c-0.18,3.43-1.6,3.69,5.46,0c0.68-9.89,7.659-3.08,20.578-13.5
		c-9.749,1.19-19.948,4.37-19.438-3.1c0.88-12.71-0.82-25.42,8.099-25.52c12.879-0.14,24.258-2.68,23.078,5.39
		c-2.58,17.7-3.97,17.05,3.16,9.07l1.45-9.23c0.48-3.03,3.08-5.57,5.73-5.6c4.84-0.05,3.62,1.26,7.359-5.08
		c-5.05-0.06-11.559,1.02-10.459-5.98c2.59-16.44,2.49-27.05,9.399-26.01c16.299,2.44,13.579,3.59,15.229-3.68
		c-11.159-1.98-19.778-1.11-18.299-10.48c5.82-37.02,3.88-33.05,21.028-26.95C245.03,50.9,190.965,0,124.99,0
		C-18.368,0-48.796,203.252,88.413,245.002c3.74-2.84,45.246-11.77,45.936-1.96H134.359z M190.105,134.371
		c1.4-20.36-0.11-40.19,10.399-36.46c19.398,6.9,28.628,7.24,27.008,18.39c-2.77,19.03-2.49,32.7-10.419,31.29
		c-13.249-2.35-27.798-1.46-26.988-13.23L190.105,134.371z M188.475,157.991c0.76-10.98,13.899-5.8,27.728-3.73
		c7.649,1.15,4.06,11.78,1.67,28.22c-1.19,8.21-9.269,5.88-25.048,5.71C183.945,188.091,187.175,176.901,188.475,157.991
		L188.475,157.991z M178.476,220.172c-0.41,7.77-10.569,6.87-29.568,9.19c-10.159,1.24-8.229-7.34-9.219-27.36
		c-0.51-10.35,16.199-7.54,33.227-7.73C182.225,194.171,179.326,204.272,178.476,220.172z M181.846,157.181
		c-0.92,17.25,1.35,30.9-8.699,30.79c-16.559-0.18-34.007,2.82-34.557-8.3c-0.9-18.27-5.89-37.91,7.979-35.84
		c23.468,3.51,35.857,2.66,35.277,13.36V157.181z M144.758,78.071c29.588,10.53,40.707,11.4,40.007,24.61
		c-1.18,22.04,1.17,39.38-9.899,37.41c-17.959-3.19-38.357-2.62-39.067-17.05C134.699,100.681,128.53,72.291,144.758,78.071z
		 M54.356,106.071c-6.599-30.5-21.758-67.911,4.45-58.59c44.126,15.7,63.015,18.21,64.235,35.54c2.36,33.35,7.209,49.16-7.919,46.47
		c-26.228-4.65-56.745-4.84-60.765-23.43L54.356,106.071z M69.755,177.221c-4.86-22.43-16.029-47.3,4.86-44.17
		c36.047,5.4,52.286,4.62,53.206,17.59c1.66,23.43,5.92,36.89-7.189,36.75C97.202,187.131,72.654,190.631,69.755,177.221z
		 M75.584,204.162c-2.72-12.58,24.038-9.09,45.746-9.32c12.839-0.14,10.429,11.65,11.729,29.98c0.63,8.87-13.579,8.14-39.407,11.28
		C78.444,237.952,80.094,225.012,75.584,204.162L75.584,204.162z"/>
	<path style="fill:#F9C61F;" d="M238.641,72.401c-18.119-6.12-37.867-9.5-58.495-9.5s-42.117,3.62-60.865,10.25
		c-7.369-9.25-26.368-13.5-60.495-25.62c-26.128-9.38-10.999,28-4.38,58.5c0.5,2.38,1.5,4.5,2.88,6.38
		c-21.748,22.62-34.747,51.5-34.747,82.751c0,1.37,0,2.75,0.13,4.12C-30.467,125.281,12.529,0.03,125.02,0.03
		C175.396,0.03,218.763,29.65,238.641,72.401z"/>
</g>
  </symbol>

  <!-- Logo ecosolares tema escuro -->
  <symbol id="lg-eco-w" viewBox="0 0 250 250">
    <path fill="#fcfcfc" d="M134.37,243.04c.57,8.1-1.35,7.45,7.67,6.23-.29-5.77-2.13-13.09,7.04-14.37,17.23-2.41,28.95-6.08,28.56,1.3-.18,3.43-1.6,3.69,5.46,0,.68-9.89,7.66-3.08,20.58-13.5-9.75,1.19-19.95,4.37-19.44-3.1.88-12.71-.82-25.42,8.1-25.52,12.88-.14,24.26-2.68,23.08,5.39-2.58,17.7-3.97,17.05,3.16,9.07l1.45-9.23c.48-3.03,3.08-5.57,5.73-5.6,4.84-.05,3.62,1.26,7.36-5.08-5.05-.06-11.56,1.02-10.46-5.98,2.59-16.44,2.49-27.05,9.4-26.01,16.3,2.44,13.58,3.59,15.23-3.68-11.16-1.98-19.78-1.11-18.3-10.48,5.82-37.02,3.88-33.05,21.03-26.95C245.05,50.9,190.98,0,125,0-18.37,0-48.8,203.25,88.42,245c3.74-2.84,45.25-11.77,45.94-1.96ZM190.12,134.37c1.4-20.36-.11-40.19,10.4-36.46,19.4,6.9,28.63,7.24,27.01,18.39-2.77,19.03-2.49,32.7-10.42,31.29-13.25-2.35-27.8-1.46-26.99-13.23ZM188.49,157.99c.76-10.98,13.9-5.8,27.73-3.73,7.65,1.15,4.06,11.78,1.67,28.22-1.19,8.21-9.27,5.88-25.05,5.71-8.88-.1-5.65-11.29-4.35-30.2ZM178.49,220.17c-.41,7.77-10.57,6.87-29.57,9.19-10.16,1.24-8.23-7.34-9.22-27.36-.51-10.35,16.2-7.54,33.23-7.73,9.31-.1,6.41,10,5.56,25.9ZM181.86,157.18c-.92,17.25,1.35,30.9-8.7,30.79-16.56-.18-34.01,2.82-34.56-8.3-.9-18.27-5.89-37.91,7.98-35.84,23.47,3.51,35.86,2.66,35.28,13.36ZM144.77,78.07c29.59,10.53,40.71,11.4,40.01,24.61-1.18,22.04,1.17,39.38-9.9,37.41-17.96-3.19-38.36-2.62-39.07-17.05-1.1-22.36-7.27-50.75,8.96-44.97ZM54.36,106.07c-6.6-30.5-21.76-67.91,4.45-58.59,44.13,15.7,63.02,18.21,64.24,35.54,2.36,33.35,7.21,49.16-7.92,46.47-26.23-4.65-56.75-4.84-60.77-23.43ZM69.76,177.22c-4.86-22.43-16.03-47.3,4.86-44.17,36.05,5.4,52.29,4.62,53.21,17.59,1.66,23.43,5.92,36.89-7.19,36.75-23.43-.26-47.98,3.24-50.88-10.17ZM75.59,204.16c-2.72-12.58,24.04-9.09,45.75-9.32,12.84-.14,10.43,11.65,11.73,29.98.63,8.87-13.58,8.14-39.41,11.28-15.21,1.85-13.56-11.09-18.07-31.94Z"/>
  </symbol>

  <!-- Logo ecosolares tema claro -->

  <symbol id="lg-eco-b" viewBox="0 0 250 250">
    <path fill="#0c0c0c" d="M134.37,243.04c.57,8.1-1.35,7.45,7.67,6.23-.29-5.77-2.13-13.09,7.04-14.37,17.23-2.41,28.95-6.08,28.56,1.3-.18,3.43-1.6,3.69,5.46,0,.68-9.89,7.66-3.08,20.58-13.5-9.75,1.19-19.95,4.37-19.44-3.1.88-12.71-.82-25.42,8.1-25.52,12.88-.14,24.26-2.68,23.08,5.39-2.58,17.7-3.97,17.05,3.16,9.07l1.45-9.23c.48-3.03,3.08-5.57,5.73-5.6,4.84-.05,3.62,1.26,7.36-5.08-5.05-.06-11.56,1.02-10.46-5.98,2.59-16.44,2.49-27.05,9.4-26.01,16.3,2.44,13.58,3.59,15.23-3.68-11.16-1.98-19.78-1.11-18.3-10.48,5.82-37.02,3.88-33.05,21.03-26.95C245.05,50.9,190.98,0,125,0-18.37,0-48.8,203.25,88.42,245c3.74-2.84,45.25-11.77,45.94-1.96ZM190.12,134.37c1.4-20.36-.11-40.19,10.4-36.46,19.4,6.9,28.63,7.24,27.01,18.39-2.77,19.03-2.49,32.7-10.42,31.29-13.25-2.35-27.8-1.46-26.99-13.23ZM188.49,157.99c.76-10.98,13.9-5.8,27.73-3.73,7.65,1.15,4.06,11.78,1.67,28.22-1.19,8.21-9.27,5.88-25.05,5.71-8.88-.1-5.65-11.29-4.35-30.2ZM178.49,220.17c-.41,7.77-10.57,6.87-29.57,9.19-10.16,1.24-8.23-7.34-9.22-27.36-.51-10.35,16.2-7.54,33.23-7.73,9.31-.1,6.41,10,5.56,25.9ZM181.86,157.18c-.92,17.25,1.35,30.9-8.7,30.79-16.56-.18-34.01,2.82-34.56-8.3-.9-18.27-5.89-37.91,7.98-35.84,23.47,3.51,35.86,2.66,35.28,13.36ZM144.77,78.07c29.59,10.53,40.71,11.4,40.01,24.61-1.18,22.04,1.17,39.38-9.9,37.41-17.96-3.19-38.36-2.62-39.07-17.05-1.1-22.36-7.27-50.75,8.96-44.97ZM54.36,106.07c-6.6-30.5-21.76-67.91,4.45-58.59,44.13,15.7,63.02,18.21,64.24,35.54,2.36,33.35,7.21,49.16-7.92,46.47-26.23-4.65-56.75-4.84-60.77-23.43ZM69.76,177.22c-4.86-22.43-16.03-47.3,4.86-44.17,36.05,5.4,52.29,4.62,53.21,17.59,1.66,23.43,5.92,36.89-7.19,36.75-23.43-.26-47.98,3.24-50.88-10.17ZM75.59,204.16c-2.72-12.58,24.04-9.09,45.75-9.32,12.84-.14,10.43,11.65,11.73,29.98.63,8.87-13.58,8.14-39.41,11.28-15.21,1.85-13.56-11.09-18.07-31.94Z"/>
  </symbol>
</svg>
