<svg xmlns="http://www.w3.org/2000/svg" style="display: none;">
    <!-- astronergy -->
    <symbol id="lg-astronergy" viewBox="0 0 250 250">
	  <defs>
		<style>
		  .st0 {
			fill: #2b1f18;
		  }

		  .st1 {
			fill: none;
		  }

		  .st2 {
			fill: url(#Gradiente_sem_nome);
		  }
		</style>
		<radialGradient id="Gradiente_sem_nome" data-name="Gradiente sem nome" cx="95.31" cy="177.35" fx="95.31" fy="177.35" r="105.51" gradientTransform="translate(0 249.89) scale(1 -1)" gradientUnits="userSpaceOnUse">
		  <stop offset=".24" stop-color="#a8c022"/>
		  <stop offset=".31" stop-color="#95b528"/>
		  <stop offset=".47" stop-color="#639a39"/>
		  <stop offset=".63" stop-color="#2d7c4c"/>
		  <stop offset=".67" stop-color="#317e4a"/>
		  <stop offset=".72" stop-color="#3d8546"/>
		  <stop offset=".76" stop-color="#52903f"/>
		  <stop offset=".81" stop-color="#6fa035"/>
		  <stop offset=".86" stop-color="#94b528"/>
		  <stop offset=".88" stop-color="#a8c022"/>
		</radialGradient>
	  </defs>
	  <rect class="st1" y="0" width="250" height="250"/>
	  <g>
		<path class="st0" d="M116.69,192.31c-1.27,1.27-3.47,1.94-5.61,1.99-2.24.04-4.47-.59-5.69-2.01-2.87-3.34-3.13-10.21,0-13.33,1.43-1.39,3.54-2.03,5.69-1.99,2.07.03,4.13.71,5.51,1.99,3.37,2.99,3.09,10.41.1,13.36M111.07,172.6h-.13c-4.21,0-7.5,1.13-9.86,3.44-2.36,2.29-3.56,5.44-3.56,9.57,0,2.9.6,5.36,1.77,7.33,1.23,1.94,2.74,3.39,4.69,4.26,1.86.89,4.26,1.34,7.09,1.34h.17c2.91,0,5.31-.5,7.21-1.56,1.93-1.06,3.41-2.49,4.43-4.39,1.04-1.86,1.56-4.3,1.56-7.2,0-4.04-1.19-7.2-3.5-9.44-2.31-2.23-5.61-3.33-9.86-3.36M140.73,173.23h-14.2v24.99h5.13v-20.86h8.06c5.86.04,5.53,2.99,5.53,6.79l.04,14.07h5.19v-14.13c.3-7.46-1.9-10.91-9.73-10.86M191.1,187.69c4.8-.09,7.91-3.24,7.97-7.11.09-4.99-3.34-7.33-8.47-7.33h-14.54v4.13h13.99c2.44,0,3.63,1.4,3.59,3.07,0,1.64-.91,3.13-3.71,3.13h-13.86v14.66h5.27v-10.46h3c.66,0,1.34.2,1.9.6,1.43,1.13,5.69,8.24,6.79,9.84h6.51l-4.39-6.74c-1.3-2.06-2.4-3.59-4.04-3.8M244.19,173.23l-6.61,10.86-6.66-10.86h-5.81l9.77,15.39v9.6h5.49v-9.79l9.64-15.2h-5.81,0ZM214.31,176.93c2.66.13,5.27,1.04,6.27,3.59l5.61-.13c-1.81-4.71-5.57-7.83-11.97-7.83-8.44,0-13.49,4.89-13.49,12.99,0,5.59,2.61,10.01,7.33,12,1.86.76,4,1.1,6.5,1.1,3.29,0,6.24-1.01,8.34-2.54,1.39-1,2.49-2.27,3.29-3.79v-8.59h-12.47v4.17h7.37v3.21c-.29.34-.63.66-.97,1-2.64,2.57-9.01,2.79-11.51-.03-2.9-3.29-3.2-10,0-13.11,1.53-1.47,3.59-2.11,5.7-2.03M153.13,198.21h20.44v-4.13h-15.21v-6.5h13.19v-4.04h-13.19v-6.16h15.21v-4.17h-20.44v24.99h0ZM37.8,182.87c-2.44-.54-5.01-1.31-4.93-3.29.13-1.84,2.44-2.66,5.1-2.66,1.54,0,4.03.33,4.87,2.44h5.36c-1-5.21-5.26-6.77-10.2-6.77-2.69,0-5.73.33-7.87,1.93-2.7,1.99-3.27,6.03-1.31,8.81,1.6,2.23,4.97,3.13,8.26,3.76,1.7.3,6.63,1.14,6.63,3.8-.04,2.61-3.2,3.24-5.4,3.31-2.96.06-5.61-.74-6.2-4.29h-5.4c.67,6.24,5.19,8.67,11.46,8.67,3.37,0,7.07-.93,9.1-3.33,1.9-2.23,2.24-5.9.34-8.2-2.2-2.8-6.53-3.47-9.83-4.17M9.43,187.76l4.21-11.26v.04l4.21,11.21h-8.43ZM9.49,173.23L0,198.24h5.86l2.03-5.73h11.37l2.27,5.73h5.9l-9.49-25.01h-8.46ZM88.19,187.64c4.8-.09,7.41-3.24,7.5-7.13.04-4.97-3.37-7.34-8.51-7.34h-14.03v4.13h13.51c2.4,0,3.59,1.39,3.59,3.07-.03,1.64-.97,3.11-3.74,3.11h-13.36v14.67h5.26v-10.46h2.96c.71,0,1.4.2,1.94.59,1.43,1.14,5.69,8.26,6.79,9.86h6.53l-4.39-6.73c-1.31-2.07-2.4-3.59-4.04-3.8M49.3,177.36h7.96v20.77h5.64v-20.77h8.19v-4.13h-21.79v4.13Z"/>
		<path class="st2" d="M75.44,100.11c0,27.1,21.96,49.29,49.03,49.57h.47c4.29,0,8.46-.53,12.39-1.59-3.23.64-6.19.34-7.99-.69-3.24-1.89-4.53-4.49-4.87-8.07-.09-.91-.11-1.97-.11-3.16v-27.41c0-5.87-2.41-8.03-8.29-8.03h-29.47c-4.11,0-6.87-1.34-8.53-3.64-1.64-2.16-2.1-5.27-.76-10.37,0,0,0-.06-.04-.06-1.17,4.29-1.83,8.79-1.83,13.43M116.16,51.36c-1.54.27-3.06.64-4.54,1.07h.06c5.11-1.36,8.16-.84,10.39.76,1,.77,1.83,1.7,2.41,2.93.69,1.47,1.11,3.36,1.11,5.64v28.81c0,6.63,2.06,8.87,8.51,8.87h26.96c5.33,0,8.84,1,11.27,5.1,1,1.83,1.34,4.76.71,7.97.99-3.99,1.51-8.09,1.51-12.37,0-24.34-17.69-44.67-40.93-48.77h-17.47Z"/>
	  </g>
    </symbol>
	<symbol id="lg-canadian" viewBox="0 0 250 250">
		  <defs>
			<style>
			  .st120 {
				fill: none;
			  }

			  .st121 {
				fill: #edc500;
			  }

			  .st121, .st122, .st123 {
				fill-rule: evenodd;
			  }

			  .st122 {
				fill: #ce6b03;
			  }

			  .st124, .st123 {
				fill: #ad0f16;
			  }
			</style>
		  </defs>
		  <rect class="st120" y="0" width="250" height="250"/>
		  <g>
			<g>
			  <path class="st123" d="M74.99,153.74l46.47.21c-2.79-4.93-6.26-9.39-10.67-13.29-1.37-1.2-3-1.71-4.84-1.59l-46.17-.21c2.44,5.4,5.7,10.03,10.46,13.33,1.59,1.11,1.8,1.5,4.76,1.5"/>
			  <path class="st123" d="M141.61,108.12c13.33-8.96,32.41-6.77,48.61,6.04l-6.69,5.83c-11.49-7.42-23.58-9.09-34.51-1.11-9,6.56-10.2,20.92-6.52,34.3l-8.49.43c-7.46-18.22-5.74-36.57,7.59-45.53"/>
			  <path class="st122" d="M83.05,115.97l38.28,19.55c-.26-5.66-1.29-11.23-3.47-16.68-.64-1.33-1.67-2.92-3.6-3.9l-37.77-20.23c-.3,5.92-.17,12.73,2.57,17.83.9,1.71,1.33,2.06,3.99,3.39"/>
			  <path class="st121" d="M100.63,80.56l27.48,29.15c1.59-4.97,2.49-10.16,2.31-15.6-.13-1.37-.56-3.04-1.93-4.5l-26.79-29.58c-2.19,5.06-4.29,11.02-3.47,16.29.26,1.76.51,2.19,2.4,4.2"/>
			  <path class="st123" d="M173.55,62.38l-1.8,32.37c4.63-1.76,8.87-4.07,12.56-7.12.86-.81,1.8-2.01,1.89-3.6l2.57-32.2c-5.06,1.46-10.67,3.47-13.89,6.82-1.07,1.11-1.2,1.5-1.33,3.73"/>
			  <path class="st122" d="M136.81,60.75l10.33,36.83c3.9-3.52,7.24-7.5,9.77-12.17.56-1.2,1.03-2.83.51-4.67l-9.52-36.87c-4.46,3.3-9.3,7.42-11.19,12.22-.64,1.63-.6,2.1.09,4.63"/>
			</g>
			<g>
			  <path class="st124" d="M21.57,181.72c-.15-.31-.31-.59-.5-.89-.44-.72-.94-1.33-1.46-1.87-.81-.8-1.65-1.41-2.52-1.83-.87-.43-1.72-.7-2.57-.85-.83-.15-1.63-.22-2.37-.2-.56,0-1.17.04-1.85.11-.69.09-1.39.24-2.15.48-.74.24-1.5.61-2.28,1.09-.76.48-1.52,1.13-2.24,1.93-.26.26-.59.69-.98,1.24-.41.57-.8,1.31-1.2,2.22s-.74,2-1.02,3.28c-.28,1.28-.41,2.76-.43,4.44,0,.44,0,1.02.06,1.74.04.7.15,1.5.3,2.39s.39,1.8.69,2.74c.31.94.74,1.87,1.28,2.78.44.74.96,1.43,1.57,2.09s1.33,1.28,2.15,1.8,1.74.94,2.78,1.26c1.04.3,2.2.46,3.5.46.85,0,1.68-.09,2.5-.28.83-.19,1.63-.52,2.43-.96s1.57-1.07,2.31-1.87c.54-.56,1.02-1.19,1.46-1.91.17-.28.31-.56.46-.83l-3.96-2.7c-.04.09-.07.2-.13.3-.33.74-.7,1.39-1.15,1.93-.57.7-1.2,1.22-1.91,1.57s-1.46.52-2.28.52c-.74,0-1.41-.13-1.98-.37-.57-.24-1.09-.56-1.54-.94-.44-.39-.81-.81-1.13-1.28s-.57-.93-.78-1.37-.39-.98-.56-1.61c-.17-.63-.3-1.39-.39-2.28-.09-.89-.15-1.93-.15-3.15,0-.83.02-1.65.09-2.44.07-.8.19-1.57.37-2.33s.43-1.48.76-2.18c.56-1.22,1.28-2.13,2.13-2.72.85-.61,1.89-.91,3.13-.91,1.04,0,1.93.2,2.68.67.76.44,1.43,1.13,2,2.07.3.44.54.94.72,1.48l4.13-2.81h.02v.02Z"/>
			  <path class="st124" d="M50.75,205.71v-12.09c0-.61.04-1.2.11-1.8.07-.61.24-1.19.46-1.74s.57-1.09,1.02-1.57c.2-.22.44-.43.72-.61.28-.19.59-.35.94-.46.35-.13.76-.19,1.22-.19.22,0,.46,0,.74.06s.54.15.83.3c.28.15.54.39.78.7.24.33.43.72.54,1.13s.17.85.2,1.28c.02.44.04.89.02,1.33v13.68h4.41v-14.74c0-1-.09-1.85-.24-2.59-.17-.74-.37-1.35-.63-1.85s-.52-.89-.8-1.19c-.37-.41-.8-.76-1.3-1.02-.48-.26-1-.46-1.56-.57-.54-.13-1.07-.19-1.61-.19-.98,0-1.87.19-2.67.56-.78.35-1.46.85-2.04,1.46-.57.63-1.06,1.33-1.43,2.11h-.07v-3.7h-4.11v21.72h4.44v-.02Z"/>
			  <path class="st124" d="M100.84,178.51v8c-.19-.3-.41-.59-.65-.87s-.54-.54-.87-.8c-.63-.46-1.24-.8-1.87-1-.63-.19-1.26-.3-1.93-.28-1,0-1.98.19-2.89.61-.93.43-1.78,1.11-2.56,2.07-.41.5-.8,1.15-1.17,1.93s-.67,1.72-.91,2.83-.35,2.41-.37,3.89c0,1.13.07,2.15.22,3.04s.33,1.65.57,2.31c.22.65.44,1.2.69,1.65.24.44.44.8.61,1.06.61.87,1.22,1.54,1.89,2,.67.46,1.31.78,1.96.94.65.17,1.24.24,1.81.24.74,0,1.48-.13,2.2-.39.74-.26,1.41-.67,2.02-1.24.61-.56,1.11-1.28,1.48-2.17l-.33-.09.41,3.44h4.07v-30.22l-4.41,3.02h0v.02ZM100.43,196.9c0,1.22-.37,2.7-1.02,3.74-.7,1.11-1.87,1.81-3.17,1.83-1.56,0-2.63-.94-3.28-2.33-.39-.83-.59-1.74-.74-2.63-.13-.78-.2-1.72-.22-2.87,0-.98.11-1.94.31-2.91.28-1.33.93-2.78,2.06-3.57.54-.37,1.19-.54,1.94-.56,1.24,0,2.24.5,2.96,1.54.33.46.59,1.04.8,1.67.2.63.31,1.28.31,1.96v4.13h.04Z"/>
			  <path class="st124" d="M114.24,183.99h-4.41v21.72h4.41v-21.72ZM112.13,176.23c1.5,0,2.72,1.22,2.72,2.72s-1.22,2.72-2.72,2.72-2.72-1.22-2.72-2.72,1.22-2.72,2.72-2.72"/>
			  <path class="st124" d="M125.93,187.14c.46-.13,1.04-.19,1.74-.19.35,0,.74.02,1.15.07s.8.17,1.19.35c.39.19.7.46.98.85.17.24.28.52.39.81.09.3.17.61.2.91.04.31.07.57.09.81v1.24l-2.17.04c-.46,0-1.02.04-1.67.09-.65.06-1.33.13-2.06.24s-1.43.28-2.13.48c-.7.2-1.35.48-1.93.8-.89.5-1.57,1.09-2.06,1.74-.5.67-.85,1.33-1.04,2.06-.2.7-.3,1.41-.28,2.07,0,.76.11,1.52.35,2.28.24.76.61,1.46,1.17,2.11.54.65,1.24,1.17,2.11,1.56.87.39,1.94.59,3.22.61.41,0,.89-.04,1.44-.13s1.13-.26,1.74-.54,1.2-.69,1.76-1.24c.57-.56,1.07-1.3,1.52-2.22.04.8.09,1.5.19,2.11.07.61.15,1.15.24,1.59h4.41c-.06-.44-.13-.94-.19-1.46-.06-.54-.13-1.07-.17-1.63-.04-.56-.06-1.07-.06-1.56v-9.2c0-.59,0-1.19-.06-1.8s-.15-1.22-.3-1.81c-.15-.59-.39-1.17-.7-1.7s-.74-1.02-1.28-1.46c-.69-.56-1.54-.94-2.5-1.19-.98-.24-2.07-.35-3.28-.35-1,0-1.85.06-2.57.19-.72.11-1.31.26-1.8.43-.48.19-.89.35-1.19.56-.35.2-.74.48-1.13.83l1.41,3.39c.89-.74,2.11-1.52,3.26-1.8M131.67,195.16v1.11c0,.46-.06.94-.15,1.48-.09.52-.24,1.04-.43,1.52-.19.5-.41.93-.69,1.31-.28.41-.63.76-1.04,1.06s-.85.54-1.31.7c-.48.17-.96.26-1.46.26-.3,0-.63-.04-.94-.11s-.63-.19-.93-.33c-.3-.15-.56-.35-.8-.59-.11-.09-.22-.24-.33-.41-.13-.19-.22-.41-.31-.67s-.13-.57-.15-.93c0-.37.04-.8.17-1.26.13-.46.37-.93.74-1.37s.93-.81,1.67-1.11c.41-.15.85-.28,1.33-.37s.96-.15,1.43-.19.85-.06,1.17-.06l2.02-.04h0l.02-.02Z"/>
			  <path class="st124" d="M145.05,205.71v-12.09c0-.61.04-1.2.11-1.8.07-.61.24-1.19.46-1.74s.57-1.09,1.02-1.57c.2-.22.44-.43.72-.61.28-.19.59-.35.94-.46.35-.13.76-.19,1.22-.19.22,0,.46,0,.74.06s.56.15.83.3.54.39.78.7c.24.33.43.72.54,1.13s.17.85.2,1.28c0,.44.04.89,0,1.33v13.68h4.41v-14.74c0-1-.09-1.85-.24-2.59-.17-.74-.37-1.35-.63-1.85s-.52-.89-.8-1.19c-.37-.41-.8-.76-1.3-1.02-.48-.26-1-.46-1.56-.57-.56-.13-1.07-.19-1.61-.19-.98,0-1.87.19-2.67.56-.78.35-1.46.85-2.04,1.46-.57.63-1.06,1.33-1.43,2.11h-.07v-3.7h-4.11v21.72h4.44l.02-.02Z"/>
			  <path class="st124" d="M179.53,181.23c-.24-.52-.54-1.04-.87-1.5-.37-.52-.8-1-1.26-1.41-.59-.52-1.26-.94-2-1.28-.74-.33-1.52-.57-2.33-.74-.81-.17-1.65-.24-2.48-.24s-1.61.06-2.39.19-1.52.33-2.24.63c-.7.28-1.33.65-1.91,1.09-.54.43-1.04.96-1.5,1.59-.44.63-.81,1.37-1.09,2.22s-.43,1.8-.43,2.83c0,.94.15,1.8.41,2.54.26.72.57,1.37.94,1.91.39.54.76.96,1.17,1.31.35.31.74.61,1.17.87.43.26.85.48,1.28.67s.85.35,1.24.48c.39.13.72.24,1.02.31l3.85,1.02c.81.22,1.5.52,2.02.85.52.33.93.7,1.2,1.09.28.39.48.78.59,1.17.11.39.15.74.15,1.06,0,.39-.06.81-.22,1.26-.15.44-.41.89-.78,1.3-.39.41-.91.74-1.57,1-.69.26-1.54.41-2.59.41-.41,0-.85-.04-1.31-.09-.46-.07-.94-.2-1.44-.39-1.31-.5-3.07-1.72-3.7-2.96l-3.18,2.93c.2.3.41.59.63.85.46.57.93,1.06,1.41,1.44.54.46,1.19.87,1.93,1.24s1.59.67,2.54.89,2.02.33,3.18.33c.78,0,1.59-.07,2.44-.22.83-.15,1.67-.41,2.48-.74.8-.35,1.56-.8,2.24-1.39.57-.5,1.09-1.09,1.54-1.8s.8-1.46,1.07-2.31c.26-.85.39-1.72.41-2.65,0-.87-.13-1.68-.35-2.44s-.54-1.44-.91-2.06c-.37-.61-.81-1.15-1.28-1.59-.52-.48-1.07-.87-1.67-1.17s-1.17-.54-1.78-.7c-.59-.19-1.17-.33-1.74-.48l-3.54-.94c-.33-.09-.74-.2-1.19-.35s-.89-.37-1.31-.63c-.43-.26-.78-.61-1.06-1.04-.28-.43-.43-.94-.44-1.56,0-.41.07-.81.2-1.24.13-.43.37-.83.7-1.22.33-.39.78-.69,1.37-.93.57-.24,1.31-.35,2.18-.37.76,0,1.52.11,2.22.33.72.22,1.35.57,1.91,1.07.69.59,1.61,1.72,1.81,2.57l.65-.59,2.65-2.46-.04.04h0Z"/>
			  <path class="st124" d="M183.84,194.92c0,1.11.13,2.18.37,3.24.24,1.06.59,2.04,1.06,2.94.48.91,1.06,1.72,1.76,2.41.46.48,1.02.91,1.65,1.3.63.39,1.37.72,2.18.96.83.24,1.76.35,2.81.37,1.06,0,1.98-.13,2.8-.37.83-.24,1.56-.57,2.18-.96s1.19-.83,1.65-1.3c.7-.7,1.28-1.5,1.76-2.41.46-.93.83-1.91,1.06-2.94.24-1.04.37-2.13.37-3.24s-.13-2.18-.37-3.24c-.24-1.04-.59-2.02-1.06-2.94-.48-.91-1.06-1.72-1.76-2.41-.46-.46-1.02-.91-1.65-1.31-.63-.39-1.37-.72-2.18-.94-.83-.24-1.76-.35-2.8-.37-1.06,0-1.98.13-2.81.37s-1.56.56-2.18.94c-.63.41-1.19.83-1.65,1.31-.7.7-1.28,1.5-1.76,2.41-.46.93-.83,1.91-1.06,2.94-.24,1.06-.37,2.13-.37,3.24M188.93,194.92c0-1,.07-1.87.19-2.59.13-.72.28-1.33.44-1.81.17-.48.35-.85.5-1.13.17-.28.3-.46.37-.56.15-.19.35-.41.63-.65s.63-.44,1.06-.63c.43-.19.94-.28,1.52-.28s1.09.11,1.52.28c.43.19.78.39,1.06.63.28.24.48.46.63.65.09.09.22.28.37.56.17.26.33.65.52,1.13.17.48.33,1.09.44,1.81.13.72.19,1.59.19,2.59s-.07,1.87-.19,2.59c-.13.72-.28,1.33-.44,1.81-.19.48-.35.85-.52,1.13s-.3.46-.37.56c-.15.19-.35.41-.63.65s-.63.44-1.06.63c-.43.19-.93.28-1.52.28s-1.09-.11-1.52-.28c-.43-.19-.78-.39-1.06-.63-.28-.24-.5-.46-.63-.65-.09-.09-.2-.28-.37-.56-.17-.26-.33-.65-.5-1.13-.19-.48-.33-1.09-.44-1.81-.13-.72-.19-1.59-.19-2.59"/>
			  <polygon class="st124" points="206.51 178.57 206.51 206.01 211.49 206.01 211.49 175.18 206.51 178.57"/>
			  <path class="st124" d="M236.54,183.99v21.72h5.05v-10.44c-.04-2.18-.06-6.67,3.17-6.89,1.04-.07,2.94.24,4.02.74l1.22-4.33c-2.48-1-4.55-2.07-6.94.19-.67.63-1.04,1.48-1.33,2.13s-.48,1.24-.56,1.76h-.09v-4.91h-4.54v.04Z"/>
			  <path class="st124" d="M73.77,187.14c.46-.13,1.04-.19,1.74-.19.37,0,.74.02,1.15.07s.8.17,1.19.35c.39.19.7.46.98.85.17.24.28.52.39.81.09.3.17.61.2.91.04.31.07.57.09.81v1.24l-2.17.04c-.46,0-1.02.04-1.67.09s-1.33.13-2.06.24-1.43.28-2.13.48c-.7.2-1.35.48-1.93.8-.89.5-1.57,1.09-2.06,1.74-.5.67-.83,1.33-1.04,2.06-.2.7-.3,1.41-.28,2.07,0,.76.11,1.52.35,2.28.24.76.63,1.46,1.17,2.11s1.24,1.17,2.11,1.56c.87.39,1.96.59,3.22.61.41,0,.89-.04,1.44-.13.56-.09,1.13-.26,1.74-.54s1.2-.69,1.78-1.24,1.07-1.3,1.52-2.22c.04.8.09,1.5.19,2.11.07.61.17,1.15.24,1.59h4.41c-.06-.44-.13-.94-.19-1.46-.06-.54-.13-1.07-.17-1.63s-.06-1.07-.06-1.56v-9.2c0-.59-.02-1.19-.06-1.8s-.15-1.22-.3-1.81c-.15-.59-.39-1.17-.7-1.7s-.74-1.02-1.28-1.46c-.69-.56-1.54-.94-2.5-1.19-.98-.24-2.07-.35-3.28-.35-1,0-1.85.06-2.57.19-.72.11-1.31.26-1.8.43-.48.19-.89.35-1.19.56-.35.2-.74.48-1.13.83l1.41,3.39c.89-.74,2.11-1.52,3.26-1.8M79.51,195.16v1.11c0,.46-.06.94-.15,1.48-.09.52-.24,1.04-.43,1.52-.19.5-.41.93-.69,1.31-.28.41-.63.76-1.02,1.06-.41.3-.85.54-1.31.7-.48.17-.96.26-1.46.26-.3,0-.63-.04-.94-.11-.31-.07-.63-.19-.93-.33-.3-.15-.56-.35-.8-.59-.11-.09-.22-.24-.33-.41-.13-.19-.22-.41-.31-.67-.09-.26-.13-.57-.15-.93,0-.37.04-.8.17-1.26s.37-.93.74-1.37c.37-.44.93-.81,1.67-1.11.41-.15.85-.28,1.33-.37s.96-.15,1.43-.19.85-.06,1.17-.06l2.02-.04h0v-.02Z"/>
			  <path class="st124" d="M31.81,187.14c.46-.13,1.04-.19,1.74-.19.37,0,.74.02,1.15.07s.8.17,1.19.35c.39.19.7.46.98.85.17.24.28.52.39.81.09.3.17.61.2.91.04.31.07.57.09.81v1.24l-2.17.04c-.46,0-1.02.04-1.67.09s-1.33.13-2.06.24-1.43.28-2.13.48c-.7.2-1.35.48-1.93.8-.89.5-1.57,1.09-2.06,1.74-.5.67-.85,1.33-1.04,2.06-.2.7-.3,1.41-.28,2.07,0,.76.11,1.52.35,2.28.24.76.63,1.46,1.17,2.11s1.24,1.17,2.11,1.56c.87.39,1.94.59,3.22.61.41,0,.89-.04,1.44-.13.56-.09,1.13-.26,1.74-.54s1.2-.69,1.78-1.24,1.07-1.3,1.52-2.22c.04.8.09,1.5.19,2.11.07.61.17,1.15.24,1.59h4.41c-.06-.44-.13-.94-.19-1.46-.06-.54-.13-1.07-.17-1.63s-.06-1.07-.06-1.56v-9.2c0-.59-.02-1.19-.06-1.8s-.15-1.22-.3-1.81c-.15-.59-.39-1.17-.7-1.7s-.74-1.02-1.28-1.46c-.69-.56-1.54-.94-2.5-1.19-.98-.24-2.07-.35-3.28-.35-1,0-1.85.06-2.57.19-.72.11-1.31.26-1.8.43-.48.19-.89.35-1.19.56-.35.2-.74.48-1.13.83l1.41,3.39c.89-.74,2.11-1.52,3.26-1.8M37.55,195.16v1.11c0,.46-.06.94-.15,1.48-.09.52-.24,1.04-.43,1.52-.19.5-.41.93-.69,1.31-.28.41-.63.76-1.02,1.06-.41.3-.85.54-1.31.7-.48.17-.96.26-1.46.26-.3,0-.63-.04-.94-.11-.31-.07-.63-.19-.93-.33-.3-.15-.56-.35-.8-.59-.11-.09-.22-.24-.33-.41-.13-.19-.22-.41-.31-.67-.09-.26-.13-.57-.13-.93,0-.37.04-.8.17-1.26s.37-.93.74-1.37c.37-.44.93-.81,1.67-1.11.41-.15.85-.28,1.33-.37s.96-.15,1.43-.19.85-.06,1.17-.06l2.02-.04h0l-.02-.02Z"/>
			  <path class="st124" d="M222.1,187.14c.46-.13,1.04-.19,1.74-.19.37,0,.74.02,1.15.07s.8.17,1.19.35c.39.19.7.46.98.85.17.24.28.52.39.81.09.3.17.61.2.91.04.31.07.57.09.81v1.24l-2.17.04c-.46,0-1.02.04-1.67.09-.65.06-1.33.13-2.06.24s-1.43.28-2.13.48c-.7.2-1.35.48-1.93.8-.89.5-1.57,1.09-2.06,1.74-.5.67-.83,1.33-1.04,2.06-.2.7-.3,1.41-.28,2.07,0,.76.11,1.52.35,2.28.24.76.63,1.46,1.17,2.11.54.65,1.24,1.17,2.11,1.56.87.39,1.94.59,3.22.61.41,0,.89-.04,1.44-.13s1.13-.26,1.74-.54,1.2-.69,1.76-1.24c.57-.56,1.07-1.3,1.52-2.22.04.8.09,1.5.19,2.11.07.61.17,1.15.24,1.59h4.41c-.06-.44-.13-.94-.19-1.46-.06-.54-.13-1.07-.17-1.63-.04-.56-.06-1.07-.06-1.56v-9.2c0-.59,0-1.19-.07-1.8-.04-.61-.15-1.22-.3-1.81-.15-.59-.39-1.17-.7-1.7s-.74-1.02-1.28-1.46c-.69-.56-1.54-.94-2.5-1.19-.98-.24-2.07-.35-3.28-.35-1,0-1.85.06-2.57.19-.72.11-1.31.26-1.8.43-.48.19-.89.35-1.19.56-.35.2-.74.48-1.13.83l1.41,3.39c.89-.74,2.11-1.52,3.26-1.8M227.84,195.16v1.11c0,.46-.06.94-.15,1.48-.09.52-.24,1.04-.43,1.52-.19.5-.41.93-.69,1.31-.28.41-.63.76-1.02,1.06-.41.3-.85.54-1.31.7-.48.17-.96.26-1.46.26-.3,0-.63-.04-.94-.11s-.63-.19-.93-.33c-.3-.15-.56-.35-.8-.59-.11-.09-.22-.24-.33-.41-.13-.19-.22-.41-.31-.67s-.13-.57-.15-.93c0-.37.04-.8.17-1.26.13-.46.37-.93.74-1.37s.93-.81,1.67-1.11c.41-.15.85-.28,1.33-.37s.96-.15,1.43-.19.85-.06,1.17-.06l2.02-.04h0v-.02Z"/>
			</g>
		  </g>
	</symbol>
	<symbol id="lg-dah" viewBox="0 0 250 250">
	  <defs>
		<style>
		  .st110 {
			fill: #213a8e;
		  }

		  .st111 {
			fill: none;
		  }

		  .st112 {
			fill: #e84e24;
		  }
		</style>
	  </defs>
	  <rect class="st111" y="0" width="250" height="250"/>
	  <g>
		<path class="st110" d="M167.64,140.26c0,1.7-.31,3.17-.94,4.43-.63,1.24-1.5,2.29-2.64,3.11-1.13.81-2.46,1.41-4.01,1.81s-3.26.6-5.09.6c-1.64,0-3.21-.1-4.74-.29-1.51-.19-3.03-.5-4.51-.94v-5.79c.73.26,1.5.49,2.29.71.8.23,1.6.43,2.39.59.8.16,1.6.3,2.4.39.8.1,1.57.14,2.31.14,1.11,0,2.06-.09,2.83-.29.79-.19,1.41-.46,1.9-.79.5-.33.84-.73,1.07-1.19s.33-.97.33-1.53c0-.76-.21-1.4-.66-1.91-.44-.51-1-.97-1.71-1.37-.71-.4-1.53-.76-2.44-1.07s-1.84-.66-2.79-1.03c-.94-.36-1.87-.79-2.79-1.24-.91-.46-1.73-1.03-2.44-1.71-.71-.67-1.29-1.5-1.73-2.44-.43-.94-.64-2.09-.64-3.41,0-1.23.21-2.39.66-3.47.44-1.1,1.14-2.06,2.1-2.87s2.17-1.47,3.67-1.94c1.49-.49,3.29-.73,5.4-.73.61,0,1.26.03,1.94.09.69.04,1.34.13,2,.21.66.09,1.3.2,1.9.31.61.13,1.17.24,1.69.37v5.36c-.5-.2-1.06-.37-1.66-.53-.61-.17-1.23-.3-1.87-.41s-1.29-.21-1.94-.27c-.66-.07-1.27-.1-1.86-.1-1.04,0-1.9.09-2.61.26s-1.3.4-1.77.69c-.46.3-.8.66-1,1.09-.21.43-.31.91-.31,1.43,0,.64.21,1.21.66,1.69.44.47,1.01.89,1.73,1.26.73.37,1.54.73,2.46,1.06.9.31,1.84.67,2.81,1.04.96.37,1.9.8,2.8,1.27.91.49,1.73,1.06,2.46,1.74.71.69,1.3,1.49,1.73,2.41.44.93.66,2.03.66,3.3"/>
		<path class="st110" d="M182.61,123.01c2.44,0,4.74.61,6.89,1.83,2.14,1.23,3.83,2.87,5.03,4.97,1.21,2.1,1.81,4.36,1.81,6.79s-.6,4.73-1.81,6.86-2.87,3.79-4.96,4.99c-2.1,1.2-4.4,1.8-6.93,1.8-3.71,0-6.89-1.31-9.5-3.97-2.63-2.64-3.94-5.84-3.94-9.63,0-4.04,1.49-7.41,4.46-10.11,2.6-2.34,5.59-3.53,8.97-3.53M182.73,129.14c-2.01,0-3.7.7-5.04,2.1s-2,3.2-2,5.39.66,4.07,1.99,5.47,3.01,2.1,5.04,2.1,3.73-.71,5.07-2.11c1.36-1.41,2.03-3.23,2.03-5.44s-.66-4.03-2-5.41c-1.33-1.39-3.03-2.09-5.09-2.09"/>
		<rect class="st110" x="198.4" y="113.77" width="6.5" height="36.47"/>
		<path class="st110" d="M227.23,123.77h6.5v26.47h-6.5v-3.4c-1.26,1.21-2.53,2.09-3.8,2.61-1.29.53-2.66.8-4.16.8-3.34,0-6.23-1.3-8.67-3.89-2.44-2.6-3.66-5.81-3.66-9.67s1.19-7.26,3.54-9.81,5.23-3.84,8.6-3.84c1.56,0,3.01.3,4.37.89s2.63,1.47,3.77,2.64v-2.8h0ZM220.41,129.01c-2.01,0-3.67.71-5,2.14-1.33,1.41-2,3.24-2,5.46s.69,4.09,2.03,5.53c1.36,1.44,3.03,2.16,5,2.16s3.73-.7,5.07-2.13c1.34-1.41,2.01-3.29,2.01-5.59s-.67-4.07-2.01-5.47-3.04-2.1-5.1-2.1"/>
		<path class="st110" d="M35.67,118.3c3.93,13.19-3.93,23.21-11.64,23.21h-3.66c-4.23,0-5.27-3.76-5.27-5.26v-23.84c0-3.74,3.23-5.26,5.27-5.26h3.43c17.6,0,25.64,24.24,18.76,38.11,14.79-14.67,8.91-45.51-17.97-45.51H0l3.47,3.76v42.4c0,2.63,2.11,4.33,4.34,4.33h20.6c1.9,0,10.07,0,12.06-10.9,1.57-8.61-1.36-16.5-4.79-21.04"/>
		<path class="st110" d="M112.27,99.76h-14.7l3.49,3.76,6.39,15.16h-15.9l4.59,10.17c.3.73,1.31,1.63,2.57,1.63h12.49c.2,0,1.07-.07,1.49.87,0,0,4.54,11.09,5.03,12.16.83,1.8,3.57,6.73,9.93,6.73h7.4l-19.99-48.43c-.47-1.1-1.43-2.01-2.79-2.06"/>
		<path class="st110" d="M73.81,99.76h-20.59l3.47,3.76-4.74,10.69c3.97,12.03.84,27.33-13.97,36.06h8.24c1.31,0,3.51-.46,4.93-1.51,1.19-.89,2.24-1.76,3.14-3.77,1.94-3.87,12.66-31.81,12.66-31.81.03,0,.41-1.33,1.9-1.33,1.3,0,1.77,1.11,1.8,1.11l10.53,25.4h-16c2.07,5.7,8.87,11.89,17.4,11.89l13.96-.07,4.14-.03c-6.14-14.81-17.89-44.01-19.36-46.29-.64-1-2.79-4.1-7.5-4.1"/>
		<path class="st112" d="M138.11,102.87c0-1.2-.99-3.11-3.26-3.11h-11.49c-2.03,0-4,2.03-2.96,4.56,3.79,9.29,15.11,36.21,15.19,36.37.7,1.44,2.53.76,2.53-.46v-37.36"/>
		<path class="st110" d="M242.6,126.26v-2.49h-6.49v26.47h6.49v-18.2c2.16-1.41,4.69-2.29,7.4-2.47v-5.79c-2.71.19-5.26,1.06-7.4,2.47"/>
	  </g>
	</symbol>
	<symbol id="lg-deye" viewBox="0 0 250 250">
	  <defs>
		<style>
		  .st100 {
			fill: none;
		  }

		  .st101 {
			fill: #409fcf;
			fill-rule: evenodd;
		  }

		  .st102 {
			fill: #b61d22;
		  }
		</style>
	  </defs>
	  <rect class="st100" y="0" width="250" height="250"/>
	  <g>
		<path class="st101" d="M0,155.42l.13-57.52h16.93v39.62l38.65.07s15.63-6.36,15.63-22.57-13.1-21.66-18.42-21.66-31.7.06-31.7.06v-18.22l37.22-.07s20.89,2.73,26.66,28.22c5.7,25.49-12.26,52.07-30.29,52.07H0ZM249.8,131.62l-38.66.13s-.59,12.07,12.59,12.46c13.1.39,14-8.36,14-8.36h11.93s-.46,4.03-3.57,8.36c-4.14,5.84-13.49,12.59-25.74,11.03-32.16-4.14-27.89-49.35,2.4-52.33,9.01-.84,29.57,5.77,27.04,28.73M238.31,127.22s-.84-8.69-10.5-10.9c-9.66-2.2-16.73,5.06-16.73,10.9h27.24-.01ZM158.8,103.02l11.03,34.5,12-34.5h14.33l-27.56,71.85h-12.84l6.87-22.82-16.67-49.03h12.84ZM141.49,131.62l-38.59.13s-.59,12.07,12.52,12.46c13.17.39,14.02-8.36,14.02-8.36h11.93s-.39,4.03-3.5,8.36c-4.21,5.84-13.56,12.59-25.8,11.03-32.17-4.14-27.89-49.35,2.4-52.33,9.01-.84,29.63,5.77,27.04,28.73M130.09,127.22s-.91-8.69-10.57-10.9c-9.66-2.2-16.67,5.06-16.67,10.9h27.24Z"/>
		<rect class="st102" x=".12" y="75.27" width="16.93" height="17.96"/>
	  </g>
	</symbol>
	<symbol id="lg-foxess" viewBox="0 0 250 250">
	  <defs>
		<style>
		  .st90 {
			fill: #da5c93;
		  }

		  .st91 {
			fill: url(#Gradiente_sem_nome_2);
		  }

		  .st92 {
			fill: none;
		  }

		  .st93 {
			fill: url(#Gradiente_sem_nome);
		  }

		  .st94 {
			fill: #004171;
		  }

		  .st95 {
			fill: url(#Gradiente_sem_nome_3);
		  }
		</style>
		<linearGradient id="Gradiente_sem_nome" data-name="Gradiente sem nome" x1="180.77" y1="178.43" x2="218.71" y2="128.28" gradientTransform="translate(0 249.89) scale(1 -1)" gradientUnits="userSpaceOnUse">
		  <stop offset="0" stop-color="#5f2779"/>
		  <stop offset=".88" stop-color="#db5c95"/>
		</linearGradient>
		<linearGradient id="Gradiente_sem_nome_2" data-name="Gradiente sem nome 2" x1="175.84" y1="171.36" x2="213.71" y2="127.19" gradientTransform="translate(0 249.89) scale(1 -1)" gradientUnits="userSpaceOnUse">
		  <stop offset="0" stop-color="#d94f17"/>
		  <stop offset=".99" stop-color="#f3c525"/>
		</linearGradient>
		<linearGradient id="Gradiente_sem_nome_3" data-name="Gradiente sem nome 3" x1="174.27" y1="120.85" x2="232.01" y2="186.43" gradientTransform="translate(0 249.89) scale(1 -1)" gradientUnits="userSpaceOnUse">
		  <stop offset="0" stop-color="#233d6c"/>
		  <stop offset=".21" stop-color="#1d82c4"/>
		  <stop offset=".66" stop-color="#349b3b"/>
		  <stop offset="1" stop-color="#91b826"/>
		</linearGradient>
	  </defs>
	  <rect class="st92" y="0" width="250" height="250"/>
	  <g>
		<path class="st94" d="M0,165.73c0,.81.64,1.54,1.54,1.54h9.56c.81,0,1.54-.73,1.54-1.54v-19.69h18.47c.81,0,1.54-.73,1.54-1.54v-8.83c0-.81-.73-1.54-1.54-1.54H12.64v-11.67h22.44c.89,0,1.54-.73,1.54-1.54v-8.83c0-.81-.64-1.54-1.54-1.54H1.54c-.89,0-1.54.73-1.54,1.54v53.63h0Z"/>
		<path class="st94" d="M84.43,138.99h0c0,8.83-7.29,16.13-16.2,16.13s-16.13-7.29-16.13-16.13,7.29-16.29,16.13-16.29,16.2,7.37,16.2,16.29M97.4,138.99c0-16.2-12.96-29.24-29.17-29.24s-29.08,13.04-29.08,29.24,12.89,29.08,29.08,29.08,29.17-12.89,29.17-29.08"/>
		<path class="st94" d="M94.3,165c-.73,1.06,0,2.27,1.37,2.27h11.26c.64,0,1.13-.4,1.37-.73l10.37-16.37h.16l10.61,16.37c.24.4.89.73,1.37.73h11.26c1.3,0,2.03-1.13,1.3-2.27l-17.01-26.81,16.44-25.36c.73-1.06,0-2.27-1.37-2.27h-11.83c-.57,0-1.13.4-1.3.73l-9.49,15.07h-.09l-9.31-15.07c-.24-.33-.73-.73-1.3-.73h-11.83c-1.37,0-2.03,1.21-1.37,2.27l16.37,25.36-17.01,26.81h.03Z"/>
		<path class="st94" d="M94.15,190.21c0,.24.2.47.47.47h9.69c.27,0,.47-.21.47-.47v-.71c0-.24-.2-.47-.47-.47h-8.26v-6.27h7.06c.24,0,.47-.2.47-.47v-.71c0-.24-.23-.47-.47-.47h-7.06v-6h8.26c.27,0,.47-.21.47-.47v-.71c0-.24-.2-.47-.47-.47h-9.69c-.27,0-.47.21-.47.47v16.3Z"/>
		<path class="st94" d="M113.75,188.94c.31.3,2.29,1.99,5.19,1.99s5.31-1.97,5.31-4.53c0-2.86-2.14-4.1-5.46-5.46-2.06-.86-3.31-1.61-3.31-3.37,0-1.03.79-2.7,3.39-2.7,1.37,0,2.24.37,3.27.99.4.21.66.21.86-.13l.24-.41c.27-.47,0-.76-.14-.84,0,0-1.8-1.26-4.2-1.26-3.91,0-5.23,2.7-5.23,4.37,0,2.8,1.63,3.83,4.33,4.99,2.83,1.2,4.3,2.19,4.3,3.89,0,1.54-1.3,2.8-3.3,2.8-2.19,0-4.06-1.64-4.23-1.8-.34-.29-.54-.17-.79.14l-.37.47c-.34.44-.04.66.14.83"/>
		<path class="st94" d="M132.91,188.94c.31.3,2.29,1.99,5.19,1.99s5.3-1.97,5.3-4.53c0-2.86-2.14-4.1-5.46-5.46-2.06-.86-3.31-1.61-3.31-3.37,0-1.03.79-2.7,3.39-2.7,1.37,0,2.23.37,3.27.99.39.21.66.21.86-.13l.24-.41c.27-.47,0-.76-.14-.84,0,0-1.8-1.26-4.2-1.26-3.91,0-5.23,2.7-5.23,4.37,0,2.8,1.63,3.83,4.33,4.99,2.83,1.2,4.3,2.19,4.3,3.89,0,1.54-1.3,2.8-3.3,2.8-2.19,0-4.06-1.64-4.23-1.8-.34-.29-.54-.17-.79.14l-.37.47c-.34.44-.04.66.14.83"/>
		<path class="st90" d="M202.61,69.99c-.03-.09-.04-.17-.07-.27.03.09.04.17.07.27"/>
		<path class="st93" d="M178.07,126.66c-14.91-14.57-13.73-38.47-5.03-47.16,8.66-8.67,32.57-9.87,47.14,5.04,11.27,11.54-.67,27.06-7.86,34.24-5.07,5.07-14.29,12.5-23.31,12.5-3.79,0-7.54-1.3-10.94-4.63M171.21,68.69c-4.69,4.69-7.64,12.94-7.97,22.2v3.4c.37,10.91,4.41,22.76,13.51,31.61,3.76,3.67,7.89,5.27,12.1,5.49h1.91c10.73-.51,21.63-9.37,27.7-15.44,8.84-8.84,23.54-27.86,9.97-41.74-9.34-9.57-21.97-13.53-33.34-13.53-9.94,0-18.93,3.03-23.9,8.01h.01Z"/>
		<path class="st91" d="M173.02,79.49c-8.69,8.69-9.89,32.58,5.03,47.16,2.17,2.11,4.44,3.43,6.81,4.1,10.23,2.86,21.58-6.11,27.44-11.97,5.27-5.27,13.1-15.03,12.46-24.4.3,6.9-5.03,13.66-8.71,17.34-5.26,5.26-16.7,13.8-25.96,4.74-11.99-11.7-11.96-29.98-5.63-36.33,6.31-6.31,24.6-6.34,36.33,5.63,1.66,1.7,2.73,3.43,3.33,5.21-.69-2.24-1.96-4.39-3.96-6.44-7.89-8.07-18.51-11.43-27.97-11.43-8.01,0-15.2,2.4-19.17,6.39Z"/>
		<path class="st95" d="M199.75,59.07c-9.74.19-18.67,2.67-24.98,6.8,12.59-8,37.86-7.87,53.67,8.34,13.57,13.87-1.13,32.88-9.97,41.74-8.83,8.83-27.84,23.53-41.71,9.96-17.96-17.49-16.19-46.57-5.54-57.21.31-.31.64-.61.99-.91-.56.46-1.09.93-1.57,1.43-13.47,13.47-15.71,50.27,7.01,72.4,4.96,4.84,10.43,6.83,15.97,6.96h1.06c13.8-.29,27.91-11.74,35.74-19.56,11.2-11.2,29.78-35.24,12.64-52.8-11.49-11.8-26.91-16.86-40.98-17.13h-2.31Z"/>
	  </g>
	</symbol>
	<symbol id="lg-growatt" viewBox="0 0 250 250">
	  <defs>
		<style>
		  .st80 {
			fill: none;
		  }

		  .st81 {
			fill: #5e5e5d;
		  }

		  .st82 {
			fill: #93c01f;
		  }
		</style>
	  </defs>
	  <rect class="st80" y="0" width="250" height="250"/>
	  <g>
		<path class="st81" d="M69.36,116.27v-6.3h1.24v.87c.16-.33.36-.57.61-.74.24-.16.54-.24.89-.24.56,0,1,.21,1.3.63.31.43.46.97.46,1.66,0,.73-.17,1.33-.51,1.81s-.83.73-1.44.73c-.16,0-.31-.01-.46-.04-.14-.04-.27-.09-.4-.16s-.27-.2-.44-.36v2.14s-1.24,0-1.24,0ZM70.61,113.4c.17.2.34.33.49.4.14.07.3.11.46.11.34,0,.59-.17.74-.5.16-.33.24-.71.24-1.14s-.07-.79-.23-1.04-.39-.37-.66-.37c-.19,0-.36.06-.54.19s-.34.3-.5.51v1.83h0Z"/>
		<path class="st81" d="M82.9,114.71c-.5,0-.93-.1-1.29-.29-.36-.2-.64-.49-.83-.86-.19-.39-.29-.8-.29-1.27s.09-.89.27-1.26c.19-.37.46-.67.81-.87s.79-.3,1.3-.3.94.1,1.3.3.63.49.81.87c.19.39.29.8.29,1.26s-.1.89-.29,1.27c-.2.37-.46.67-.81.86-.36.2-.79.29-1.3.29M82.9,113.92c.36,0,.61-.16.8-.47s.27-.7.27-1.19-.09-.86-.27-1.17c-.19-.31-.44-.47-.8-.47s-.61.16-.8.47-.27.7-.27,1.17.09.87.27,1.19c.17.31.44.47.8.47Z"/>
		<polygon class="st81" points="92.97 114.6 91.69 109.97 92.86 109.97 93.76 113.21 94.73 109.97 95.81 109.97 96.69 113.22 97.67 109.97 98.54 109.97 97.16 114.6 95.97 114.6 95.11 111.42 94.17 114.6 92.97 114.6"/>
		<path class="st81" d="M109.07,114.44c-.59.17-1.14.26-1.67.26-.5,0-.94-.09-1.31-.27-.37-.19-.67-.47-.87-.87s-.3-.83-.3-1.3c0-.43.09-.83.26-1.2.17-.37.43-.66.76-.87.33-.21.73-.31,1.21-.31.59,0,1.06.19,1.41.57.36.37.53,1.07.53,2.1h-2.84c.03.31.1.56.21.74s.27.33.46.43c.19.11.44.16.77.16.41,0,.89-.1,1.4-.29v.87h-.01ZM106.2,111.82h1.64c0-.41-.07-.73-.21-.91s-.31-.27-.54-.27c-.24,0-.44.1-.6.3s-.26.5-.3.89h.01Z"/>
		<path class="st81" d="M116.1,114.6v-4.63h1.24v.87c.16-.3.36-.54.61-.71.26-.19.54-.27.87-.27.07,0,.16,0,.23.03v1.11c-.17-.07-.34-.1-.5-.1-.24,0-.47.06-.67.19s-.39.31-.54.57v2.94s-1.24,0-1.24,0Z"/>
		<path class="st81" d="M126.03,108.14h1.24v1.04h-1.24v-1.04ZM126.03,109.97h1.24v4.63h-1.24v-4.63Z"/>
		<path class="st81" d="M134.56,114.6v-4.63h1.24v.87c.23-.36.47-.61.74-.76s.56-.23.83-.23c.37,0,.69.11.94.36.26.23.4.6.4,1.11v3.27h-1.26v-2.97c0-.26,0-.43-.07-.51-.04-.09-.1-.16-.19-.2-.07-.04-.17-.07-.27-.07-.17,0-.34.06-.53.17-.19.11-.39.33-.6.67v2.91h-1.24Z"/>
		<path class="st81" d="M145.99,116.04l.1-.9c.51.23,1,.36,1.46.36.43,0,.76-.09.97-.27.21-.19.33-.5.33-.99v-.63c-.13.3-.33.54-.59.71-.26.19-.56.29-.91.29s-.67-.09-.94-.27c-.27-.17-.49-.44-.63-.81-.14-.36-.21-.77-.21-1.21,0-.7.17-1.27.53-1.74s.84-.7,1.46-.7c.16,0,.31.01.44.06.14.03.27.09.4.16s.29.2.46.36l.13-.47h1.11v3.53c0,.93-.09,1.56-.27,1.89s-.46.57-.83.73-.8.24-1.29.24c-.53,0-1.11-.11-1.73-.33M148.84,112.87v-1.71c-.17-.2-.34-.34-.5-.41s-.3-.1-.44-.1c-.31,0-.56.14-.74.43-.19.29-.29.67-.29,1.16,0,.43.07.76.23,1,.14.24.36.36.64.36.2,0,.39-.06.57-.19.19-.13.36-.3.51-.54h.01Z"/>
		<path class="st81" d="M167.99,114.58c-.3.09-.53.13-.7.13-.41,0-.73-.06-.96-.17s-.39-.27-.5-.47-.17-.49-.17-.87v-2.44h-.51v-.79h.51v-.79l1.24-.14v.93h.99v.79h-.99v2.27c0,.33.06.56.17.67s.29.17.51.17c.11,0,.23-.01.39-.06v.76h.01Z"/>
		<path class="st81" d="M177.09,114.71c-.5,0-.93-.1-1.29-.29-.36-.2-.63-.49-.81-.86-.19-.39-.29-.8-.29-1.27s.1-.89.29-1.26c.19-.37.46-.67.81-.87s.79-.3,1.3-.3.94.1,1.3.3.63.49.81.87c.19.39.29.8.29,1.26s-.1.89-.29,1.27c-.19.37-.46.67-.83.86-.36.2-.79.29-1.29.29M177.09,113.92c.36,0,.61-.16.8-.47s.27-.7.27-1.19-.09-.86-.27-1.17c-.17-.31-.44-.47-.8-.47s-.61.16-.8.47-.27.7-.27,1.17.09.87.27,1.19c.17.31.44.47.8.47Z"/>
		<path class="st81" d="M186.63,114.6v-4.63h1.2v.87c.16-.29.36-.51.61-.7s.57-.27.94-.27c.23,0,.41.03.59.1.16.07.31.19.44.33.13.14.21.33.24.54.23-.34.47-.6.7-.76.24-.16.53-.23.87-.23.37,0,.69.11.91.33s.36.57.36,1.07v3.34h-1.2v-2.93c0-.34-.06-.57-.17-.67-.1-.1-.23-.16-.37-.16-.19,0-.37.07-.56.2-.19.14-.36.34-.54.61v2.94h-1.2v-2.93c0-.34-.06-.57-.16-.67-.11-.1-.24-.16-.39-.16-.19,0-.36.07-.54.2s-.36.33-.54.61v2.94h-1.2Z"/>
		<path class="st81" d="M202.99,114.71c-.5,0-.93-.1-1.29-.29-.36-.2-.63-.49-.83-.86-.19-.39-.29-.8-.29-1.27s.1-.89.29-1.26c.19-.37.46-.67.81-.87s.79-.3,1.3-.3.94.1,1.3.3.63.49.81.87c.19.39.27.8.27,1.26s-.1.89-.29,1.27c-.19.37-.46.67-.81.86-.36.2-.79.29-1.3.29M202.99,113.92c.36,0,.61-.16.8-.47s.27-.7.27-1.19-.09-.86-.27-1.17-.44-.47-.8-.47-.61.16-.8.47-.27.7-.27,1.17.09.87.27,1.19c.17.31.44.47.8.47Z"/>
		<path class="st81" d="M212.53,114.6v-4.63h1.26v.87c.14-.3.36-.54.61-.71.26-.19.54-.27.87-.27.07,0,.16,0,.23.03v1.11c-.17-.07-.34-.1-.49-.1-.26,0-.47.06-.67.19s-.39.31-.54.57v2.94s-1.27,0-1.27,0Z"/>
		<path class="st81" d="M222.46,114.6v-4.63h1.26v.87c.14-.3.36-.54.61-.71.26-.19.54-.27.87-.27.07,0,.16,0,.23.03v1.11c-.17-.07-.34-.1-.5-.1-.24,0-.47.06-.67.19s-.39.31-.54.57v2.94h-1.26,0Z"/>
		<path class="st81" d="M234.37,114.71c-.5,0-.93-.1-1.29-.29-.36-.2-.63-.49-.81-.86-.19-.39-.29-.8-.29-1.27s.1-.89.27-1.26c.19-.37.46-.67.81-.87s.79-.3,1.3-.3.94.1,1.3.3.63.49.81.87c.19.39.29.8.29,1.26s-.1.89-.29,1.27c-.19.37-.46.67-.81.86-.36.2-.79.29-1.3.29M234.37,113.92c.36,0,.61-.16.8-.47s.27-.7.27-1.19-.09-.86-.27-1.17-.44-.47-.8-.47-.61.16-.8.47-.27.7-.27,1.17.09.87.27,1.19c.17.31.44.47.8.47Z"/>
		<polygon class="st81" points="244.44 114.6 243.14 109.97 244.3 109.97 245.21 113.21 246.19 109.97 247.27 109.97 248.14 113.22 249.13 109.97 250 109.97 248.61 114.6 247.43 114.6 246.57 111.42 245.63 114.6 244.44 114.6"/>
		<path class="st81" d="M69.36,154.75v-30.04h8.1v5.66c.97-1.93,2.29-3.47,3.97-4.63,1.69-1.14,3.54-1.73,5.61-1.73.5,0,.99.06,1.5.17v7.23c-1.13-.41-2.2-.63-3.2-.63-1.6,0-3.07.41-4.39,1.23-1.31.8-2.47,2.03-3.5,3.67v19.07h-8.1Z"/>
		<path class="st81" d="M107.54,155.44c-3.24,0-6.04-.63-8.36-1.9-2.33-1.27-4.1-3.13-5.33-5.6s-1.83-5.2-1.83-8.21.6-5.71,1.8-8.17c1.2-2.46,2.97-4.33,5.3-5.61,2.34-1.29,5.13-1.93,8.4-1.93s6.09.64,8.41,1.93,4.1,3.16,5.3,5.61c1.21,2.46,1.81,5.17,1.81,8.17s-.61,5.74-1.83,8.21c-1.23,2.46-3,4.33-5.31,5.6-2.33,1.27-5.11,1.9-8.39,1.9M107.54,150.37c2.3,0,4.03-1.01,5.19-3.03,1.16-2.01,1.73-4.56,1.73-7.61s-.59-5.59-1.73-7.61c-1.16-2.03-2.89-3.04-5.19-3.04s-4,1.01-5.16,3.04-1.73,4.56-1.73,7.61.57,5.6,1.73,7.61,2.89,3.03,5.16,3.03Z"/>
		<polygon class="st81" points="135.83 154.75 127.47 124.7 135 124.7 140.91 145.75 147.21 124.7 154.2 124.7 159.89 145.85 166.26 124.7 171.9 124.7 162.97 154.75 155.2 154.75 149.73 134.14 143.6 154.75 135.83 154.75"/>
		<path class="st81" d="M193.57,151.52c-1.17,1.13-2.19,1.94-3.04,2.44s-1.74.86-2.69,1.11c-.93.24-1.91.37-2.96.37-2.69,0-4.83-.83-6.44-2.5-1.61-1.67-2.43-3.71-2.43-6.14,0-2.96,1.21-5.43,3.63-7.4,2.41-1.99,6.33-2.97,11.74-2.97h2.16v-2.74c0-1.84-.51-3.09-1.54-3.73-1.01-.64-2.31-.96-3.87-.96-3.1,0-6.27.89-9.5,2.69v-5.59c3.67-1.39,7.31-2.09,10.94-2.09,2.23,0,4.21.3,5.97.9s3.14,1.54,4.2,2.8c1.04,1.27,1.57,3.16,1.57,5.69v13.3c0,1.63.24,2.61.76,2.99.5.36.99.54,1.49.54.3,0,.84-.03,1.29-.11v4.54c-1.71.51-3.23.76-4.57.76-1.5,0-2.79-.26-3.87-.76-1.09-.5-1.91-1.56-2.5-3.16h-.36.03ZM193.57,147.17v-6.1h-1.91c-2.64,0-4.61.47-5.91,1.41s-1.94,2.11-1.94,3.51c0,1.16.39,2.1,1.17,2.83.79.74,1.7,1.11,2.76,1.11.94,0,1.91-.23,2.89-.7.97-.47,1.96-1.16,2.94-2.07h.01Z"/>
		<path class="st81" d="M227.29,154.6c-1.93.56-3.46.84-4.57.84-2.64,0-4.7-.37-6.16-1.11s-2.56-1.77-3.29-3.06c-.73-1.29-1.09-3.17-1.09-5.67v-15.81h-3.37v-5.06h17.9v5.06h-6.43v14.73c0,2.17.39,3.63,1.16,4.39.76.76,1.89,1.14,3.36,1.14.7,0,1.53-.11,2.49-.33v4.9h0Z"/>
		<path class="st81" d="M250,154.6c-1.93.56-3.46.84-4.57.84-2.64,0-4.7-.37-6.16-1.11s-2.56-1.77-3.29-3.06c-.73-1.29-1.1-3.17-1.1-5.67v-15.81h-3.36v-5.06h17.89v5.06h-6.43v14.73c0,2.17.39,3.63,1.14,4.39.77.76,1.89,1.14,3.37,1.14.7,0,1.53-.11,2.49-.33v4.9h.01Z"/>
		<path class="st82" d="M30.09,124.65v11.3h15.01c-3.43,4.56-8.89,7.51-15.01,7.51-10.37,0-18.8-8.44-18.8-18.8s8.43-18.8,18.8-18.8c5.01,0,9.74,1.96,13.29,5.5h0l7.09-7.09.9-.9h0c-5.44-5.44-12.97-8.81-21.27-8.81-16.61,0-30.09,13.47-30.09,30.09s13.47,30.1,30.09,30.1c7.11,0,13.64-2.47,18.8-6.6v6.6h11.29v-30.1h-30.09Z"/>
	  </g>
	</symbol>
	<symbol id="lg-helius" viewBox="0 0 250 250">
	  <defs>
		<style>
		  .st70, .st71, .st72 {
			fill-rule: evenodd;
		  }

		  .st70, .st73 {
			fill: #0b478d;
		  }

		  .st74 {
			fill: none;
		  }

		  .st71, .st75 {
			fill: #1d75ba;
		  }

		  .st72 {
			fill: #f6a320;
		  }
		</style>
	  </defs>
	  <rect class="st74" y="0" width="250" height="250"/>
	  <g>
		<path class="st71" d="M37.09,139.93c-3.66-4.23-7.61-8.2-11.86-11.86-1.2-1.03-2.41-2.04-3.66-3.03-6.14-4.89-12.81-9.11-19.9-12.66-.56-.27-1.11-.56-1.67-.83v47.69c0,3.09,2.53,5.61,5.61,5.61h47.84c-.27-.56-.56-1.11-.83-1.67-3.5-6.99-7.7-13.56-12.51-19.63-.99-1.24-1.99-2.46-3.03-3.66"/>
		<path class="st72" d="M48.56,125.14c0-4.7-3.83-8.53-8.53-8.53s-8.53,3.83-8.53,8.53,3.83,8.53,8.53,8.53,8.53-3.83,8.53-8.53"/>
		<path class="st72" d="M74.14,85.12c3.09,0,5.61,2.53,5.61,5.61v68.53c0,3.09-2.53,5.61-5.61,5.61h-16.97c-.26-.56-.54-1.11-.8-1.67-3.44-7.11-7.59-13.84-12.34-20.06.84-.19,1.67-.43,2.46-.73l10.06,11.61-5.03-14.49c1-.8,1.91-1.7,2.74-2.69l14.51,5.04-11.59-10.03c.47-1.19.81-2.41,1.03-3.7l15.09-2.9-15.04-2.89c-.2-1.29-.53-2.53-.97-3.71l11.61-10.06-14.49,5.03c-.8-1-1.7-1.91-2.69-2.73l4.49-12.91.56-1.6-1.39,1.6-8.64,9.99c-1.19-.47-2.41-.81-3.7-1.03l-1.63-8.51-1.26-6.57-1.3,6.79-1.59,8.26c-1.29.2-2.53.53-3.71.97l-6.7-7.74-3.36-3.87,1.46,4.2,3.57,10.29c-1,.8-1.91,1.7-2.73,2.69l-14.53-5.04,11.59,10.03c-.34.89-.63,1.8-.83,2.73-6.31-4.83-13.13-9.01-20.34-12.49-.56-.27-1.11-.54-1.67-.8v-17.13c0-3.09,2.53-5.61,5.61-5.61h68.53-.01Z"/>
		<path class="st72" d="M55.1,125.14c0,7.76-5.9,14.17-13.46,14.99-.87-1.06-1.76-2.11-2.67-3.14.34.03.69.06,1.04.06,6.56,0,11.9-5.34,11.9-11.9s-5.34-11.9-11.9-11.9-11.9,5.34-11.9,11.9c0,.34.03.7.06,1.04-1.03-.9-2.09-1.8-3.14-2.66.81-7.56,7.23-13.46,14.99-13.46,8.31,0,15.07,6.77,15.07,15.07"/>
		<polygon class="st73" points="92.53 138.72 92.53 141.32 92.53 142.83 92.53 151.94 92.53 155.03 92.53 156.06 112.23 156.06 112.23 151.94 97.31 151.94 97.31 142.83 119.96 142.83 119.96 138.72 92.53 138.72"/>
		<polygon class="st75" points="100.26 149.44 115.17 149.44 115.17 158.54 92.53 158.54 92.53 162.66 119.96 162.66 119.96 159.7 119.96 158.54 119.96 149.44 119.96 146 119.96 145.33 100.26 145.33 100.26 149.44"/>
		<polygon class="st75" points="160.23 142.06 160.23 157.97 168.57 157.97 168.57 161.42 156.14 161.42 156.14 142.06 160.23 142.06"/>
		<path class="st75" d="M174.81,161.4h-4.09v-13.61h4.09v13.61ZM174.94,145.53h-4.3v-3.46h4.3v3.46Z"/>
		<path class="st75" d="M190.94,161.42h-4.07v-7.71c-.03-.56,0-1.56-.1-1.93-.13-.53-.77-1.6-2.01-1.6-.19,0-.77-.04-1.53.64-.4.4-.67.91-.79,1.2-.11.26-.29.84-.29,1.49v7.91h-4.06v-13.59l4.06.06v1.66c.51-.49.76-.81,1.17-1.11.46-.33,1.16-.79,2.81-.84.27,0,1.41.04,2.34.53.77.4,1.54,1.21,1.67,1.37.06.1.36.51.49.89.29.8.26,1.24.29,2.04v9h.01ZM188.49,148.12c.77.4.99.61,1.5,1.13.24.27.53.76.66,1.13"/>
		<path class="st75" d="M152.71,161.42h-4.07v-7.71c-.03-.56,0-1.56-.1-1.93-.13-.53-.77-1.6-2.01-1.6-.19,0-.77-.04-1.53.64-.4.4-.67.91-.79,1.2-.11.26-.29.84-.29,1.49v7.91h-4.06v-13.59l4.06.06v1.66c.51-.49.77-.81,1.19-1.11.46-.33,1.16-.79,2.81-.84.27,0,1.41.04,2.36.53.77.4,1.54,1.21,1.67,1.37.06.1.36.51.49.89.29.8.26,1.24.29,2.04v9h-.01ZM150.26,148.12c.77.4.99.61,1.49,1.13.24.27.53.76.67,1.13"/>
		<path class="st75" d="M123.5,147.83h4.07v7.71c.03.56,0,1.56.1,1.93.13.53.77,1.6,2.01,1.6.19,0,.77.04,1.53-.64.4-.4.67-.91.8-1.2.11-.26.29-.84.29-1.49v-7.91h4.06v13.59l-4.06-.06v-1.66c-.51.49-.76.81-1.19,1.11-.46.33-1.16.79-2.81.84-.27,0-1.41-.04-2.36-.53-.77-.4-1.54-1.21-1.67-1.37-.06-.1-.36-.51-.49-.89-.3-.8-.27-1.24-.29-2.04v-9h0ZM125.94,161.13c-.77-.4-.99-.61-1.49-1.13-.24-.27-.53-.76-.66-1.13"/>
		<polygon class="st75" points="198.51 142.06 198.51 153.33 202.41 147.74 207 147.74 202.24 153.69 207.33 161.42 202.47 161.42 198.53 154.29 198.53 161.42 194.43 161.42 194.43 142.06 198.51 142.06"/>
		<path class="st75" d="M222.17,142.06c2.1,0,5.47,0,7.19,2.5.99,1.44,1.01,2.94,1.01,3.41,0,.24-.06,2.91-1.94,4.51-.76.66-1.86,1.01-1.99,1.03-1.31.41-2.59.44-5.76.44v7.46h-4.09v-19.36h5.59-.01ZM220.7,150.73c.87.03,3.27.11,4.23-.43.19-.1.54-.33.71-.71.21-.5.23-1.21.23-1.64,0-.9-.29-1.49-.7-1.84-.11-.11-.39-.34-.57-.41-.57-.27-1.14-.29-2.31-.29h-1.6l.03,5.31h-.01Z"/>
		<polygon class="st75" points="242.8 161.42 238.34 161.42 231.3 142.06 235.83 142.06 240.84 157.34 241.5 155.22 245.84 142.06 250 142.06 242.8 161.42"/>
		<path class="st70" d="M116.41,92.09h8.91v39.6h-8.91v-16.8h-14.97v16.8h-8.91v-39.6h8.91v15.14h14.97s0-15.14,0-15.14ZM130.19,116.87c0-2.66.41-5,1.23-7s1.9-3.66,3.23-5c1.33-1.33,2.87-2.34,4.6-3.03s3.51-1.03,5.34-1.03c4.27,0,7.64,1.3,10.11,3.91,2.47,2.61,3.71,6.44,3.71,11.51,0,.5,0,1.04-.06,1.63-.03.59-.07,1.11-.11,1.57h-19.31c.2,1.76,1.01,3.14,2.46,4.17s3.39,1.54,5.83,1.54c1.56,0,3.1-.14,4.6-.43,1.5-.29,2.73-.64,3.69-1.06l1.14,6.91c-.46.23-1.07.46-1.83.69-.76.23-1.61.43-2.54.6s-1.93.31-3,.43-2.13.17-3.2.17c-2.71,0-5.06-.4-7.06-1.2-2-.8-3.66-1.9-4.97-3.29s-2.29-3.04-2.91-4.94c-.63-1.9-.94-3.96-.94-6.17M150.19,113.63h0c-.04-.73-.16-1.43-.37-2.11s-.53-1.3-.97-1.83c-.44-.53-.99-.97-1.66-1.31s-1.5-.51-2.49-.51-1.77.16-2.46.49c-.69.33-1.26.76-1.71,1.29-.46.53-.81,1.16-1.06,1.86-.24.7-.43,1.41-.54,2.14h11.26ZM175.84,132.25c-2.47-.04-4.49-.3-6.03-.8-1.54-.5-2.76-1.19-3.66-2.09-.9-.9-1.5-1.97-1.83-3.26-.33-1.27-.49-2.71-.49-4.31v-33.09l8.51-1.37v32.74c0,.76.06,1.44.17,2.06s.33,1.13.66,1.54c.33.41.79.76,1.4,1.03s1.43.44,2.46.51l-1.2,7.03h0ZM181.9,131.67h8.51v-30.06h-8.51v30.06ZM222.91,130.64c-1.44.41-3.31.81-5.6,1.17-2.29.36-4.69.54-7.2.54s-4.67-.34-6.37-1.03-3.04-1.64-4.03-2.89c-1-1.23-1.7-2.71-2.11-4.43s-.63-3.6-.63-5.66v-16.74h8.51v15.71c0,2.74.36,4.73,1.09,5.94s2.07,1.83,4.06,1.83c.61,0,1.26-.03,1.94-.09s1.3-.13,1.83-.2v-23.2h8.51v29.03h0ZM237.26,125.56c1.56,0,2.67-.16,3.31-.46s.97-.9.97-1.77c0-.69-.41-1.29-1.26-1.8-.84-.51-2.11-1.1-3.83-1.74-1.33-.5-2.54-1.01-3.63-1.54s-2.01-1.17-2.77-1.91-1.36-1.63-1.77-2.66c-.41-1.03-.63-2.27-.63-3.71,0-2.81,1.04-5.04,3.14-6.69s4.97-2.46,8.63-2.46c1.83,0,3.59.16,5.26.49,1.67.33,3.01.67,4,1.06l-1.49,6.63c-.99-.34-2.07-.64-3.23-.91s-2.47-.4-3.91-.4c-2.67,0-4,.74-4,2.23,0,.34.06.64.17.91s.34.53.69.77c.34.24.81.51,1.4.8.59.29,1.34.6,2.26.96,1.87.69,3.41,1.37,4.63,2.04s2.19,1.4,2.89,2.17c.7.79,1.2,1.64,1.49,2.6.29.94.43,2.06.43,3.3,0,2.97-1.11,5.21-3.34,6.73-2.23,1.51-5.39,2.29-9.46,2.29-2.67,0-4.89-.23-6.66-.69-1.77-.46-3-.84-3.69-1.14l1.43-6.91c1.44.57,2.93,1.01,4.46,1.34,1.53.33,3.03.49,4.51.49"/>
		<path class="st72" d="M186.13,97.97c1.37,0,2.56-.44,3.57-1.34,1.01-.9,1.51-2.13,1.51-3.69s-.5-2.79-1.51-3.69c-1.01-.9-2.2-1.34-3.57-1.34s-2.56.44-3.57,1.34c-1.01.9-1.51,2.13-1.51,3.69s.5,2.79,1.51,3.69c1.01.9,2.2,1.34,3.57,1.34"/>
	  </g>
	</symbol>
	<symbol id="lg-honor" viewBox="0 0 250 250">
	  <defs>
		<style>
		  .st60 {
			fill: #0a6fb6;
		  }

		  .st61 {
			fill: none;
		  }

		  .st62 {
			fill: #dc2227;
		  }
		</style>
	  </defs>
	  <rect class="st61" y="0" width="250" height="250"/>
	  <g id="logotipo-linha">
		<g id="Grupo_409">
		  <path id="Caminho_573" class="st60" d="M8.34,107.38v14.13h13.77v-14.13h8.34v36.64h-8.34v-15.27h-13.77v15.27H0v-36.64s8.34,0,8.34,0Z"/>
		  <path id="Caminho_574" class="st60" d="M45.86,144.61c-7.84,0-13.89-5.11-13.89-13.7s5.71-14.09,14.37-14.09c8.17,0,13.67,5.6,13.67,13.64,0,9.67-6.97,14.13-14.1,14.13h-.06,0ZM46.07,138.7c3.29,0,5.33-3.21,5.33-7.99,0-3.91-1.54-7.94-5.33-7.94s-5.49,4.03-5.49,7.99c0,4.51,1.91,7.94,5.43,7.94,0,0,.06,0,.06,0Z"/>
		  <path id="Caminho_575" class="st60" d="M61.5,125.91c0-3.31-.11-6.09-.21-8.47h7.24l.39,3.7h.17c1.84-2.76,4.97-4.39,8.29-4.29,5.49,0,9.6,3.64,9.6,11.47v15.7h-8.34v-14.73c0-3.43-1.2-5.76-4.23-5.76-1.94.01-3.66,1.26-4.29,3.1-.21.67-.3,1.37-.27,2.07v15.33h-8.34v-18.13h0Z"/>
		  <path id="Caminho_576" class="st60" d="M102.19,144.61c-7.84,0-13.89-5.11-13.89-13.7s5.71-14.09,14.37-14.09c8.17,0,13.67,5.6,13.67,13.64,0,9.67-6.97,14.13-14.1,14.13h-.06,0ZM102.4,138.7c3.29,0,5.33-3.21,5.33-7.99,0-3.91-1.54-7.94-5.33-7.94s-5.49,4.03-5.49,7.99c0,4.51,1.91,7.94,5.43,7.94,0,0,.06,0,.06,0Z"/>
		  <path id="Caminho_577" class="st60" d="M117.56,126.18c0-3.91-.06-6.47-.21-8.76h7.13l.33,4.94h.21c.97-3.21,3.89-5.44,7.24-5.54.59,0,1.17.04,1.76.16v7.77c-.74-.14-1.5-.21-2.26-.21-3.07,0-5.16,1.57-5.71,4.19-.11.61-.17,1.23-.17,1.84v13.43h-8.34v-17.84l.03.03h0Z"/>
		</g>
		<g id="Grupo_410">
		  <path id="Caminho_578" class="st62" d="M143.91,135.48c2.89,1.46,6.06,2.23,9.27,2.29,3.84,0,5.87-1.57,5.87-3.97s-1.76-3.59-6.2-5.11c-6.14-2.17-10.21-5.54-10.21-10.87,0-6.26,5.33-10.99,14-10.99,3.24-.1,6.47.54,9.44,1.84l-1.87,6.63c-2.4-1.16-5.03-1.76-7.69-1.74-3.61,0-5.37,1.69-5.37,3.53,0,2.34,2.03,3.37,6.86,5.17,6.53,2.39,9.54,5.76,9.54,10.93,0,6.14-4.71,11.36-14.87,11.36-3.61.03-7.2-.76-10.49-2.29l1.7-6.79h.01Z"/>
		  <path id="Caminho_579" class="st62" d="M181.81,144.61c-7.84,0-13.89-5.11-13.89-13.7s5.71-14.09,14.37-14.09c8.17,0,13.67,5.6,13.67,13.64,0,9.67-6.97,14.13-14.1,14.13h-.06ZM182.03,138.7c3.3,0,5.33-3.21,5.33-7.99,0-3.91-1.54-7.94-5.33-7.94s-5.49,4.03-5.49,7.99c0,4.51,1.91,7.94,5.43,7.94h.06Z"/>
		  <path id="Caminho_580" class="st62" d="M197.19,105.37h8.34v38.66h-8.34v-38.66Z"/>
		  <path id="Caminho_581" class="st62" d="M230.93,137.61c-.06,2.14.09,4.3.44,6.41h-7.51l-.49-2.66h-.17c-1.94,2.19-4.76,3.39-7.69,3.26-5.43,0-8.67-3.91-8.67-8.16,0-6.9,6.26-10.17,15.74-10.17v-.33c0-1.41-.77-3.43-4.89-3.43-2.59.03-5.13.71-7.4,1.96l-1.54-5.27c3.23-1.63,6.81-2.46,10.43-2.39,8.94,0,11.74,5.21,11.74,11.47v9.3h0ZM222.86,131.47c-4.39,0-7.79,1.03-7.79,4.19-.1,1.64,1.14,3.06,2.79,3.16h.5c1.94,0,3.67-1.21,4.34-3.04.11-.46.17-.94.16-1.41v-2.89h0Z"/>
		  <path id="Caminho_582" class="st62" d="M233.54,126.18c0-3.91-.06-6.47-.21-8.76h7.13l.33,4.94h.21c.97-3.21,3.89-5.44,7.24-5.54.59,0,1.17.04,1.76.16v7.77c-.74-.14-1.5-.21-2.26-.21-3.07,0-5.16,1.57-5.71,4.19-.11.61-.17,1.23-.16,1.84v13.43h-8.34v-17.84.03h.01Z"/>
		</g>
	  </g>
	</symbol>
	<symbol id="lg-huawei" viewBox="0 0 250 250">
	  <defs>
		<style>
		  .st50 {
			fill: #231815;
		  }

		  .st51 {
			fill: none;
		  }

		  .st52 {
			fill: #cf0a2c;
		  }
		</style>
	  </defs>
	  <rect class="st51" x="0" y="0" width="250" height="250"/>
	  <g>
		<polyline class="st50" points="29.6 224.83 10.72 224.83 10.72 208.18 2.33 208.18 2.33 249.39 10.72 249.39 10.72 232.67 29.6 232.67 29.6 249.39 37.93 249.39 37.93 208.18 29.6 208.18 29.6 224.83"/>
		<path class="st50" d="M76.73,231.76c0,6.7-3.31,10.26-9.36,10.26s-9.41-3.69-9.41-10.56v-23.28h-8.39v23.6c0,11.59,6.46,18.23,17.68,18.23s17.86-6.76,17.86-18.58v-23.23h-8.39v23.6-.03h0Z"/>
		<polyline class="st50" points="173.4 236.53 164.04 208.18 157.23 208.18 147.87 236.53 138.76 208.18 129.83 208.18 144.18 249.39 151.13 249.39 160.48 222.35 169.9 249.39 176.9 249.39 191.2 208.18 182.5 208.18 173.4 236.53"/>
		<polyline class="st50" points="206.21 231.65 221.42 231.65 221.42 224.16 206.21 224.16 206.21 215.72 228.29 215.72 228.29 208.18 197.95 208.18 197.95 249.39 229.08 249.39 229.08 241.85 206.21 241.85 206.21 231.65"/>
		<rect class="st50" x="239.04" y="208.18" width="8.27" height="41.15"/>
		<path class="st50" d="M111,218.62l5.97,13.81.43.97h-12.67l.43-.97,5.86-13.81h-.01ZM120.47,240.82l3.69,8.57h8.74l-17.98-40.97-.19-.24h-7.24l-18.16,41.21h8.51l3.5-7.97.24-.6h18.88Z"/>
		<path class="st52" d="M107.93,143.61s.43-.36.19-.9C79.33,80.01,39.93,32.47,39.93,32.47c0,0-21.48,20.27-19.91,40.61.79,15.38,12.43,24.5,12.43,24.5,18.7,18.16,64.02,41.1,74.52,46.28.11,0,.66.19.97-.24h-.01Z"/>
		<path class="st52" d="M100.93,159.18c-.19-.66-.97-.66-.97-.66l-75.42,2.6c8.2,14.54,21.97,25.83,36.33,22.33,9.9-2.47,32.34-18.04,39.7-23.28.6-.54.36-.97.36-.97h.01Z"/>
		<path class="st52" d="M102.07,152.42c.36-.6-.3-1.14-.3-1.14C68.7,129.01,4.51,94.87,4.51,94.87c-5.86,17.98,2.06,32.47,2.06,32.47,8.14,17.2,23.77,22.44,23.77,22.44,7.24,2.96,14.43,3.14,14.43,3.14,1.14.19,44.83,0,56.54-.06.54.06.79-.43.79-.43h-.01Z"/>
		<path class="st52" d="M107.07,0c-3.26.3-12.13,2.3-12.13,2.3-19.97,5.13-24.68,23.17-24.68,23.17-3.61,11.34.11,23.83.11,23.83,6.64,29.44,39.45,77.84,46.53,87.98.49.49.9.3.9.3.79-.24.73-.97.73-.97C129.33,28.66,107.06,0,107.06,0h.01Z"/>
		<path class="st52" d="M132.06,137.58c.73.3,1.09-.43,1.09-.43,7.24-10.44,39.83-58.53,46.45-87.85,0,0,3.61-14.18.11-23.83,0,0-4.94-18.34-24.93-23.17,0,0-5.73-1.44-11.89-2.3,0,0-22.33,28.66-11.47,136.79.11.66.6.79.6.79h.03Z"/>
		<path class="st52" d="M149.91,158.51s-.66.06-.84.6c0,0-.19.66.3,1.03,7.24,5.13,29.08,20.4,39.64,23.36,0,0,19.48,6.64,36.44-22.38l-75.54-2.6Z"/>
		<path class="st52" d="M245.49,94.74s-64.08,34.27-97.21,56.54c0,0-.6.36-.36,1.09,0,0,.3.54.79.54,11.89,0,56.78.06,57.93-.11,0,0,5.79-.24,12.97-2.96,0,0,15.98-5.07,24.26-23.11-.06-.06,7.36-14.78,1.63-31.98h0Z"/>
		<path class="st52" d="M142.2,143.61s.54.36,1.03.06c10.8-5.37,55.75-28.11,74.4-46.15,0,0,11.77-9.41,12.43-24.56,1.33-21.06-19.91-40.48-19.91-40.48,0,0-39.34,47.43-68.12,109.99-.06-.06-.36.66.19,1.14Z"/>
	  </g>
	</symbol>
	<symbol id="lg-leapton" viewBox="0 0 250 250">
		<defs>
			<style>
			.st40 {
				fill: none;
			}

			.st41 {
				fill: #f6ab00;
			}

			.st42 {
				fill: #0075c2;
			}

			.st43 {
				clip-path: url(#clippath);
			}
			</style>
			<clipPath id="clippath">
			<rect class="st0" y="83.33" width="250" height="83.33"/>
			</clipPath>
		</defs>
		<rect class="st40" y="0" width="250" height="250"/>
		<g>
			<path class="st42" d="M.73,160.51l5.11-9.09,10.91,6.16-5.11,9.09-10.93-6.16h.01Z"/>
			<path class="st42" d="M.66,134.61l7.53-7.17,8.64,9.09-7.53,7.17-8.64-9.09Z"/>
			<path class="st42" d="M10.57,145.04l7.54-7.17,8.63,9.09-7.53,7.17-8.64-9.09Z"/>
			<path class="st42" d="M20.49,155.47l7.53-7.19,8.64,9.09-7.53,7.19-8.64-9.09Z"/>
			<path class="st42" d="M0,115.37l7.54-7.19,8.64,9.09-7.53,7.19S0,115.37,0,115.37Z"/>
			<path class="st42" d="M19.83,136.23l7.54-7.19,8.64,9.09-7.53,7.19s-8.66-9.09-8.66-9.09Z"/>
			<path class="st42" d="M29.74,146.66l7.54-7.19,8.64,9.09-7.53,7.19s-8.66-9.09-8.66-9.09Z"/>
			<path class="st42" d="M39.66,157.07l7.54-7.17,8.64,9.09-7.53,7.19-8.64-9.1h-.01Z"/>
			<path class="st42" d="M9.26,106.56l7.54-7.17,8.64,9.09-7.53,7.19-8.64-9.09h-.01Z"/>
			<path class="st42" d="M19.17,116.97l7.54-7.17,8.64,9.09-7.53,7.19-8.64-9.09h-.01Z"/>
			<path class="st42" d="M29.09,127.4l7.54-7.17,8.64,9.09-7.53,7.19-8.64-9.09h-.01Z"/>
			<path class="st42" d="M39,137.83l7.54-7.17,8.63,9.09-7.53,7.17-8.64-9.09Z"/>
			<path class="st42" d="M48.9,148.26l7.54-7.17,8.64,9.09-7.53,7.19-8.64-9.09h-.01Z"/>
			<path class="st42" d="M18.51,97.73l7.54-7.17,8.64,9.09-7.53,7.19-8.64-9.09h-.01Z"/>
			<path class="st42" d="M28.43,108.16l7.53-7.19,8.64,9.09-7.53,7.19-8.66-9.09h.01Z"/>
			<path class="st42" d="M38.33,118.59l7.54-7.19,8.64,9.09-7.54,7.19-8.64-9.09Z"/>
			<path class="st42" d="M48.24,129.01l7.54-7.17,8.63,9.09-7.53,7.17-8.64-9.09Z"/>
			<path class="st42" d="M58.16,139.43l7.54-7.17,8.64,9.09-7.53,7.19-8.64-9.1h-.01Z"/>
			<path class="st42" d="M37.67,99.33l7.54-7.19,8.64,9.09-7.53,7.19s-8.66-9.09-8.66-9.09Z"/>
			<path class="st42" d="M57.5,120.19l7.54-7.17,8.64,9.09-7.53,7.19-8.64-9.09h-.01Z"/>
			<path class="st42" d="M46.93,90.5l7.54-7.17,8.64,9.09-7.54,7.19-8.64-9.1Z"/>
			<path class="st42" d="M66.76,111.36l7.54-7.17,8.64,9.09-7.53,7.19-8.64-9.1h-.01Z"/>
			<g class="st43">
			<g>
				<path class="st41" d="M22.7,126.63c0-2.76-2.24-5-5.01-4.99-2.76,0-5,2.24-4.99,5.01,0,2.76,2.24,5,5.01,4.99,1.91,0,3.66-1.1,4.49-2.81.33-.69.5-1.43.5-2.19"/>
				<path class="st41" d="M151.77,157.19c-1.33-.7-2.8-1.07-4.3-1.07-.76-.04-1.51.09-2.23.34-.51.23-.77.54-.77.94s.27.73.83.91c.63.17,1.27.27,1.93.29,1.31.09,2.17.16,2.59.21.94.07,1.84.37,2.64.87.57.43.89,1.11.86,1.83.03.97-.49,1.86-1.33,2.33-1.19.61-2.5.9-3.83.83-2.01.13-4-.44-5.64-1.6l.87-1.14c1.44.9,3.1,1.37,4.8,1.36.89.04,1.77-.11,2.59-.46.51-.2.86-.67.87-1.23,0-.6-.39-1-1.16-1.2-1.07-.19-2.16-.29-3.24-.33-1.13,0-2.24-.23-3.29-.63-.71-.33-1.14-1.07-1.1-1.86,0-.89.47-1.7,1.26-2.11,1.09-.57,2.3-.84,3.53-.77,1.81-.06,3.6.43,5.13,1.4l-.97,1.07h-.03Z"/>
				<path class="st41" d="M166.91,159.69c.03,1.5-.69,2.91-1.91,3.77-2.53,1.69-5.83,1.69-8.36,0-2.07-1.5-2.53-4.4-1.04-6.47.3-.4.66-.76,1.06-1.06,1.21-.89,2.67-1.33,4.17-1.29,1.49-.06,2.96.4,4.16,1.29,1.21.86,1.94,2.26,1.93,3.76M165.29,159.69c0-1.09-.51-2.1-1.41-2.7-1.91-1.23-4.39-1.19-6.24.13-1.44,1.16-1.66,3.27-.5,4.7.14.17.3.33.47.47,1.96,1.33,4.51,1.33,6.47,0,.79-.63,1.24-1.59,1.21-2.6"/>
				<path class="st41" d="M177.7,164.46h-8.9v-9.5h1.57v8.09h7.33v1.41h0Z"/>
				<path class="st41" d="M191.49,164.46h-1.71l-1.09-2.13h-6.39l-1.1,2.13h-1.71l5.01-9.5h1.97l5.01,9.5ZM187.91,160.91l-2.41-4.6-2.44,4.6h4.86Z"/>
				<path class="st41" d="M203.5,164.46h-1.83l-2.56-3.63h-4.79v3.63h-1.57v-9.5h7.49c.86-.04,1.7.24,2.34.8.59.57.89,1.37.86,2.19.03.71-.21,1.41-.7,1.94-.47.49-1.1.79-1.77.87l2.53,3.7ZM199.99,159.41c1.21,0,1.83-.49,1.83-1.47,0-1.04-.66-1.57-1.97-1.57h-5.53v3.04h5.67Z"/>
				<path class="st42" d="M101.7,125.3v16.87h7.57v2.8h-13.29v-19.67s5.71,0,5.71,0Z"/>
				<path class="st42" d="M128.4,128.1h-10.33v4.73h10.01v2.79h-10.01v6.57h10.33v2.8h-16.04v-19.67h16.04s0,2.79,0,2.79Z"/>
				<path class="st42" d="M166.26,136.99v7.99h-5.71v-19.67h6.23c1.63-.04,3.27.07,4.89.34,1.11.23,6,.7,6,5.47,0,2-.83,6-8.33,5.86h-3.07ZM166.26,134.23h1.46c3.57,0,5.36-1.04,5.36-3.14s-1.84-3.04-5.51-3.04h-1.29v6.19h-.01Z"/>
				<path class="st42" d="M191.47,128.1v16.87h-5.71v-16.87h-5v-2.79h15.7v2.79h-4.99Z"/>
				<path class="st42" d="M211.9,124.99c-6.83,0-12.36,4.47-12.36,9.97s5.53,9.97,12.36,9.97,12.36-4.47,12.36-9.97-5.53-9.97-12.36-9.97M211.9,141.16c-4.24,0-7.69-2.77-7.69-6.2s3.44-6.2,7.69-6.2,7.69,2.77,7.69,6.2-3.44,6.21-7.69,6.21"/>
				<path class="st42" d="M250,125.17h-5.76v11.89l-16.91-11.91v19.7h5.49v-11.6l17.17,11.86v-19.93h.01Z"/>
				<path class="st42" d="M144.73,125.27l-13.24,19.67h5.13l7.84-11.84,7.46,11.86,5.53-.03-12.73-19.64h.01Z"/>
				<rect class="st42" x="138.47" y="138.41" width="12.4" height="2.89"/>
			</g>
			</g>
		</g>
	</symbol>
	<symbol id="lg-osda" viewBox="0 0 250 250">
	  <defs>
		<style>
		  .st30 {
			fill: #606060;
		  }

		  .st31 {
			fill: none;
		  }

		  .st32 {
			fill: #fccf00;
		  }
		</style>
	  </defs>
	  <rect class="st31" y="0" width="250" height="250"/>
	  <g>
		<path class="st30" d="M52.69,92.11l-4.37,9.97c-.33.76-.04,1.64.69,2.04,7.24,3.99,12.16,11.84,12.16,20.87,0,11.59-8.09,21.23-18.79,23.27-.27.06-.51.17-.73.34l-14.74,12.2c3.56,1.07,7.33,1.66,11.24,1.66,21.07,0,38.16-16.77,38.16-37.46,0-14.82-8.76-27.62-21.46-33.69-.81-.39-1.79-.03-2.16.8"/>
		<path class="st32" d="M28.18,148.03c.33-.76.03-1.66-.7-2.04-7.34-3.96-12.34-11.87-12.34-20.99,0-11.57,8.09-21.22,18.76-23.27.26-.06.51-.16.71-.33l14.94-12.16c-3.6-1.1-7.41-1.7-11.39-1.7C17.09,87.54,0,104.31,0,125c0,14.9,8.86,27.76,21.67,33.8.81.39,1.79,0,2.14-.81l4.36-9.96h0Z"/>
		<path class="st30" d="M101.85,124.11c-5.8-2.69.7-14.17,18.17-3.3,1.14.71,2.66.34,3.34-.83l3.66-6.33c.63-1.1.3-2.5-.76-3.2-18.02-11.87-40.86-4.26-40.86,11.37,0,17.5,28.37,15.44,28.37,23.6,0,5.94-12.26,5.47-23.66-1.91-1.14-.74-2.69-.37-3.37.81-1.2,2.07-2.94,5.11-4.06,7.04-.61,1.07-.31,2.43.69,3.14,19.99,14.3,44.69,8.09,44.69-9.1,0-12.82-14.23-15.77-26.2-21.3"/>
		<path class="st30" d="M205.57,110.11l1.57,7.1c.3,1.34,1.67,2.16,2.99,1.79,12.96-3.69,25.37-4.51,25.37,4.84-1.69,0-35.64-4.04-35.64,20.34,0,15.06,19.74,24.46,35.64,13.62v1.6c0,1.33,1.07,2.4,2.4,2.4h9.7c1.33,0,2.4-1.07,2.4-2.4v-35.39c0-20.09-23.53-22.33-42.77-16.7-1.21.36-1.93,1.59-1.66,2.81M222.47,149.87c-4.54,0-8.34-1.47-8.34-6.24,0-9.21,21.39-7.67,21.39-7.67v5.76c0,3.47-8.06,8.16-13.04,8.16h0Z"/>
		<path class="st30" d="M178.07,87.54v22.3c-4.44-3.31-9.87-5.24-15.72-5.24-15.1,0-27.34,12.96-27.34,28.93s12.24,28.93,27.34,28.93c5.84,0,11.27-1.94,15.72-5.24v2.16c0,1.33,1.07,2.4,2.4,2.4h9.7c1.33,0,2.39-1.07,2.39-2.4v-57.35c0-8-6.49-14.49-14.49-14.49M163.56,149.55c-8.44,0-15.29-7.13-15.29-15.93s6.84-15.93,15.29-15.93,14.99,7.13,14.99,15.93-6.54,15.93-14.99,15.93Z"/>
	  </g>
	</symbol>
	<symbol id="lg-sungrow" viewBox="0 0 250 250">
	  <defs>
		<style>
		  .st20 {
			fill: none;
		  }

		  .st21 {
			fill: #ee7203;
		  }
		</style>
	  </defs>
	  <rect class="st20" y="0" width="250" height="250"/>
	  <g>
		<path class="st21" d="M196.96,110.83c-2.27,0-13.6-.19-15.03,3.09v14.25c1.26-.37,2.44-.93,3.51-1.63.73-.47,1.17-1.29,1.17-2.14v-8.51s0-.94,10.34-.94,10.34.94,10.34.94h0v5.2c1.26-.37,2.44-.93,3.51-1.63.73-.47,1.17-1.29,1.17-2.14v-3.4c-1.44-3.29-12.75-3.09-15.03-3.09M208.47,123.45c1.07-.7,2.26-1.24,3.51-1.63v14.25c-1.44,3.29-12.75,3.09-15.03,3.09s-13.6.19-15.03-3.09v-3.4c0-.87.44-1.67,1.17-2.14,1.07-.7,2.26-1.26,3.51-1.63v5.2s.17.93,10.34.93,10.34-.93,10.34-.93v-8.51c0-.87.44-1.67,1.17-2.14"/>
		<path class="st21" d="M62.67,134.11s0,.93-10.14.93-10.14-.93-10.14-.93v-22.88h-4.68v24.84c1.44,3.27,12.54,3.09,14.83,3.09s13.38.19,14.83-3.09v-24.84h-4.68v22.88Z"/>
		<path class="st21" d="M245.55,111.23v21.57l-11.11-11.11-11.11,11.11v-21.57h-4.43v27.54h3.11c.76,0,1.47-.3,2-.83l10.44-10.44,10.44,10.44c.53.53,1.26.83,2,.83h3.11v-27.54h-4.46,0Z"/>
		<path class="st21" d="M139.02,122.52h-12.41c-.87,0-1.69.44-2.14,1.17-.63.99-1.13,2.06-1.47,3.2h12.83s.5.03.5,3.76c0,3.24-.5,3.24-.5,3.24h-20.31s-.86.03-.86-8.88.86-8.88.86-8.88h20.87c.94,0,1.84-.47,2.36-1.27.71-1.11,1.29-2.33,1.66-3.61h-27.35c-3,1.31-2.83,11.68-2.83,13.77s-.17,12.46,2.83,13.77h25.98c1.77-.77,1.67-6.9,1.67-8.13s.1-7.36-1.67-8.13"/>
		<path class="st21" d="M173.36,126.89c1.77-.77,1.67-6.6,1.67-7.83s.1-7.06-1.67-7.83h-26.1v4.88h22.88s.5,0,.5,2.96c0,3.46-.5,3.46-.5,3.46h-22.88v16.25h4.44v-11.88h7.43l11.04,11.06c.53.53,1.26.83,2,.83h5.57l-11.88-11.88h7.5Z"/>
		<path class="st21" d="M25.31,122.52H5.82c-1.41,0-1.41-1.41-1.41-1.41v-3.57s0-1.41,1.41-1.41h20.97c.94,0,1.84-.47,2.36-1.27.71-1.11,1.29-2.33,1.67-3.61H5.82C.02,111.23.02,116.28.02,116.28v5.57s0,5.04,5.8,5.04h19.5c1.41,0,1.41,1.41,1.41,1.41v4.17s0,1.41-1.41,1.41H4.03c-.94,0-1.84.47-2.36,1.27-.71,1.11-1.29,2.33-1.67,3.61h25.3c5.8,0,5.8-5.04,5.8-5.04v-6.17s0-5.04-5.8-5.04"/>
		<path class="st21" d="M99.62,132.44l-20.38-20.38c-.53-.53-1.26-.83-2-.83h-3v27.54h4.68v-21.21l20.38,20.38c.53.53,1.26.83,2,.83h3v-27.54h-4.68s0,21.21,0,21.21Z"/>
	  </g>
	</symbol>
</svg>
