<svg xmlns="http://www.w3.org/2000/svg" style="display: none;">
  <!-- Logo X -->
  <symbol id="x" viewBox="0 0 18 18">
    <title>logo x</title>
    <path d="M14.21.86h2.76l-6.03,6.89,7.09,9.38h-5.55l-4.35-5.69-4.98,5.69H.39l6.45-7.37L.04.86h5.69l3.93,5.19L14.21.86h0ZM13.24,15.48h1.53L4.91,2.43h-1.64l9.98,13.05h0Z"/>
  </symbol>
    
  <!-- Logo Telegram -->
  <symbol id="telegram" viewBox="0 0 18 18">
    <title>logo telegram</title>
    <path d="M1.24,7.96c4.82-2.1,8.05-3.49,9.66-4.16,4.6-1.91,5.55-2.25,6.18-2.26.13,0,.44.03.65.2.16.13.21.32.23.45.02.13.05.42.02.65-.24,2.62-1.32,8.97-1.87,11.91-.23,1.24-.69,1.66-1.13,1.7-.96.09-1.69-.64-2.63-1.24-1.46-.96-2.28-1.55-3.7-2.48-1.64-1.08-.58-1.67.36-2.64.24-.25,4.48-4.1,4.56-4.46,0-.04.02-.21-.07-.29-.1-.08-.24-.06-.34-.03-.15.03-2.47,1.57-6.98,4.61-.66.46-1.26.67-1.8.67-.59-.02-1.73-.33-2.58-.6C.77,9.62-.06,9.44,0,8.87c.04-.3.45-.6,1.23-.92h0Z"/>
  </symbol>

  <!-- Logo Facebook -->
  <symbol id="facebook" viewBox="0 0 18 18">
    <title>logo facebook</title>
    <path d="M18,9.03C18,4.06,13.97.03,9,.03S0,4.06,0,9.03c0,4.22,2.91,7.76,6.83,8.73v-5.98h-1.86v-2.75h1.86v-1.19c0-3.06,1.39-4.48,4.39-4.48.57,0,1.55.11,1.96.22v2.49c-.21-.02-.58-.03-1.04-.03-1.48,0-2.05.56-2.05,2.01v.97h2.94l-.51,2.75h-2.43v6.18c4.46-.54,7.91-4.33,7.91-8.93"/>
  </symbol>

  <!-- Logo Instagram -->
  <symbol id="instagram" viewBox="0 0 18 18">
    <title>logo instagram</title>
      <path d="M12.64,0h-7.27C2.4,0,0,2.4,0,5.36v7.27c0,2.96,2.4,5.36,5.36,5.36h7.27c2.96,0,5.36-2.4,5.36-5.36v-7.27c0-2.96-2.4-5.36-5.36-5.36ZM16.19,12.64c0,1.96-1.59,3.55-3.55,3.55h-7.27c-1.96,0-3.55-1.59-3.55-3.55h0v-7.28c0-1.96,1.59-3.55,3.55-3.55h7.28c1.96,0,3.55,1.59,3.55,3.55v7.27Z"/>
      <path d="M9,4.35c-2.57,0-4.65,2.09-4.65,4.65s2.09,4.65,4.65,4.65,4.65-2.09,4.65-4.65-2.09-4.65-4.65-4.65ZM9,11.84c-1.57,0-2.84-1.27-2.84-2.84,0-1.57,1.27-2.84,2.84-2.84,1.57,0,2.84,1.27,2.84,2.84,0,1.57-1.27,2.84-2.84,2.84ZM13.66,3.27c.62,0,1.11.5,1.11,1.12,0,.62-.5,1.11-1.12,1.11-.62,0-1.11-.5-1.11-1.11,0-.62.42-1.12,1.12-1.12Z"/>
  </symbol>
</svg>