<?xml version="1.0" encoding="UTF-8"?>
<svg id="Camada_1" xmlns="http://www.w3.org/2000/svg" version="1.1" viewBox="0 0 250 250">
  <!-- Generator: Adobe Illustrator 29.5.1, SVG Export Plug-In . SVG Version: 2.1.0 Build 141)  -->
  <defs>
    <style>
      .st0 {
        fill: #fde100;
      }

      .st1 {
        fill: #003882;
        fill-rule: evenodd;
      }
    </style>
  </defs>
  <rect class="st0" width="250" height="250"/>
  <g>
    <path class="st1" d="M37.5,120.9l5.1,3.42,6.13-4.1-2.55-1.71,3.32-2.21,7.15,4.78-11.74,7.85,2.55,1.71,14.56-9.74-12.26-8.2-12.26,8.2ZM62.02,129.1l-5.11-3.42-6.13,4.1,2.55,1.7-3.32,2.22-7.15-4.78,11.74-7.85-2.55-1.71-14.55,9.74,12.26,8.2,12.26-8.2ZM62.02,116.12l-2.56,1.71-2.55-1.71,5.11-3.42v3.42ZM37.5,133.88l2.55-1.71,2.55,1.71-5.1,3.42v-3.42Z"/>
    <path class="st1" d="M73.61,133.19c1.6,0,5.58-.18,5.58-4.33,0-2.25-.7-3.82-3.39-4.16,2.05-.4,3.08-1.77,3.08-3.66,0-3.49-2.37-4.24-5.26-4.24h-6.71v16.39h6.69ZM193.96,133.19c2.24,0,4.51-.3,4.51-3.77,0-4.01-5.79-3.61-5.79-6.16,0-.92.57-1.42,1.52-1.42h3.11v-2.07h-4.36c-3.58,0-4.46,1.63-4.46,3.72,0,3.99,6.42,3.9,6.42,6.15,0,.9-.49,1.52-1.48,1.52h-4.6l-3.41-11.38h-4.08l-3.77,12.21-2.37-5.25c1.74-.32,2.43-1.42,2.44-3.44,0-2.29-1.36-3.51-3.46-3.51h-6.38v13.41h3.48v-11.35h1.16c.98,0,1.83.72,1.83,2.04,0,1.12-.56,2.04-1.45,1.98h-.98s3.18,7.33,3.18,7.33h5.58l.84-2.97h3.61l.82,2.97h8.1ZM184.51,128.17h-2.58l1.23-5.49,1.35,5.49ZM145.66,133.58c5.21,0,5.21-3.47,5.21-7.03s0-7.04-5.21-7.04-5.21,3.44-5.21,7.04,0,7.03,5.21,7.03ZM145.66,131.54c-1.53,0-1.73-1.5-1.73-4.99s.2-5,1.73-5,1.72,1.51,1.72,5-.19,4.99-1.72,4.99ZM129.13,133.19h5.08c5.33,0,4.98-4.73,4.98-6.8,0-4.19-.77-6.65-4.85-6.65h-5.21v13.45ZM132.52,121.82h1.37c1.87,0,1.87,2.18,1.87,4.66,0,3.38-.33,4.67-1.96,4.67h-1.29v-9.32ZM159.55,126.04h.84c1.63,0,2.15.89,2.15,2.34,0,2.3-1.54,2.32-2.24,2.32h-1.79v-4.63l1.04-.03ZM158.51,123.54v-4.19h2c1.09,0,1.86.88,1.86,2.09,0,1.59-.99,2.08-1.69,2.08h-1.13l-1.04.02ZM161.07,133.2c1.6,0,5.58-.18,5.58-4.34,0-2.25-.7-3.81-3.38-4.16,2.05-.4,3.08-1.77,3.08-3.66,0-3.49-2.38-4.24-5.26-4.24h-6.72v16.4h6.69ZM212.5,133.19v-2.03h-3.97v-11.38h-3.4v13.41h7.37ZM203.14,119.77h-3.41v13.41h3.41v-13.41ZM120.22,133.58c5.21,0,5.21-3.48,5.21-7.06s0-7.07-5.21-7.07-5.2,3.44-5.2,7.07,0,7.06,5.2,7.06ZM120.22,131.54c-1.53,0-1.72-1.52-1.72-5.02s.19-5.02,1.72-5.02,1.73,1.51,1.73,5.02-.2,5.02-1.73,5.02ZM86.56,128.16h-2.59l1.23-5.48,1.36,5.48ZM82.64,133.19l.84-2.97h3.61l.83,2.97h3.56l-4.02-13.41h-4.07l-4.11,13.41h3.36ZM109.34,133.58c2.95,0,4.68-1.17,4.68-4.83h-3.37c-.04,1.08-.06,2.79-1.31,2.79-1.43,0-1.64-.88-1.64-5.02s.33-5.02,1.57-5.02c.89,0,1.3.67,1.3,2.5h3.35c.12-2.94-1.51-4.55-4.73-4.55-4.8,0-4.93,3.06-4.93,7.07s-.12,7.06,5.08,7.06ZM95.16,133.19v-8.94l3.71,8.94h4.02v-13.41h-2.9v8.67l-3.62-8.67h-4.12v13.41h2.9ZM71.85,126.02h.53c2,0,2.63.89,2.63,2.34,0,2.29-1.89,2.31-2.73,2.31h-1.24v-4.63l.82-.02ZM71.04,123.51v-4.19h1.48c1.34,0,2.28.89,2.28,2.09,0,1.59-1.21,2.09-2.07,2.09h-1.69Z"/>
  </g>
</svg>