<?xml version="1.0" encoding="UTF-8"?>
<svg id="Camada_1" xmlns="http://www.w3.org/2000/svg" version="1.1" viewBox="0 0 250 250">
  <!-- Generator: Adobe Illustrator 29.5.1, SVG Export Plug-In . SVG Version: 2.1.0 Build 141)  -->
  <defs>
    <style>
      .st0 {
        fill: #fff;
      }

      .st1 {
        fill: #00539b;
      }

      .st2 {
        fill: #008752;
      }
    </style>
  </defs>
  <rect class="st0" width="250" height="250"/>
  <g>
    <path class="st2" d="M47.89,119.68c-2.06,0-4.09.51-5.9,1.49-1.81.98-3.35,2.39-4.48,4.11v17.15h17.21c2.23-1.47,3.92-3.61,4.83-6.11.91-2.5.99-5.23.22-7.78-.77-2.55-2.33-4.79-4.47-6.38-2.14-1.59-4.74-2.46-7.41-2.46ZM37.5,107.02v14.31l14.2-14.16,21.15,21.09-14.2,14.15h14.34v-35.4h-35.48Z"/>
    <path class="st1" d="M106.19,118.35c-.19-2.73-1.35-4.78-3.45-6.11-1.72-1.08-4.08-1.65-6.85-1.65h-9.54l-4.45,31.85h9.29c5.91,0,10.06-1.24,12.34-3.69,1.5-1.61,2.16-3.72,1.98-6.29-.23-3.41-1.91-5.76-4.64-6.61,3.33-1.02,5.56-4.07,5.32-7.49ZM97.65,135.23c-1.36,1.46-3.96,1.66-6.56,1.66h-1.79l1.17-8.43h1.76c3.18,0,6.15.42,6.37,3.47.1,1.44-.21,2.52-.94,3.31h0ZM98.51,121.65c-1.2,1.29-3.49,1.56-5.2,1.56h-2.11l1.04-7.09h1.94c2.61,0,4.97.22,5.15,2.84.08,1.12-.2,2.02-.83,2.7h0ZM138.23,110.59h-6.54l-3.34,22.94-8.07-22.94h-8.41l-4.63,31.84h6.63l3.19-23.13,7.95,23.13h8.55l4.68-31.84ZM161.64,113.26c-2.52-1.77-5.82-2.66-9.82-2.66h-9.67l-4.5,31.84h10.91c6.41,0,11.28-1.74,14.46-5.15,4.02-4.3,4.26-10.03,4.05-13.06-.35-4.99-2.18-8.68-5.43-10.96ZM157.11,133.66c-2.01,2.15-5.1,3.25-9.18,3.25h-2.56l2.9-20.78h1.9c5.75,0,9.36,2.7,9.68,7.22.32,4.53-.6,8.02-2.74,10.31ZM178.42,116.12h12.25l.67-5.53h-19.05l-4.49,31.84h19.28l.82-5.53h-12.38l1.15-8.16h10.99l.72-5.53h-10.95l.99-7.09ZM212.24,111.46c-2.39-.93-5.19-1.41-8.33-1.41-3.96,0-7.23,1.17-9.21,3.31-1.56,1.67-2.26,3.84-2.07,6.45.33,4.74,3.79,6.59,6.84,8.23,2.46,1.32,4.58,2.46,4.75,4.84.08,1.2-.23,2.2-.97,2.98-.94,1.01-2.53,1.58-4.37,1.58-2.72,0-5.4-1.1-7.7-2.12l-.33-.15-1.38,5.94.27.09c3.3,1.17,6.37,1.76,9.15,1.76,4.57,0,8.1-1.2,10.21-3.46,1.69-1.81,2.44-4.26,2.22-7.28-.36-5.1-4.14-7.24-7.2-8.97-2.3-1.3-4.28-2.42-4.42-4.41-.03-.35,0-.69.12-1.02.11-.33.29-.63.53-.88.93-1,2.71-1.36,4.06-1.36,2.25.04,4.46.58,6.48,1.58l.34.17,1.25-5.77-.26-.1Z"/>
  </g>
</svg>