<?xml version="1.0" encoding="UTF-8"?>
<svg id="Camada_1" xmlns="http://www.w3.org/2000/svg" version="1.1" viewBox="0 0 250 250">
  <!-- Generator: Adobe Illustrator 29.5.1, SVG Export Plug-In . SVG Version: 2.1.0 Build 141)  -->
  <defs>
    <style>
      .st0 {
        fill: #cc092f;
      }

      .st1 {
        fill: #fff;
      }
    </style>
  </defs>
  <rect class="st0" width="250" height="250"/>
  <g>
    <path class="st1" d="M87.72,173.09c-2.54,0-4.81.26-7,.79-.44,1.49-.35,3.59,0,5.07,2.71-.61,4.2-.7,5.95-.7,3.33,0,4.99,1.31,4.99,4.11v.26c-.96-.09-2.19-.18-3.06-.18-5.51,0-10.24,2.01-10.24,7.26,0,6.04,4.29,8.05,10.5,8.05,2.89,0,6.12-.52,9.01-1.4v-13.47c0-6.47-3.5-9.63-10.15-9.8ZM91.66,192.51s-2.01.26-2.8.26c-2.98,0-4.55-.88-4.55-2.98s1.57-2.89,4.55-2.89c.96,0,2.1.09,2.8.18v5.51-.09Z"/>
    <path class="st1" d="M75.83,173.44c-3.06,0-4.81,1.23-6.48,3.33-.17-1.14-.35-2.01-.7-3.06-.61-.18-1.75-.26-2.62-.26s-2.01.09-2.62.26v23.63c.79.18,2.1.26,3.24.26s2.54-.09,3.24-.26v-11.55c0-4.55,2.36-7,5.6-7,.61,0,1.57,0,2.1.09.35-1.49.44-3.68.09-5.25-.35-.09-1.31-.18-1.84-.18Z"/>
    <path class="st1" d="M48.79,173.17c-1.84,0-3.67.44-4.81.96v-11.55c-1.84.7-3.76,1.58-5.34,2.89-.88.7-1.14,1.31-1.14,2.36v28.52c1.75.7,5.25,1.31,8.58,1.31,8.49,0,13.3-5.16,13.3-12.6s-3.41-11.99-10.5-11.99l-.09.09ZM46.43,192.6c-.7,0-1.75,0-2.45-.26v-12.95c.88-.44,2.1-.7,3.76-.7,3.24,0,4.99,2.28,4.99,6.47,0,4.46-2.01,7.53-6.21,7.53l-.09-.09Z"/>
    <path class="st1" d="M116.69,167.92v5.69c-1.14-.35-2.36-.35-3.41-.35-7.18,0-11.99,4.81-11.99,12.42s4.72,12.16,12.16,12.16c3.41,0,6.74-.44,9.71-1.49v-33.69c-1.84.7-3.76,1.58-5.34,2.89-.88.7-1.14,1.31-1.14,2.36ZM116.69,192.16c-1.14.35-1.84.35-2.8.35-4.29,0-5.95-2.8-5.95-6.91,0-4.55,1.66-7.26,5.86-7.26,1.23,0,2.01.18,2.8.35v13.48h.09Z"/>
    <path class="st1" d="M162.89,183.24l-2.63-1.14c-1.49-.61-2.36-1.14-2.36-2.1,0-1.49,1.31-1.84,3.15-1.84s3.59.18,6.12.96c.35-1.75.35-3.33,0-4.81-1.58-.88-4.46-1.23-7-1.23-4.99,0-8.84,2.71-8.84,6.74,0,3.68,1.58,5.51,5.95,7.26l2.01.88c1.93.79,2.54,1.22,2.54,2.54,0,1.84-1.84,2.19-3.41,2.19-2.63,0-4.55-.52-7.09-1.4-.44,1.49-.44,3.5,0,5.07,2.1,1.14,5.07,1.49,8.14,1.49,4.99,0,8.92-2.62,8.92-7.26,0-3.85-1.66-5.69-5.34-7.26l-.17-.09Z"/>
    <path class="st1" d="M183.01,192.51c-3.24,0-5.34-2.54-5.34-7s1.75-7,5.43-7c1.58,0,2.62.26,4.11.88.44-1.49,1.22-3.15,2.28-4.55-2.01-1.05-4.02-1.58-7.26-1.58-7.17,0-11.29,5.07-11.29,12.34s4.2,12.34,11.55,12.34c2.62,0,5.07-.44,7.09-1.58-.88-1.14-1.84-2.71-2.45-4.55-1.84.7-2.62.79-4.11.79v-.09Z"/>
    <path class="st1" d="M201.13,173.09c-7.26,0-11.29,4.99-11.29,12.43s4.29,12.34,11.29,12.34,11.37-4.81,11.37-12.34-4.02-12.43-11.37-12.43ZM201.13,192.6c-3.59,0-4.73-2.89-4.73-7.09s1.14-7.17,4.73-7.17,4.73,3.06,4.73,7.17c0,4.37-1.22,7.09-4.73,7.09Z"/>
    <path class="st1" d="M138.04,173.09c-7,0-11.29,4.73-11.29,12.51s4.55,12.16,12.34,12.16c2.63,0,5.51-.44,7.35-1.31.35-1.49.35-3.5,0-4.99-2.36.7-4.46,1.14-6.65,1.14-3.59,0-6.12-1.31-6.65-5.16h14.7c.18-.61.26-2.54.26-3.32,0-7-3.94-11.03-10.06-11.03ZM133.14,182.62c.44-2.89,2.19-4.55,4.81-4.55,2.89,0,4.03,2.01,4.2,4.55h-9.01Z"/>
    <path class="st1" d="M122.29,72.55c-5.86,0-12.34.52-18.64,1.66,6.39-8.23,16.62-13.56,28-13.56,8.4,0,16.8,3.15,22.4,7.87,1.05.87,1.84.96,2.63.17s.7-1.58-.18-2.54c-7.35-8.58-18.2-14.35-30.97-14.09-16.71.35-30.89,10.85-36.31,25.55-4.9,1.57-9.45,3.41-13.47,5.6-1.14.61-1.49,1.4-1.14,2.28.35.87,1.14,1.14,2.27.87,3.41-.96,7-1.84,10.68-2.63-.35,1.92-.61,3.94-.61,6.04-.35,13.47,6.91,26.25,18.02,33.34,1.14.7,2.01.7,2.63-.18.61-.88.53-1.66-.35-2.45-7.09-6.3-10.94-15.75-10.94-25.02,0-4.72.96-9.27,2.71-13.3,3.68-.35,7.7-.52,12.07-.52,28.53,0,52.59,9.36,52.59,21.7,0,6.21-7.87,12.51-17.33,16.63-2.28.96-2.54,1.66-2.19,2.71.35.96,1.31,1.23,2.54.88,16.45-5.42,28.88-14.26,28.88-24.94,0-14.61-23.54-25.81-53.29-25.81v-.26Z"/>
    <path class="st1" d="M135.85,146.66v-31.24c0-1.23-1.14-1.66-2.1-1.05l-7.96,4.55v29.23h8.49c.88,0,1.49-.7,1.49-1.49h.09Z"/>
    <path class="st1" d="M116.16,125.57v21.61c0,.53.44.96.96.96h6.04v-27.74l-6.04,3.41c-.61.35-.96.88-.96,1.66v.09Z"/>
  </g>
</svg>