<?xml version="1.0" encoding="UTF-8"?>
<svg id="Camada_1" xmlns="http://www.w3.org/2000/svg" version="1.1" xmlns:xlink="http://www.w3.org/1999/xlink" viewBox="0 0 250 250">
  <!-- Generator: Adobe Illustrator 29.5.1, SVG Export Plug-In . SVG Version: 2.1.0 Build 141)  -->
  <defs>
    <style>
      .st0 {
        fill: #00adef;
      }

      .st0, .st1 {
        fill-rule: evenodd;
      }

      .st1, .st2 {
        fill: #173e7d;
      }

      .st3 {
        fill: #fff;
      }

      .st4 {
        fill: none;
      }

      .st5 {
        clip-path: url(#clippath);
      }
    </style>
    <clipPath id="clippath">
      <rect class="st4" x="37.5" y="87.14" width="175" height="75.72"/>
    </clipPath>
  </defs>
  <rect class="st3" x="0" width="250" height="250"/>
  <g class="st5">
    <g>
      <path class="st1" d="M129.48,135.77c4.9-2.6,8-7.49,8-13.05,0-3.24-1.05-6-3.03-7.98-2.29-2.36-5.06-3.25-10.23-3.25h-16.93s-.17,1.05-.17,1.05l-6.6,41.77c-.49,3.05-.08,8.43,6.66,8.46h0s11.64,0,11.64,0c9.9,0,16.82-6.87,16.82-16.7,0-4.78-2.32-8.52-6.15-10.31ZM123.44,153.56c-1.84,1.26-3.04,1.63-7.52,1.63h-6.92l2.28-14.74h7.31c7.07,0,8.02,3.11,8.02,6.15s-1.15,5.58-3.16,6.96ZM119.03,132.42h-6.47l2.12-13.33h7.32c4.22,0,4.94.39,5.59,1.27.56.78.79,1.65.79,2.96,0,5.45-3.76,9.11-9.35,9.11ZM162.45,140.74c7.35-1.41,13.06-8.47,13.06-16.61s-5.1-12.63-14.37-12.63h-16.05l-.17,1.05-6.78,43.4c-.3,2.22-1.99,6.84,6.1,6.83h.78s.56,0,.56,0l.17-1.05,3.1-19.87h4.67l9.89,20.22.34.7h9.77l-.91-1.8-10.19-20.24ZM150.07,134.27l2.42-15.18h6.87c6.34,0,7.5,1.7,7.5,5.04,0,6.07-4.15,10.14-10.32,10.14h-6.47ZM204.5,135.77c4.9-2.6,8-7.49,8-13.05,0-3.24-1.05-6-3.03-7.98-2.29-2.36-5.06-3.25-10.23-3.25h-16.94s-.16,1.05-.16,1.05l-6.59,41.68c-.43,3.03-.16,8.52,6.65,8.55h0s11.63,0,11.63,0c9.91,0,16.82-6.87,16.82-16.7,0-4.78-2.32-8.52-6.15-10.31ZM198.46,153.56c-1.83,1.26-3.04,1.63-7.52,1.63h-6.92l2.28-14.74h7.31c7.07,0,8.02,3.11,8.02,6.15s-1.16,5.58-3.17,6.96ZM194.05,132.42h-6.47l2.12-13.33h7.31c4.22,0,4.94.39,5.6,1.27.56.78.79,1.65.79,2.96,0,5.45-3.76,9.11-9.36,9.11Z"/>
      <path class="st0" d="M44.7,111.49l-.74,4.74c10.55,2.14,19.96,7.44,27.18,14.88l10.86-7.1s1.25-.84,1.83-.14c0,0,.57.55-.52,1.72l-8.91,9.22c6.28,7.81,10.35,17.45,11.28,27.98h5.08l8.05-51.3h-54.1Z"/>
      <path class="st1" d="M55.1,148.03l-.5-.6,11.61-13c-6.25-6.16-14.23-10.57-23.15-12.43l-4.73,30.15c-.83,5.65.21,10.64,9.66,10.64h31.82c-.88-8.9-4.29-17.06-9.51-23.77l-15.2,9.01Z"/>
      <path class="st2" d="M44.56,103.28l3.21-16.06h2.71l-1.43,7.19-.85,3.01-.43,2.73-.63,3.14h-2.58ZM51.57,103.43c-.96,0-1.78-.17-2.47-.5-.69-.35-1.23-.85-1.61-1.52-.38-.66-.56-1.49-.56-2.47,0-1.08.13-2.07.39-2.96.27-.91.67-1.69,1.19-2.34.54-.66,1.17-1.17,1.91-1.52.75-.36,1.61-.54,2.56-.54s1.82.2,2.58.61c.77.39,1.37.97,1.82,1.73.46.75.69,1.66.69,2.73,0,.98-.17,1.88-.5,2.71-.32.82-.77,1.54-1.37,2.14-.59.61-1.3,1.09-2.08,1.43-.78.33-1.63.5-2.56.5ZM51.36,101.11c.78,0,1.47-.18,2.06-.54.59-.38,1.06-.89,1.41-1.54.35-.65.52-1.4.52-2.25,0-.89-.27-1.6-.8-2.12-.54-.52-1.29-.78-2.26-.78-.77,0-1.45.19-2.06.56-.59.36-1.06.87-1.41,1.51-.35.65-.52,1.4-.52,2.25,0,.89.27,1.6.8,2.12.54.52,1.29.78,2.26.78ZM64.65,103.43c-.94,0-1.8-.2-2.58-.61-.77-.4-1.38-.98-1.84-1.73-.45-.76-.67-1.68-.67-2.75,0-.98.16-1.88.48-2.71.33-.82.8-1.54,1.39-2.14.59-.6,1.29-1.08,2.06-1.41.8-.33,1.66-.5,2.6-.5s1.8.17,2.5.52c.71.35,1.24.87,1.61,1.58.36.69.53,1.56.5,2.6-.03,1.43-.29,2.68-.78,3.77-.49,1.07-1.18,1.9-2.06,2.49-.88.59-1.95.89-3.19.89ZM65.35,101.11c.78,0,1.47-.18,2.06-.54.59-.38,1.06-.89,1.41-1.54.35-.65.52-1.4.52-2.25,0-.89-.27-1.6-.8-2.12-.54-.52-1.29-.78-2.26-.78-.77,0-1.45.19-2.06.56-.59.36-1.06.87-1.41,1.51-.35.65-.52,1.4-.52,2.25,0,.89.27,1.6.8,2.12.54.52,1.29.78,2.26.78ZM68.19,103.28l.52-2.64.74-3.07.37-3.09.54-2.75h2.71l-2.3,11.56h-2.58ZM82.94,91.59c1,0,1.85.2,2.54.61.69.4,1.18,1,1.45,1.8.29.78.32,1.74.09,2.88l-1.28,6.41h-2.71l1.26-6.34c.19-.94.1-1.67-.26-2.19-.36-.53-1.02-.8-1.98-.8s-1.82.27-2.47.82c-.65.55-1.09,1.38-1.32,2.51l-1.22,5.99h-2.71l2.3-11.56h2.58l-.65,3.29-.43-1.04c.55-.82,1.24-1.42,2.06-1.8.84-.39,1.76-.58,2.76-.58ZM95,103.43c-1.14,0-2.15-.21-3.02-.63-.85-.43-1.51-1.02-1.98-1.77-.46-.76-.69-1.66-.69-2.68,0-1.3.3-2.45.89-3.46.59-1.02,1.41-1.83,2.45-2.4,1.04-.59,2.24-.89,3.6-.89,1.17,0,2.18.23,3.02.69.85.45,1.51,1.12,1.98,2.01l-2.32,1.19c-.26-.55-.64-.95-1.13-1.21-.48-.26-1.06-.39-1.76-.39-.75,0-1.43.19-2.04.56-.61.36-1.09.87-1.43,1.51-.35.65-.52,1.4-.52,2.25,0,.89.27,1.6.8,2.12.54.52,1.3.78,2.28.78.64,0,1.23-.13,1.78-.39.55-.26,1.01-.66,1.39-1.21l2,1.34c-.54.81-1.27,1.44-2.21,1.9-.94.45-1.97.67-3.08.67ZM107.38,103.43c-1.13,0-2.12-.21-2.97-.63-.84-.43-1.49-1.02-1.95-1.77-.46-.76-.69-1.66-.69-2.68,0-1.3.3-2.45.89-3.46.59-1.02,1.4-1.83,2.43-2.4,1.04-.59,2.23-.89,3.56-.89,1.14,0,2.13.21,2.97.63.85.4,1.51.99,1.97,1.75.46.75.69,1.64.69,2.68,0,1.28-.3,2.44-.89,3.46-.59,1.02-1.41,1.83-2.45,2.42-1.03.59-2.21.89-3.56.89ZM107.55,101.11c.78,0,1.47-.18,2.06-.54.59-.38,1.06-.89,1.41-1.54.35-.65.52-1.4.52-2.25,0-.89-.27-1.6-.8-2.12-.54-.52-1.29-.78-2.26-.78-.77,0-1.45.19-2.06.56-.59.36-1.06.87-1.41,1.51-.35.65-.52,1.4-.52,2.25,0,.91.27,1.62.8,2.14.54.51,1.29.76,2.26.76Z"/>
    </g>
  </g>
</svg>