<?xml version="1.0" encoding="UTF-8"?>
<svg id="Camada_1" xmlns="http://www.w3.org/2000/svg" version="1.1" xmlns:xlink="http://www.w3.org/1999/xlink" viewBox="0 0 250 250">
  <!-- Generator: Adobe Illustrator 29.5.1, SVG Export Plug-In . SVG Version: 2.1.0 Build 141)  -->
  <defs>
    <style>
      .st0, .st1 {
        fill: #31c7ed;
      }

      .st2 {
        fill: #fff;
      }

      .st2, .st1 {
        fill-rule: evenodd;
      }

      .st3 {
        fill: url(#Gradiente_sem_nome_5);
        isolation: isolate;
        opacity: .8;
      }

      .st4 {
        fill: #17278c;
      }
    </style>
    <linearGradient id="Gradiente_sem_nome_5" data-name="Gradiente sem nome 5" x1="84.42" y1="104.06" x2="96.31" y2="124.63" gradientTransform="translate(0 252) scale(1 -1)" gradientUnits="userSpaceOnUse">
      <stop offset="0" stop-color="#fff"/>
      <stop offset="1" stop-color="#d7d7d7"/>
    </linearGradient>
  </defs>
  <rect class="st4" width="250" height="250"/>
  <g>
    <path class="st1" d="M212.5,91.84s-9.12-.03-18.77,0c-9.64.03-12.08,7.41-12.08,7.41l-24.11,62.35,9.39,24.26c9.63-.04,12.07-7.41,12.07-7.41l33.5-86.62Z"/>
    <path class="st2" d="M141.41,119.91l-.02-.06s0-.01,0-.02l-.02-.04c-2.11-5.3-6.49-9.68-11.53-13.07,5.06-4.43,8.21-11.04,8.21-18.42,0-10.65-9.15-24.2-35.42-24.2h-46.09v35.55h-19.03v20.45h19.02v36.74h48.45c4.18.03,8.34-.45,12.4-1.42h.05c2.95-.73,5.81-1.8,8.5-3.21l10.15,26.25s2.44,7.38,12.08,7.41c9.64.03,18.76,0,18.76,0l-25.51-65.97ZM83.87,84.55h17.03c7.5,0,9.85,3.91,9.85,7.56s-2.33,7.53-9.79,7.55h-17.09v-15.11ZM83.87,120.1h18.06c7.95,0,10.44,4.14,10.44,8.01s-2.47,7.98-10.37,8.01h-18.12v-16.02Z"/>
    <path class="st3" d="M116.08,126.76s-2.03-6.69-13.07-6.69h-.78v.03c7.71.1,10.14,4.19,10.14,8.01s-2.47,7.98-10.37,8.01h-18.12v-16.03l-27.34.02v36.74h48.44c4.18.03,8.34-.45,12.4-1.42h.05c2.95-.73,5.81-1.8,8.5-3.21l-9.84-25.46Z"/>
    <path class="st0" d="M56.52,120.11h-19.02l19.02,8.77v-8.77Z"/>
  </g>
</svg>