<?xml version="1.0" encoding="UTF-8"?>
<svg id="Camada_1" xmlns="http://www.w3.org/2000/svg" version="1.1" viewBox="0 0 250 250">
  <!-- Generator: Adobe Illustrator 29.5.1, SVG Export Plug-In . SVG Version: 2.1.0 Build 141)  -->
  <defs>
    <style>
      .st0 {
        fill: #fff;
      }

      .st1 {
        fill: #edc500;
      }

      .st1, .st2, .st3 {
        fill-rule: evenodd;
      }

      .st2 {
        fill: #ce6b03;
      }

      .st4, .st3 {
        fill: #ad0f16;
      }
    </style>
  </defs>
  <rect class="st0" width="250" height="250"/>
  <g>
    <path class="st3" d="M41.05,137.7l10.84.05c-.65-1.15-1.46-2.19-2.49-3.1-.32-.28-.7-.4-1.13-.37l-10.77-.05c.57,1.26,1.33,2.34,2.44,3.11.37.26.42.35,1.11.35"/>
    <path class="st3" d="M56.59,127.06c3.11-2.09,7.56-1.58,11.34,1.41l-1.56,1.36c-2.68-1.73-5.5-2.12-8.05-.26-2.1,1.53-2.38,4.88-1.52,8l-1.98.1c-1.74-4.25-1.34-8.53,1.77-10.62"/>
    <path class="st2" d="M42.93,128.89l8.93,4.56c-.06-1.32-.3-2.62-.81-3.89-.15-.31-.39-.68-.84-.91l-8.81-4.72c-.07,1.38-.04,2.97.6,4.16.21.4.31.48.93.79"/>
    <path class="st1" d="M47.03,120.63l6.41,6.8c.37-1.16.58-2.37.54-3.64-.03-.32-.13-.71-.45-1.05l-6.25-6.9c-.51,1.18-1,2.57-.81,3.8.06.41.12.51.56.98"/>
    <path class="st3" d="M64.04,116.39l-.42,7.55c1.08-.41,2.07-.95,2.93-1.66.2-.19.42-.47.44-.84l.6-7.51c-1.18.34-2.49.81-3.24,1.59-.25.26-.28.35-.31.87"/>
    <path class="st2" d="M55.47,116.01l2.41,8.59c.91-.82,1.69-1.75,2.28-2.84.13-.28.24-.66.12-1.09l-2.22-8.6c-1.04.77-2.17,1.73-2.61,2.85-.15.38-.14.49.02,1.08"/>
    <path class="st4" d="M89.13,124.73c-.08-.17-.17-.32-.27-.48-.24-.39-.51-.72-.79-1.01-.44-.43-.89-.76-1.36-.99-.47-.23-.93-.38-1.39-.46-.45-.08-.88-.12-1.28-.11-.3,0-.63.02-1,.06-.37.05-.75.13-1.16.26-.4.13-.81.33-1.23.59-.41.26-.82.61-1.21,1.04-.14.14-.32.37-.53.67-.22.31-.43.71-.65,1.2s-.4,1.08-.55,1.77c-.15.69-.22,1.49-.23,2.4,0,.24,0,.55.03.94.02.38.08.81.16,1.29s.21.97.37,1.48c.17.51.4,1.01.69,1.5.24.4.52.77.85,1.13s.72.69,1.16.97.94.51,1.5.68c.56.16,1.19.25,1.89.25.46,0,.91-.05,1.35-.15.45-.1.88-.28,1.31-.52s.85-.58,1.25-1.01c.29-.3.55-.64.79-1.03.09-.15.17-.3.25-.45l-2.14-1.46c-.02.05-.04.11-.07.16-.18.4-.38.75-.62,1.04-.31.38-.65.66-1.03.85s-.79.28-1.23.28c-.4,0-.76-.07-1.07-.2-.31-.13-.59-.3-.83-.51-.24-.21-.44-.44-.61-.69s-.31-.5-.42-.74-.21-.53-.3-.87c-.09-.34-.16-.75-.21-1.23-.05-.48-.08-1.04-.08-1.7,0-.45.01-.89.05-1.32.04-.43.1-.85.2-1.26s.23-.8.41-1.18c.3-.66.69-1.15,1.15-1.47.46-.33,1.02-.49,1.69-.49.56,0,1.04.11,1.45.36.41.24.77.61,1.08,1.12.16.24.29.51.39.8l2.23-1.52h.01Z"/>
    <path class="st4" d="M104.89,137.69v-6.53c0-.33.02-.65.06-.97.04-.33.13-.64.25-.94s.31-.59.55-.85c.11-.12.24-.23.39-.33.15-.1.32-.19.51-.25.19-.07.41-.1.66-.1.12,0,.25,0,.4.03s.29.08.45.16c.15.08.29.21.42.38.13.18.23.39.29.61s.09.46.11.69c.01.24.02.48.01.72v7.39h2.38v-7.96c0-.54-.05-1-.13-1.4-.09-.4-.2-.73-.34-1s-.28-.48-.43-.64c-.2-.22-.43-.41-.7-.55-.26-.14-.54-.25-.84-.31-.29-.07-.58-.1-.87-.1-.53,0-1.01.1-1.44.3-.42.19-.79.46-1.1.79-.31.34-.57.72-.77,1.14h-.04v-2h-2.22v11.73h2.4Z"/>
    <path class="st4" d="M131.94,123v4.32c-.1-.16-.22-.32-.35-.47s-.29-.29-.47-.43c-.34-.25-.67-.43-1.01-.54-.34-.1-.68-.16-1.04-.15-.54,0-1.07.1-1.56.33-.5.23-.96.6-1.38,1.12-.22.27-.43.62-.63,1.04s-.36.93-.49,1.53-.19,1.3-.2,2.1c0,.61.04,1.16.12,1.64s.18.89.31,1.25c.12.35.24.65.37.89.13.24.24.43.33.57.33.47.66.83,1.02,1.08.36.25.71.42,1.06.51.35.09.67.13.98.13.4,0,.8-.07,1.19-.21.4-.14.76-.36,1.09-.67.33-.3.6-.69.8-1.17l-.18-.05.22,1.86h2.2v-16.32l-2.38,1.63h0ZM131.72,132.93c0,.66-.2,1.46-.55,2.02-.38.6-1.01.98-1.71.99-.84,0-1.42-.51-1.77-1.26-.21-.45-.32-.94-.4-1.42-.07-.42-.11-.93-.12-1.55,0-.53.06-1.05.17-1.57.15-.72.5-1.5,1.11-1.93.29-.2.64-.29,1.05-.3.67,0,1.21.27,1.6.83.18.25.32.56.43.9.11.34.17.69.17,1.06v2.23h.02Z"/>
    <path class="st4" d="M139.18,125.96h-2.38v11.73h2.38v-11.73ZM138.04,121.77c.81,0,1.47.66,1.47,1.47s-.66,1.47-1.47,1.47-1.47-.66-1.47-1.47.66-1.47,1.47-1.47"/>
    <path class="st4" d="M145.49,127.66c.25-.07.56-.1.94-.1.19,0,.4.01.62.04s.43.09.64.19c.21.1.38.25.53.46.09.13.15.28.21.44.05.16.09.33.11.49.02.17.04.31.05.44v.67l-1.17.02c-.25,0-.55.02-.9.05-.35.03-.72.07-1.11.13s-.77.15-1.15.26c-.38.11-.73.26-1.04.43-.48.27-.85.59-1.11.94-.27.36-.46.72-.56,1.11-.11.38-.16.76-.15,1.12,0,.41.06.82.19,1.23.13.41.33.79.63,1.14.29.35.67.63,1.14.84.47.21,1.05.32,1.74.33.22,0,.48-.02.78-.07s.61-.14.94-.29.65-.37.95-.67c.31-.3.58-.7.82-1.2.02.43.05.81.1,1.14.04.33.08.62.13.86h2.38c-.03-.24-.07-.51-.1-.79-.03-.29-.07-.58-.09-.88-.02-.3-.03-.58-.03-.84v-4.97c0-.32,0-.64-.03-.97s-.08-.66-.16-.98c-.08-.32-.21-.63-.38-.92s-.4-.55-.69-.79c-.37-.3-.83-.51-1.35-.64-.53-.13-1.12-.19-1.77-.19-.54,0-1,.03-1.39.1-.39.06-.71.14-.97.23-.26.1-.48.19-.64.3-.19.11-.4.26-.61.45l.76,1.83c.48-.4,1.14-.82,1.76-.97M148.59,131.99v.6c0,.25-.03.51-.08.8-.05.28-.13.56-.23.82-.1.27-.22.5-.37.71-.15.22-.34.41-.56.57s-.46.29-.71.38c-.26.09-.52.14-.79.14-.16,0-.34-.02-.51-.06s-.34-.1-.5-.18c-.16-.08-.3-.19-.43-.32-.06-.05-.12-.13-.18-.22-.07-.1-.12-.22-.17-.36s-.07-.31-.08-.5c0-.2.02-.43.09-.68.07-.25.2-.5.4-.74s.5-.44.9-.6c.22-.08.46-.15.72-.2s.52-.08.77-.1.46-.03.63-.03l1.09-.02h0Z"/>
    <path class="st4" d="M155.82,137.69v-6.53c0-.33.02-.65.06-.97.04-.33.13-.64.25-.94s.31-.59.55-.85c.11-.12.24-.23.39-.33.15-.1.32-.19.51-.25.19-.07.41-.1.66-.1.12,0,.25,0,.4.03s.3.08.45.16.29.21.42.38c.13.18.23.39.29.61s.09.46.11.69c0,.24.02.48,0,.72v7.39h2.38v-7.96c0-.54-.05-1-.13-1.4-.09-.4-.2-.73-.34-1s-.28-.48-.43-.64c-.2-.22-.43-.41-.7-.55-.26-.14-.54-.25-.84-.31-.3-.07-.58-.1-.87-.1-.53,0-1.01.1-1.44.3-.42.19-.79.46-1.1.79-.31.34-.57.72-.77,1.14h-.04v-2h-2.22v11.73h2.4Z"/>
    <path class="st4" d="M174.44,124.47c-.13-.28-.29-.56-.47-.81-.2-.28-.43-.54-.68-.76-.32-.28-.68-.51-1.08-.69-.4-.18-.82-.31-1.26-.4-.44-.09-.89-.13-1.34-.13s-.87.03-1.29.1-.82.18-1.21.34c-.38.15-.72.35-1.03.59-.29.23-.56.52-.81.86-.24.34-.44.74-.59,1.2s-.23.97-.23,1.53c0,.51.08.97.22,1.37.14.39.31.74.51,1.03.21.29.41.52.63.71.19.17.4.33.63.47.23.14.46.26.69.36s.46.19.67.26c.21.07.39.13.55.17l2.08.55c.44.12.81.28,1.09.46.28.18.5.38.65.59.15.21.26.42.32.63.06.21.08.4.08.57,0,.21-.03.44-.12.68-.08.24-.22.48-.42.7-.21.22-.49.4-.85.54-.37.14-.83.22-1.4.22-.22,0-.46-.02-.71-.05-.25-.04-.51-.11-.78-.21-.71-.27-1.66-.93-2-1.6l-1.72,1.58c.11.16.22.32.34.46.25.31.5.57.76.78.29.25.64.47,1.04.67s.86.36,1.37.48,1.09.18,1.72.18c.42,0,.86-.04,1.32-.12.45-.08.9-.22,1.34-.4.43-.19.84-.43,1.21-.75.31-.27.59-.59.83-.97s.43-.79.58-1.25c.14-.46.21-.93.22-1.43,0-.47-.07-.91-.19-1.32s-.29-.78-.49-1.11c-.2-.33-.44-.62-.69-.86-.28-.26-.58-.47-.9-.63s-.63-.29-.96-.38c-.32-.1-.63-.18-.94-.26l-1.91-.51c-.18-.05-.4-.11-.64-.19s-.48-.2-.71-.34c-.23-.14-.42-.33-.57-.56-.15-.23-.23-.51-.24-.84,0-.22.04-.44.11-.67.07-.23.2-.45.38-.66.18-.21.42-.37.74-.5.31-.13.71-.19,1.18-.2.41,0,.82.06,1.2.18.39.12.73.31,1.03.58.37.32.87.93.98,1.39l.35-.32,1.43-1.33-.02.02Z"/>
    <path class="st4" d="M176.77,131.86c0,.6.07,1.18.2,1.75.13.57.32,1.1.57,1.59.26.49.57.93.95,1.3.25.26.55.49.89.7.34.21.74.39,1.18.52.45.13.95.19,1.52.2.57,0,1.07-.07,1.51-.2.45-.13.84-.31,1.18-.52s.64-.45.89-.7c.38-.38.69-.81.95-1.3.25-.5.45-1.03.57-1.59.13-.56.2-1.15.2-1.75s-.07-1.18-.2-1.75c-.13-.56-.32-1.09-.57-1.59-.26-.49-.57-.93-.95-1.3-.25-.25-.55-.49-.89-.71-.34-.21-.74-.39-1.18-.51-.45-.13-.95-.19-1.51-.2-.57,0-1.07.07-1.52.2s-.84.3-1.18.51c-.34.22-.64.45-.89.71-.38.38-.69.81-.95,1.3-.25.5-.45,1.03-.57,1.59-.13.57-.2,1.15-.2,1.75M179.52,131.86c0-.54.04-1.01.1-1.4.07-.39.15-.72.24-.98.09-.26.19-.46.27-.61.09-.15.16-.25.2-.3.08-.1.19-.22.34-.35s.34-.24.57-.34c.23-.1.51-.15.82-.15s.59.06.82.15c.23.1.42.21.57.34.15.13.26.25.34.35.05.05.12.15.2.3.09.14.18.35.28.61.09.26.18.59.24.98.07.39.1.86.1,1.4s-.04,1.01-.1,1.4c-.07.39-.15.72-.24.98-.1.26-.19.46-.28.61s-.16.25-.2.3c-.08.1-.19.22-.34.35s-.34.24-.57.34c-.23.1-.5.15-.82.15s-.59-.06-.82-.15c-.23-.1-.42-.21-.57-.34-.15-.13-.27-.25-.34-.35-.05-.05-.11-.15-.2-.3-.09-.14-.18-.35-.27-.61-.1-.26-.18-.59-.24-.98-.07-.39-.1-.86-.1-1.4"/>
    <polygon class="st4" points="189.01 123.03 189.01 137.85 191.7 137.85 191.7 121.2 189.01 123.03"/>
    <path class="st4" d="M205.23,125.96v11.73h2.73v-5.64c-.02-1.18-.03-3.6,1.71-3.72.56-.04,1.59.13,2.17.4l.66-2.34c-1.34-.54-2.46-1.12-3.75.1-.36.34-.56.8-.72,1.15s-.26.67-.3.95h-.05v-2.65h-2.45v.02Z"/>
    <path class="st4" d="M117.32,127.66c.25-.07.56-.1.94-.1.2,0,.4.01.62.04s.43.09.64.19c.21.1.38.25.53.46.09.13.15.28.21.44.05.16.09.33.11.49.02.17.04.31.05.44v.67l-1.17.02c-.25,0-.55.02-.9.05s-.72.07-1.11.13-.77.15-1.15.26c-.38.11-.73.26-1.04.43-.48.27-.85.59-1.11.94-.27.36-.45.72-.56,1.11-.11.38-.16.76-.15,1.12,0,.41.06.82.19,1.23.13.41.34.79.63,1.14s.67.63,1.14.84c.47.21,1.06.32,1.74.33.22,0,.48-.02.78-.07.3-.05.61-.14.94-.29s.65-.37.96-.67.58-.7.82-1.2c.02.43.05.81.1,1.14.04.33.09.62.13.86h2.38c-.03-.24-.07-.51-.1-.79-.03-.29-.07-.58-.09-.88s-.03-.58-.03-.84v-4.97c0-.32-.01-.64-.03-.97s-.08-.66-.16-.98c-.08-.32-.21-.63-.38-.92s-.4-.55-.69-.79c-.37-.3-.83-.51-1.35-.64-.53-.13-1.12-.19-1.77-.19-.54,0-1,.03-1.39.1-.39.06-.71.14-.97.23-.26.1-.48.19-.64.3-.19.11-.4.26-.61.45l.76,1.83c.48-.4,1.14-.82,1.76-.97M120.42,131.99v.6c0,.25-.03.51-.08.8-.05.28-.13.56-.23.82-.1.27-.22.5-.37.71-.15.22-.34.41-.55.57-.22.16-.46.29-.71.38-.26.09-.52.14-.79.14-.16,0-.34-.02-.51-.06-.17-.04-.34-.1-.5-.18-.16-.08-.3-.19-.43-.32-.06-.05-.12-.13-.18-.22-.07-.1-.12-.22-.17-.36-.05-.14-.07-.31-.08-.5,0-.2.02-.43.09-.68s.2-.5.4-.74c.2-.24.5-.44.9-.6.22-.08.46-.15.72-.2s.52-.08.77-.1.46-.03.63-.03l1.09-.02h0Z"/>
    <path class="st4" d="M94.66,127.66c.25-.07.56-.1.94-.1.2,0,.4.01.62.04s.43.09.64.19c.21.1.38.25.53.46.09.13.15.28.21.44.05.16.09.33.11.49.02.17.04.31.05.44v.67l-1.17.02c-.25,0-.55.02-.9.05s-.72.07-1.11.13-.77.15-1.15.26c-.38.11-.73.26-1.04.43-.48.27-.85.59-1.11.94-.27.36-.46.72-.56,1.11-.11.38-.16.76-.15,1.12,0,.41.06.82.19,1.23.13.41.34.79.63,1.14s.67.63,1.14.84c.47.21,1.05.32,1.74.33.22,0,.48-.02.78-.07.3-.05.61-.14.94-.29s.65-.37.96-.67.58-.7.82-1.2c.02.43.05.81.1,1.14.04.33.09.62.13.86h2.38c-.03-.24-.07-.51-.1-.79-.03-.29-.07-.58-.09-.88s-.03-.58-.03-.84v-4.97c0-.32-.01-.64-.03-.97s-.08-.66-.16-.98c-.08-.32-.21-.63-.38-.92s-.4-.55-.69-.79c-.37-.3-.83-.51-1.35-.64-.53-.13-1.12-.19-1.77-.19-.54,0-1,.03-1.39.1-.39.06-.71.14-.97.23-.26.1-.48.19-.64.3-.19.11-.4.26-.61.45l.76,1.83c.48-.4,1.14-.82,1.76-.97M97.76,131.99v.6c0,.25-.03.51-.08.8-.05.28-.13.56-.23.82-.1.27-.22.5-.37.71-.15.22-.34.41-.55.57-.22.16-.46.29-.71.38-.26.09-.52.14-.79.14-.16,0-.34-.02-.51-.06-.17-.04-.34-.1-.5-.18-.16-.08-.3-.19-.43-.32-.06-.05-.12-.13-.18-.22-.07-.1-.12-.22-.17-.36-.05-.14-.07-.31-.07-.5,0-.2.02-.43.09-.68s.2-.5.4-.74c.2-.24.5-.44.9-.6.22-.08.46-.15.72-.2s.52-.08.77-.1.46-.03.63-.03l1.09-.02h0Z"/>
    <path class="st4" d="M197.43,127.66c.25-.07.56-.1.94-.1.2,0,.4.01.62.04s.43.09.64.19c.21.1.38.25.53.46.09.13.15.28.21.44.05.16.09.33.11.49.02.17.04.31.05.44v.67l-1.17.02c-.25,0-.55.02-.9.05-.35.03-.72.07-1.11.13s-.77.15-1.15.26c-.38.11-.73.26-1.04.43-.48.27-.85.59-1.11.94-.27.36-.45.72-.56,1.11-.11.38-.16.76-.15,1.12,0,.41.06.82.19,1.23.13.41.34.79.63,1.14.29.35.67.63,1.14.84.47.21,1.05.32,1.74.33.22,0,.48-.02.78-.07s.61-.14.94-.29.65-.37.95-.67c.31-.3.58-.7.82-1.2.02.43.05.81.1,1.14.04.33.09.62.13.86h2.38c-.03-.24-.07-.51-.1-.79-.03-.29-.07-.58-.09-.88-.02-.3-.03-.58-.03-.84v-4.97c0-.32,0-.64-.04-.97-.02-.33-.08-.66-.16-.98-.08-.32-.21-.63-.38-.92s-.4-.55-.69-.79c-.37-.3-.83-.51-1.35-.64-.53-.13-1.12-.19-1.77-.19-.54,0-1,.03-1.39.1-.39.06-.71.14-.97.23-.26.1-.48.19-.64.3-.19.11-.4.26-.61.45l.76,1.83c.48-.4,1.14-.82,1.76-.97M200.53,131.99v.6c0,.25-.03.51-.08.8-.05.28-.13.56-.23.82-.1.27-.22.5-.37.71-.15.22-.34.41-.55.57-.22.16-.46.29-.71.38-.26.09-.52.14-.79.14-.16,0-.34-.02-.51-.06s-.34-.1-.5-.18c-.16-.08-.3-.19-.43-.32-.06-.05-.12-.13-.18-.22-.07-.1-.12-.22-.17-.36s-.07-.31-.08-.5c0-.2.02-.43.09-.68.07-.25.2-.5.4-.74s.5-.44.9-.6c.22-.08.46-.15.72-.2s.52-.08.77-.1.46-.03.63-.03l1.09-.02h0Z"/>
  </g>
</svg>