<?xml version="1.0" encoding="UTF-8"?>
<svg id="Camada_1" xmlns="http://www.w3.org/2000/svg" version="1.1" viewBox="0 0 250 250">
  <!-- Generator: Adobe Illustrator 29.5.1, SVG Export Plug-In . SVG Version: 2.1.0 Build 141)  -->
  <defs>
    <style>
      .st0 {
        fill: #fff;
      }

      .st1 {
        fill: #213a8e;
      }

      .st2 {
        fill: #e84e24;
      }
    </style>
  </defs>
  <rect class="st0" width="250" height="250"/>
  <g>
    <path class="st1" d="M154.85,135.68c0,1.19-.22,2.22-.66,3.1-.44.87-1.05,1.6-1.85,2.18-.79.57-1.72.99-2.81,1.27s-2.28.42-3.56.42c-1.15,0-2.25-.07-3.32-.2-1.06-.13-2.12-.35-3.16-.66v-4.05c.51.18,1.05.34,1.6.5.56.16,1.12.3,1.67.41.56.11,1.12.21,1.68.27.56.07,1.1.1,1.62.1.78,0,1.44-.06,1.98-.2.55-.13.99-.32,1.33-.55.35-.23.59-.51.75-.83s.23-.68.23-1.07c0-.53-.15-.98-.46-1.34-.31-.36-.7-.68-1.2-.96-.5-.28-1.07-.53-1.71-.75s-1.29-.46-1.95-.72c-.66-.25-1.31-.55-1.95-.87-.64-.32-1.21-.72-1.71-1.2-.5-.47-.9-1.05-1.21-1.71-.3-.66-.45-1.46-.45-2.39,0-.86.15-1.67.46-2.43.31-.77.8-1.44,1.47-2.01s1.52-1.03,2.57-1.36c1.04-.34,2.3-.51,3.78-.51.43,0,.88.02,1.36.06.48.03.94.09,1.4.15.46.06.91.14,1.33.22.43.09.82.17,1.18.26v3.75c-.35-.14-.74-.26-1.16-.37-.43-.12-.86-.21-1.31-.29s-.9-.15-1.36-.19c-.46-.05-.89-.07-1.3-.07-.73,0-1.33.06-1.83.18s-.91.28-1.24.48c-.32.21-.56.46-.7.76-.15.3-.22.64-.22,1,0,.45.15.85.46,1.18.31.33.71.62,1.21.88.51.26,1.08.51,1.72.74.63.22,1.29.47,1.97.73.67.26,1.33.56,1.96.89.64.34,1.21.74,1.72,1.22.5.48.91,1.04,1.21,1.69.31.65.46,1.42.46,2.31"/>
    <path class="st1" d="M165.33,123.61c1.71,0,3.32.43,4.82,1.28,1.5.86,2.68,2.01,3.52,3.48.85,1.47,1.27,3.05,1.27,4.75s-.42,3.31-1.27,4.8-2.01,2.65-3.47,3.49c-1.47.84-3.08,1.26-4.85,1.26-2.6,0-4.82-.92-6.65-2.78-1.84-1.85-2.76-4.09-2.76-6.74,0-2.83,1.04-5.19,3.12-7.08,1.82-1.64,3.91-2.47,6.28-2.47M165.41,127.9c-1.41,0-2.59.49-3.53,1.47s-1.4,2.24-1.4,3.77.46,2.85,1.39,3.83,2.11,1.47,3.53,1.47,2.61-.5,3.55-1.48c.95-.99,1.42-2.26,1.42-3.81s-.46-2.82-1.4-3.79c-.93-.97-2.12-1.46-3.56-1.46"/>
    <rect class="st1" x="176.38" y="117.14" width="4.55" height="25.53"/>
    <path class="st1" d="M196.56,124.14h4.55v18.53h-4.55v-2.38c-.88.85-1.77,1.46-2.66,1.83-.9.37-1.86.56-2.91.56-2.34,0-4.36-.91-6.07-2.72-1.71-1.82-2.56-4.07-2.56-6.77s.83-5.08,2.48-6.87,3.66-2.69,6.02-2.69c1.09,0,2.11.21,3.06.62s1.84,1.03,2.64,1.85v-1.96ZM191.79,127.81c-1.41,0-2.57.5-3.5,1.5-.93.99-1.4,2.27-1.4,3.82s.48,2.86,1.42,3.87c.95,1.01,2.12,1.51,3.5,1.51s2.61-.49,3.55-1.49c.94-.99,1.41-2.3,1.41-3.91s-.47-2.85-1.41-3.83-2.13-1.47-3.57-1.47"/>
    <path class="st1" d="M62.47,120.31c2.75,9.23-2.75,16.25-8.15,16.25h-2.56c-2.96,0-3.69-2.63-3.69-3.68v-16.69c0-2.62,2.26-3.68,3.69-3.68h2.4c12.32,0,17.95,16.97,13.13,26.68,10.35-10.27,6.24-31.86-12.58-31.86h-17.21l2.43,2.63v29.68c0,1.84,1.48,3.03,3.04,3.03h14.42c1.33,0,7.05,0,8.44-7.63,1.1-6.03-.95-11.55-3.35-14.73"/>
    <path class="st1" d="M116.09,107.33h-10.29l2.44,2.63,4.47,10.61h-11.13l3.21,7.12c.21.51.92,1.14,1.8,1.14h8.74c.14,0,.75-.05,1.04.61,0,0,3.18,7.76,3.52,8.51.58,1.26,2.5,4.71,6.95,4.71h5.18l-13.99-33.9c-.33-.77-1-1.41-1.95-1.44"/>
    <path class="st1" d="M89.17,107.33h-14.41l2.43,2.63-3.32,7.48c2.78,8.42.59,19.13-9.78,25.24h5.77c.92,0,2.46-.32,3.45-1.06.83-.62,1.57-1.23,2.2-2.64,1.36-2.71,8.86-22.27,8.86-22.27.02,0,.29-.93,1.33-.93.91,0,1.24.78,1.26.78l7.37,17.78h-11.2c1.45,3.99,6.21,8.32,12.18,8.32l9.77-.05,2.9-.02c-4.3-10.37-12.52-30.81-13.55-32.4-.45-.7-1.95-2.87-5.25-2.87"/>
    <path class="st2" d="M134.18,109.51c0-.84-.69-2.18-2.28-2.18h-8.04c-1.42,0-2.8,1.42-2.07,3.19,2.65,6.5,10.58,25.35,10.63,25.46.49,1.01,1.77.53,1.77-.32v-26.15"/>
    <path class="st1" d="M207.32,125.88v-1.74h-4.54v18.53h4.54v-12.74c1.51-.99,3.28-1.6,5.18-1.73v-4.05c-1.9.13-3.68.74-5.18,1.73"/>
  </g>
</svg>