<?xml version="1.0" encoding="UTF-8"?>
<svg id="Camada_1" xmlns="http://www.w3.org/2000/svg" version="1.1" viewBox="0 0 250 250">
  <!-- Generator: Adobe Illustrator 29.5.1, SVG Export Plug-In . SVG Version: 2.1.0 Build 141)  -->
  <defs>
    <style>
      .st0 {
        fill: #fff;
      }

      .st1 {
        fill: #409fcf;
        fill-rule: evenodd;
      }

      .st2 {
        fill: #b61d22;
      }
    </style>
  </defs>
  <rect class="st0" width="250" height="250"/>
  <g>
    <path class="st1" d="M37.5,146.29l.09-40.26h11.85v27.73l27.05.05s10.94-4.45,10.94-15.8-9.17-15.16-12.89-15.16-22.19.04-22.19.04v-12.75l26.05-.05s14.62,1.91,18.66,19.75c3.99,17.84-8.58,36.45-21.2,36.45h-38.36ZM212.35,129.63l-27.06.09s-.41,8.45,8.81,8.72c9.17.27,9.8-5.85,9.8-5.85h8.35s-.32,2.82-2.5,5.85c-2.9,4.09-9.44,8.81-18.02,7.72-22.51-2.9-19.52-34.54,1.68-36.63,6.31-.59,20.7,4.04,18.93,20.11M204.31,126.55s-.59-6.08-7.35-7.63c-6.76-1.54-11.71,3.54-11.71,7.63h19.07,0ZM148.66,109.61l7.72,24.15,8.4-24.15h10.03l-19.29,50.29h-8.99l4.81-15.97-11.67-34.32h8.99ZM136.54,129.63l-27.01.09s-.41,8.45,8.76,8.72c9.22.27,9.81-5.85,9.81-5.85h8.35s-.27,2.82-2.45,5.85c-2.95,4.09-9.49,8.81-18.06,7.72-22.52-2.9-19.52-34.54,1.68-36.63,6.31-.59,20.74,4.04,18.93,20.11M128.56,126.55s-.64-6.08-7.4-7.63c-6.76-1.54-11.67,3.54-11.67,7.63h19.07Z"/>
    <rect class="st2" x="37.59" y="90.19" width="11.85" height="12.57"/>
  </g>
</svg>