<?xml version="1.0" encoding="UTF-8"?>
<svg id="Camada_1" xmlns="http://www.w3.org/2000/svg" version="1.1" viewBox="0 0 250 250">
  <!-- Generator: Adobe Illustrator 29.5.1, SVG Export Plug-In . SVG Version: 2.1.0 Build 141)  -->
  <defs>
    <style>
      .st0 {
        fill: #fff;
      }

      .st1 {
        fill: #5e5e5d;
      }

      .st2 {
        fill: #93c01f;
      }
    </style>
  </defs>
  <rect class="st0" width="250" height="250"/>
  <g>
    <path class="st1" d="M86.05,118.89v-4.41h.87v.61c.11-.23.25-.4.43-.52.17-.11.38-.17.62-.17.39,0,.7.15.91.44.22.3.32.68.32,1.16,0,.51-.12.93-.36,1.27s-.58.51-1.01.51c-.11,0-.22-.01-.32-.03-.1-.03-.19-.06-.28-.11s-.19-.14-.31-.25v1.5s-.87,0-.87,0ZM86.93,116.88c.12.14.24.23.34.28.1.05.21.08.32.08.24,0,.41-.12.52-.35.11-.23.17-.5.17-.8s-.05-.55-.16-.73-.27-.26-.46-.26c-.13,0-.25.04-.38.13s-.24.21-.35.36v1.28h0Z"/>
    <path class="st1" d="M95.53,117.8c-.35,0-.65-.07-.9-.2-.25-.14-.45-.34-.58-.6-.13-.27-.2-.56-.2-.89s.06-.62.19-.88c.13-.26.32-.47.57-.61s.55-.21.91-.21.66.07.91.21.44.34.57.61c.13.27.2.56.2.88s-.07.62-.2.89c-.14.26-.32.47-.57.6-.25.14-.55.2-.91.2M95.53,117.25c.25,0,.43-.11.56-.33s.19-.49.19-.83-.06-.6-.19-.82c-.13-.22-.31-.33-.56-.33s-.43.11-.56.33-.19.49-.19.82.06.61.19.83c.12.22.31.33.56.33Z"/>
    <polygon class="st1" points="102.58 117.72 101.68 114.48 102.5 114.48 103.13 116.75 103.81 114.48 104.57 114.48 105.18 116.76 105.87 114.48 106.48 114.48 105.51 117.72 104.68 117.72 104.08 115.5 103.42 117.72 102.58 117.72"/>
    <path class="st1" d="M113.85,117.61c-.41.12-.8.18-1.17.18-.35,0-.66-.06-.92-.19-.26-.13-.47-.33-.61-.61s-.21-.58-.21-.91c0-.3.06-.58.18-.84.12-.26.3-.46.53-.61.23-.15.51-.22.85-.22.41,0,.74.13.99.4.25.26.37.75.37,1.47h-1.99c.02.22.07.39.15.52s.19.23.32.3c.13.08.31.11.54.11.29,0,.62-.07.98-.2v.61h-.01ZM111.84,115.78h1.15c0-.29-.05-.51-.15-.64s-.22-.19-.38-.19c-.17,0-.31.07-.42.21s-.18.35-.21.62h0Z"/>
    <path class="st1" d="M118.77,117.72v-3.24h.87v.61c.11-.21.25-.38.43-.5.18-.13.38-.19.61-.19.05,0,.11,0,.16.02v.78c-.12-.05-.24-.07-.35-.07-.17,0-.33.04-.47.13s-.27.22-.38.4v2.06s-.87,0-.87,0Z"/>
    <path class="st1" d="M125.72,113.2h.87v.73h-.87v-.73ZM125.72,114.48h.87v3.24h-.87v-3.24Z"/>
    <path class="st1" d="M131.69,117.72v-3.24h.87v.61c.16-.25.33-.43.52-.53s.39-.16.58-.16c.26,0,.48.08.66.25.18.16.28.42.28.78v2.29h-.88v-2.08c0-.18,0-.3-.05-.36-.03-.06-.07-.11-.13-.14-.05-.03-.12-.05-.19-.05-.12,0-.24.04-.37.12-.13.08-.27.23-.42.47v2.04h-.87Z"/>
    <path class="st1" d="M139.69,118.73l.07-.63c.36.16.7.25,1.02.25.3,0,.53-.06.68-.19.15-.13.23-.35.23-.69v-.44c-.09.21-.23.38-.41.5-.18.13-.39.2-.64.2s-.47-.06-.66-.19c-.19-.12-.34-.31-.44-.57-.1-.25-.15-.54-.15-.85,0-.49.12-.89.37-1.22s.59-.49,1.02-.49c.11,0,.22.01.31.04.1.02.19.06.28.11s.2.14.32.25l.09-.33h.78v2.47c0,.65-.06,1.09-.19,1.32s-.32.4-.58.51-.56.17-.9.17c-.37,0-.78-.08-1.21-.23M141.69,116.51v-1.2c-.12-.14-.24-.24-.35-.29s-.21-.07-.31-.07c-.22,0-.39.1-.52.3-.13.2-.2.47-.2.81,0,.3.05.53.16.7.1.17.25.25.45.25.14,0,.27-.04.4-.13.13-.09.25-.21.36-.38h.01Z"/>
    <path class="st1" d="M155.09,117.71c-.21.06-.37.09-.49.09-.29,0-.51-.04-.67-.12s-.27-.19-.35-.33-.12-.34-.12-.61v-1.71h-.36v-.55h.36v-.55l.87-.1v.65h.69v.55h-.69v1.59c0,.23.04.39.12.47s.2.12.36.12c.08,0,.16-.01.27-.04v.53h.01Z"/>
    <path class="st1" d="M161.46,117.8c-.35,0-.65-.07-.9-.2-.25-.14-.44-.34-.57-.6-.13-.27-.2-.56-.2-.89s.07-.62.2-.88c.13-.26.32-.47.57-.61s.55-.21.91-.21.66.07.91.21.44.34.57.61c.13.27.2.56.2.88s-.07.62-.2.89c-.13.26-.32.47-.58.6-.25.14-.55.2-.9.2M161.46,117.25c.25,0,.43-.11.56-.33s.19-.49.19-.83-.06-.6-.19-.82c-.12-.22-.31-.33-.56-.33s-.43.11-.56.33-.19.49-.19.82.06.61.19.83c.12.22.31.33.56.33Z"/>
    <path class="st1" d="M168.14,117.72v-3.24h.84v.61c.11-.2.25-.36.43-.49s.4-.19.66-.19c.16,0,.29.02.41.07.11.05.22.13.31.23.09.1.15.23.17.38.16-.24.33-.42.49-.53.17-.11.37-.16.61-.16.26,0,.48.08.64.23s.25.4.25.75v2.34h-.84v-2.05c0-.24-.04-.4-.12-.47-.07-.07-.16-.11-.26-.11-.13,0-.26.05-.39.14-.13.1-.25.24-.38.43v2.06h-.84v-2.05c0-.24-.04-.4-.11-.47-.08-.07-.17-.11-.27-.11-.13,0-.25.05-.38.14s-.25.23-.38.43v2.06h-.84Z"/>
    <path class="st1" d="M179.59,117.8c-.35,0-.65-.07-.9-.2-.25-.14-.44-.34-.58-.6-.13-.27-.2-.56-.2-.89s.07-.62.2-.88c.13-.26.32-.47.57-.61s.55-.21.91-.21.66.07.91.21.44.34.57.61c.13.27.19.56.19.88s-.07.62-.2.89c-.13.26-.32.47-.57.6-.25.14-.55.2-.91.2M179.59,117.25c.25,0,.43-.11.56-.33s.19-.49.19-.83-.06-.6-.19-.82-.31-.33-.56-.33-.43.11-.56.33-.19.49-.19.82.06.61.19.83c.12.22.31.33.56.33Z"/>
    <path class="st1" d="M186.27,117.72v-3.24h.88v.61c.1-.21.25-.38.43-.5.18-.13.38-.19.61-.19.05,0,.11,0,.16.02v.78c-.12-.05-.24-.07-.34-.07-.18,0-.33.04-.47.13s-.27.22-.38.4v2.06h-.89Z"/>
    <path class="st1" d="M193.22,117.72v-3.24h.88v.61c.1-.21.25-.38.43-.5.18-.13.38-.19.61-.19.05,0,.11,0,.16.02v.78c-.12-.05-.24-.07-.35-.07-.17,0-.33.04-.47.13s-.27.22-.38.4v2.06h-.88,0Z"/>
    <path class="st1" d="M201.56,117.8c-.35,0-.65-.07-.9-.2-.25-.14-.44-.34-.57-.6-.13-.27-.2-.56-.2-.89s.07-.62.19-.88c.13-.26.32-.47.57-.61s.55-.21.91-.21.66.07.91.21.44.34.57.61c.13.27.2.56.2.88s-.07.62-.2.89c-.13.26-.32.47-.57.6-.25.14-.55.2-.91.2M201.56,117.25c.25,0,.43-.11.56-.33s.19-.49.19-.83-.06-.6-.19-.82-.31-.33-.56-.33-.43.11-.56.33-.19.49-.19.82.06.61.19.83c.12.22.31.33.56.33Z"/>
    <polygon class="st1" points="208.61 117.72 207.7 114.48 208.51 114.48 209.15 116.75 209.83 114.48 210.59 114.48 211.2 116.76 211.89 114.48 212.5 114.48 211.53 117.72 210.7 117.72 210.1 115.5 209.44 117.72 208.61 117.72"/>
    <path class="st1" d="M86.05,145.83v-21.03h5.67v3.96c.68-1.35,1.6-2.43,2.78-3.24,1.18-.8,2.48-1.21,3.93-1.21.35,0,.69.04,1.05.12v5.06c-.79-.29-1.54-.44-2.24-.44-1.12,0-2.15.29-3.07.86-.92.56-1.73,1.42-2.45,2.57v13.35h-5.67Z"/>
    <path class="st1" d="M112.78,146.31c-2.27,0-4.23-.44-5.85-1.33-1.63-.89-2.87-2.19-3.73-3.92s-1.28-3.64-1.28-5.75.42-4,1.26-5.72c.84-1.72,2.08-3.03,3.71-3.93,1.64-.9,3.59-1.35,5.88-1.35s4.26.45,5.89,1.35,2.87,2.21,3.71,3.93c.85,1.72,1.27,3.62,1.27,5.72s-.43,4.02-1.28,5.75c-.86,1.72-2.1,3.03-3.72,3.92-1.63.89-3.58,1.33-5.87,1.33M112.78,142.76c1.61,0,2.82-.71,3.63-2.12.81-1.41,1.21-3.19,1.21-5.33s-.41-3.91-1.21-5.33c-.81-1.42-2.02-2.13-3.63-2.13s-2.8.71-3.61,2.13-1.21,3.19-1.21,5.33.4,3.92,1.21,5.33,2.02,2.12,3.61,2.12Z"/>
    <polygon class="st1" points="132.58 145.83 126.73 124.79 132 124.79 136.14 139.53 140.55 124.79 145.44 124.79 149.42 139.6 153.88 124.79 157.83 124.79 151.58 145.83 146.14 145.83 142.31 131.4 138.02 145.83 132.58 145.83"/>
    <path class="st1" d="M173,143.57c-.82.79-1.53,1.36-2.13,1.71s-1.22.6-1.88.78c-.65.17-1.34.26-2.07.26-1.88,0-3.38-.58-4.51-1.75-1.13-1.17-1.7-2.6-1.7-4.3,0-2.07.85-3.8,2.54-5.18,1.69-1.39,4.43-2.08,8.22-2.08h1.51v-1.92c0-1.29-.36-2.16-1.08-2.61-.71-.45-1.62-.67-2.71-.67-2.17,0-4.39.62-6.65,1.88v-3.91c2.57-.97,5.12-1.46,7.66-1.46,1.56,0,2.95.21,4.18.63s2.2,1.08,2.94,1.96c.73.89,1.1,2.21,1.1,3.98v9.31c0,1.14.17,1.83.53,2.09.35.25.69.38,1.04.38.21,0,.59-.02.9-.08v3.18c-1.2.36-2.26.53-3.2.53-1.05,0-1.95-.18-2.71-.53-.76-.35-1.34-1.09-1.75-2.21h-.25.02ZM173,140.52v-4.27h-1.34c-1.85,0-3.23.33-4.14.99s-1.36,1.48-1.36,2.46c0,.81.27,1.47.82,1.98.55.52,1.19.78,1.93.78.66,0,1.34-.16,2.02-.49.68-.33,1.37-.81,2.06-1.45h0Z"/>
    <path class="st1" d="M196.6,145.72c-1.35.39-2.42.59-3.2.59-1.85,0-3.29-.26-4.31-.78s-1.79-1.24-2.3-2.14c-.51-.9-.76-2.22-.76-3.97v-11.07h-2.36v-3.54h12.53v3.54h-4.5v10.31c0,1.52.27,2.54.81,3.07.53.53,1.32.8,2.35.8.49,0,1.07-.08,1.74-.23v3.43h0Z"/>
    <path class="st1" d="M212.5,145.72c-1.35.39-2.42.59-3.2.59-1.85,0-3.29-.26-4.31-.78s-1.79-1.24-2.3-2.14c-.51-.9-.77-2.22-.77-3.97v-11.07h-2.35v-3.54h12.52v3.54h-4.5v10.31c0,1.52.27,2.54.8,3.07.54.53,1.32.8,2.36.8.49,0,1.07-.08,1.74-.23v3.43h0Z"/>
    <path class="st2" d="M58.56,124.76v7.91h10.51c-2.4,3.19-6.22,5.26-10.51,5.26-7.26,0-13.16-5.91-13.16-13.16s5.9-13.16,13.16-13.16c3.51,0,6.82,1.37,9.3,3.85h0l4.96-4.96.63-.63h0c-3.81-3.81-9.08-6.17-14.89-6.17-11.63,0-21.06,9.43-21.06,21.06s9.43,21.07,21.06,21.07c4.98,0,9.55-1.73,13.16-4.62v4.62h7.9v-21.07h-21.06Z"/>
  </g>
</svg>