<?xml version="1.0" encoding="UTF-8"?>
<svg id="Camada_1" xmlns="http://www.w3.org/2000/svg" version="1.1" viewBox="0 0 250 250">
  <!-- Generator: Adobe Illustrator 29.5.1, SVG Export Plug-In . SVG Version: 2.1.0 Build 141)  -->
  <defs>
    <style>
      .st0, .st1, .st2 {
        fill-rule: evenodd;
      }

      .st0, .st3 {
        fill: #0b478d;
      }

      .st4 {
        fill: #fff;
      }

      .st1, .st5 {
        fill: #1d75ba;
      }

      .st2 {
        fill: #f6a320;
      }
    </style>
  </defs>
  <rect class="st4" width="250" height="250"/>
  <g>
    <path class="st1" d="M63.46,135.45c-2.56-2.96-5.33-5.74-8.3-8.3-.84-.72-1.69-1.43-2.56-2.12-4.3-3.42-8.97-6.38-13.93-8.86-.39-.19-.78-.39-1.17-.58v33.38c0,2.16,1.77,3.93,3.93,3.93h33.49c-.19-.39-.39-.78-.58-1.17-2.45-4.89-5.39-9.49-8.76-13.74-.69-.87-1.39-1.72-2.12-2.56"/>
    <path class="st2" d="M71.49,125.1c0-3.29-2.68-5.97-5.97-5.97s-5.97,2.68-5.97,5.97,2.68,5.97,5.97,5.97,5.97-2.68,5.97-5.97"/>
    <path class="st2" d="M89.4,97.08c2.16,0,3.93,1.77,3.93,3.93v47.97c0,2.16-1.77,3.93-3.93,3.93h-11.88c-.18-.39-.38-.78-.56-1.17-2.41-4.98-5.31-9.69-8.64-14.04.59-.13,1.17-.3,1.72-.51l7.04,8.13-3.52-10.14c.7-.56,1.34-1.19,1.92-1.88l10.16,3.53-8.11-7.02c.33-.83.57-1.69.72-2.59l10.56-2.03-10.53-2.02c-.14-.9-.37-1.77-.68-2.6l8.13-7.04-10.14,3.52c-.56-.7-1.19-1.34-1.88-1.91l3.14-9.04.39-1.12-.97,1.12-6.05,6.99c-.83-.33-1.69-.57-2.59-.72l-1.14-5.96-.88-4.6-.91,4.75-1.11,5.78c-.9.14-1.77.37-2.6.68l-4.69-5.42-2.35-2.71,1.02,2.94,2.5,7.2c-.7.56-1.34,1.19-1.91,1.88l-10.17-3.53,8.11,7.02c-.24.62-.44,1.26-.58,1.91-4.42-3.38-9.19-6.31-14.24-8.74-.39-.19-.78-.38-1.17-.56v-11.99c0-2.16,1.77-3.93,3.93-3.93h47.97-.01Z"/>
    <path class="st2" d="M76.07,125.1c0,5.43-4.13,9.92-9.42,10.49-.61-.74-1.23-1.48-1.87-2.2.24.02.48.04.73.04,4.59,0,8.33-3.74,8.33-8.33s-3.74-8.33-8.33-8.33-8.33,3.74-8.33,8.33c0,.24.02.49.04.73-.72-.63-1.46-1.26-2.2-1.86.57-5.29,5.06-9.42,10.49-9.42,5.82,0,10.55,4.74,10.55,10.55"/>
    <polygon class="st3" points="102.27 134.6 102.27 136.42 102.27 137.48 102.27 143.86 102.27 146.02 102.27 146.74 116.06 146.74 116.06 143.86 105.62 143.86 105.62 137.48 121.47 137.48 121.47 134.6 102.27 134.6"/>
    <polygon class="st5" points="107.68 142.11 118.12 142.11 118.12 148.48 102.27 148.48 102.27 151.36 121.47 151.36 121.47 149.29 121.47 148.48 121.47 142.11 121.47 139.7 121.47 139.23 107.68 139.23 107.68 142.11"/>
    <polygon class="st5" points="149.66 136.94 149.66 148.08 155.5 148.08 155.5 150.49 146.8 150.49 146.8 136.94 149.66 136.94"/>
    <path class="st5" d="M159.87,150.48h-2.86v-9.53h2.86v9.53ZM159.96,139.37h-3.01v-2.42h3.01v2.42Z"/>
    <path class="st5" d="M171.16,150.49h-2.85v-5.4c-.02-.39,0-1.09-.07-1.35-.09-.37-.54-1.12-1.41-1.12-.13,0-.54-.03-1.07.45-.28.28-.47.64-.55.84-.08.18-.2.59-.2,1.04v5.54h-2.84v-9.51l2.84.04v1.16c.36-.34.53-.57.82-.78.32-.23.81-.55,1.97-.59.19,0,.99.03,1.64.37.54.28,1.08.85,1.17.96.04.07.25.36.34.62.2.56.18.87.2,1.43v6.3h.01ZM169.44,141.18c.54.28.69.43,1.05.79.17.19.37.53.46.79"/>
    <path class="st5" d="M144.4,150.49h-2.85v-5.4c-.02-.39,0-1.09-.07-1.35-.09-.37-.54-1.12-1.41-1.12-.13,0-.54-.03-1.07.45-.28.28-.47.64-.55.84-.08.18-.2.59-.2,1.04v5.54h-2.84v-9.51l2.84.04v1.16c.36-.34.54-.57.83-.78.32-.23.81-.55,1.97-.59.19,0,.99.03,1.65.37.54.28,1.08.85,1.17.96.04.07.25.36.34.62.2.56.18.87.2,1.43v6.3h0ZM142.68,141.18c.54.28.69.43,1.04.79.17.19.37.53.47.79"/>
    <path class="st5" d="M123.95,140.98h2.85v5.4c.02.39,0,1.09.07,1.35.09.37.54,1.12,1.41,1.12.13,0,.54.03,1.07-.45.28-.28.47-.64.56-.84.08-.18.2-.59.2-1.04v-5.54h2.84v9.51l-2.84-.04v-1.16c-.36.34-.53.57-.83.78-.32.23-.81.55-1.97.59-.19,0-.99-.03-1.65-.37-.54-.28-1.08-.85-1.17-.96-.04-.07-.25-.36-.34-.62-.21-.56-.19-.87-.2-1.43v-6.3h0ZM125.66,150.29c-.54-.28-.69-.43-1.04-.79-.17-.19-.37-.53-.46-.79"/>
    <polygon class="st5" points="176.46 136.94 176.46 144.83 179.19 140.92 182.4 140.92 179.07 145.08 182.63 150.49 179.23 150.49 176.47 145.5 176.47 150.49 173.6 150.49 173.6 136.94 176.46 136.94"/>
    <path class="st5" d="M193.02,136.94c1.47,0,3.83,0,5.03,1.75.69,1.01.71,2.06.71,2.39,0,.17-.04,2.04-1.36,3.16-.53.46-1.3.71-1.39.72-.92.29-1.81.31-4.03.31v5.22h-2.86v-13.55h3.91-.01ZM191.99,143.01c.61.02,2.29.08,2.96-.3.13-.07.38-.23.5-.5.15-.35.16-.85.16-1.15,0-.63-.2-1.04-.49-1.29-.08-.08-.27-.24-.4-.29-.4-.19-.8-.2-1.62-.2h-1.12l.02,3.72h-.01Z"/>
    <polygon class="st5" points="207.46 150.49 204.34 150.49 199.41 136.94 202.58 136.94 206.09 147.64 206.55 146.15 209.59 136.94 212.5 136.94 207.46 150.49"/>
    <path class="st0" d="M118.99,101.96h6.24v27.72h-6.24v-11.76h-10.48v11.76h-6.24v-27.72h6.24v10.6h10.48s0-10.6,0-10.6ZM128.63,119.31c0-1.86.29-3.5.86-4.9s1.33-2.56,2.26-3.5c.93-.93,2.01-1.64,3.22-2.12s2.46-.72,3.74-.72c2.99,0,5.35.91,7.08,2.74,1.73,1.83,2.6,4.51,2.6,8.06,0,.35,0,.73-.04,1.14-.02.41-.05.78-.08,1.1h-13.52c.14,1.23.71,2.2,1.72,2.92s2.37,1.08,4.08,1.08c1.09,0,2.17-.1,3.22-.3,1.05-.2,1.91-.45,2.58-.74l.8,4.84c-.32.16-.75.32-1.28.48-.53.16-1.13.3-1.78.42s-1.35.22-2.1.3-1.49.12-2.24.12c-1.9,0-3.54-.28-4.94-.84-1.4-.56-2.56-1.33-3.48-2.3s-1.6-2.13-2.04-3.46c-.44-1.33-.66-2.77-.66-4.32M142.63,117.04h0c-.03-.51-.11-1-.26-1.48s-.37-.91-.68-1.28c-.31-.37-.69-.68-1.16-.92s-1.05-.36-1.74-.36-1.24.11-1.72.34c-.48.23-.88.53-1.2.9-.32.37-.57.81-.74,1.3-.17.49-.3.99-.38,1.5h7.88ZM160.59,130.07c-1.73-.03-3.14-.21-4.22-.56-1.08-.35-1.93-.83-2.56-1.46-.63-.63-1.05-1.38-1.28-2.28-.23-.89-.34-1.9-.34-3.02v-23.16l5.96-.96v22.92c0,.53.04,1.01.12,1.44s.23.79.46,1.08c.23.29.55.53.98.72s1,.31,1.72.36l-.84,4.92h0ZM164.83,129.67h5.96v-21.04h-5.96v21.04ZM193.54,128.95c-1.01.29-2.32.57-3.92.82-1.6.25-3.28.38-5.04.38s-3.27-.24-4.46-.72-2.13-1.15-2.82-2.02c-.7-.86-1.19-1.9-1.48-3.1s-.44-2.52-.44-3.96v-11.72h5.96v11c0,1.92.25,3.31.76,4.16s1.45,1.28,2.84,1.28c.43,0,.88-.02,1.36-.06s.91-.09,1.28-.14v-16.24h5.96v20.32h0ZM203.58,125.39c1.09,0,1.87-.11,2.32-.32s.68-.63.68-1.24c0-.48-.29-.9-.88-1.26-.59-.36-1.48-.77-2.68-1.22-.93-.35-1.78-.71-2.54-1.08s-1.41-.82-1.94-1.34-.95-1.14-1.24-1.86c-.29-.72-.44-1.59-.44-2.6,0-1.97.73-3.53,2.2-4.68s3.48-1.72,6.04-1.72c1.28,0,2.51.11,3.68.34,1.17.23,2.11.47,2.8.74l-1.04,4.64c-.69-.24-1.45-.45-2.26-.64s-1.73-.28-2.74-.28c-1.87,0-2.8.52-2.8,1.56,0,.24.04.45.12.64s.24.37.48.54c.24.17.57.36.98.56.41.2.94.42,1.58.67,1.31.48,2.39.96,3.24,1.43s1.53.98,2.02,1.52c.49.55.84,1.15,1.04,1.82.2.66.3,1.44.3,2.31,0,2.08-.78,3.65-2.34,4.71-1.56,1.06-3.77,1.6-6.62,1.6-1.87,0-3.42-.16-4.66-.48-1.24-.32-2.1-.59-2.58-.8l1-4.84c1.01.4,2.05.71,3.12.94,1.07.23,2.12.34,3.16.34"/>
    <path class="st2" d="M167.79,106.08c.96,0,1.79-.31,2.5-.94.71-.63,1.06-1.49,1.06-2.58s-.35-1.95-1.06-2.58c-.71-.63-1.54-.94-2.5-.94s-1.79.31-2.5.94c-.71.63-1.06,1.49-1.06,2.58s.35,1.95,1.06,2.58c.71.63,1.54.94,2.5.94"/>
  </g>
</svg>