<?xml version="1.0" encoding="UTF-8"?>
<svg id="Camada_1" xmlns="http://www.w3.org/2000/svg" version="1.1" viewBox="0 0 250 250">
  <!-- Generator: Adobe Illustrator 29.5.1, SVG Export Plug-In . SVG Version: 2.1.0 Build 141)  -->
  <defs>
    <style>
      .st0 {
        fill: #0a6fb6;
      }

      .st1 {
        fill: #fff;
      }

      .st2 {
        fill: #dc2227;
      }
    </style>
  </defs>
  <rect class="st1" width="250" height="250"/>
  <g id="logotipo-linha">
    <g id="Grupo_409">
      <path id="Caminho_573" class="st0" d="M43.34,112.67v9.89h9.64v-9.89h5.84v25.65h-5.84v-10.69h-9.64v10.69h-5.84v-25.65s5.84,0,5.84,0Z"/>
      <path id="Caminho_574" class="st0" d="M69.6,138.73c-5.49,0-9.72-3.58-9.72-9.59s4-9.86,10.06-9.86c5.72,0,9.57,3.92,9.57,9.55,0,6.77-4.88,9.89-9.87,9.89h-.04,0ZM69.75,134.59c2.3,0,3.73-2.25,3.73-5.59,0-2.74-1.08-5.56-3.73-5.56s-3.84,2.82-3.84,5.59c0,3.16,1.34,5.56,3.8,5.56,0,0,.04,0,.04,0Z"/>
      <path id="Caminho_575" class="st0" d="M80.55,125.64c0-2.32-.08-4.26-.15-5.93h5.07l.27,2.59h.12c1.29-1.93,3.48-3.07,5.8-3,3.84,0,6.72,2.55,6.72,8.03v10.99h-5.84v-10.31c0-2.4-.84-4.03-2.96-4.03-1.36.01-2.56.88-3,2.17-.15.47-.21.96-.19,1.45v10.73h-5.84v-12.69Z"/>
      <path id="Caminho_576" class="st0" d="M109.03,138.73c-5.49,0-9.72-3.58-9.72-9.59s4-9.86,10.06-9.86c5.72,0,9.57,3.92,9.57,9.55,0,6.77-4.88,9.89-9.87,9.89h-.04,0ZM109.18,134.59c2.3,0,3.73-2.25,3.73-5.59,0-2.74-1.08-5.56-3.73-5.56s-3.84,2.82-3.84,5.59c0,3.16,1.34,5.56,3.8,5.56,0,0,.04,0,.04,0Z"/>
      <path id="Caminho_577" class="st0" d="M119.79,125.83c0-2.74-.04-4.53-.15-6.13h4.99l.23,3.46h.15c.68-2.25,2.72-3.81,5.07-3.88.41,0,.82.03,1.23.11v5.44c-.52-.1-1.05-.15-1.58-.15-2.15,0-3.61,1.1-4,2.93-.08.43-.12.86-.12,1.29v9.4h-5.84v-12.49l.02.02Z"/>
    </g>
    <g id="Grupo_410">
      <path id="Caminho_578" class="st2" d="M138.24,132.34c2.02,1.02,4.24,1.56,6.49,1.6,2.69,0,4.11-1.1,4.11-2.78s-1.23-2.51-4.34-3.58c-4.3-1.52-7.15-3.88-7.15-7.61,0-4.38,3.73-7.69,9.8-7.69,2.27-.07,4.53.38,6.61,1.29l-1.31,4.64c-1.68-.81-3.52-1.23-5.38-1.22-2.53,0-3.76,1.18-3.76,2.47,0,1.64,1.42,2.36,4.8,3.62,4.57,1.67,6.68,4.03,6.68,7.65,0,4.3-3.3,7.95-10.41,7.95-2.53.02-5.04-.53-7.34-1.6l1.19-4.75h0Z"/>
      <path id="Caminho_579" class="st2" d="M164.77,138.73c-5.49,0-9.72-3.58-9.72-9.59s4-9.86,10.06-9.86c5.72,0,9.57,3.92,9.57,9.55,0,6.77-4.88,9.89-9.87,9.89h-.04ZM164.92,134.59c2.31,0,3.73-2.25,3.73-5.59,0-2.74-1.08-5.56-3.73-5.56s-3.84,2.82-3.84,5.59c0,3.16,1.34,5.56,3.8,5.56h.04Z"/>
      <path id="Caminho_580" class="st2" d="M175.53,111.26h5.84v27.06h-5.84v-27.06Z"/>
      <path id="Caminho_581" class="st2" d="M199.15,133.83c-.04,1.5.06,3.01.31,4.49h-5.26l-.34-1.86h-.12c-1.36,1.53-3.33,2.37-5.38,2.28-3.8,0-6.07-2.74-6.07-5.71,0-4.83,4.38-7.12,11.02-7.12v-.23c0-.99-.54-2.4-3.42-2.4-1.81.02-3.59.5-5.18,1.37l-1.08-3.69c2.26-1.14,4.77-1.72,7.3-1.67,6.26,0,8.22,3.65,8.22,8.03v6.51h0ZM193.5,129.53c-3.07,0-5.45.72-5.45,2.93-.07,1.15.8,2.14,1.95,2.21h.35c1.36,0,2.57-.85,3.04-2.13.08-.32.12-.66.11-.99v-2.02h0Z"/>
      <path id="Caminho_582" class="st2" d="M200.98,125.83c0-2.74-.04-4.53-.15-6.13h4.99l.23,3.46h.15c.68-2.25,2.72-3.81,5.07-3.88.41,0,.82.03,1.23.11v5.44c-.52-.1-1.05-.15-1.58-.15-2.15,0-3.61,1.1-4,2.93-.08.43-.12.86-.11,1.29v9.4h-5.84v-12.49.02Z"/>
    </g>
  </g>
</svg>