<?xml version="1.0" encoding="UTF-8"?>
<svg id="Camada_1" xmlns="http://www.w3.org/2000/svg" version="1.1" viewBox="0 0 250 250">
  <!-- Generator: Adobe Illustrator 29.5.1, SVG Export Plug-In . SVG Version: 2.1.0 Build 141)  -->
  <defs>
    <style>
      .st0 {
        fill: #fff;
      }

      .st1 {
        fill: #ff6200;
      }
    </style>
  </defs>
  <rect class="st1" x="0" width="250" height="250"/>
  <g>
    <path class="st0" d="M113.58,37.61c-5.04.12-8.73.3-15.51.71-3.13.19-6.55.46-8.96.7-.6.07-1.87.19-2.8.28-3.93.39-9.76,1.12-12.21,1.54-.52.09-1.28.21-1.7.28-.42.06-1.17.19-1.65.28-.48.09-1.3.24-1.81.33-1.82.31-4.91.94-6.65,1.35-.48.12-1.35.33-1.93.46-.57.13-1.09.25-1.15.26-3.22.77-6.42,2.32-8.89,4.33-2.4,1.95-4.54,5.09-5.62,8.22-.18.48-.35.98-.41,1.1-.19.42-1,3.94-1.58,6.82-.09.48-.24,1.2-.33,1.59-.09.4-.21,1.09-.29,1.54-.07.45-.15,1-.21,1.21-.17.63-.84,4.92-1.27,8.03-.42,3.01-.69,5.2-.93,7.42-.12,1.09-.24,2.16-.26,2.37-.03.21-.13,1.28-.23,2.37-.09,1.09-.22,2.42-.29,2.97-.23,2.02-.8,10.83-1.09,17.05-.22,4.61-.36,14.48-.29,19.85.08,6.71.24,12.7.4,14.79.06.85.17,2.63.23,3.96.07,1.33.15,3.04.21,3.79.25,3.81.45,6.3.55,7.09.06.48.19,1.77.28,2.85.09,1.08.22,2.37.28,2.86.07.5.19,1.56.27,2.38.28,2.61.48,4.31.66,5.45.09.6.24,1.64.33,2.31.32,2.42.69,4.77,1.1,6.93.09.48.23,1.3.33,1.81.19,1.1.62,3.29.92,4.67,1.06,4.85,1.52,6.3,2.76,8.69.34.66.78,1.43.98,1.7.19.28.46.67.6.88.63.93,2.42,2.76,3.41,3.47.16.12.48.35.69.52.22.18.43.31.48.31.04,0,.15.08.24.17.43.42,3.45,1.86,4.75,2.24.24.08.54.18.66.23.29.13,1.9.54,3.85.98.85.2,1.72.41,1.92.46.51.13,3.7.77,6.1,1.21,1.39.25,4.08.68,5.77.92.64.09,1.45.21,1.81.27,1.33.23,6.83.87,10.28,1.2,1.24.12,2.77.26,3.41.33,1.03.11,2.09.2,7.15.56.76.06,2.49.15,3.85.22,1.36.07,3.27.16,4.23.22,7.83.45,30.22.45,37.94,0,.97-.07,2.87-.15,4.23-.22,2.34-.11,3.2-.17,6.87-.44,4.71-.36,11.63-1.03,13.97-1.36.67-.1,1.83-.25,2.58-.35,2.8-.36,6.65-.95,8.85-1.35,2.41-.44,5.6-1.08,6.1-1.21.21-.06,1.08-.26,1.92-.46,1.9-.43,3.55-.85,3.85-.98.37-.13.73-.26,1.1-.39.9-.3,3.89-1.72,4.15-1.96.08-.08.3-.24.48-.35.86-.54,1.25-.85,2.04-1.55.88-.8,2.1-2.12,2.4-2.57.1-.15.36-.53.58-.82.23-.31.42-.58.42-.63s.18-.35.39-.68c.21-.33.46-.81.56-1.08.11-.25.22-.53.26-.58.21-.28.98-2.46,1.31-3.71.52-1.92,1.48-6.47,1.84-8.61.09-.55.19-1.07.22-1.15.1-.24.7-4.02,1.25-7.86.12-.85.24-1.69.28-1.87.09-.51.48-3.88.66-5.66.09-.88.21-1.89.27-2.26.07-.36.19-1.55.28-2.64.09-1.09.21-2.43.26-2.97.07-.55.17-1.8.23-2.8.07-1,.17-2.23.22-2.75.07-.52.19-2.42.28-4.23.1-1.82.21-4.05.28-4.95.49-8,.49-28.98,0-37.23-.06-.94-.15-2.77-.22-4.07-.07-1.3-.17-3.01-.22-3.8-.07-.79-.21-2.74-.33-4.34-.12-1.61-.24-3.11-.28-3.35-.03-.24-.13-1.31-.22-2.37-.09-1.06-.19-2.05-.22-2.2-.03-.15-.15-1.17-.28-2.26-.28-2.63-.64-5.53-.71-5.87-.03-.15-.15-1.03-.28-1.94-.54-4.11-1.54-9.84-2.4-13.75-.12-.55-.32-1.44-.44-1.98-.31-1.41-.67-2.83-.79-3.08-.06-.12-.15-.42-.23-.66-.24-.81-1.46-3.53-1.77-3.96-.04-.07-.4-.58-.77-1.15-.78-1.18-2.78-3.27-3.98-4.15-2.37-1.75-5.02-2.94-8.42-3.77-.59-.14-1.17-.29-1.76-.44-.41-.12-1.22-.3-2.97-.66-.5-.1-.99-.21-1.48-.32-2.12-.52-9.03-1.64-13.53-2.21-.9-.11-1.79-.23-1.98-.27-.33-.07-1.93-.23-5.17-.55-.9-.09-2.15-.22-2.75-.28-.6-.07-1.69-.16-2.42-.23-.73-.05-1.91-.15-2.64-.21-2.46-.21-9.3-.6-13.09-.77-7.31-.32-20.82-.42-29.2-.21ZM65.13,111.93c.07.05.39.15.7.23.59.14,1.43.53,2.06.95.5.33,1.66,1.58,1.89,2.02.11.22.23.42.26.45.03.03.13.25.22.49.08.24.18.5.23.55.14.21.31,1.52.31,2.49s-.14,2.06-.33,2.46c-.59,1.36-.88,1.81-1.63,2.61-.69.71-.98.93-1.92,1.4-.77.39-1.32.58-1.76.63-.35.04-.66.12-.69.17-.08.13-2.46.13-2.46,0,0-.04-.28-.12-.63-.17-.34-.04-.77-.14-.96-.22-.24-.11-.48-.21-.73-.3-.21-.08-.41-.17-.44-.2-.03-.04-.2-.14-.39-.23-.64-.32-1.96-1.78-2.34-2.58-.21-.43-.41-.85-.46-.93-.37-.75-.44-4.16-.09-4.95.1-.21.24-.56.32-.77.08-.21.17-.41.2-.44.03-.03.16-.25.29-.5.21-.41,1.52-1.82,1.7-1.82.04,0,.14-.08.22-.18.21-.23,1.27-.75,1.92-.91.31-.08.65-.19.77-.24.12-.05.42-.11.66-.14.65-.07,2.93.03,3.07.13ZM184.96,119.6v5.55h-21.34v-7.43l1.19-.19c2.63-.41,4.27-.68,4.37-.75.07-.04.6-.13,1.21-.21.6-.08,1.16-.18,1.21-.22.07-.04.58-.14,1.16-.22.57-.07,1.32-.2,1.65-.29.33-.08,1.02-.2,1.54-.26.52-.07,1.03-.17,1.16-.21.12-.05.67-.15,1.21-.23.55-.07,1.17-.16,1.37-.23.21-.05,1-.21,1.76-.33.76-.12,1.75-.28,2.2-.36.45-.09.93-.15,1.08-.17h.24s0,5.54,0,5.54ZM93.9,124.51v6.59h11v9.79h-11.01l.04,10.2c.03,10.99.01,10.45.61,11.8.45,1.05,1.73,2.11,2.83,2.38.19.04.4.13.48.2.21.16,4.66.16,4.86-.01.09-.07.48-.15.9-.2l.74-.08v9.65l-.3.13c-.27.12-1.54.32-3.28.53-2.47.29-6.98.32-7.25.04-.07-.05-.24-.1-.41-.1-.43,0-2.21-.33-2.34-.43-.07-.04-.36-.15-.67-.22-.3-.08-.59-.18-.66-.22-.05-.06-.31-.15-.55-.23-.24-.08-.46-.18-.5-.21-.03-.03-.23-.15-.44-.28-.91-.48-1.19-.66-1.67-1.07-.29-.23-.55-.43-.6-.43-.11-.01-.95-.92-1.6-1.76-.51-.65-1.25-1.89-1.51-2.53-.09-.21-.19-.41-.22-.44-.04-.03-.15-.37-.26-.77-.1-.4-.23-.81-.29-.93-.05-.12-.19-.62-.27-1.1-.09-.46-.19-.92-.3-1.38-.08-.33-.13-4.2-.16-11.53l-.04-11.02h-6.37v-9.79h6.38v-11.09l.75-.08c.41-.04.79-.12.85-.16.07-.04.61-.14,1.21-.22.6-.08,1.16-.19,1.21-.23.07-.04.76-.17,1.54-.26.79-.11,1.48-.23,1.54-.28.07-.04.43-.12.82-.15.52-.06,1.03-.15,1.54-.25,1.18-.24,3.23-.56,3.33-.51.04.02.08,3.01.08,6.64ZM130.36,130.05c1.54.09,3.28.29,3.41.39.07.04.33.12.6.15.63.1,2.16.55,3.08.92.77.31,2.49,1.17,2.75,1.39.09.07.29.2.44.26.15.08.64.46,1.07.84.43.39.83.71.88.74.17.08,2.12,2.45,2.12,2.58,0,.03.1.21.22.37.23.33,1.21,2.23,1.21,2.35,0,.04.09.29.21.54.11.25.24.64.29.85.04.21.12.43.16.5.04.06.14.41.22.77.07.36.15.74.19.82.04.09.14.56.23,1.05.13.73.16,3.46.21,15.59l.04,14.72h-12v-1.3c-.02-.7-.06-1.73-.1-2.27l-.07-.99-.32.44c-.51.67-2.17,2.25-2.83,2.69-1.44.95-1.83,1.18-2.22,1.31-.24.07-.56.2-.71.28-.17.08-.57.21-.9.28-.33.08-.66.18-.71.22-.56.42-7.49.41-8.03,0-.05-.04-.45-.14-.88-.22-.42-.08-.91-.2-1.1-.29-.18-.08-.65-.28-1.03-.43-.44-.19-.88-.41-1.3-.64-.29-.18-.59-.35-.89-.52-.46-.25-.62-.4-1.87-1.65-1.29-1.29-1.45-1.46-1.45-1.58,0-.04-.14-.29-.31-.54-.18-.25-.43-.71-.56-1.01-.13-.31-.31-.67-.39-.82-.09-.15-.21-.55-.29-.88-.08-.33-.18-.66-.22-.71-.12-.15-.33-1.72-.33-2.4,0-.32-.05-.64-.12-.7-.13-.13-.1-.57.24-3.22.07-.52.17-.99.21-1.04.04-.07.14-.35.21-.65.14-.57.44-1.32.75-1.88.1-.19.23-.44.3-.57.07-.14.15-.25.21-.25.04,0,.08-.07.08-.14,0-.12,1.21-1.69,1.42-1.84.04-.03.12-.14.15-.25.04-.12.18-.23.3-.26.12-.03.22-.1.22-.14,0-.11,1.85-1.56,2.47-1.92.45-.27,1.46-.79,2.94-1.5.21-.11,2.26-.77,3.17-1.02.33-.1.98-.23,1.43-.3.45-.08.88-.17.94-.21.07-.04.72-.14,1.48-.21.76-.07,1.69-.18,2.09-.23,1.56-.23,7.05-.19,7.63.06.2.09.21.04.13-.89-.04-.54-.12-1-.16-1.03-.06-.03-.12-.24-.17-.46-.08-.41-.5-1.3-.89-1.9-.25-.38-1.32-1.49-1.44-1.49-.04,0-.23-.11-.42-.25-.48-.35-1.26-.7-1.74-.79-.23-.04-.42-.12-.42-.17,0-.48-7.1-.56-9.24-.09-.28.05-.91.18-1.43.26-.52.09-1.03.21-1.16.26-.12.05-.52.15-.88.22-.36.07-.76.17-.88.22-.12.06-.56.18-.98.28-.42.1-.81.21-.88.26-.07.04-.36.15-.67.23-.3.08-.6.19-.66.23-.07.04-.36.14-.66.22-.31.07-.74.22-.96.33-.23.12-.44.21-.47.21s-.06-2.3-.06-5.1c0-3.97.03-5.13.14-5.21.08-.07.39-.18.68-.25.31-.07.6-.17.66-.21.07-.04.43-.18.83-.28.4-.11.77-.23.82-.27.07-.06.41-.14.76-.22.36-.08.74-.18.82-.23.1-.04.55-.17,1-.26.35-.07.7-.15,1.05-.23.12-.03.74-.13,1.37-.22.64-.09,1.31-.21,1.48-.26.64-.2,6.4-.56,7.7-.48.36.02,1.16.07,1.76.1h0ZM69.7,152.99v21.89h-12.87v-43.78h12.87v21.89ZM166.93,144.73c0,13.02.06,15.54.32,15.9.05.05.12.27.17.48.15.82.87,2.02,1.68,2.84.43.44.91.83,1.07.87.17.03.29.1.29.14s.39.2.86.35c.7.22,1.08.26,2.18.26.77,0,1.44-.05,1.59-.12.14-.08.48-.19.76-.26s.77-.31,1.1-.53c.62-.39,1.76-1.45,1.76-1.63,0-.05.15-.3.33-.53.19-.24.33-.48.33-.55s.1-.3.21-.52c.12-.22.25-.59.3-.82.03-.24.11-.48.17-.54.28-.35.32-2.57.32-15.48v-13.51h12.87v43.78h-6.09c-4.76,0-6.13-.03-6.19-.14-.04-.07-.1-1.11-.12-2.31-.02-1.19-.08-2.17-.12-2.17s-.18.13-.31.3c-.62.84-1.58,1.78-3.1,3.04-.22.18-.67.42-1.66.9-.45.22-.95.47-1.1.55-.15.08-.57.2-.94.28-.36.08-.68.18-.71.22-.11.16-2.06.33-3.98.33s-3.43-.13-3.88-.32c-.12-.05-.54-.19-.94-.29-.4-.1-.76-.23-.82-.28-.05-.04-.32-.15-.57-.23-.26-.07-.47-.16-.47-.21s-.2-.14-.44-.22c-.24-.08-.44-.18-.44-.22s-.12-.13-.26-.2c-.95-.43-3.09-2.44-3.99-3.74-.55-.79-1.4-2.38-1.57-2.96-.07-.23-.2-.57-.28-.75-.08-.19-.21-.58-.28-.88-.07-.31-.16-.63-.22-.74-.05-.1-.15-.62-.22-1.16-.07-.53-.19-1.07-.25-1.19-.1-.16-.14-4.09-.17-15.82l-.03-15.59h12.88v13.64Z"/>
    <path class="st0" d="M129.14,154.27c-.56.05-1.13.14-1.25.19-.13.06-.53.16-.91.23-.36.06-.85.19-1.08.28-1.71.69-2.54,1.14-3.11,1.69-.55.53-1.09,1.51-1.18,2.12-.02.21-.1.48-.17.6-.13.24-.08.99.13,1.97.23,1.06,1.14,2.36,1.95,2.75,1.44.68,1.71.79,2.51.91,1.43.2,4.17.08,4.76-.21.1-.05.52-.23.93-.4.41-.18.95-.46,1.2-.64.25-.18.53-.39.64-.46.65-.45,1.85-2.29,2.01-3.05.03-.19.13-.41.19-.5.08-.09.14-1.06.16-2.8l.05-2.66-.62-.06c-.83-.1-4.93-.06-6.19.04Z"/>
  </g>
</svg>