<?xml version="1.0" encoding="UTF-8"?>
<svg id="Camada_1" xmlns="http://www.w3.org/2000/svg" version="1.1" xmlns:xlink="http://www.w3.org/1999/xlink" viewBox="0 0 250 250">
  <!-- Generator: Adobe Illustrator 29.5.1, SVG Export Plug-In . SVG Version: 2.1.0 Build 141)  -->
  <defs>
    <style>
      .st0 {
        fill: #fff;
      }

      .st1 {
        fill: none;
      }

      .st2 {
        fill: #f6ab00;
      }

      .st3 {
        fill: #0075c2;
      }

      .st4 {
        clip-path: url(#clippath);
      }
    </style>
    <clipPath id="clippath">
      <rect class="st1" x="37.5" y="95.83" width="175" height="58.33"/>
    </clipPath>
  </defs>
  <rect class="st0" width="250" height="250"/>
  <g>
    <path class="st3" d="M38.01,149.86l3.58-6.36,7.64,4.31-3.58,6.36-7.65-4.31h.01Z"/>
    <path class="st3" d="M37.96,131.73l5.27-5.02,6.05,6.36-5.27,5.02-6.05-6.36Z"/>
    <path class="st3" d="M44.9,139.03l5.28-5.02,6.04,6.36-5.27,5.02-6.05-6.36Z"/>
    <path class="st3" d="M51.84,146.33l5.27-5.03,6.05,6.36-5.27,5.03-6.05-6.36Z"/>
    <path class="st3" d="M37.5,118.26l5.28-5.03,6.05,6.36-5.27,5.03s-6.06-6.36-6.06-6.36Z"/>
    <path class="st3" d="M51.38,132.86l5.28-5.03,6.05,6.36-5.27,5.03s-6.06-6.36-6.06-6.36Z"/>
    <path class="st3" d="M58.32,140.16l5.28-5.03,6.05,6.36-5.27,5.03s-6.06-6.36-6.06-6.36Z"/>
    <path class="st3" d="M65.26,147.45l5.28-5.02,6.05,6.36-5.27,5.03-6.05-6.37h-.01Z"/>
    <path class="st3" d="M43.98,112.09l5.28-5.02,6.05,6.36-5.27,5.03-6.05-6.36h0Z"/>
    <path class="st3" d="M50.92,119.38l5.28-5.02,6.05,6.36-5.27,5.03-6.05-6.36h0Z"/>
    <path class="st3" d="M57.86,126.68l5.28-5.02,6.05,6.36-5.27,5.03-6.05-6.36h-.01Z"/>
    <path class="st3" d="M64.8,133.98l5.28-5.02,6.04,6.36-5.27,5.02-6.05-6.36Z"/>
    <path class="st3" d="M71.73,141.28l5.28-5.02,6.05,6.36-5.27,5.03-6.05-6.36h-.01Z"/>
    <path class="st3" d="M50.46,105.91l5.28-5.02,6.05,6.36-5.27,5.03-6.05-6.36h0Z"/>
    <path class="st3" d="M57.4,113.21l5.27-5.03,6.05,6.36-5.27,5.03-6.06-6.36h.01Z"/>
    <path class="st3" d="M64.33,120.51l5.28-5.03,6.05,6.36-5.28,5.03-6.05-6.36Z"/>
    <path class="st3" d="M71.27,127.81l5.28-5.02,6.04,6.36-5.27,5.02-6.05-6.36Z"/>
    <path class="st3" d="M78.21,135.1l5.28-5.02,6.05,6.36-5.27,5.03-6.05-6.37h-.01Z"/>
    <path class="st3" d="M63.87,107.03l5.28-5.03,6.05,6.36-5.27,5.03s-6.06-6.36-6.06-6.36Z"/>
    <path class="st3" d="M77.75,121.63l5.28-5.02,6.05,6.36-5.27,5.03-6.05-6.36h-.01Z"/>
    <path class="st3" d="M70.35,100.85l5.28-5.02,6.05,6.36-5.28,5.03-6.05-6.37Z"/>
    <path class="st3" d="M84.23,115.45l5.28-5.02,6.05,6.36-5.27,5.03-6.05-6.37h-.01Z"/>
    <g class="st4">
      <g>
        <path class="st2" d="M53.39,126.14c0-1.93-1.57-3.5-3.51-3.49-1.93,0-3.5,1.57-3.49,3.51,0,1.93,1.57,3.5,3.51,3.49,1.34,0,2.56-.77,3.14-1.97.23-.48.35-1,.35-1.53"/>
        <path class="st2" d="M143.74,147.53c-.93-.49-1.96-.75-3.01-.75-.53-.03-1.06.06-1.56.24-.36.16-.54.38-.54.66s.19.51.58.64c.44.12.89.19,1.35.2.92.06,1.52.11,1.81.15.66.05,1.29.26,1.85.61.4.3.62.78.6,1.28.02.68-.34,1.3-.93,1.63-.83.43-1.75.63-2.68.58-1.41.09-2.8-.31-3.95-1.12l.61-.8c1.01.63,2.17.96,3.36.95.62.03,1.24-.08,1.81-.32.36-.14.6-.47.61-.86,0-.42-.27-.7-.81-.84-.75-.13-1.51-.2-2.27-.23-.79,0-1.57-.16-2.3-.44-.5-.23-.8-.75-.77-1.3,0-.62.33-1.19.88-1.48.76-.4,1.61-.59,2.47-.54,1.27-.04,2.52.3,3.59.98l-.68.75h-.02Z"/>
        <path class="st2" d="M154.34,149.28c.02,1.05-.48,2.04-1.34,2.64-1.77,1.18-4.08,1.18-5.85,0-1.45-1.05-1.77-3.08-.73-4.53.21-.28.46-.53.74-.74.85-.62,1.87-.93,2.92-.9,1.04-.04,2.07.28,2.91.9.85.6,1.36,1.58,1.35,2.63M153.2,149.28c0-.76-.36-1.47-.99-1.89-1.34-.86-3.07-.83-4.37.09-1.01.81-1.16,2.29-.35,3.29.1.12.21.23.33.33,1.37.93,3.16.93,4.53,0,.55-.44.87-1.11.85-1.82"/>
        <path class="st2" d="M161.89,152.62h-6.23v-6.65h1.1v5.66h5.13v.99h0Z"/>
        <path class="st2" d="M171.54,152.62h-1.2l-.76-1.49h-4.47l-.77,1.49h-1.2l3.51-6.65h1.38l3.51,6.65ZM169.04,150.14l-1.69-3.22-1.71,3.22h3.4Z"/>
        <path class="st2" d="M179.95,152.62h-1.28l-1.79-2.54h-3.35v2.54h-1.1v-6.65h5.24c.6-.03,1.19.17,1.64.56.41.4.62.96.6,1.53.02.5-.15.99-.49,1.36-.33.34-.77.55-1.24.61l1.77,2.59ZM177.49,149.09c.85,0,1.28-.34,1.28-1.03,0-.73-.46-1.1-1.38-1.1h-3.87v2.13h3.97Z"/>
        <path class="st3" d="M108.69,125.21v11.81h5.3v1.96h-9.3v-13.77s4,0,4,0Z"/>
        <path class="st3" d="M127.38,127.17h-7.23v3.31h7.01v1.95h-7.01v4.6h7.23v1.96h-11.23v-13.77h11.23s0,1.95,0,1.95Z"/>
        <path class="st3" d="M153.88,133.39v5.59h-4v-13.77h4.36c1.14-.03,2.29.05,3.42.24.78.16,4.2.49,4.2,3.83,0,1.4-.58,4.2-5.83,4.1h-2.15ZM153.88,131.46h1.02c2.5,0,3.75-.73,3.75-2.2s-1.29-2.13-3.86-2.13h-.9v4.33h-.01Z"/>
        <path class="st3" d="M171.53,127.17v11.81h-4v-11.81h-3.5v-1.95h10.99v1.95h-3.49Z"/>
        <path class="st3" d="M185.83,124.99c-4.78,0-8.65,3.13-8.65,6.98s3.87,6.98,8.65,6.98,8.65-3.13,8.65-6.98-3.87-6.98-8.65-6.98M185.83,136.31c-2.97,0-5.38-1.94-5.38-4.34s2.41-4.34,5.38-4.34,5.38,1.94,5.38,4.34-2.41,4.35-5.38,4.35"/>
        <path class="st3" d="M212.5,125.12h-4.03v8.32l-11.84-8.34v13.79h3.84v-8.12l12.02,8.3v-13.95h0Z"/>
        <path class="st3" d="M138.81,125.19l-9.27,13.77h3.59l5.49-8.29,5.22,8.3,3.87-.02-8.91-13.75h.01Z"/>
        <rect class="st3" x="134.43" y="134.39" width="8.68" height="2.02"/>
      </g>
    </g>
  </g>
</svg>