<?xml version="1.0" encoding="UTF-8"?>
<svg id="Camada_1" xmlns="http://www.w3.org/2000/svg" version="1.1" viewBox="0 0 250 250">
  <!-- Generator: Adobe Illustrator 29.5.1, SVG Export Plug-In . SVG Version: 2.1.0 Build 141)  -->
  <defs>
    <style>
      .st0 {
        fill: #fff;
      }

      .st1 {
        fill: #606060;
      }

      .st2 {
        fill: #fccf00;
      }
    </style>
  </defs>
  <rect class="st0" width="250" height="250"/>
  <g>
    <path class="st1" d="M74.39,101.98l-3.06,6.98c-.23.53-.03,1.15.48,1.43,5.07,2.79,8.51,8.29,8.51,14.61,0,8.11-5.66,14.86-13.15,16.29-.19.04-.36.12-.51.24l-10.32,8.54c2.49.75,5.13,1.16,7.87,1.16,14.75,0,26.71-11.74,26.71-26.22,0-10.37-6.13-19.33-15.02-23.58-.57-.27-1.25-.02-1.51.56"/>
    <path class="st2" d="M57.23,141.12c.23-.53.02-1.16-.49-1.43-5.14-2.77-8.64-8.31-8.64-14.69,0-8.1,5.66-14.85,13.13-16.29.18-.04.36-.11.5-.23l10.46-8.51c-2.52-.77-5.19-1.19-7.97-1.19-14.75,0-26.71,11.74-26.71,26.22,0,10.43,6.2,19.43,15.17,23.66.57.27,1.25,0,1.5-.57l3.05-6.97h0Z"/>
    <path class="st1" d="M108.8,124.38c-4.06-1.88.49-9.92,12.72-2.31.8.5,1.86.24,2.34-.58l2.56-4.43c.44-.77.21-1.75-.53-2.24-12.61-8.31-28.6-2.98-28.6,7.96,0,12.25,19.86,10.81,19.86,16.52,0,4.16-8.58,3.83-16.56-1.34-.8-.52-1.88-.26-2.36.57-.84,1.45-2.06,3.58-2.84,4.93-.43.75-.22,1.7.48,2.2,13.99,10.01,31.28,5.66,31.28-6.37,0-8.97-9.96-11.04-18.34-14.91"/>
    <path class="st1" d="M181.4,114.58l1.1,4.97c.21.94,1.17,1.51,2.09,1.25,9.07-2.58,17.76-3.16,17.76,3.39-1.18,0-24.95-2.83-24.95,14.24,0,10.54,13.82,17.12,24.95,9.53v1.12c0,.93.75,1.68,1.68,1.68h6.79c.93,0,1.68-.75,1.68-1.68v-24.77c0-14.06-16.47-15.63-29.94-11.69-.85.25-1.35,1.11-1.16,1.97M193.23,142.41c-3.18,0-5.84-1.03-5.84-4.37,0-6.45,14.97-5.37,14.97-5.37v4.03c0,2.43-5.64,5.71-9.13,5.71h0Z"/>
    <path class="st1" d="M162.15,98.78v15.61c-3.11-2.32-6.91-3.67-11-3.67-10.57,0-19.14,9.07-19.14,20.25s8.57,20.25,19.14,20.25c4.09,0,7.89-1.36,11-3.67v1.51c0,.93.75,1.68,1.68,1.68h6.79c.93,0,1.67-.75,1.67-1.68v-40.14c0-5.6-4.54-10.14-10.14-10.14M151.99,142.19c-5.91,0-10.7-4.99-10.7-11.15s4.79-11.15,10.7-11.15,10.49,4.99,10.49,11.15-4.58,11.15-10.49,11.15Z"/>
  </g>
</svg>