<?xml version="1.0" encoding="UTF-8"?>
<svg id="Camada_1" xmlns="http://www.w3.org/2000/svg" version="1.1" viewBox="0 0 250 250">
  <!-- Generator: Adobe Illustrator 29.5.1, SVG Export Plug-In . SVG Version: 2.1.0 Build 141)  -->
  <defs>
    <style>
      .st0 {
        fill: #fff;
      }

      .st1 {
        fill: #2b56c0;
      }
    </style>
  </defs>
  <rect class="st0" width="250" height="250"/>
  <g>
    <path class="st1" d="M98.04,127.34c-6.09-7.46-26.17-3.56-41.82,1.44-.04.02-.09.02-.14.02-.05,0-.09-.02-.13-.05-.04-.03-.07-.06-.09-.1-.02-.04-.04-.09-.04-.13.02-.79.04-1.59.04-2.39.01-3.98-.32-7.95-1-11.86-.01-.07,0-.13.04-.19.04-.05.1-.09.16-.1,12.95-4.72,39.03-6.19,43.5,13.15h0c.07.29-.35.46-.53.22M84.93,149.04c-.43.32-.99-.2-.62-.58,6.3-6.45,11.48-16.67-34.19,4.13-.28.13-.56-.16-.37-.39,2.52-3.6,4.76-9.39,5.78-17.61,0-.05.03-.1.06-.14.03-.04.07-.07.12-.09,28.62-11.5,60.94-11.08,29.23,14.68M46.73,97.61c-.05-.03-.1-.07-.12-.13-.02-.06-.03-.12-.01-.18.02-.06.05-.11.11-.14.05-.03.11-.05.17-.04,7.92.02,31.77-.57,44.07,15.1.17.27-.22.54-.46.33-3.71-3.23-13.75-8.7-36.9-3.91-.07.02-.15.01-.22-.03-.07-.04-.12-.1-.14-.17-1.84-5.89-4.18-9.07-6.48-10.83M97.6,90.17h-52.01c-2.16.02-4.23.89-5.75,2.43-1.52,1.54-2.36,3.62-2.34,5.78v52.79c-.02,2.16.83,4.24,2.34,5.78,1.52,1.54,3.58,2.42,5.75,2.43h52.01c2.16-.02,4.23-.89,5.75-2.43,1.52-1.54,2.36-3.62,2.35-5.78v-52.79c.02-2.16-.83-4.24-2.35-5.78-1.52-1.54-3.58-2.42-5.75-2.43"/>
    <path class="st1" d="M115.91,90.3h11.9c6.18,0,9.87,3.81,9.87,9.19s-3.68,9.19-9.87,9.19h-6.27v11.26h-5.63v-29.64ZM127.56,103.98c3.3,0,4.66-2.12,4.66-4.49s-1.36-4.49-4.66-4.49h-6.01v8.98h6.01ZM148.94,98.26c6.48,0,11.14,4.66,11.14,11.01s-4.66,11.01-11.14,11.01-11.18-4.66-11.18-11.01,4.66-11.01,11.18-11.01ZM148.94,115.79c3.52,0,5.89-2.67,5.89-6.52s-2.37-6.52-5.89-6.52-5.93,2.67-5.93,6.52,2.37,6.52,5.93,6.52ZM162.45,106.22c0-4.87,2.75-7.62,7.62-7.62h4.78v4.36h-3.98c-2.08,0-3.22,1.19-3.22,3.26v13.72h-5.21v-13.72h0ZM177.48,92.16h5.21v6.44h5.93v4.36h-5.93v9.32c0,2.16,1.14,3.26,3.09,3.26h2.84v4.4h-3.43c-4.66,0-7.71-2.71-7.71-7.45v-20.33ZM201.36,98.26c6.48,0,11.14,4.66,11.14,11.01s-4.66,11.01-11.14,11.01-11.18-4.66-11.18-11.01,4.66-11.01,11.18-11.01h0ZM201.36,115.79c3.52,0,5.89-2.67,5.89-6.52s-2.37-6.52-5.89-6.52-5.93,2.67-5.93,6.52,2.37,6.52,5.93,6.52h0Z"/>
    <path d="M115.88,129.11h11.76c5.55,0,9.51,2.78,9.51,7.81-.01,1.24-.36,2.45-1.01,3.51-.65,1.05-1.57,1.91-2.68,2.48,1.57.54,2.93,1.57,3.86,2.93.94,1.37,1.41,3,1.35,4.66,0,5.64-4.21,8.98-10.59,8.98h-12.19v-30.38h0ZM127.25,141c3.04,0,4.56-1.3,4.56-3.65s-1.52-3.65-4.64-3.65h-5.64v7.29h5.73ZM127.47,154.5c3.86,0,5.68-1.48,5.68-4.3s-1.82-4.34-5.68-4.34h-5.95v8.63h5.95Z"/>
    <path d="M150.55,141.26c-2.82,0-4.51,1.78-4.6,3.73h-4.77c.26-4.34,3.95-7.72,9.64-7.72s9.46,3.21,9.46,8.16v14.06h-5.25v-3.26c-.91,2.17-3.43,3.6-6.55,3.6-4.34,0-7.29-2.78-7.29-6.55,0-4.25,3.3-6.9,8.2-6.9h5.64v-.91c0-2.69-1.65-4.21-4.47-4.21ZM149.73,155.89c3.34,0,5.29-2.34,5.29-5.64v-.26h-4.64c-2.52,0-4.04,1.17-4.04,3.08,0,1.69,1.39,2.82,3.39,2.82Z"/>
    <path d="M164.05,137.62h5.34v3.39c1.22-2.39,3.69-3.73,6.81-3.73,4.95,0,8.16,3.56,8.16,8.68v13.54h-5.34v-12.41c0-2.99-1.82-5.08-4.56-5.08-2.99,0-5.08,2.34-5.08,5.55v11.93h-5.34v-21.87h0Z"/>
    <path d="M188.78,159.49v-31.25h5.34v17.36l8.37-7.98h6.77l-8.9,8.59,9.64,13.28h-6.47l-6.81-9.76-2.6,2.52v7.25h-5.34Z"/>
  </g>
</svg>