<?xml version="1.0" encoding="UTF-8"?>
<svg id="Camada_1" xmlns="http://www.w3.org/2000/svg" version="1.1" viewBox="0 0 250 250">
  <!-- Generator: Adobe Illustrator 29.5.1, SVG Export Plug-In . SVG Version: 2.1.0 Build 141)  -->
  <defs>
    <style>
      .st0 {
        fill: #b8d335;
      }

      .st1 {
        fill: #fff;
      }

      .st2 {
        fill: #6ebb49;
      }

      .st3 {
        fill: #003641;
      }

      .st4 {
        fill: #00ae9c;
      }
    </style>
  </defs>
  <rect class="st3" width="250" height="250"/>
  <g>
    <path class="st2" d="M39.72,105.59c-.35.03-.7.12-1.02.32-.76.44-1.2,1.25-1.2,2.07,0,.35.09.73.26,1.08l11.75,20.46,3.82-6.6,6.21-10.74-3.82-6.6h-16.01Z"/>
    <path class="st2" d="M39.72,105.59c-.35.03-.7.12-1.02.32-.76.44-1.2,1.25-1.2,2.07,0,.35.09.73.26,1.08l11.75,20.46,3.82-6.6,6.21-10.74-3.82-6.6h-16.01Z"/>
    <path class="st4" d="M55.76,105.59l10,17.31h7.58l8.02-13.89c.15-.32.23-.64.23-1.02,0-1.28-.99-2.31-2.25-2.39h-23.59Z"/>
    <path class="st0" d="M72.81,122.9h-19.45l-3.82,6.6,8.05,13.89c.17.29.47.53.76.73.38.2.79.32,1.2.32.79,0,1.55-.41,2.01-1.08l11.81-20.46h-.55Z"/>
    <path class="st1" d="M149.57,111.81h-.15c-7.87.09-12.74,6.07-12.74,13.57s4.43,13.25,12.48,13.25h.29c7.84-.09,12.74-5.4,12.74-13.69-.03-6.92-4.26-13.13-12.63-13.13ZM149.51,133.14l-.09-.03c-3.35,0-5.45-3.24-5.39-7.88,0-4.52,2.04-7.91,5.39-7.91s5.39,3.39,5.39,7.88-1.95,7.94-5.31,7.94ZM207.43,124.18v-.06c3.06-1.17,4.23-3.27,4.23-5.43,0-2.54-1.46-4.41-3.5-5.37-1.72-.85-3.59-1.17-6.36-1.26-.5-.03-1.02-.03-1.6-.03-3.18,0-6.62.26-8.19.58v25.45c1.4.26,3.7.47,6.85.47,1.05,0,2.01-.03,2.95-.09,3.79-.26,6.21-1.05,7.79-2.22,1.75-1.31,2.92-3.24,2.92-5.69,0-3.12-1.92-5.49-5.07-6.36ZM198.88,117.21c.47-.09,1.14-.15,2.27-.15.2,0,.44.03.61.03,1.93.15,2.89,1.08,2.89,2.42s-.93,2.31-2.89,2.6c-.47.06-.96.12-1.52.12h-1.37v-5.02ZM201.8,133.38c-.29.03-.58.06-.87.06-.88,0-1.52,0-2.01-.09v-6.19h1.66c.44,0,.85,0,1.23.06,1.98.26,3.38,1.14,3.38,2.98,0,2.01-1.49,2.98-3.38,3.18ZM189.9,124.97c0-6.95-4.23-13.16-12.6-13.16h-.15c-7.87.09-12.74,6.07-12.74,13.57s4.43,13.25,12.48,13.25h.26c7.84-.09,12.74-5.4,12.74-13.66ZM177.24,133.14l-.09-.03c-3.35,0-5.42-3.24-5.39-7.88,0-4.52,2.04-7.91,5.39-7.91s5.4,3.39,5.4,7.88-1.95,7.94-5.31,7.94ZM134.67,132.09c-1.08.44-2.97.73-4.64.73-4.78,0-7.58-2.95-7.58-7.62,0-5.28,3.44-7.65,7.44-7.65,2.07,0,4.23.61,4.81.93,1.22-2.8.93-6.63-5.13-6.63-7.76,0-14.46,4.67-14.46,13.78,0,6.92,4.29,12.96,14,12.96,3.09,0,5.54-.58,6.5-1.08l-.93-5.43ZM104.86,112.24v25.98h6.97v-21.72c-.03-3.3-1.78-4.26-6.97-4.26ZM94.72,122.49c-3.3-1.23-4.67-1.72-4.67-3.04,0-1.17,1.17-1.93,3.3-1.93,2.6,0,5.13.96,5.63,1.23.99-2.66,1.55-6.92-5.54-6.92-6.56,0-10.44,3.56-10.44,8.14,0,3.85,2.95,6.25,7.32,7.82,2.95.99,4.08,1.69,4.08,2.98s-1.17,2.1-3.56,2.1c-2.6,0-5.13-.79-6.74-1.63l-1.31,5.75c1.46.79,4.49,1.58,7.61,1.58,7.58,0,11.05-3.82,11.05-8.29,0-3.59-2.07-6.07-6.74-7.79Z"/>
    <path class="st4" d="M81.33,108.98c.15-.32.23-.67.23-1.05,0-.88-.5-1.66-1.2-2.07-.32-.18-.67-.29-1.05-.29l-23.59.06,3.82,6.6,6.21,10.71,7.61-.06,7.96-13.89Z"/>
    <path class="st0" d="M57.56,143.39c.2.29.47.53.79.73.76.44,1.66.41,2.39,0,.32-.18.58-.44.79-.76l11.81-20.43h-7.61l-12.39-.03-3.79,6.6,8.02,13.89Z"/>
  </g>
</svg>