<?xml version="1.0" encoding="UTF-8"?>
<svg id="Camada_1" xmlns="http://www.w3.org/2000/svg" version="1.1" viewBox="0 0 250 250">
  <!-- Generator: Adobe Illustrator 29.5.1, SVG Export Plug-In . SVG Version: 2.1.0 Build 141)  -->
  <defs>
    <style>
      .st0 {
        fill: #33820d;
      }

      .st1 {
        fill: #fff;
      }
    </style>
  </defs>
  <rect class="st0" width="250" height="250"/>
  <g>
    <path class="st1" d="M63.55,116.9c-.01,1.76-.47,2.65-1.04,2.72-.37.04-.8-.26-1.19-.9-1.28-2.09-2.68-4.09-4.16-6.04,0,0,0,0,0-.01.58-3.09,1.5-6.24,3.08-8.98,1.97,3.96,3.34,8.81,3.31,13.22ZM56.15,116.8c1.39,1.25,1.78,2.24,1.46,2.78-.2.36-.71.52-1.46.44-2.5-.29-4.99-.41-7.52-.43,0,0,0,0,0-.01-2.38-2.83-4.54-6.01-5.92-9.45,4.72,1.12,9.83,3.44,13.44,6.67M51.38,123.25c1.86-.39,2.88-.07,3.11.54.15.4-.04.94-.56,1.52-1.74,1.9-3.34,3.89-4.88,5.97h-.01c-3.76.28-7.67.12-11.33-.79,3.74-3.3,8.8-6.21,13.68-7.24M53.52,131.2c.82-1.73,1.69-2.38,2.28-2.2.39.12.68.59.79,1.36.34,2.41.82,4.77,1.41,7.13,0,0,0,0,0,.01-2.04,2.89-4.24,5.68-6.99,7.94-.33-4.68.53-10.02,2.51-14.24ZM60.57,134.04c-.72-1.58-.67-2.66-.18-3.03.32-.24.84-.2,1.44.16,1.83,1.08,3.71,2.08,5.68,2.88,0,0,0,0,0,.01.71,2.96,1.12,6.06.94,9.11-3.29-2.15-6.27-5.6-7.88-9.13ZM66.79,130.14c-1.5-.33-2.22-1-2.18-1.61.03-.4.38-.79,1-1.06,1.89-.84,3.76-1.76,5.51-2.86,0,0,0,0,0,0,2.33,1.18,4.56,2.69,6.36,4.59-3.27,1.27-7.32,1.68-10.7.93ZM68.02,122.78c-1.19,1.04-2.11,1.21-2.51.79-.26-.28-.32-.81-.12-1.5.63-2.19,1.12-4.4,1.53-6.65,0,0,0,0,.01,0,2.4-1.12,4.81-2.15,7.47-2.42-1.26,3.58-3.54,7.3-6.39,9.79"/>
    <path class="st1" d="M60.24,103.68c-1.58,2.74-2.5,5.89-3.07,8.98,0,0,0,0,0,.01-.4-.51-.92-1.13-1.38-1.69-1.72-2.14-3.63-4.14-5.55-6.1,3.16-1.27,6.63-1.68,10.01-1.19ZM37.5,120.44c2.95-.36,5.91-.69,8.84-.79.76-.03,1.62-.06,2.3-.06,0,0,0,0,0-.01-2.38-2.83-4.54-6.01-5.92-9.45-2.63,2.9-4.42,6.49-5.21,10.31M43.31,140.54c1.39-2.52,2.85-5.01,4.44-7.37.42-.62.9-1.34,1.3-1.9h-.01c-3.76.28-7.66.12-11.33-.79.94,3.77,2.86,7.28,5.6,10.05ZM61,146.22c-.89-2.24-1.75-4.5-2.43-6.78-.19-.63-.41-1.37-.57-1.96,0,0,0,0,0,.01-2.04,2.89-4.24,5.68-6.99,7.94,3.32.97,6.55,1.43,9.99.78ZM74.78,136.42c-1.92-.48-3.83-1.03-5.66-1.75-.52-.21-1.13-.42-1.61-.63,0,0,0,0,0,.01.71,2.96,1.12,6.06.94,9.11,2.58-1.74,4.75-4.06,6.33-6.73M77.35,120.13c-1.54,1.26-3.12,2.48-4.79,3.55-.47.3-1,.66-1.44.93,0,0,0,0,0,0,2.33,1.18,4.56,2.69,6.36,4.59.43-3.15.39-5.94-.14-9.07ZM67.84,106.47c-.14,2.36-.31,4.72-.63,7.03-.09.62-.19,1.35-.28,1.93,0,0,0,0,.01,0,2.4-1.12,4.81-2.15,7.47-2.42-1.67-2.63-3.91-4.88-6.56-6.53"/>
    <path class="st1" d="M202.08,110.27l-4.09,28.77h-5.2v-3.22c-2.58,2.46-5.25,3.7-7.96,3.7-1.9,0-3.31-.55-4.3-1.68-1.53-1.74-1.98-4.81-1.37-9.4,1.2-8.59,4.41-10.32,9.21-10.32,1.9,0,4.07.17,6.01.46l1.18-8.32h6.52ZM190.87,122.87c-3.62,0-4.39.46-5.11,5.73-.37,2.7-.47,4.39.06,5,.22.25.6.36,1.17.34,1.98-.04,3.55-1.08,5.58-2.87l1.15-8.2h-2.85,0ZM132.13,118.13c-3.69,0-6.21.76-7.95,2.4-1.71,1.62-2.72,4.1-3.28,8.03-.56,3.91-.08,6.66,1.45,8.43,1.48,1.7,3.99,2.53,7.68,2.53,1.81,0,4.47-.16,6.87-.95l.17-.05.68-4.81-.43.07c-1.67.24-3.77.36-6.24.36-1.71,0-2.56-.21-3.04-.75-.59-.66-.7-1.96-.38-4.47.57-4.66,2.02-5.41,5.27-5.41,1.32,0,6.24.08,6.24.08l.64-4.56s-2.76-.91-7.68-.91M176.37,120.4c.99,1.14,1.32,2.74,1.02,4.88-.63,4.33-3.68,5.41-8.39,5.74l-5.6.42c.15,2.35,1.38,2.79,3.69,2.79,1.99,0,6.79-.23,7.57-.43l.32-.08.04.32c.19,1.7.76,3.58.77,3.6l.07.24-.24.1c-2.55,1.07-6.56,1.55-9.21,1.55-3.76,0-6.35-.85-7.91-2.6-1.59-1.78-2.14-4.57-1.67-8.51.93-7.69,3.91-10.28,11.79-10.28,3.9,0,6.43.74,7.75,2.26M168.07,126.97c1.9-.15,2.78-.52,3-2.32.05-.63-.01-1.01-.21-1.23-.3-.32-1-.39-2.03-.39-.19,0-.4,0-.61,0-3.05,0-3.81,1.04-4.41,4.33l4.26-.4h0ZM157.55,118.7h-1.26c-2.39,0-4.73,1.18-7.74,3.92v-3.92h-5.16l-2.86,20.35h6.53l1.58-11.7c.82-1.05,3.11-2.28,4.81-2.28h1.39l.05-.22s.59-2.64,2.4-5.72l.25-.43h0ZM89,117.78c-.55,4.2.93,6.68,4.92,8.3l5.28,2.09c1.68.61,2.05.92,1.83,2.58-.33,2.13-1.16,2.7-4.85,2.7h-8.97l-.8,5.59h10.03c7.81,0,10.43-1.84,11.23-7.86.49-3.8-.17-6.53-4.97-8.38l-4.99-1.89c-1.93-.72-2.29-1.01-2.03-2.7.3-1.88.99-2.29,2.44-2.39h10.7l.8-5.59h-9.55c-6.5,0-10.19,1.2-11.06,7.54M109.67,139.05h6.49l2.86-20.35h-6.49l-2.86,20.35ZM119.41,115.82l.78-5.59h-6.49l-.78,5.59h6.49ZM201.97,139.05h6.49l2.86-20.35h-6.49l-2.86,20.35ZM211.72,115.82l.78-5.59h-6.49l-.78,5.59h6.49Z"/>
  </g>
</svg>