<?xml version="1.0" encoding="UTF-8"?>
<svg id="Camada_1" xmlns="http://www.w3.org/2000/svg" version="1.1" xmlns:xlink="http://www.w3.org/1999/xlink" viewBox="0 0 250 250">
  <!-- Generator: Adobe Illustrator 29.5.1, SVG Export Plug-In . SVG Version: 2.1.0 Build 141)  -->
  <defs>
    <style>
      .st0 {
        fill: #0a0b0a;
      }

      .st1 {
        fill: url(#Gradiente_sem_nome_6);
      }

      .st2 {
        fill: #fafafa;
      }
    </style>
    <linearGradient id="Gradiente_sem_nome_6" data-name="Gradiente sem nome 6" x1="84.61" y1="106.07" x2="84.61" y2="141.13" gradientTransform="translate(0 252) scale(1 -1)" gradientUnits="userSpaceOnUse">
      <stop offset="0" stop-color="#00b569"/>
      <stop offset="1" stop-color="#bfff00"/>
    </linearGradient>
  </defs>
  <rect class="st0" width="250" height="250"/>
  <g>
    <path class="st1" d="M100.56,121.18h-31.9c-.36.79-.66,1.62-.9,2.46h33.69c-.24-.85-.54-1.67-.89-2.46ZM84.61,145.87c4.31,0,8.25-1.56,11.3-4.15h-22.61c3.05,2.58,6.99,4.15,11.3,4.15ZM97.03,116.05h-24.83c-.63.63-1.21,1.31-1.73,2.04h28.3c-.53-.72-1.1-1.4-1.73-2.04ZM85.69,110.91c-.36-.02-.71-.04-1.08-.04s-.72.01-1.08.04c-2.25.14-4.39.7-6.33,1.61h14.81c-1.94-.91-4.08-1.47-6.33-1.61ZM101.99,126.32h-34.75c-.08.67-.12,1.36-.12,2.06,0,.28,0,.56.02.84h34.95c.01-.28.02-.56.02-.84,0-.7-.05-1.38-.12-2.06ZM71.85,140.34h25.52c1.05-1.12,1.96-2.38,2.69-3.75h-30.9c.73,1.37,1.64,2.63,2.69,3.75ZM68.33,134.78h32.57c.42-1.06.73-2.17.94-3.32h-34.44c.2,1.15.52,2.26.94,3.32Z"/>
    <path class="st2" d="M50.81,143.09c-4.25,0-7.52-.77-9.81-2.32-2.29-1.54-3.46-3.62-3.5-6.23h4.38c.04,1.35.74,2.56,2.09,3.62,1.35,1.06,3.64,1.59,6.85,1.59,2.96,0,5.18-.51,6.66-1.54,1.48-1.02,2.22-2.27,2.22-3.72,0-2.61-2.4-4.13-7.19-4.58l-3.75-.31c-3.04-.28-5.48-1.04-7.31-2.29s-2.75-3-2.75-5.26c0-2.43,1.1-4.39,3.31-5.89,2.21-1.49,5.15-2.24,8.81-2.24s6.43.7,8.66,2.08c2.23,1.39,3.37,3.37,3.41,5.94h-4.38c-.04-1.32-.71-2.43-2-3.33-1.29-.9-3.19-1.35-5.69-1.35s-4.51.48-5.78,1.43c-1.27.96-1.91,2.09-1.91,3.41,0,1.15.48,2.09,1.44,2.84.96.75,2.46,1.21,4.5,1.38l3.75.31c3.33.31,6.05,1.11,8.16,2.4,2.1,1.28,3.16,3.13,3.16,5.52,0,1.63-.55,3.1-1.66,4.4-1.1,1.3-2.66,2.32-4.66,3.05-2,.73-4.33,1.09-7,1.09Z"/>
    <path class="st2" d="M105.27,104.28h4.5v38.03h-4.5v-38.03Z"/>
    <path class="st2" d="M115.57,112.62c0-2.92.91-5.06,2.72-6.43,1.81-1.37,4.49-2.06,8.03-2.06h4.19v3.33h-5.06c-1.75,0-3.09.38-4,1.15-.92.76-1.37,1.84-1.37,3.23v2.6h8.48v3.61h-8.48v24.26h-4.5v-29.7Z"/>
    <path class="st2" d="M140.01,143.04c-6.45,0-10.61-3.61-10.61-8.86,0-2.78,1.13-4.91,3.41-6.41,2.27-1.49,5.47-2.24,9.59-2.24h9.25v-1.13c0-2.05-.65-3.62-1.94-4.71-1.29-1.09-3.29-1.64-6-1.64h-9.75v-3.61h8.06c5.94,0,8.66.79,10.85,2.37,2.19,1.58,3.28,4.18,3.28,7.79v17.71h-4.5v-7.23c-1.71,4.65-7.17,7.96-11.64,7.96ZM140.19,139.19c10.09,0,11.45-9.81,11.45-10.41v-.22l-8.84-.05c-6.59,0-8.85,2.56-8.85,5.73,0,3.62,3.74,4.95,6.24,4.95Z"/>
    <path class="st2" d="M161.21,128.45v-.36c0-1.74.34-3.46,1.03-5.16.69-1.7,1.72-3.25,3.09-4.64,1.38-1.39,3.09-2.5,5.16-3.33,2.06-.83,4.49-1.25,7.28-1.25s5.18.43,7.41,1.28c2.23.85,4.03,2.05,5.41,3.59,1.37,1.54,2.17,3.36,2.37,5.44h-4.5c-.25-1.88-1.34-3.48-3.28-4.82-1.94-1.34-4.41-2.01-7.41-2.01-2.67,0-4.88.51-6.63,1.54-1.75,1.02-3.06,2.39-3.94,4.09-.87,1.7-1.31,3.58-1.31,5.63s.44,3.93,1.31,5.63c.88,1.7,2.19,3.07,3.94,4.09,1.75,1.02,3.96,1.54,6.63,1.54,3,0,5.47-.67,7.41-2.01,1.94-1.34,3.03-2.94,3.28-4.82h4.5c-.21,2.08-1,3.9-2.37,5.44-1.38,1.55-3.18,2.74-5.41,3.6-2.23.85-4.7,1.28-7.41,1.28s-5.22-.42-7.28-1.25c-2.06-.83-3.78-1.94-5.16-3.33-1.37-1.39-2.41-2.93-3.09-4.64-.69-1.7-1.03-3.42-1.03-5.16v-.37Z"/>
    <path class="st2" d="M197.8,142.31v-27.56h4.5v27.56h-4.5Z"/>
    <path class="st2" d="M197.8,110.43v-6.15h4.5v6.15h-4.5Z"/>
    <path class="st2" d="M137.31,108.05l14.33-3.76v3.28l-14.33,3.76v-3.28Z"/>
    <path class="st2" d="M208,104.28h4.5v38.03h-4.5v-38.03Z"/>
  </g>
</svg>