<?xml version="1.0" encoding="UTF-8"?>
<svg id="Camada_1" xmlns="http://www.w3.org/2000/svg" version="1.1" viewBox="0 0 250 250">
  <!-- Generator: Adobe Illustrator 29.5.1, SVG Export Plug-In . SVG Version: 2.1.0 Build 141)  -->
  <defs>
    <style>
      .st0 {
        fill: #fff;
      }

      .st1 {
        fill: #5f5e5e;
      }

      .st2 {
        fill: #ef7b10;
      }
    </style>
  </defs>
  <rect class="st0" width="250" height="250"/>
  <g>
    <path class="st2" d="M121.67,141.78c-5.31,0-9.23-1.46-12.34-4.59l2.22-2.33c2.41,2.66,5.63,3.93,10,3.93,5.94,0,9.17-2.2,9.17-6.52,0-3.33-1.83-5-5.82-5.4l-5.06-.47c-6.14-.53-9.17-3.39-9.17-8.39,0-5.53,4.3-9.12,10.94-9.12,4.18,0,8.04,1.27,10.69,3.4l-2.15,2.26c-2.34-1.8-5.19-2.73-8.54-2.73-5,0-7.78,2.26-7.78,6.19,0,3.33,1.9,5,6.2,5.39l4.94.47c5.06.47,8.92,2.13,8.92,8.4,0,5.86-4.74,9.51-12.21,9.51"/>
    <path class="st2" d="M174.18,141.38c-4.94,0-7.34-3.33-7.34-8.32v-34.28h3.23v34.22c0,3.59,1.07,5.39,4.69,5.39h2.21v3h-2.79Z"/>
    <path class="st2" d="M182.99,103.37c-1.33,0-2.41-1.13-2.41-2.46s1.08-2.53,2.34-2.53,2.4,1.14,2.4,2.47c0,1.4-1.08,2.53-2.34,2.53M181.34,109.29h3.23v32.09h-3.23v-32.09Z"/>
    <path class="st2" d="M200.28,141.78c-5.32,0-9.26-1.46-12.36-4.59l2.21-2.33c2.41,2.66,5.64,3.93,10.02,3.93,5.96,0,9.18-2.2,9.18-6.52,0-3.33-1.84-5-5.82-5.4l-5.07-.47c-6.15-.53-9.19-3.39-9.19-8.39,0-5.53,4.31-9.12,10.96-9.12,4.18,0,8.05,1.27,10.7,3.4l-2.15,2.26c-2.34-1.8-5.2-2.73-8.55-2.73-5.01,0-7.8,2.26-7.8,6.19,0,3.33,1.9,5,6.21,5.39l4.94.47c5.07.47,8.92,2.13,8.92,8.4,0,5.86-4.74,9.51-12.22,9.51"/>
    <path class="st2" d="M158.56,138.25c-2.27,2.27-5.33,3.53-8.93,3.53s-6.66-1.26-8.92-3.53c-3.4-3.4-4-8.33-4-12.92s.6-9.53,4-12.93c2.26-2.26,5.33-3.53,8.92-3.53s6.66,1.26,8.93,3.53c3.39,3.4,3.99,8.33,3.99,12.93s-.6,9.52-3.99,12.92M156.29,114.6c-1.73-1.74-4.06-2.73-6.66-2.73s-4.92,1-6.66,2.73c-2.66,2.66-2.86,7-2.86,10.73s.2,8.06,2.86,10.72c1.74,1.73,4.06,2.73,6.66,2.73s4.94-1,6.66-2.73c2.67-2.66,2.86-7,2.86-10.72s-.2-8.06-2.86-10.73"/>
    <path class="st1" d="M61.64,109.91c-3.23,0-6.62-2.81-9.21-4.95-.94-.77-2.19-1.81-2.75-2.06-.47.17-1.02.04-1.36-.36-.44-.52-.37-1.3.15-1.74,1.39-1.16,3.04.2,5.53,2.26,2.59,2.14,6.12,5.07,8.5,4.24.64-.22,1.34.12,1.56.76.22.64-.12,1.34-.76,1.56-.54.19-1.1.28-1.67.28"/>
    <path class="st1" d="M38.75,121.2c-.07,0-.14,0-.22-.02-.67-.12-1.12-.76-1-1.43.32-1.78,2.45-1.8,5.7-1.82,3.35-.02,7.95-.06,9.23-2.21.35-.58,1.11-.77,1.69-.42.58.35.77,1.11.42,1.69-2,3.34-7.39,3.38-11.33,3.41-1.22.01-2.85.02-3.43.19-.22.38-.62.61-1.07.61"/>
    <path class="st1" d="M42.4,141.92c-.42,0-.84-.22-1.07-.61-.9-1.57.73-2.96,3.19-5.06,2.55-2.17,6.05-5.15,5.65-7.63-.1-.67.35-1.3,1.02-1.41.67-.11,1.3.35,1.41,1.02.61,3.85-3.49,7.34-6.49,9.89-.92.79-2.17,1.85-2.51,2.35.09.5-.13,1.01-.6,1.28-.19.11-.41.16-.61.16"/>
    <path class="st1" d="M58.51,155.44c-.14,0-.28-.03-.42-.07-1.7-.62-1.34-2.73-.8-5.92.56-3.31,1.32-7.83-.58-9.48-.51-.45-.57-1.22-.12-1.74.44-.51,1.22-.57,1.74-.13,2.95,2.56,2.04,7.87,1.39,11.75-.2,1.2-.47,2.81-.41,3.42.38.32.54.86.36,1.36s-.65.81-1.15.81"/>
    <path class="st1" d="M79.33,155.48c-1.36,0-2.36-1.71-3.79-4.14-1.69-2.89-4.02-6.85-6.53-6.89-.68,0-1.22-.57-1.21-1.25s.56-1.21,1.25-1.21c3.9.06,6.62,4.71,8.62,8.11.62,1.05,1.45,2.45,1.88,2.88.5,0,.97.31,1.15.81.23.64-.1,1.34-.74,1.58-.22.08-.43.12-.64.12"/>
    <path class="st1" d="M95.03,142.21c-1.06,0-2.49-.51-4.28-1.14-3.16-1.12-7.48-2.66-9.44-1.08-.53.43-1.3.35-1.73-.18s-.35-1.3.18-1.73c3.03-2.45,8.11-.65,11.81.67,1.15.41,2.69.96,3.3,1,.38-.32.95-.39,1.4-.12.59.34.79,1.09.45,1.68-.38.65-.94.91-1.7.91"/>
    <path class="st1" d="M86.67,129.65c-.08,0-.16,0-.23-.02-.67-.13-1.1-.77-.98-1.44.74-3.83,5.79-5.71,9.48-7.08,1.14-.42,2.67-.99,3.16-1.35.09-.5.48-.91,1-1,.67-.12,1.31.33,1.43,1,.31,1.78-1.69,2.53-4.73,3.66-3.14,1.17-7.45,2.77-7.92,5.24-.11.59-.63,1-1.21,1"/>
    <path class="st1" d="M84.55,117.58c-.43,0-.85-.23-1.08-.63-1.89-3.4.77-8.09,2.71-11.51.6-1.06,1.4-2.48,1.55-3.07-.25-.44-.22-1,.13-1.4.44-.52,1.21-.59,1.73-.15,1.39,1.16.33,3.02-1.27,5.84-1.65,2.91-3.92,6.91-2.7,9.1.33.6.12,1.34-.48,1.67-.19.11-.39.16-.6.16"/>
    <path class="st1" d="M75.16,109.71c-.15,0-.29-.03-.44-.08-3.64-1.39-4.62-6.69-5.33-10.57-.22-1.2-.51-2.8-.78-3.35-.47-.18-.81-.63-.81-1.16,0-.68.55-1.23,1.23-1.23,1.81,0,2.2,2.1,2.78,5.29.61,3.3,1.44,7.81,3.78,8.71.63.24.95.95.71,1.59-.19.49-.66.79-1.15.79"/>
    <path class="st2" d="M53.52,117.58c-.2,0-.41-.05-.6-.16-.6-.33-.81-1.08-.48-1.67,1.23-2.2-1.04-6.19-2.7-9.11-1.6-2.82-2.66-4.68-1.27-5.84.52-.44,1.3-.37,1.73.15.34.41.38.97.13,1.4.15.59.95,2.01,1.55,3.07,1.94,3.42,4.61,8.11,2.71,11.52-.22.41-.64.63-1.08.63"/>
    <path class="st2" d="M51.39,129.65c-.58,0-1.09-.41-1.21-1-.48-2.47-4.78-4.07-7.92-5.24-3.04-1.13-5.04-1.87-4.73-3.66.12-.67.76-1.12,1.43-1,.52.09.91.5,1,.99.49.36,2.02.93,3.16,1.36,3.69,1.37,8.75,3.25,9.48,7.08.13.67-.31,1.31-.98,1.44-.08.02-.16.02-.23.02"/>
    <path class="st2" d="M43.03,142.21c-.76,0-1.32-.26-1.7-.91-.34-.59-.14-1.34.45-1.68.46-.27,1.02-.2,1.41.12.61-.04,2.14-.58,3.29-.99,3.71-1.32,8.79-3.13,11.82-.67.53.43.61,1.2.18,1.73s-1.2.61-1.73.18c-1.95-1.58-6.28-.04-9.44,1.08-1.78.63-3.21,1.14-4.28,1.14"/>
    <path class="st2" d="M58.73,155.48c-.2,0-.42-.04-.64-.12-.64-.23-.96-.94-.73-1.58.18-.5.65-.81,1.15-.81.44-.42,1.26-1.83,1.88-2.88,1.99-3.39,4.72-8.05,8.62-8.11.66,0,1.24.53,1.25,1.21.01.68-.53,1.24-1.21,1.25-2.51.04-4.84,4-6.54,6.89-1.43,2.42-2.43,4.14-3.78,4.14"/>
    <path class="st2" d="M79.55,155.44c-.5,0-.98-.31-1.15-.81-.18-.5-.02-1.04.36-1.36.07-.61-.2-2.21-.41-3.42-.65-3.88-1.55-9.2,1.39-11.75.51-.44,1.29-.39,1.74.12s.39,1.29-.12,1.74c-1.9,1.65-1.14,6.18-.58,9.48.54,3.2.9,5.3-.8,5.92-.14.05-.28.07-.42.07"/>
    <path class="st2" d="M95.67,141.92c-.21,0-.42-.05-.61-.16-.46-.27-.68-.79-.6-1.28-.34-.5-1.58-1.56-2.51-2.35-3-2.55-7.1-6.05-6.49-9.89.11-.67.73-1.13,1.41-1.02.67.11,1.13.74,1.02,1.41-.39,2.48,3.1,5.46,5.65,7.63,2.47,2.1,4.09,3.49,3.19,5.06-.23.39-.64.61-1.07.61"/>
    <path class="st2" d="M99.32,121.2c-.44,0-.85-.24-1.07-.61-.58-.17-2.21-.18-3.43-.19-3.94-.03-9.33-.07-11.33-3.41-.35-.58-.16-1.34.42-1.69.58-.35,1.34-.16,1.69.42,1.29,2.16,5.88,2.19,9.23,2.21,3.24.03,5.38.04,5.7,1.82.12.67-.33,1.31-1,1.43-.07.01-.15.02-.22.02"/>
    <path class="st2" d="M76.42,109.91c-.56,0-1.12-.09-1.67-.28-.64-.22-.98-.92-.76-1.56s.92-.98,1.56-.76c2.37.82,5.92-2.1,8.5-4.24,2.5-2.06,4.14-3.43,5.53-2.26.52.44.59,1.21.15,1.73-.34.41-.89.54-1.36.37-.56.25-1.81,1.29-2.75,2.06-2.59,2.14-5.98,4.95-9.21,4.95"/>
    <path class="st2" d="M62.91,109.71c-.5,0-.96-.3-1.15-.79-.24-.63.07-1.34.71-1.59,2.35-.9,3.18-5.42,3.78-8.71.58-3.18.97-5.29,2.78-5.29.68,0,1.23.55,1.23,1.23,0,.53-.34.98-.81,1.16-.27.54-.56,2.15-.78,3.35-.71,3.87-1.69,9.18-5.33,10.57-.15.06-.29.08-.44.08"/>
    <path class="st2" d="M69.03,156.68h0c-1.3,0-1.65-1.9-2.18-4.78-.63-3.44-1.5-8.15-4.17-9.18-.31-.11-.67-.17-1.05-.17-2.55,0-5.58,2.51-8.02,4.52-1.95,1.62-3.1,2.53-4.01,2.53-.28,0-.54-.09-.74-.26-.99-.83-.04-2.51,1.41-5.07,1.73-3.04,4.09-7.21,2.7-9.71-1.46-2.44-6.25-2.47-9.75-2.5-2.93-.02-4.86-.03-5.09-1.31s1.59-1.95,4.34-2.98c3.28-1.22,7.77-2.89,8.31-5.7.45-2.81-3.2-5.91-5.87-8.18-2.23-1.9-3.7-3.15-3.05-4.28.16-.27.5-.59,1.23-.59.91,0,2.28.48,4,1.1,2.24.8,5.02,1.79,7.28,1.79,1.18,0,2.08-.26,2.76-.81,2.15-1.86,1.35-6.59.76-10.03-.49-2.89-.81-4.8.41-5.24.12-.04.25-.07.37-.07,1.07,0,1.96,1.52,3.31,3.82,1.77,3.02,4.2,7.15,7.06,7.2,2.84-.04,5.27-4.18,7.04-7.2,1.35-2.3,2.24-3.82,3.31-3.82.13,0,.25.02.37.07,1.22.44.9,2.35.41,5.24-.58,3.45-1.38,8.17.78,10.05.66.53,1.56.8,2.74.8,2.25,0,5.04-.99,7.27-1.79,1.73-.61,3.09-1.1,4.01-1.1.73,0,1.07.32,1.23.59.65,1.12-.83,2.38-3.06,4.28-2.67,2.27-6.31,5.37-5.86,8.19.54,2.79,5.03,4.46,8.31,5.68,2.75,1.02,4.56,1.7,4.34,2.98s-2.16,1.29-5.09,1.31c-3.5.03-8.29.06-9.76,2.51-1.38,2.48.99,6.65,2.71,9.69,1.45,2.55,2.4,4.23,1.41,5.07-.2.17-.46.26-.74.26-.91,0-2.06-.91-4-2.53-2.44-2.01-5.47-4.52-8.02-4.52-.38,0-.74.06-1.08.18-2.65,1.02-3.52,5.73-4.15,9.17-.53,2.88-.88,4.78-2.18,4.78M61.63,141.32c.52,0,1.01.08,1.48.24,3.33,1.27,4.27,6.38,4.96,10.11.26,1.41.61,3.32.96,3.74.36-.42.71-2.32.96-3.74.69-3.73,1.63-8.84,4.94-10.1.48-.17.98-.25,1.5-.25,2.99,0,6.21,2.66,8.8,4.81,1.15.95,2.57,2.13,3.14,2.23,0-.55-.95-2.23-1.66-3.48-1.87-3.3-4.44-7.81-2.71-10.91,1.83-3.07,7.03-3.1,10.81-3.13,1.44,0,3.37-.03,3.85-.31-.35-.42-2.16-1.1-3.51-1.6-3.55-1.32-8.42-3.13-9.09-6.62-.56-3.53,3.39-6.89,6.27-9.35,1.09-.93,2.56-2.18,2.75-2.7h-.12c-.7,0-2.11.5-3.6,1.03-2.32.83-5.22,1.86-7.68,1.86-1.46,0-2.64-.37-3.53-1.08-2.7-2.34-1.83-7.46-1.2-11.19.24-1.42.56-3.33.37-3.84-.48.27-1.46,1.94-2.18,3.18-1.92,3.27-4.54,7.75-8.1,7.81-3.57-.06-6.2-4.54-8.12-7.81-.73-1.24-1.71-2.91-2.18-3.18-.19.52.13,2.42.37,3.84.63,3.74,1.5,8.86-1.19,11.18-.9.73-2.09,1.1-3.55,1.1-2.47,0-5.36-1.03-7.69-1.86-1.49-.53-2.89-1.03-3.59-1.03h-.12c.19.52,1.66,1.77,2.75,2.69,2.88,2.46,6.84,5.83,6.28,9.33-.67,3.51-5.54,5.32-9.09,6.64-1.34.5-3.16,1.18-3.51,1.6.48.28,2.41.29,3.84.3,3.79.03,8.98.06,10.81,3.11,1.74,3.12-.83,7.63-2.7,10.93-.7,1.24-1.66,2.92-1.66,3.48.58-.12,1.99-1.28,3.14-2.23,2.59-2.14,5.81-4.81,8.8-4.81"/>
  </g>
</svg>