<?xml version="1.0" encoding="UTF-8"?>
<svg id="Camada_1" xmlns="http://www.w3.org/2000/svg" version="1.1" viewBox="0 0 250 250">
  <!-- Generator: Adobe Illustrator 29.5.1, SVG Export Plug-In . SVG Version: 2.1.0 Build 141)  -->
  <defs>
    <style>
      .st0 {
        fill: #fff;
      }

      .st1 {
        fill: #ee7203;
      }
    </style>
  </defs>
  <rect class="st0" width="250" height="250"/>
  <g>
    <path class="st1" d="M175.38,115.08c-1.59,0-9.52-.13-10.52,2.16v9.98c.88-.26,1.71-.65,2.46-1.14.51-.33.82-.9.82-1.5v-5.96s0-.66,7.24-.66,7.24.66,7.24.66h0v3.64c.88-.26,1.71-.65,2.46-1.14.51-.33.82-.9.82-1.5v-2.38c-1.01-2.3-8.93-2.16-10.52-2.16M183.44,123.91c.75-.49,1.58-.87,2.46-1.14v9.98c-1.01,2.3-8.93,2.16-10.52,2.16s-9.52.13-10.52-2.16v-2.38c0-.61.31-1.17.82-1.5.75-.49,1.58-.88,2.46-1.14v3.64s.12.65,7.24.65,7.24-.65,7.24-.65v-5.96c0-.61.31-1.17.82-1.5"/>
    <path class="st1" d="M81.36,131.38s0,.65-7.1.65-7.1-.65-7.1-.65v-16.02h-3.28v17.39c1.01,2.29,8.78,2.16,10.38,2.16s9.37.13,10.38-2.16v-17.39h-3.28v16.02Z"/>
    <path class="st1" d="M209.4,115.36v15.1l-7.78-7.78-7.78,7.78v-15.1h-3.1v19.28h2.18c.53,0,1.03-.21,1.4-.58l7.31-7.31,7.31,7.31c.37.37.88.58,1.4.58h2.18v-19.28h-3.12Z"/>
    <path class="st1" d="M134.82,123.26h-8.69c-.61,0-1.18.31-1.5.82-.44.69-.79,1.44-1.03,2.24h8.98s.35.02.35,2.63c0,2.27-.35,2.27-.35,2.27h-14.22s-.6.02-.6-6.22.6-6.22.6-6.22h14.61c.66,0,1.29-.33,1.65-.89.5-.78.9-1.63,1.16-2.53h-19.15c-2.1.92-1.98,8.18-1.98,9.64s-.12,8.72,1.98,9.64h18.19c1.24-.54,1.17-4.83,1.17-5.69s.07-5.15-1.17-5.69"/>
    <path class="st1" d="M158.86,126.32c1.24-.54,1.17-4.62,1.17-5.48s.07-4.94-1.17-5.48h-18.27v3.42h16.02s.35,0,.35,2.07c0,2.42-.35,2.42-.35,2.42h-16.02v11.38h3.11v-8.32h5.2l7.73,7.74c.37.37.88.58,1.4.58h3.9l-8.32-8.32h5.25Z"/>
    <path class="st1" d="M55.21,123.26h-13.65c-.99,0-.99-.99-.99-.99v-2.5s0-.99.99-.99h14.68c.66,0,1.29-.33,1.65-.89.5-.78.9-1.63,1.17-2.53h-17.5c-4.06,0-4.06,3.53-4.06,3.53v3.9s0,3.53,4.06,3.53h13.65c.99,0,.99.99.99.99v2.92s0,.99-.99.99h-14.9c-.66,0-1.29.33-1.65.89-.5.78-.9,1.63-1.17,2.53h17.71c4.06,0,4.06-3.53,4.06-3.53v-4.32s0-3.53-4.06-3.53"/>
    <path class="st1" d="M107.23,130.21l-14.27-14.27c-.37-.37-.88-.58-1.4-.58h-2.1v19.28h3.28v-14.85l14.27,14.27c.37.37.88.58,1.4.58h2.1v-19.28h-3.28s0,14.85,0,14.85Z"/>
  </g>
</svg>