<?xml version="1.0" encoding="UTF-8"?>
<svg id="Camada_1" xmlns="http://www.w3.org/2000/svg" version="1.1" xmlns:xlink="http://www.w3.org/1999/xlink" viewBox="0 0 250 250">
  <!-- Generator: Adobe Illustrator 29.5.1, SVG Export Plug-In . SVG Version: 2.1.0 Build 141)  -->
  <defs>
    <style>
      .st0 {
        fill: url(#Gradiente_sem_nome_2);
      }

      .st1 {
        fill: #fff;
      }

      .st2 {
        fill: #007041;
      }

      .st3 {
        fill: #007d8a;
      }

      .st4 {
        fill: #165c7d;
      }

      .st5 {
        fill: #886b25;
      }

      .st6 {
        fill: url(#Gradiente_sem_nome_4);
      }

      .st7 {
        fill: url(#Gradiente_sem_nome_3);
      }
    </style>
    <linearGradient id="Gradiente_sem_nome_4" data-name="Gradiente sem nome 4" x1="48.65" y1="117.33" x2="79.02" y2="117.33" gradientTransform="translate(0 252) scale(1 -1)" gradientUnits="userSpaceOnUse">
      <stop offset="0" stop-color="#00a9ce"/>
      <stop offset=".41" stop-color="#00a7cb"/>
      <stop offset=".66" stop-color="#009fc3"/>
      <stop offset=".86" stop-color="#0091b5"/>
      <stop offset="1" stop-color="#0083a6"/>
    </linearGradient>
    <linearGradient id="Gradiente_sem_nome_2" data-name="Gradiente sem nome 2" x1="53.22" y1="138.72" x2="80.28" y2="138.72" gradientTransform="translate(0 252) scale(1 -1)" gradientUnits="userSpaceOnUse">
      <stop offset="0" stop-color="#ffa300"/>
      <stop offset=".35" stop-color="#fca200"/>
      <stop offset=".56" stop-color="#f49d00"/>
      <stop offset=".73" stop-color="#e69600"/>
      <stop offset=".89" stop-color="#d28b00"/>
      <stop offset="1" stop-color="#bd8000"/>
    </linearGradient>
    <linearGradient id="Gradiente_sem_nome_3" data-name="Gradiente sem nome 3" x1="37.47" y1="130.78" x2="53.21" y2="130.78" gradientTransform="translate(0 252) scale(1 -1)" gradientUnits="userSpaceOnUse">
      <stop offset="0" stop-color="#00b140"/>
      <stop offset=".39" stop-color="#00ae40"/>
      <stop offset=".62" stop-color="#01a63e"/>
      <stop offset=".82" stop-color="#02983b"/>
      <stop offset=".99" stop-color="#038437"/>
      <stop offset="1" stop-color="#038237"/>
    </linearGradient>
  </defs>
  <rect class="st1" width="250" height="250"/>
  <g>
    <path class="st4" d="M97.24,130.9c-.67,2.07-1.74,2.89-3.3,2.89s-2.61-.76-3.3-2.89l-6.13-18.71h4.63l4.85,16.5,4.88-16.5h4.46l-6.09,18.71Z"/>
    <path class="st4" d="M105.76,112.19h4.34v21.39h-4.34v-21.39Z"/>
    <path class="st4" d="M112.57,133.57l6.36-18.62c.72-2.09,1.87-2.98,3.51-2.98s2.8.95,3.49,2.98l6.25,18.62h-4.6l-1.63-5.3h-7.31l-1.59,5.3h-4.48ZM124.93,124.94l-2.66-8.65-2.61,8.65h5.28Z"/>
    <path class="st4" d="M148.48,133.15c-1.83.45-3.71.66-5.59.64-7.1,0-8.86-3.32-8.86-10.91s1.76-10.91,8.86-10.91c1.88-.02,3.76.2,5.59.65l-.39,3.35c-1.46-.24-2.93-.36-4.41-.37-5.14,0-5.23,3.08-5.23,7.28s.07,7.28,5.23,7.28c1.47,0,2.94-.12,4.4-.36l.4,3.36Z"/>
    <path class="st4" d="M155.89,133.57h-4.34v-21.02c2.3-.4,4.63-.6,6.96-.59,4.73,0,8.59.94,8.59,6.72,0,3.8-1.59,5.56-4.1,6.32l4.88,8.56h-5l-4.39-8.07c-.87,0-1.86-.04-2.61-.09v8.16ZM155.89,121.96c.88.09,1.76.12,2.64.11,2.71,0,4.28-.69,4.28-3.4,0-2.37-1.08-3.31-4.19-3.31-.91,0-1.81.07-2.71.18l-.02,6.42Z"/>
    <path class="st4" d="M184.06,115.66h-5.9c-2.56,0-3,.54-3,2.89v2.42h8.5v3.45h-8.5v2.77c0,2.36.44,2.91,3,2.91h5.9v3.36c-1.5.08-4.38.17-5.81.17-3.86,0-7.42-.21-7.42-5.22v-11.06c0-5.01,3.56-5.21,7.42-5.21,1.55,0,4.34.08,5.81.15v3.37Z"/>
    <path class="st4" d="M188.03,112.57c2.3-.41,4.63-.61,6.96-.61,8.02,0,9.44,3.64,9.44,10.91s-1.42,10.91-9.44,10.91c-2.33,0-4.66-.19-6.96-.59v-20.63ZM192.37,115.66v14.43c.67.1,1.35.16,2.03.16,5.64,0,5.68-3.19,5.68-7.37s-.05-7.36-5.68-7.36c-.68,0-1.36.05-2.03.15Z"/>
    <path class="st4" d="M208.16,112.19h4.34v21.39h-4.34v-21.39Z"/>
    <path class="st4" d="M89.83,148.31c-.64.14-1.3.21-1.96.21-2.67,0-3.33-1.3-3.33-4.25s.66-4.27,3.33-4.27c.66,0,1.32.07,1.96.21l-.11.9c-.5-.08-1.01-.13-1.52-.13-2.37,0-2.49,1.26-2.49,3.25s.14,3.25,2.49,3.25c.51,0,1.02-.05,1.52-.14l.1.96Z"/>
    <path class="st4" d="M91.07,144.27c0-3.02.72-4.25,3.22-4.25s3.21,1.23,3.21,4.25-.71,4.25-3.21,4.25-3.22-1.24-3.22-4.25ZM96.33,144.27c0-1.94-.07-3.29-2.04-3.29s-2.04,1.36-2.04,3.29.07,3.29,2.04,3.29,2.04-1.36,2.04-3.29Z"/>
    <path class="st4" d="M99.14,144.27c0-3.02.71-4.25,3.22-4.25s3.21,1.23,3.21,4.25-.71,4.25-3.21,4.25-3.22-1.24-3.22-4.25ZM104.4,144.27c0-1.94-.07-3.29-2.04-3.29s-2.04,1.36-2.04,3.29.07,3.29,2.04,3.29,2.04-1.36,2.04-3.29Z"/>
    <path class="st4" d="M108.56,148.44h-1.14v-8.21c.85-.14,1.7-.21,2.56-.21,1.78,0,3.23.36,3.23,2.55s-1.3,2.6-3.13,2.6c-.43,0-1.12,0-1.51-.05v3.31ZM108.56,144.18c.47.05.94.07,1.42.07,1.33,0,2.08-.34,2.08-1.68,0-1.16-.54-1.63-2.04-1.63-.49,0-.97.03-1.45.1v3.14Z"/>
    <path class="st4" d="M119.51,141.03h-2.13c-1.34,0-1.57.26-1.57,1.45v1.24h3.53v.93h-3.53v1.4c0,1.2.23,1.45,1.57,1.45h2.13v.9c-.63.03-1.49.05-2.09.05-1.43,0-2.75-.08-2.75-1.9v-4.57c0-1.83,1.32-1.9,2.75-1.9.54,0,1.45,0,2.09.05v.89Z"/>
    <path class="st4" d="M121.27,148.44v-8.21c.85-.14,1.7-.2,2.56-.21,1.77,0,3.25.34,3.25,2.52,0,1.58-.74,2.23-1.87,2.46l1.96,3.44h-1.36l-1.83-3.34h-.06c-.43,0-1.12-.03-1.51-.05v3.39h-1.15ZM122.41,144.1c.47.05.94.07,1.41.07,1.32,0,2.09-.33,2.09-1.63,0-1.15-.54-1.59-2.04-1.59-.49,0-.97.04-1.45.1v3.06Z"/>
    <path class="st4" d="M128.14,148.44l2.68-7.59c.04-.23.16-.43.33-.58.18-.15.4-.23.63-.23s.45.08.63.23c.18.15.29.35.33.58l2.64,7.59h-1.21l-.78-2.31h-3.29l-.77,2.31h-1.18ZM133.08,145.23l-1.35-4.02-1.34,4.02h2.69Z"/>
    <path class="st4" d="M141.52,141.04h-2.17v7.39h-1.16v-7.39h-2.17v-.94h5.5v.94Z"/>
    <path class="st4" d="M142.85,140.11h1.15v8.33h-1.15v-8.33Z"/>
    <path class="st4" d="M149.68,147.72c-.19.54-.47.8-.9.8s-.71-.23-.9-.8l-2.54-7.59h1.22l2.23,7.05,2.26-7.05h1.17l-2.54,7.59Z"/>
    <path class="st4" d="M152.9,148.44l2.68-7.59c.04-.23.16-.43.33-.58s.4-.23.63-.23.45.08.63.23c.18.15.29.35.33.58l2.64,7.59h-1.21l-.78-2.31h-3.29l-.77,2.31h-1.18ZM157.84,145.23l-1.35-4.02-1.34,4.02h2.69Z"/>
    <path class="st4" d="M164.11,148.44l2.68-7.59c.04-.23.16-.43.33-.58.18-.15.4-.23.63-.23s.45.08.63.23.29.35.33.58l2.64,7.59h-1.21l-.78-2.31h-3.3l-.77,2.31h-1.17ZM169.05,145.23l-1.37-4.02-1.34,4.02h2.71Z"/>
    <path class="st4" d="M172.71,140.11h1.15v8.33h-1.15v-8.33Z"/>
    <path class="st4" d="M180.58,148.41c-.63,0-1.39.04-1.95.04-1.42,0-2.75-.08-2.75-1.9v-6.45h1.16v5.97c0,1.19.22,1.45,1.56,1.45h1.98v.89Z"/>
    <path class="st4" d="M181.57,144.27c0-3.02.72-4.25,3.22-4.25s3.21,1.23,3.21,4.25-.71,4.25-3.21,4.25-3.22-1.24-3.22-4.25ZM186.83,144.27c0-1.94-.07-3.29-2.04-3.29s-2.04,1.36-2.04,3.29.06,3.29,2.04,3.29,2.04-1.36,2.04-3.29Z"/>
    <path class="st4" d="M190.59,142.13c0,1.05.54,1.2,1.77,1.55,1.41.4,2.27.95,2.27,2.45,0,1.75-1.09,2.39-2.96,2.39-.73,0-1.46-.07-2.17-.22l.11-.94c.68.1,1.36.16,2.04.17,1.09,0,1.81-.24,1.81-1.37,0-.99-.72-1.21-1.68-1.51-1.46-.44-2.32-.85-2.32-2.37,0-1.71,1.01-2.27,2.84-2.27.73,0,1.45.07,2.17.21l-.11.91c-.56-.09-1.12-.14-1.69-.15-.98,0-2.09.1-2.09,1.14Z"/>
    <path class="st4" d="M69.48,125.42l-4.13-10.13c-.41-.94-.71-1.63-1.33-1.63s-.93.72-1.3,1.63l-2.52,5.84-2.48-5.84c-.37-.89-.67-1.63-1.3-1.63s-.92.67-1.33,1.63l-4.13,10.13c-.15.31-.22.65-.19,1,.02.34.14.68.34.96.19.29.46.51.77.66.31.15.66.21,1,.18h1.82v2.3c0,.4.16.78.44,1.06.28.28.66.44,1.06.44h.54c.4,0,.78-.16,1.06-.44.28-.28.44-.66.44-1.06v-1.13s0-.08,0-.12v-1.08h4.01v1.08s0,.08,0,.12v1.13c0,.4.16.78.44,1.06.28.28.66.44,1.06.44h.54c.4,0,.78-.16,1.06-.44.28-.28.44-.66.44-1.06v-2.3h1.82c.34.03.69-.03,1-.18.31-.15.58-.38.77-.66.19-.29.31-.62.33-.96.02-.34-.04-.69-.2-1h-.04ZM58.47,127.11h-1.38v3.43c0,.1-.04.2-.11.27-.07.07-.17.11-.27.11h-.54c-.1,0-.2-.04-.27-.11s-.11-.17-.11-.27v-3.43h-2.92c-.16.03-.32.01-.48-.05-.15-.06-.28-.17-.37-.3-.09-.13-.14-.29-.15-.45,0-.16.04-.32.12-.46l4.12-10.1c.06-.12.18-.4.29-.64.08.16.17.37.28.63l2.91,6.84-1.11,2.86c-.11.27-.17.55-.18.84,0,.29.05.58.16.84ZM60.9,126.74c-.08.11-.18.2-.3.27-.12.06-.25.1-.39.1s-.27-.03-.39-.1c-.12-.06-.22-.16-.3-.27-.07-.14-.11-.29-.11-.45s.04-.31.11-.45l.68-1.75.71,1.76c.07.14.1.29.09.45,0,.16-.04.31-.12.44ZM68.42,126.74c-.1.12-.23.22-.38.28s-.31.09-.47.07h-2.93v3.43c0,.1-.04.2-.11.27-.07.07-.17.11-.27.11h-.54c-.1,0-.2-.04-.27-.11-.07-.07-.11-.17-.11-.27v-3.41h-1.36c.11-.27.17-.55.17-.84s-.06-.57-.17-.84l-1.15-2.86,2.95-6.84c.11-.26.2-.47.28-.63.12.23.24.51.29.63l4.1,10.1c.08.14.11.3.11.46s-.04.32-.11.46v-.02Z"/>
    <path class="st6" d="M71.68,133.14c-1.47,1.58-3.24,2.84-5.22,3.7-1.98.86-4.11,1.3-6.27,1.3-.48,0-.95,0-1.42-.07-3.34.89-6.87.74-10.13-.43,2.16,2.8,5.14,4.85,8.52,5.87,3.38,1.02,7,.96,10.34-.18,3.35-1.14,6.25-3.29,8.32-6.15,2.06-2.87,3.18-6.31,3.19-9.84,0-.75-.05-1.49-.15-2.23-1.46,3.39-3.99,6.21-7.19,8.03Z"/>
    <path class="st0" d="M62.85,106.99c2.45.42,4.76,1.41,6.75,2.9,1.99,1.49,3.6,3.42,4.7,5.65,2.52,2.61,4.14,5.95,4.61,9.55,1.46-3.42,1.76-7.23.84-10.84-.92-3.61-3-6.81-5.91-9.12-2.92-2.31-6.52-3.59-10.24-3.65s-7.36,1.1-10.35,3.31c.4,0,.8-.04,1.2-.04,2.95,0,5.84.77,8.4,2.24Z"/>
    <path class="st5" d="M75.9,122.46c0,3.97-1.5,7.78-4.21,10.68,3.22-1.83,5.76-4.65,7.22-8.05-.47-3.59-2.09-6.94-4.61-9.55,1.06,2.15,1.6,4.52,1.6,6.91Z"/>
    <path class="st7" d="M45.16,126.89c-.63-2.14-.79-4.38-.49-6.59.31-2.21,1.08-4.32,2.26-6.21.99-3.73,3.21-7.01,6.31-9.31-3.87.28-7.54,1.88-10.37,4.53-2.84,2.65-4.68,6.2-5.21,10.05-.53,3.85.27,7.76,2.28,11.09,2.01,3.33,5.1,5.86,8.75,7.18-2.28-2.95-3.51-6.58-3.51-10.3-.03-.16-.02-.3-.02-.44Z"/>
    <path class="st3" d="M58.79,138.07c-3.13-.28-6.1-1.5-8.53-3.49-2.43-1.99-4.21-4.67-5.1-7.68v.42c0,3.73,1.23,7.35,3.51,10.3,3.25,1.17,6.78,1.32,10.13.43v.02Z"/>
    <path class="st2" d="M46.93,114.1c1.66-2.62,4.05-4.7,6.88-5.96,2.83-1.26,5.98-1.66,9.03-1.15-2.56-1.48-5.47-2.25-8.43-2.25-.41,0-.8,0-1.2.04-3.09,2.3-5.31,5.58-6.29,9.31Z"/>
  </g>
</svg>